<?xml version="1.0" encoding="iso-8859-1"?>
<!DOCTYPE svg PUBLIC "-//W3C//DTD SVG 1.1//EN" "http://www.w3.org/Graphics/SVG/1.1/DTD/svg11.dtd">
<svg 
 version="1.1" xmlns="http://www.w3.org/2000/svg" xmlns:xlink="http://www.w3.org/1999/xlink" x="0px" y="0px" width="512px"
	 height="512px" viewBox="0 0 512 512" style="enable-background:new 0 0 512 512;" xml:space="preserve"
><g fill="#a7b6bf" id="afcae5a789ccd549f9c6e2a2f80fa471"><g></g><path style="display: inline;" d="M256,43.083c117.403,0,212.917,95.513,212.917,212.917c0,117.403-95.514,212.917-212.917,212.917
		c-117.404,0-212.917-95.514-212.917-212.917C43.083,138.596,138.596,43.083,256,43.083 M256,0.5C114.893,0.5,0.5,114.893,0.5,256
		c0,141.106,114.393,255.5,255.5,255.5c141.106,0,255.5-114.394,255.5-255.5C511.5,114.893,397.106,0.5,256,0.5L256,0.5z
		 M277.292,234.708V85.667h-42.583v149.042v42.584h42.583h85.166v-42.584H277.292z"></path></g></svg>