<?xml version="1.0" encoding="utf-8"?>
<!-- Generator: Adobe Illustrator 19.2.1, SVG Export Plug-In . SVG Version: 6.00 Build 0)  -->
<svg version="1.1" id="icon" xmlns="http://www.w3.org/2000/svg" xmlns:xlink="http://www.w3.org/1999/xlink" x="0px" y="0px"
	 viewBox="0 0 48 48" style="enable-background:new 0 0 48 48;" xml:space="preserve">
<style type="text/css">
	.st0{fill-rule:evenodd;clip-rule:evenodd;}
</style>
<g id="add_x5F_to_x5F_reports_1_">
	<g>
		<path d="M21,8v6c0,1.1,0.9,2,2,2h7L21,8z"/>
	</g>
	<g>
		<path d="M21,18c-1.1,0-2-0.9-2-2V8H6c-1.1,0-2,0.9-2,2v28c0,1.1,0.9,2,2,2h22c1.1,0,2-0.9,2-2V18H21z M6,12h11v2H6V12z M6,16h11v2
			H6V16z M23,26H6v-2h17V26z M28,22H6v-2h22V22z"/>
	</g>
	<polygon class="st0" points="37,8 40,8 40,13 45,13 45,16 40,16 40,21 37,21 37,16 32,16 32,13 37,13 	"/>
</g>
</svg>
