<?xml version="1.0" encoding="utf-8"?>
<!-- Generator: Adobe Illustrator 19.2.1, SVG Export Plug-In . SVG Version: 6.00 Build 0)  -->
<svg version="1.1" id="icon" xmlns="http://www.w3.org/2000/svg" xmlns:xlink="http://www.w3.org/1999/xlink" x="0px" y="0px"
	 viewBox="0 0 48 48" style="enable-background:new 0 0 48 48;" xml:space="preserve">
<style type="text/css">
	.st0{display:none;}
	.st1{display:inline;}
	.st2{fill:#A7B6BF;}
	.st3{fill:#1D77BD;}
</style>
<g>
	<g>
		<path d="M5.1,26C5.6,35.2,12.9,42.5,22,43V26H5.1z"/>
		<path d="M11,11.6c-0.5,0.4-1,0.9-1.4,1.4C7,16,5.3,19.8,5.1,24h15.5H22v-1.4V7.1C17.8,7.3,14,9,11,11.6z"/>
		<path d="M24,26V43c4.2-0.2,8-1.9,11-4.5c0.2-0.2,0.5-0.5,0.7-0.7L35,37l-4.8-4.8L24,26"/>
	</g>
	<g>
		<path d="M33.1,7.1L25,15l0,4.2L35.6,8.8C34.8,8.2,34,7.6,33.1,7.1z"/>
		<path d="M25,5l0,4l4-3.5C27.9,5.2,26.2,5.1,25,5z"/>
		<path d="M41.9,18.2L31.5,28.5l2.1,2.1l8.9-8.9C42.4,20.5,42.2,19.3,41.9,18.2z"/>
		<path d="M38.5,11.6L26.6,23.6L27,24l1.7,1.7l11.5-11.5C39.7,13.3,39.1,12.4,38.5,11.6z"/>
		<path d="M38,35c1.7-1.9,3-4.2,3.8-6.8l-5.3,5.3L38,35z"/>
	</g>
</g>
<g class="st0">
	<g class="st1">
		<path class="st2" d="M5.1,26C5.6,35.2,12.9,42.5,22,43V26H5.1z"/>
		<path class="st2" d="M11,11.6c-0.5,0.4-1,0.9-1.4,1.4C7,16,5.3,19.8,5.1,24h15.5H22v-1.4V7.1C17.8,7.3,14,9,11,11.6z"/>
		<path class="st2" d="M24,26V43c4.2-0.2,8-1.9,11-4.5c0.2-0.2,0.5-0.5,0.7-0.7L35,37l-4.8-4.8L24,26"/>
	</g>
	<g class="st1">
		<path class="st2" d="M33.1,7.1L25,15l0,4.2L35.6,8.8C34.8,8.2,34,7.6,33.1,7.1z"/>
		<path class="st2" d="M25,5l0,4l4-3.5C27.9,5.2,26.2,5.1,25,5z"/>
		<path class="st2" d="M41.9,18.2L31.5,28.5l2.1,2.1l8.9-8.9C42.4,20.5,42.2,19.3,41.9,18.2z"/>
		<path class="st2" d="M38.5,11.6L26.6,23.6L27,24l1.7,1.7l11.5-11.5C39.7,13.3,39.1,12.4,38.5,11.6z"/>
		<path class="st2" d="M38,35c1.7-1.9,3-4.2,3.8-6.8l-5.3,5.3L38,35z"/>
	</g>
</g>
<g class="st0">
	<g class="st1">
		<path class="st3" d="M5.1,26C5.6,35.2,12.9,42.5,22,43V26H5.1z"/>
		<path class="st3" d="M11,11.6c-0.5,0.4-1,0.9-1.4,1.4C7,16,5.3,19.8,5.1,24h15.5H22v-1.4V7.1C17.8,7.3,14,9,11,11.6z"/>
		<path class="st3" d="M24,26V43c4.2-0.2,8-1.9,11-4.5c0.2-0.2,0.5-0.5,0.7-0.7L35,37l-4.8-4.8L24,26"/>
	</g>
	<g class="st1">
		<path class="st3" d="M33.1,7.1L25,15l0,4.2L35.6,8.8C34.8,8.2,34,7.6,33.1,7.1z"/>
		<path class="st3" d="M25,5l0,4l4-3.5C27.9,5.2,26.2,5.1,25,5z"/>
		<path class="st3" d="M41.9,18.2L31.5,28.5l2.1,2.1l8.9-8.9C42.4,20.5,42.2,19.3,41.9,18.2z"/>
		<path class="st3" d="M38.5,11.6L26.6,23.6L27,24l1.7,1.7l11.5-11.5C39.7,13.3,39.1,12.4,38.5,11.6z"/>
		<path class="st3" d="M38,35c1.7-1.9,3-4.2,3.8-6.8l-5.3,5.3L38,35z"/>
	</g>
</g>
</svg>
