<?xml version="1.0" encoding="utf-8"?>
<!-- Generator: Adobe Illustrator 19.2.1, SVG Export Plug-In . SVG Version: 6.00 Build 0)  -->
<svg version="1.1" id="icon" xmlns="http://www.w3.org/2000/svg" xmlns:xlink="http://www.w3.org/1999/xlink" x="0px" y="0px"
	 viewBox="0 0 48 48" style="enable-background:new 0 0 48 48;" xml:space="preserve">
<path id="approvals_2_" d="M21.2,31.8l-7.1-7.1l2.8-2.8l4.2,4.2l9.9-9.9l2.8,2.8L21.2,31.8z"/>
<path d="M24,4C13,4,4,13,4,24c0,11,9,20,20,20s20-9,20-20S35,4,24,4z M24,41.5c-9.7,0-17.6-7.8-17.6-17.5c0-9.6,7.9-17.5,17.6-17.5
	c9.7,0,17.4,7.8,17.4,17.5C41.4,33.6,33.7,41.5,24,41.5z"/>
</svg>
