<?xml version="1.0" encoding="utf-8"?>
<!-- Generator: Adobe Illustrator 19.2.1, SVG Export Plug-In . SVG Version: 6.00 Build 0)  -->
<svg version="1.1" id="icon" xmlns="http://www.w3.org/2000/svg" xmlns:xlink="http://www.w3.org/1999/xlink" x="0px" y="0px"
	 viewBox="0 0 48 48" style="enable-background:new 0 0 48 48;" xml:space="preserve">
<path id="attendees_1_" d="M43.8,28.6c-0.6-0.6-3.5-1.8-4.6-2.3S38,25.6,38,25.1v-0.6c1.7-0.2,3.2-0.6,4.4-1.2
	c-2.1-0.8-2.6-3.8-2.6-6.4s-1.7-4.4-4.4-4.4c-0.9,0-1.7,0.2-2.4,0.6c0,0.9-0.2,2-0.3,2.9c0,0.2,0,0.3,0,0.5c0.8,1.1,0.9,2.6,0.6,4.3
	c-0.3,1.4-1.1,2.7-2.1,3.3c0,0.2,0,0.2,0,0.3c0.6,0.2,1.1,0.2,1.7,0.3v0.6c0,0.5,0,0.8-1.2,1.2c-0.3,0.2-0.9,0.3-1.4,0.6v1.4
	c0.2,0.2,0.3,0.2,0.8,0.5c3.2,1.4,7,3.2,8.2,4.3c0.2,0.2,0.2,0.3,0.3,0.3c2.7-0.2,4.4-0.5,5.2-0.8c0.3-0.2,0.3-0.3,0.3-0.5
	C44.8,31.8,44.7,29.5,43.8,28.6z M8.9,32.9c1.5-1.5,8.1-4.3,8.2-4.3c0.5-0.2,0.6-0.3,0.8-0.3v-1.4c-0.6-0.3-1.1-0.5-1.4-0.6
	c-1.1-0.5-1.2-0.8-1.2-1.2c0-0.2,0-1.4,0-1.4c0.2-0.2,0.3-0.6,0.5-1.1c-0.5-0.6-0.8-1.5-1.1-2.3c-0.5-1.7-0.2-3.2,0.6-4.3
	c-0.2-0.9-0.2-2.1-0.3-3.2c-0.3-0.3-1.2-0.6-2.4-0.6c-1.7,0-3.5,0.9-3.5,0.9s-0.9,0.9-0.9,2.6s0.3,2.4,0.3,2.4
	C8,18.4,7.9,19.2,8,20.1c0.2,0.9,0.8,1.5,1.2,1.5c0,0,0.3,1.7,0.8,2.1c0,0,0,1.2,0,1.4c0,0.5,0,0.8-1.2,1.2
	c-1.1,0.5-4.1,1.7-4.6,2.3C3.3,29.5,3,31.8,3,32.1c0,0.2,0.2,0.3,0.3,0.5c0.6,0.2,2.4,0.5,5.2,0.8C8.6,33.2,8.8,33,8.9,32.9z
	 M30.2,30.3c-1.8-0.8-2-1.4-2-2.1c0-0.2,0-2.1,0-2.1c0.8-0.8,1.2-3.5,1.2-3.5c0.6,0.2,1.7-0.9,2-2.4c0.3-1.5,0-2.9-0.8-3
	c0,0,0.3-3.3,0.3-4.7c0-2.1-0.8-3.7-2.9-3.7c-0.6-0.9-1.4-1.5-3.8-1.5c-2.6,0-3.7,1.5-6.1,1.5c-1.1,0-1.4,1.7-1.4,3.7
	s0.5,4.7,0.3,4.7c-0.6,0.2-1.1,1.5-0.8,3c0.3,1.5,1.4,2.6,2,2.4c0,0,0.5,2.9,1.2,3.5c0,0,0,2,0,2.1c0,0.8,0,1.4-2,2.1
	c-1.8,0.8-6.7,2.9-7.6,3.8c-1.4,1.4-1.8,5.3-1.8,5.8c0,0.3,0.2,0.6,0.6,0.8c1.5,0.5,6.5,1.4,15.1,1.4s13.5-0.9,15.1-1.4
	c0.5-0.2,0.6-0.5,0.6-0.8c0-0.5-0.5-4.4-1.8-5.8C36.8,33.2,32.1,31.2,30.2,30.3z"/>
</svg>
