<?xml version="1.0" encoding="utf-8"?>
<!-- Generator: Adobe Illustrator 19.2.1, SVG Export Plug-In . SVG Version: 6.00 Build 0)  -->
<svg version="1.1" id="icon" xmlns="http://www.w3.org/2000/svg" xmlns:xlink="http://www.w3.org/1999/xlink" x="0px" y="0px"
	 viewBox="0 0 48 48" style="enable-background:new 0 0 48 48;" xml:space="preserve">
<path id="auto" d="M38.2,9.2C35.1,9.2,29.6,8.4,24,4c-4.4,4.4-10.4,5.2-13.8,5.2C8.4,9.2,7.3,9,7.3,9v9.5C7.3,38.5,24,44,24,44
	s16.7-5.5,16.7-25.5V9C40.7,9,39.8,9.2,38.2,9.2z M37.3,18.5c0,14.7-10,20.4-13.3,21.9c-3.3-1.5-13.3-7.2-13.3-21.9v-6
	c3.3-0.1,8.8-0.8,13.5-4.3c5.1,3.3,10.1,4.1,13.2,4.3V18.5z M16.9,20.7l-2.1,2.5l7.1,7.5l12.3-12.5l-1.9-1.7l-10.4,7.7L16.9,20.7z"
	/>
</svg>
