<?xml version="1.0" encoding="utf-8"?>
<!-- Generator: Adobe Illustrator 19.2.1, SVG Export Plug-In . SVG Version: 6.00 Build 0)  -->
<svg version="1.1" id="icon" xmlns="http://www.w3.org/2000/svg" xmlns:xlink="http://www.w3.org/1999/xlink" x="0px" y="0px"
	 viewBox="0 0 48 48" style="enable-background:new 0 0 48 48;" xml:space="preserve">
<path d="M5,13v24c0,2.2,1.8,4,4,4h30c2.2,0,4-1.8,4-4V13H5z M15,36.3c0,0.9-0.8,1.7-1.7,1.7h-2.5C9.8,38,9,37.2,9,36.3v-2.5
	c0-0.9,0.8-1.7,1.7-1.7h2.5c0.9,0,1.7,0.8,1.7,1.7V36.3z M15,28.3c0,0.9-0.8,1.7-1.7,1.7h-2.5C9.8,30,9,29.2,9,28.3v-2.5
	c0-0.9,0.8-1.7,1.7-1.7h2.5c0.9,0,1.7,0.8,1.7,1.7V28.3z M15,20.3c0,0.9-0.8,1.7-1.7,1.7h-2.5C9.8,22,9,21.2,9,20.3v-2.5
	c0-0.9,0.8-1.7,1.7-1.7h2.5c0.9,0,1.7,0.8,1.7,1.7V20.3z M23,36.3c0,0.9-0.8,1.7-1.7,1.7h-2.5c-0.9,0-1.7-0.8-1.7-1.7v-2.5
	c0-0.9,0.8-1.7,1.7-1.7h2.5c0.9,0,1.7,0.8,1.7,1.7V36.3z M23,28.3c0,0.9-0.8,1.7-1.7,1.7h-2.5c-0.9,0-1.7-0.8-1.7-1.7v-2.5
	c0-0.9,0.8-1.7,1.7-1.7h2.5c0.9,0,1.7,0.8,1.7,1.7V28.3z M23,20.3c0,0.9-0.8,1.7-1.7,1.7h-2.5c-0.9,0-1.7-0.8-1.7-1.7v-2.5
	c0-0.9,0.8-1.7,1.7-1.7h2.5c0.9,0,1.7,0.8,1.7,1.7V20.3z M31,36.3c0,0.9-0.8,1.7-1.7,1.7h-2.5c-0.9,0-1.7-0.8-1.7-1.7v-2.5
	c0-0.9,0.8-1.7,1.7-1.7h2.5c0.9,0,1.7,0.8,1.7,1.7V36.3z M31,28.3c0,0.9-0.8,1.7-1.7,1.7h-2.5c-0.9,0-1.7-0.8-1.7-1.7v-2.5
	c0-0.9,0.8-1.7,1.7-1.7h2.5c0.9,0,1.7,0.8,1.7,1.7V28.3z M31,20.3c0,0.9-0.8,1.7-1.7,1.7h-2.5c-0.9,0-1.7-0.8-1.7-1.7v-2.5
	c0-0.9,0.8-1.7,1.7-1.7h2.5c0.9,0,1.7,0.8,1.7,1.7V20.3z M39,36.3c0,0.9-0.8,1.7-1.7,1.7h-2.5c-0.9,0-1.7-0.8-1.7-1.7v-2.5
	c0-0.9,0.8-1.7,1.7-1.7h2.5c0.9,0,1.7,0.8,1.7,1.7V36.3z M39,28.3c0,0.9-0.8,1.7-1.7,1.7h-2.5c-0.9,0-1.7-0.8-1.7-1.7v-2.5
	c0-0.9,0.8-1.7,1.7-1.7h2.5c0.9,0,1.7,0.8,1.7,1.7V28.3z M39,20.3c0,0.9-0.8,1.7-1.7,1.7h-2.5c-0.9,0-1.7-0.8-1.7-1.7v-2.5
	c0-0.9,0.8-1.7,1.7-1.7h2.5c0.9,0,1.7,0.8,1.7,1.7V20.3z M43,9v2H5V9c0-1.1,0.9-2,2-2h7v2h4V7h12v2h4V7h7C42.1,7,43,7.9,43,9z M31,8
	h2V5h-2V8z M15,8h2V5h-2V8z"/>
</svg>
