<?xml version="1.0" encoding="utf-8"?>
<!-- Generator: Adobe Illustrator 19.2.1, SVG Export Plug-In . SVG Version: 6.00 Build 0)  -->
<svg version="1.1" id="icon" xmlns="http://www.w3.org/2000/svg" xmlns:xlink="http://www.w3.org/1999/xlink" x="0px" y="0px"
	 viewBox="0 0 48 48" style="enable-background:new 0 0 48 48;" xml:space="preserve">
<path id="capture_1_" d="M16,8h16l2,4H14L16,8z M8,11h4V9H8V11z M44,14v24c0,1.1-0.9,2-2,2H6c-1.1,0-2-0.9-2-2V14c0-1.1,0.9-2,2-2
	h36C43.1,12,44,12.9,44,14z M34,26c0-5.6-4.4-10-10-10s-10,4.4-10,10s4.4,10,10,10S34,31.7,34,26z M37.5,18L37.5,18
	c0-0.8-0.7-1.5-1.5-1.5l0,0c-0.8,0-1.5,0.7-1.5,1.5v0c0,0.8,0.7,1.5,1.5,1.5l0,0C36.8,19.5,37.5,18.8,37.5,18z"/>
<circle cx="24" cy="26" r="7.5"/>
</svg>
