<?xml version="1.0" encoding="utf-8"?>
<!-- Generator: Adobe Illustrator 19.2.1, SVG Export Plug-In . SVG Version: 6.00 Build 0)  -->
<svg version="1.1" id="icon" xmlns="http://www.w3.org/2000/svg" xmlns:xlink="http://www.w3.org/1999/xlink" x="0px" y="0px"
	 viewBox="0 0 48 48" style="enable-background:new 0 0 48 48;" xml:space="preserve">
<style type="text/css">
	.st0{display:none;}
</style>
<path id="cancel_1_" class="st0" d="M24,4C13,4,4,13,4,24s9,20,20,20s20-9,20-20S35,4,24,4z M9,24c0-8.2,6.6-15,15-15
	c3,0,5.7,0.8,7.9,2.4L11.4,32.1C9.9,29.8,9,27,9,24z M24,39c-3.2,0-6-0.9-8.4-2.5l20.8-20.7C38.1,18.2,39,21,39,24
	C39,32.2,32.2,39,24,39z"/>
<path class="st0" d="M9,24c0-8.2,6.6-15,15-15c3,0,5.7,0.8,7.9,2.4L11.4,32.1C9.9,29.8,9,27,9,24z"/>
<path class="st0" d="M24,39c-3.2,0-6-0.9-8.4-2.5l20.8-20.7C38.1,18.2,39,21,39,24C39,32.2,32.2,39,24,39z"/>
<path d="M24,5.5C13.8,5.5,5.5,13.8,5.5,24S13.8,42.5,24,42.5S42.5,34.2,42.5,24S34.2,5.5,24,5.5z M24,38c-7.7,0-14-6.3-14-14
	c0-7.7,6.3-14,14-14s14,6.3,14,14C38,31.7,31.7,38,24,38z"/>
<rect x="7.1" y="21.6" transform="matrix(0.7071 -0.7071 0.7071 0.7071 -10.0572 23.9519)" width="33.6" height="5"/>
</svg>
