<?xml version="1.0" encoding="utf-8"?>
<!-- Generator: Adobe Illustrator 19.2.1, SVG Export Plug-In . SVG Version: 6.00 Build 0)  -->
<svg version="1.1" id="icon" xmlns="http://www.w3.org/2000/svg" xmlns:xlink="http://www.w3.org/1999/xlink" x="0px" y="0px"
	 viewBox="0 0 48 48" style="enable-background:new 0 0 48 48;" xml:space="preserve">
<path id="car_1_" d="M43,17.2c0,0-2,0-3.4,0c-0.3,0-0.4,0.1-0.6,0.3l-2-4.7C36.2,10.7,33.6,9,31.3,9H16.4c-2.3,0-4.8,1.6-5.7,3.7
	l-2,4.7c-0.1-0.1-0.3-0.3-0.6-0.3c-1.4,0-3.4,0-3.4,0S4,17.1,4,17.8c0,0.7,0.7,2,0.7,2s0.3,0.7,1,0.7c0.1,0,0.6,0,0.9,0
	c-0.6,0.7-0.9,1.7-0.9,2.7l0.7,8.2c0.1,1,0.4,1.8,1,2.4c0,0.1,0,0.1,0,0.3v3.4C7.4,38.3,8,39,8.8,39h3.4c0.7,0,1.4-0.6,1.4-1.4v-2
	h20.5v2c0,0.7,0.6,1.4,1.4,1.4H39c0.7,0,1.4-0.6,1.4-1.4v-3.4c0-0.1,0-0.1,0-0.3c0.6-0.7,1-1.6,1-2.4l0.7-8.2c0.1-1-0.3-2-0.9-2.7
	c0.4,0,0.7,0,1,0c0.7,0,1-0.7,1-0.7s0.7-1.4,0.7-2C43.7,17.2,43,17.2,43,17.2z M11.1,28.3c-1.4,0-2.6-1.1-2.6-2.6s1.1-2.6,2.6-2.6
	s2.6,1.1,2.6,2.6S12.5,28.3,11.1,28.3z M30.5,25.9l-0.4,1c-0.4,1-1.7,1.8-2.8,1.8h-6.8c-1.1,0-2.4-0.9-2.8-1.8l-0.4-1
	c-0.4-1,0.1-1.8,1.3-1.8h11C30.3,24.1,30.9,24.9,30.5,25.9z M12.3,19.2l2.1-4.8c0.3-0.6,1.3-1.3,2-1.3h14.9c0.7,0,1.6,0.6,1.9,1.3
	l2,4.8H12.3z M36.5,28.3c-1.4,0-2.6-1.1-2.6-2.6s1.1-2.6,2.6-2.6s2.6,1.1,2.6,2.6S37.9,28.3,36.5,28.3z"/>
</svg>
