<?xml version="1.0" encoding="utf-8"?>
<!-- Generator: Adobe Illustrator 19.2.1, SVG Export Plug-In . SVG Version: 6.00 Build 0)  -->
<svg version="1.1" id="icon" xmlns="http://www.w3.org/2000/svg" xmlns:xlink="http://www.w3.org/1999/xlink" x="0px" y="0px"
	 viewBox="0 0 48 48" style="enable-background:new 0 0 48 48;" xml:space="preserve">
<style type="text/css">
	.st0{display:none;}
	.st1{display:none;fill:#FFFFFF;}
</style>
<path id="close_x5F_camera_1_" class="st0" d="M37.7,11.7L25.4,24l12.3,12.3l-1.4,1.4L24,25.4L11.7,37.7l-1.4-1.4L22.6,24L10.3,11.7
	l1.4-1.4L24,22.6l12.3-12.3L37.7,11.7z"/>
<path id="close_x5F_camera_3_" d="M35.3,38.1L24,26.8L12.7,38.1l-2.8-2.8L21.2,24L9.9,12.7l2.8-2.8L24,21.2L35.3,9.9l2.8,2.8
	L26.8,24l11.3,11.3L35.3,38.1z"/>
<path id="close_x5F_camera" class="st1" d="M37.7,11.7L25.4,24l12.3,12.3l-1.4,1.4L24,25.4L11.7,37.7l-1.4-1.4L22.6,24L10.3,11.7
	l1.4-1.4L24,22.6l12.3-12.3L37.7,11.7z"/>
<path id="add_4_" class="st0" d="M38.4,12.4L26.9,23.9l11.6,11.6l-3,3L23.9,26.9L12.4,38.4l-2.7-2.7l11.5-11.5L9.5,12.5l3-3
	l11.6,11.6L35.6,9.6L38.4,12.4z"/>
<path id="add_1_" class="st1" d="M38.4,12.4L26.9,23.9l11.6,11.6l-3,3L23.9,26.9L12.4,38.4l-2.7-2.7l11.5-11.5L9.5,12.5l3-3
	l11.6,11.6L35.6,9.6L38.4,12.4z"/>
</svg>
