<?xml version="1.0" encoding="utf-8"?>
<!-- Generator: Adobe Illustrator 19.2.1, SVG Export Plug-In . SVG Version: 6.00 Build 0)  -->
<svg version="1.1" id="icon" xmlns="http://www.w3.org/2000/svg" xmlns:xlink="http://www.w3.org/1999/xlink" x="0px" y="0px"
	 viewBox="0 0 48 48" style="enable-background:new 0 0 48 48;" xml:space="preserve">
<path d="M38.9,21.9c0.4-1.8,0.1-4.8-2.6-6.8c-1.6-1.1-4.9-2.3-8.1,0.3c-3.9-7.7-11.6-6.3-14.4-4.5c-2.6,1.8-5.8,5-4.5,11
	c-3.6,1-6.2,4.3-6.2,8.2c0,4.6,3.7,8.4,8.4,8.4h25.2c4.6,0,8.4-3.8,8.4-8.4C44.9,26.2,42.5,23.1,38.9,21.9z M29.6,27.9l-4.5-4.5
	v10.3h-2.2V23.4l-4.5,4.5v-2.6l5.6-5.6l5.6,5.6V27.9z"/>
</svg>
