<?xml version="1.0" encoding="utf-8"?>
<!-- Generator: Adobe Illustrator 19.2.1, SVG Export Plug-In . SVG Version: 6.00 Build 0)  -->
<svg version="1.1" id="icon" xmlns="http://www.w3.org/2000/svg" xmlns:xlink="http://www.w3.org/1999/xlink" x="0px" y="0px"
	 viewBox="0 0 48 48" style="enable-background:new 0 0 48 48;" xml:space="preserve">
<path d="M38.9,21.9c0.4-1.8,0.1-4.8-2.6-6.8c-1.6-1.1-4.9-2.3-8.1,0.3c-3.9-7.7-11.6-6.3-14.4-4.5c-2.6,1.8-5.8,5.1-4.5,11
	c-3.6,1-6.2,4.3-6.2,8.2c0,4.6,3.7,8.4,8.4,8.4h25.2c4.6,0,8.4-3.8,8.4-8.4C44.9,26.2,42.5,23.1,38.9,21.9z M23.9,34.2
	c-2.6,0-5-1.6-6-4l-1.4,0.5l1.1-4l3.7,2.1l-1.5,0.6c0.8,1.5,2.2,2.6,4,2.6c1.7,0,3.4-1.1,4-2.8l2,0.7C29,32.7,26.6,34.2,23.9,34.2z
	 M30.1,28.7l-3.7-2.2l1.5-0.6c-0.8-1.5-2.2-2.5-4-2.5c-1.7,0-3.4,1.1-4.1,2.8l-2-0.7c1-2.5,3.4-4.1,6.1-4.1c2.6,0,5,1.5,6,3.9
	l1.4-0.5L30.1,28.7z"/>
</svg>
