<?xml version="1.0" encoding="utf-8"?>
<!-- Generator: Adobe Illustrator 19.1.0, SVG Export Plug-In . SVG Version: 6.00 Build 0)  -->
<svg version="1.1" id="Layer_1" xmlns="http://www.w3.org/2000/svg" xmlns:xlink="http://www.w3.org/1999/xlink" x="0px" y="0px"
	 viewBox="-350 644 48 48" style="enable-background:new -350 644 48 48;" xml:space="preserve">
<style type="text/css">
	.st0{display:none;}
	.st1{display:inline;fill:#E6E7E8;}
	.st2{display:inline;}
	.st3{fill:none;stroke:#544841;stroke-width:8.061200e-02;stroke-miterlimit:10;}
	.st4{fill:#A7B6BF;}
</style>
<g id="bg" class="st0">
	<path class="st1" d="M-310.6,692h-30.8c-4.7,0-8.6-3.9-8.6-8.6v-30.8c0-4.7,3.9-8.6,8.6-8.6h30.8c4.7,0,8.6,3.9,8.6,8.6v30.8
		C-302,688.1-305.9,692-310.6,692z"/>
</g>
<g id="lines" class="st0">
	<g class="st2">
		<line class="st3" x1="-326.1" y1="644.2" x2="-326.1" y2="691.8"/>
		<line class="st3" x1="-334.9" y1="644.2" x2="-334.9" y2="691.8"/>
		<line class="st3" x1="-317.1" y1="644.2" x2="-317.1" y2="691.8"/>
		<line class="st3" x1="-305.3" y1="644.2" x2="-305.3" y2="691.8"/>
		<line class="st3" x1="-346.8" y1="644.2" x2="-346.8" y2="691.8"/>
		<line class="st3" x1="-349.9" y1="668" x2="-302.1" y2="668"/>
		<line class="st3" x1="-349.9" y1="659.2" x2="-302.1" y2="659.2"/>
		<line class="st3" x1="-349.9" y1="676.8" x2="-302.1" y2="676.8"/>
		<line class="st3" x1="-349.9" y1="688.8" x2="-302.1" y2="688.8"/>
		<line class="st3" x1="-349.9" y1="647.2" x2="-302.1" y2="647.2"/>
		<line class="st3" x1="-349.9" y1="644.2" x2="-302.1" y2="691.8"/>
		<line class="st3" x1="-349.9" y1="691.8" x2="-302.1" y2="644.2"/>
		<circle class="st3" cx="-326.1" cy="668" r="12.5"/>
		<circle class="st3" cx="-326.1" cy="668" r="20.7"/>
		<g id="_x31_20px_icon_102_">
			<path id="Rectangle_7_102_" class="st3" d="M-335.1,691.8c-5.4,0-8.5,0-11.6-3.1s-3.1-6.2-3.1-11.6V659c0-5.4,0-8.5,3.1-11.7
				c3.1-3.1,6.2-3.1,11.6-3.1h18.2c5.4,0,8.5,0,11.6,3.1s3.1,6.2,3.1,11.6V677c0,5.4,0,8.5-3.1,11.6c-3,3.2-6.2,3.2-11.6,3.2
				L-335.1,691.8L-335.1,691.8z"/>
		</g>
		<path class="st3" d="M-326.1,653.2"/>
		<circle class="st3" cx="-326.1" cy="668" r="8.8"/>
		<path class="st3" d="M-319.4,669.2c0.1-0.4,0.1-0.7,0.1-1.1s0-0.8-0.1-1.1c-0.5-2.8-2.7-5.1-5.6-5.6c-0.4-0.1-0.8-0.1-1.1-0.1
			c-0.4,0-0.8,0-1.1,0.1c-2.9,0.5-5.1,2.7-5.6,5.6c-0.1,0.4-0.1,0.7-0.1,1.1s0,0.8,0.1,1.1c0.5,2.9,2.7,5.1,5.6,5.6
			c0.4,0.1,0.7,0.1,1.1,0.1s0.8,0,1.1-0.1C-322.1,674.2-319.9,671.9-319.4,669.2z"/>
	</g>
</g>
<path class="st4" d="M-314.1,666.3c0.3-1.4,0.1-3.8-2.1-5.4c-1.3-0.9-3.9-1.8-6.5,0.2c-3.1-6.1-9.3-5-11.5-3.6
	c-2.1,1.4-4.6,4.1-3.6,8.8c-2.9,0.8-5,3.4-5,6.5c0,3.7,3,6.7,6.7,6.7h20.2c3.7,0,6.7-3,6.7-6.7
	C-309.3,669.7-311.2,667.2-314.1,666.3z M-326.1,676.1c-2.1,0-4-1.3-4.8-3.2l-1.1,0.4l0.9-3.2l3,1.7l-1.2,0.5
	c0.6,1.2,1.8,2.1,3.2,2.1c1.4,0,2.7-0.9,3.2-2.2l1.6,0.6C-322,674.9-323.9,676.1-326.1,676.1z M-321.1,671.7l-3-1.8l1.2-0.5
	c-0.6-1.2-1.8-2-3.2-2c-1.4,0-2.7,0.9-3.3,2.2l-1.6-0.6c0.8-2,2.7-3.3,4.9-3.3c2.1,0,4,1.2,4.8,3.1l1.1-0.4L-321.1,671.7z"/>
</svg>
