<?xml version="1.0" encoding="utf-8"?>
<!-- Generator: Adobe Illustrator 19.2.1, SVG Export Plug-In . SVG Version: 6.00 Build 0)  -->
<svg version="1.1" id="icon" xmlns="http://www.w3.org/2000/svg" xmlns:xlink="http://www.w3.org/1999/xlink" x="0px" y="0px"
	 viewBox="0 0 48 48" style="enable-background:new 0 0 48 48;" xml:space="preserve">
<style type="text/css">
	.st0{display:none;}
	.st1{display:inline;fill:#FFFFFF;}
	.st2{display:inline;fill:#34A5DD;}
</style>
<g>
	<path d="M28,11H7c-2.2,0-4,1.8-4,4v18c0,2.2,1.8,4,4,4l5,0l-5,8l16.1-8H37c2.2,0,4-1.8,4-4V20.5c-0.9,0.3-2,0.5-3,0.5
		C32.5,21,28,16.5,28,11z M13,27c-1.7,0-3-1.3-3-3s1.3-3,3-3s3,1.3,3,3S14.7,27,13,27z M22,27c-1.7,0-3-1.3-3-3s1.3-3,3-3s3,1.3,3,3
		S23.7,27,22,27z M31,27c-1.7,0-3-1.3-3-3s1.3-3,3-3s3,1.3,3,3S32.7,27,31,27z"/>
	<path d="M38,3c-4.4,0-8,3.6-8,8s3.6,8,8,8c1.1,0,2.1-0.2,3-0.6c2.9-1.2,5-4.1,5-7.4C46,6.6,42.4,3,38,3z"/>
</g>
<g class="st0">
	<path class="st1" d="M28,11H7c-2.2,0-4,1.8-4,4v18c0,2.2,1.8,4,4,4l5,0l-5,8l16.1-8H37c2.2,0,4-1.8,4-4V20.5c-0.9,0.3-2,0.5-3,0.5
		C32.5,21,28,16.5,28,11z M13,27c-1.7,0-3-1.3-3-3s1.3-3,3-3s3,1.3,3,3S14.7,27,13,27z M22,27c-1.7,0-3-1.3-3-3s1.3-3,3-3s3,1.3,3,3
		S23.7,27,22,27z M31,27c-1.7,0-3-1.3-3-3s1.3-3,3-3s3,1.3,3,3S32.7,27,31,27z"/>
	<path class="st2" d="M38,3c-4.4,0-8,3.6-8,8s3.6,8,8,8c1.1,0,2.1-0.2,3-0.6c2.9-1.2,5-4.1,5-7.4C46,6.6,42.4,3,38,3z"/>
</g>
</svg>
