<?xml version="1.0" encoding="utf-8"?>
<!-- Generator: Adobe Illustrator 19.2.1, SVG Export Plug-In . SVG Version: 6.00 Build 0)  -->
<svg version="1.1" id="icon" xmlns="http://www.w3.org/2000/svg" xmlns:xlink="http://www.w3.org/1999/xlink" x="0px" y="0px"
	 viewBox="0 0 48 48" style="enable-background:new 0 0 48 48;" xml:space="preserve">
<style type="text/css">
	.st0{display:none;}
	.st1{display:none;fill:#FFFFFF;}
</style>
<path class="st0" d="M24,7C13,7,4,13.7,4,22c0,5.2,3.6,9.8,9,12.5V41l5.5-4.6c1.7,0.4,3.6,0.6,5.5,0.6c11,0,20-6.7,20-15
	C44,13.7,35,7,24,7z"/>
<path d="M39,11H9c-2.2,0-4,1.8-4,4v18c0,2.2,1.8,4,4,4l5,0l-5,8l16.1-8H39c2.2,0,4-1.8,4-4V15C43,12.8,41.2,11,39,11z M15,27
	c-1.7,0-3-1.3-3-3s1.3-3,3-3s3,1.3,3,3S16.7,27,15,27z M24,27c-1.7,0-3-1.3-3-3s1.3-3,3-3s3,1.3,3,3S25.7,27,24,27z M33,27
	c-1.7,0-3-1.3-3-3s1.3-3,3-3c1.7,0,3,1.3,3,3S34.7,27,33,27z"/>
<path class="st1" d="M39,11H9c-2.2,0-4,1.8-4,4v18c0,2.2,1.8,4,4,4l5,0l-5,8l16.1-8H39c2.2,0,4-1.8,4-4V15C43,12.8,41.2,11,39,11z
	 M15,27c-1.7,0-3-1.3-3-3s1.3-3,3-3s3,1.3,3,3S16.7,27,15,27z M24,27c-1.7,0-3-1.3-3-3s1.3-3,3-3s3,1.3,3,3S25.7,27,24,27z M33,27
	c-1.7,0-3-1.3-3-3s1.3-3,3-3c1.7,0,3,1.3,3,3S34.7,27,33,27z"/>
</svg>
