<?xml version="1.0" encoding="utf-8"?>
<!-- Generator: Adobe Illustrator 19.0.0, SVG Export Plug-In . SVG Version: 6.00 Build 0)  -->
<svg version="1.1" id="Layer_1" xmlns="http://www.w3.org/2000/svg" xmlns:xlink="http://www.w3.org/1999/xlink" x="0px" y="0px"
	 viewBox="-350 644 48 48" style="enable-background:new -350 644 48 48;" xml:space="preserve">
<style type="text/css">
	.st0{display:none;}
	.st1{display:inline;fill:#E6E7E8;}
	.st2{display:inline;}
	.st3{fill:none;stroke:#544841;stroke-width:8.061200e-02;stroke-miterlimit:10;}
	.st4{fill:#A7B6BF;}
</style>
<g id="bg" class="st0">
	<path class="st1" d="M-310.6,692h-30.8c-4.7,0-8.6-3.9-8.6-8.6v-30.8c0-4.7,3.9-8.6,8.6-8.6h30.8c4.7,0,8.6,3.9,8.6,8.6v30.8
		C-302,688.1-305.9,692-310.6,692z"/>
</g>
<g id="lines" class="st0">
	<g class="st2">
		<line class="st3" x1="-326.2" y1="644.3" x2="-326.2" y2="692"/>
		<line class="st3" x1="-335" y1="644.3" x2="-335" y2="692"/>
		<line class="st3" x1="-317.3" y1="644.3" x2="-317.3" y2="692"/>
		<line class="st3" x1="-305.4" y1="644.3" x2="-305.4" y2="692"/>
		<line class="st3" x1="-346.9" y1="644.3" x2="-346.9" y2="692"/>
		<line class="st3" x1="-350" y1="668.2" x2="-302.3" y2="668.2"/>
		<line class="st3" x1="-350" y1="659.3" x2="-302.3" y2="659.3"/>
		<line class="st3" x1="-350" y1="677" x2="-302.3" y2="677"/>
		<line class="st3" x1="-350" y1="688.9" x2="-302.3" y2="688.9"/>
		<line class="st3" x1="-350" y1="647.4" x2="-302.3" y2="647.4"/>
		<line class="st3" x1="-350" y1="644.3" x2="-302.3" y2="692"/>
		<line class="st3" x1="-350" y1="692" x2="-302.3" y2="644.3"/>
		<circle class="st3" cx="-326.2" cy="668.2" r="12.5"/>
		<circle class="st3" cx="-326.2" cy="668.2" r="20.7"/>
		<g id="_x31_20px_icon_102_">
			<path id="Rectangle_7_102_" class="st3" d="M-335.3,692c-5.4,0-8.5,0-11.6-3.1c-3.1-3.1-3.1-6.2-3.1-11.6v-18.2
				c0-5.4,0-8.5,3.1-11.7c3.1-3.1,6.2-3.1,11.6-3.1h18.2c5.4,0,8.5,0,11.6,3.1c3.1,3.1,3.1,6.2,3.1,11.6v18.2c0,5.4,0,8.5-3.1,11.6
				c-3,3.2-6.2,3.2-11.6,3.2H-335.3z"/>
		</g>
		<path class="st3" d="M-326.2,653.3"/>
		<circle class="st3" cx="-326.2" cy="668.2" r="8.8"/>
		<path class="st3" d="M-319.5,669.3c0.1-0.4,0.1-0.7,0.1-1.1c0-0.4,0-0.8-0.1-1.1c-0.5-2.8-2.7-5.1-5.6-5.6
			c-0.4-0.1-0.8-0.1-1.1-0.1c-0.4,0-0.8,0-1.1,0.1c-2.9,0.5-5.1,2.7-5.6,5.6c-0.1,0.4-0.1,0.7-0.1,1.1c0,0.4,0,0.8,0.1,1.1
			c0.5,2.9,2.7,5.1,5.6,5.6c0.4,0.1,0.7,0.1,1.1,0.1c0.4,0,0.8,0,1.1-0.1C-322.2,674.4-320,672.1-319.5,669.3z"/>
	</g>
</g>
<g id="icon">
	<g>
		<path class="st4" d="M-335.7,663.4h-8.4c-0.3,0-0.5,0.2-0.5,0.5v8.1c0,0.3,0.2,0.5,0.5,0.5h8.3c0.3,0,0.5-0.2,0.5-0.5v-8.1
			C-335.2,663.7-335.5,663.4-335.7,663.4z M-340.1,669.8c0.3,0,0.7-0.1,0.8-0.2c0.1,0,0.1,0,0.1,0c0.2,0.5,0.5,0.7,0.6,0.8
			c0,0.1,0,0.1,0,0.1c-0.4,0.2-1,0.4-1.5,0.4c-1.7,0-3-1.3-3-2.9c0-1.7,1.4-3,3-2.9c0.7,0,1.3,0.2,1.7,0.5c0.1,0.1,0.1,0.1,0.1,0.1
			c-0.1,0.1-0.4,0.5-0.5,0.8c0,0,0,0.1-0.1,0c-0.3-0.2-0.7-0.4-1.3-0.4c-1,0-1.7,0.8-1.7,1.8C-341.9,669-341.1,669.8-340.1,669.8z
			 M-337.5,669.9c-0.1,0-0.2,0-0.3-0.1c-0.3-0.1-0.5-0.4-0.5-0.8c0-0.5,0.4-0.8,0.8-0.8c0.1,0,0.2,0,0.3,0.1
			c0.3,0.1,0.5,0.4,0.5,0.8C-336.7,669.5-337,669.9-337.5,669.9z"/>
		<g>
			<path class="st4" d="M-333.6,668c0-1.3,1-2.1,2.2-2.1c0.9,0,1.4,0.5,1.7,1l-0.8,0.4c-0.2-0.3-0.5-0.6-1-0.6
				c-0.7,0-1.3,0.6-1.3,1.4c0,0.8,0.5,1.4,1.3,1.4c0.4,0,0.8-0.3,1-0.6l0.8,0.4c-0.3,0.5-0.8,1-1.7,1
				C-332.6,670.1-333.6,669.2-333.6,668"/>
			<path class="st4" d="M-329.3,668c0-1.2,0.9-2.1,2.1-2.1c1.2,0,2.2,0.9,2.2,2.1s-0.9,2.1-2.2,2.1
				C-328.4,670.1-329.3,669.2-329.3,668 M-325.9,668c0-0.8-0.5-1.4-1.3-1.4c-0.8,0-1.2,0.6-1.2,1.4s0.5,1.4,1.2,1.4
				C-326.5,669.4-325.9,668.7-325.9,668"/>
			<polygon class="st4" points="-321.4,670 -323.4,667.3 -323.4,670 -324.3,670 -324.3,665.9 -323.4,665.9 -321.4,668.5 
				-321.4,665.9 -320.6,665.9 -320.6,670 			"/>
			<path class="st4" d="M-319.8,668c0-1.3,1-2.1,2.2-2.1c0.9,0,1.4,0.5,1.7,1l-0.8,0.4c-0.2-0.3-0.5-0.6-1-0.6
				c-0.7,0-1.3,0.6-1.3,1.4c0,0.8,0.5,1.4,1.3,1.4c0.4,0,0.8-0.3,1-0.6l0.8,0.4c-0.3,0.5-0.8,1-1.7,1
				C-318.9,670.1-319.8,669.2-319.8,668"/>
			<path class="st4" d="M-315.3,668.4v-2.5h0.9v2.4c0,0.6,0.3,1,1,1c0.6,0,1-0.4,1-1v-2.4h0.9v2.5c0,1-0.6,1.7-1.9,1.7
				C-314.7,670.1-315.3,669.4-315.3,668.4"/>
			<path class="st4" d="M-308.4,670l-0.8-1.5h-0.6v1.5h-0.9v-4.1h1.9c0.9,0,1.4,0.6,1.4,1.3s-0.5,1.1-0.9,1.2l0.9,1.6H-308.4z
				 M-308.4,667.2c0-0.3-0.3-0.6-0.6-0.6h-0.9v1.1h0.9C-308.6,667.8-308.4,667.6-308.4,667.2"/>
		</g>
	</g>
</g>
</svg>
