<?xml version="1.0" encoding="utf-8"?>
<!-- Generator: Adobe Illustrator 19.2.1, SVG Export Plug-In . SVG Version: 6.00 Build 0)  -->
<svg version="1.1" id="icon" xmlns="http://www.w3.org/2000/svg" xmlns:xlink="http://www.w3.org/1999/xlink" x="0px" y="0px"
	 viewBox="0 0 48 48" style="enable-background:new 0 0 48 48;" xml:space="preserve">
<text transform="matrix(1 0 0 1 306 396)" style="font-family:'MyriadPro-Regular'; font-size:12px;">concur_logo</text>
<path id="concur_x5F_logo_1_" d="M13,18.9H3.6c-0.3,0-0.6,0.2-0.6,0.6v9.1c0,0.3,0.2,0.6,0.6,0.6h9.4c0.3,0,0.6-0.2,0.6-0.6v-9.1
	C13.6,19.2,13.3,18.9,13,18.9z M8.1,26.1c0.3,0,0.8-0.1,0.9-0.2c0.1,0,0.1,0,0.1,0c0.2,0.6,0.6,0.8,0.7,0.9c0,0.1,0,0.1,0,0.1
	c-0.5,0.2-1.1,0.5-1.7,0.5c-1.9,0-3.4-1.5-3.4-3.3c0-1.9,1.6-3.4,3.4-3.3c0.8,0,1.5,0.2,1.9,0.6c0.1,0.1,0.1,0.1,0.1,0.1
	C10,21.6,9.7,22,9.5,22.4c0,0,0,0.1-0.1,0c-0.3-0.2-0.8-0.5-1.5-0.5c-1.1,0-1.9,0.9-1.9,2C6,25.2,7,26.1,8.1,26.1z M11,26.2
	c-0.1,0-0.2,0-0.3-0.1c-0.3-0.1-0.6-0.5-0.6-0.9c0-0.6,0.5-0.9,0.9-0.9c0.1,0,0.2,0,0.3,0.1c0.3,0.1,0.6,0.5,0.6,0.9
	S11.6,26.2,11,26.2z M15.4,24.1c0-1.5,1.1-2.4,2.5-2.4c1,0,1.6,0.6,1.9,1.1l-0.9,0.5c-0.2-0.3-0.6-0.7-1.1-0.7
	c-0.8,0-1.5,0.7-1.5,1.6s0.6,1.6,1.5,1.6c0.5,0,0.9-0.3,1.1-0.7l0.9,0.5c-0.3,0.6-0.9,1.1-1.9,1.1C16.5,26.4,15.4,25.4,15.4,24.1
	 M20.3,24.1c0-1.4,1-2.4,2.4-2.4s2.5,1,2.5,2.4s-1,2.4-2.5,2.4C21.3,26.4,20.3,25.4,20.3,24.1 M24.1,24.1c0-0.9-0.6-1.6-1.5-1.6
	s-1.4,0.7-1.4,1.6s0.6,1.6,1.4,1.6S24.1,24.8,24.1,24.1 M29.2,26.3l-2.3-3v3h-1v-4.6h1l2.3,2.9v-2.9h0.9v4.6H29.2z M31,24.1
	c0-1.5,1.1-2.4,2.5-2.4c1,0,1.6,0.6,1.9,1.1l-0.9,0.5c-0.2-0.3-0.6-0.7-1.1-0.7c-0.8,0-1.5,0.7-1.5,1.6s0.6,1.6,1.5,1.6
	c0.5,0,0.9-0.3,1.1-0.7l0.9,0.5c-0.3,0.6-0.9,1.1-1.9,1.1C32,26.4,31,25.4,31,24.1 M36.1,24.5v-2.8h1v2.7c0,0.7,0.3,1.1,1.1,1.1
	c0.7,0,1.1-0.5,1.1-1.1v-2.7h1v2.8c0,1.1-0.7,1.9-2.1,1.9S36.1,25.6,36.1,24.5 M43.9,26.3L43,24.6h-0.7v1.7h-1v-4.6h2.1
	c1,0,1.6,0.7,1.6,1.5c0,0.8-0.6,1.2-1,1.4l1,1.8H43.9z M43.9,23.2c0-0.3-0.3-0.7-0.7-0.7h-1v1.2h1C43.6,23.8,43.9,23.6,43.9,23.2"/>
</svg>
