<?xml version="1.0" encoding="utf-8"?>
<!-- Generator: Adobe Illustrator 19.2.1, SVG Export Plug-In . SVG Version: 6.00 Build 0)  -->
<svg version="1.1" id="icon" xmlns="http://www.w3.org/2000/svg" xmlns:xlink="http://www.w3.org/1999/xlink" x="0px" y="0px"
	 viewBox="0 0 48 48" style="enable-background:new 0 0 48 48;" xml:space="preserve">
<path id="cost_x5F_center_1_" d="M38.7,7.6H9.3C7.5,7.6,6,9.1,6,10.9v26.2c0,1.8,1.5,3.3,3.3,3.3h29.5c1.8,0,3.3-1.5,3.3-3.3V10.9
	C42,9.1,40.5,7.6,38.7,7.6z M39.5,11.7h-1.6v2.5h0.8c0.5,0,0.8,0.4,0.8,0.8v4.9c0,0.5-0.4,0.8-0.8,0.8h-0.8v6.5h0.8
	c0.5,0,0.8,0.4,0.8,0.8V33c0,0.5-0.4,0.8-0.8,0.8h-0.8v2.5h1.6v0.8c0,0.5-0.4,0.8-0.8,0.8H9.3c-0.5,0-0.8-0.4-0.8-0.8V10.9
	c0-0.5,0.4-0.8,0.8-0.8h29.5c0.5,0,0.8,0.4,0.8,0.8V11.7z M33.8,33v-4.9c0-0.5,0.4-0.8,0.8-0.8h1.6v-6.5h-1.6
	c-0.5,0-0.8-0.4-0.8-0.8V15c0-0.5,0.4-0.8,0.8-0.8h1.6v-2.5H10.1v24.5h26.2v-2.5h-1.6C34.2,33.8,33.8,33.5,33.8,33z M19.9,30.8
	c-3.7,0-6.7-3-6.7-6.8s3-6.8,6.7-6.8c3.7,0,6.8,3,6.8,6.8S23.6,30.8,19.9,30.8z M35.5,19.1h2.5v-3.3h-2.5V19.1z M35.5,32.2h2.5v-3.3
	h-2.5V32.2z M20.7,19.2v2.3c1.1,0.3,1.8,1.3,1.8,2.5c0,1.5-1.2,2.7-2.7,2.7c-1.5,0-2.7-1.2-2.7-2.7c0-1.2,0.8-2.2,1.8-2.5v-2.3
	C16.8,19.6,15,21.6,15,24c0,2.7,2.2,4.9,4.9,4.9c2.7,0,4.9-2.2,4.9-4.9C24.8,21.6,23,19.6,20.7,19.2z"/>
</svg>
