<?xml version="1.0" encoding="utf-8"?>
<!-- Generator: Adobe Illustrator 19.2.1, SVG Export Plug-In . SVG Version: 6.00 Build 0)  -->
<svg version="1.1" id="icon" xmlns="http://www.w3.org/2000/svg" xmlns:xlink="http://www.w3.org/1999/xlink" x="0px" y="0px"
	 viewBox="0 0 48 48" style="enable-background:new 0 0 48 48;" xml:space="preserve">
<path d="M4,15v-1c0-1.7,1.3-3,3-3h34c1.7,0,3,1.3,3,3v1H4z"/>
<g>
	<path d="M4,20v14c0,1.7,1.3,3,3,3h34c1.7,0,3-1.3,3-3V20H4z M41,27c0,0.6-0.4,1-1,1h-3c-0.6,0-1-0.4-1-1v-3c0-0.6,0.4-1,1-1h3
		c0.6,0,1,0.4,1,1V27z"/>
</g>
</svg>
