<?xml version="1.0" encoding="utf-8"?>
<!-- Generator: Adobe Illustrator 19.2.1, SVG Export Plug-In . SVG Version: 6.00 Build 0)  -->
<svg version="1.1" id="icon" xmlns="http://www.w3.org/2000/svg" xmlns:xlink="http://www.w3.org/1999/xlink" x="0px" y="0px"
	 viewBox="0 0 48 48" style="enable-background:new 0 0 48 48;" xml:space="preserve">
<path id="current_x5F_location_1_" d="M24,16.1c4.4,0,7.9,3.5,7.9,7.9s-3.5,7.9-7.9,7.9s-7.9-3.5-7.9-7.9S19.6,16.1,24,16.1z
	 M44,25.1h-4.8c-0.5,7.5-6.6,13.6-14.1,14.1V44h-2.2v-4.8c-7.5-0.5-13.6-6.6-14.1-14.1H4v-2.2h4.8c0.5-7.5,6.6-13.6,14.1-14.1V4h2.2
	v4.8c7.5,0.5,13.6,6.6,14.1,14.1H44V25.1z M37,24.1C37,16.8,31.2,11,23.9,11s-13.1,5.8-13.1,13.1s5.8,13.1,13.1,13.1
	S37,31.2,37,24.1z"/>
</svg>
