<?xml version="1.0" encoding="utf-8"?>
<!-- Generator: Adobe Illustrator 19.2.1, SVG Export Plug-In . SVG Version: 6.00 Build 0)  -->
<svg version="1.1" id="icon" xmlns="http://www.w3.org/2000/svg" xmlns:xlink="http://www.w3.org/1999/xlink" x="0px" y="0px"
	 viewBox="0 0 48 48" style="enable-background:new 0 0 48 48;" xml:space="preserve">
<g>
	<g>
		<g>
			<path d="M11,39.9c0,1.2,0.9,2.1,2.1,2.1h21.8c1.2,0,2.1-0.9,2.1-2.1V17H11v23.9L11,39.9z M27,19h2v19h-2V19z M23,19h2.1L25,38h-2
				V19z M19,19h2v19h-2V19z"/>
		</g>
	</g>
	<g>
		<g>
			<path d="M37,11h-8V9c0-1.7-1.3-3-3-3h-4c-1.7,0-3,1.3-3,3v2h-8c-1.1,0-2,0.9-2,2v0c0,1.1,0.9,2,2,2h26c1.1,0,2-0.9,2-2v0
				C39,11.9,38.1,11,37,11z M22,9h4v2h-4V9z"/>
		</g>
	</g>
</g>
</svg>
