<?xml version="1.0" encoding="utf-8"?>
<!-- Generator: Adobe Illustrator 19.2.1, SVG Export Plug-In . SVG Version: 6.00 Build 0)  -->
<svg version="1.1" id="icon" xmlns="http://www.w3.org/2000/svg" xmlns:xlink="http://www.w3.org/1999/xlink" x="0px" y="0px"
	 viewBox="0 0 48 48" style="enable-background:new 0 0 48 48;" xml:space="preserve">
<g>
	<path d="M24,44C13,44,4,35,4,24S13,4,24,4s20,9,20,20S35,44,24,44z M24,7.2C14.8,7.2,7.2,14.8,7.2,24S14.8,40.8,24,40.8
		S40.8,33.2,40.8,24S33.2,7.2,24,7.2z"/>
	<path d="M31.4,15.7L22,19.9c-0.8,0.4-1.8,1.3-2.1,2.1l-4.2,9.4c-0.4,0.8,0,1.2,0.8,0.8l9.4-4.2c0.8-0.4,1.8-1.3,2.1-2.1l4.2-9.4
		C32.6,15.7,32.3,15.4,31.4,15.7z M24,25.7c-0.9,0-1.7-0.7-1.7-1.7c0-0.9,0.7-1.7,1.7-1.7c0.9,0,1.7,0.7,1.7,1.7
		C25.7,24.9,24.9,25.7,24,25.7z"/>
	<g>
		<g>
			<g>
				<path d="M24,10c-0.9,0-1.6-0.7-1.6-1.6V5.7c0-0.9,0.7-1.6,1.6-1.6c0.9,0,1.6,0.7,1.6,1.6v2.7C25.6,9.3,24.9,10,24,10z"/>
			</g>
			<g>
				<path d="M8.4,25.6H5.7c-0.9,0-1.6-0.7-1.6-1.6s0.7-1.6,1.6-1.6h2.7c0.9,0,1.6,0.7,1.6,1.6S9.3,25.6,8.4,25.6z"/>
			</g>
			<g>
				<path d="M24,43.9c-0.9,0-1.6-0.7-1.6-1.6v-2.7c0-0.9,0.7-1.6,1.6-1.6c0.9,0,1.6,0.7,1.6,1.6v2.7C25.6,43.2,24.9,43.9,24,43.9z"
					/>
			</g>
			<g>
				<path d="M42.3,25.6h-2.7c-0.9,0-1.6-0.7-1.6-1.6s0.7-1.6,1.6-1.6h2.7c0.9,0,1.6,0.7,1.6,1.6S43.2,25.6,42.3,25.6z"/>
			</g>
		</g>
		<g>
			<g>
				<path d="M13,13.8c-0.2,0-0.4-0.1-0.6-0.2l-1.9-1.9c-0.3-0.3-0.3-0.8,0-1.1c0.3-0.3,0.8-0.3,1.1,0l1.9,1.9c0.3,0.3,0.3,0.8,0,1.1
					C13.4,13.7,13.2,13.8,13,13.8z"/>
			</g>
			<g>
				<path d="M11.1,37.7c-0.2,0-0.4-0.1-0.6-0.2c-0.3-0.3-0.3-0.8,0-1.1l1.9-1.9c0.3-0.3,0.8-0.3,1.1,0c0.3,0.3,0.3,0.8,0,1.1
					l-1.9,1.9C11.5,37.7,11.3,37.7,11.1,37.7z"/>
			</g>
			<g>
				<path d="M36.9,37.7c-0.2,0-0.4-0.1-0.6-0.2l-1.9-1.9c-0.3-0.3-0.3-0.8,0-1.1c0.3-0.3,0.8-0.3,1.1,0l1.9,1.9
					c0.3,0.3,0.3,0.8,0,1.1C37.3,37.7,37.1,37.7,36.9,37.7z"/>
			</g>
			<g>
				<path d="M35,13.8c-0.2,0-0.4-0.1-0.6-0.2c-0.3-0.3-0.3-0.8,0-1.1l1.9-1.9c0.3-0.3,0.8-0.3,1.1,0c0.3,0.3,0.3,0.8,0,1.1l-1.9,1.9
					C35.5,13.7,35.2,13.8,35,13.8z"/>
			</g>
		</g>
	</g>
</g>
</svg>
