<?xml version="1.0" encoding="utf-8"?>
<!-- Generator: Adobe Illustrator 19.1.0, SVG Export Plug-In . SVG Version: 6.00 Build 0)  -->
<svg version="1.1" id="Layer_1" xmlns="http://www.w3.org/2000/svg" xmlns:xlink="http://www.w3.org/1999/xlink" x="0px" y="0px"
	 viewBox="-350 644 48 48" style="enable-background:new -350 644 48 48;" xml:space="preserve">
<style type="text/css">
	.st0{display:none;}
	.st1{display:inline;fill:#E6E7E8;}
	.st2{display:inline;}
	.st3{fill:none;stroke:#544841;stroke-width:8.061200e-02;stroke-miterlimit:10;}
	.st4{fill:#A7B6BF;}
	.st5{fill-rule:evenodd;clip-rule:evenodd;fill:#A7B6BF;}
</style>
<g id="bg" class="st0">
	<path class="st1" d="M-660.6,1336h-30.8c-4.7,0-8.6-3.9-8.6-8.6v-30.8c0-4.7,3.9-8.6,8.6-8.6h30.8c4.7,0,8.6,3.9,8.6,8.6v30.8
		C-652,1332.1-655.9,1336-660.6,1336z"/>
</g>
<g id="lines" class="st0">
	<g class="st2">
		<line class="st3" x1="-676" y1="1288.2" x2="-676" y2="1335.8"/>
		<line class="st3" x1="-684.9" y1="1288.2" x2="-684.9" y2="1335.8"/>
		<line class="st3" x1="-667.1" y1="1288.2" x2="-667.1" y2="1335.8"/>
		<line class="st3" x1="-655.3" y1="1288.2" x2="-655.3" y2="1335.8"/>
		<line class="st3" x1="-696.7" y1="1288.2" x2="-696.7" y2="1335.8"/>
		<line class="st3" x1="-699.8" y1="1312" x2="-652.2" y2="1312"/>
		<line class="st3" x1="-699.8" y1="1303.1" x2="-652.2" y2="1303.1"/>
		<line class="st3" x1="-699.8" y1="1320.9" x2="-652.2" y2="1320.9"/>
		<line class="st3" x1="-699.8" y1="1332.7" x2="-652.2" y2="1332.7"/>
		<line class="st3" x1="-699.8" y1="1291.3" x2="-652.2" y2="1291.3"/>
		<line class="st3" x1="-699.8" y1="1288.2" x2="-652.2" y2="1335.8"/>
		<line class="st3" x1="-699.8" y1="1335.8" x2="-652.2" y2="1288.2"/>
		<circle class="st3" cx="-676" cy="1312" r="12.5"/>
		<circle class="st3" cx="-676" cy="1312" r="20.7"/>
		<g id="_x31_20px_icon_102_">
			<path id="Rectangle_7_102_" class="st3" d="M-685.1,1335.8c-5.4,0-8.5,0-11.6-3.1c-3.1-3.1-3.1-6.2-3.1-11.6v-18.2
				c0-5.4,0-8.5,3.1-11.6s6.2-3.1,11.6-3.1h18.2c5.4,0,8.5,0,11.6,3.1s3.1,6.2,3.1,11.6v18.2c0,5.4,0,8.5-3.1,11.6
				c-3.1,3.1-6.2,3.1-11.6,3.1H-685.1z"/>
		</g>
		<path class="st3" d="M-676,1297.2"/>
		<circle class="st3" cx="-676" cy="1312" r="8.8"/>
		<path class="st3" d="M-669.3,1313.1c0.1-0.4,0.1-0.7,0.1-1.1s0-0.8-0.1-1.1c-0.5-2.8-2.7-5.1-5.6-5.6c-0.4-0.1-0.8-0.1-1.1-0.1
			c-0.4,0-0.8,0-1.1,0.1c-2.9,0.5-5.1,2.7-5.6,5.6c-0.1,0.4-0.1,0.7-0.1,1.1s0,0.8,0.1,1.1c0.5,2.9,2.7,5.1,5.6,5.6
			c0.4,0.1,0.7,0.1,1.1,0.1s0.8,0,1.1-0.1C-672,1318.2-669.8,1316-669.3,1313.1z"/>
	</g>
</g>
<g>
	
		<rect x="-344.1" y="667.3" transform="matrix(0.7118 0.7024 -0.7024 0.7118 375.2511 421.5312)" class="st4" width="36.2" height="1.5"/>
	<polygon class="st5" points="-322.5,675.1 -334.3,675.1 -334.3,680.6 -334.3,680.6 -331.7,677.7 -329.1,680.6 -328.3,680.6 
		-325.9,677.7 -323.4,680.6 -322.5,680.6 -320.1,677.7 	"/>
	<g>
		<polygon class="st5" points="-331.1,659.4 -320.2,659.4 -320.2,661 -329.5,661 -327.8,662.7 -325.7,662.7 -325.7,664.2 
			-326.2,664.2 -324.8,665.7 -320.2,665.7 -320.2,667.3 -323.1,667.3 -317.6,672.7 -317.6,657.1 -333.4,657.1 		"/>
		<polygon class="st5" points="-327.3,670.4 -332.2,670.4 -332.2,668.9 -328.8,668.9 -330.4,667.3 -332.2,667.3 -332.2,665.7 
			-332.1,665.7 -334.3,663.5 -334.3,674.4 -323.3,674.4 		"/>
	</g>
</g>
</svg>
