<?xml version="1.0" encoding="utf-8"?>
<!-- Generator: Adobe Illustrator 19.2.1, SVG Export Plug-In . SVG Version: 6.00 Build 0)  -->
<svg version="1.1" id="icon" xmlns="http://www.w3.org/2000/svg" xmlns:xlink="http://www.w3.org/1999/xlink" x="0px" y="0px"
	 viewBox="0 0 48 48" style="enable-background:new 0 0 48 48;" xml:space="preserve">
<style type="text/css">
	.st0{display:none;}
	.st1{display:inline;fill:#FFFFFF;}
</style>
<g>
	<polygon points="31,13 31,15 19.2,15 21.2,17 25,17 25,19 23.2,19 25.2,21 31,21 31,23 27.2,23 34,29.8 34,10 14.2,10 17.2,13 	"/>
	<polygon points="14,32 14,38.1 14.8,38.1 17.5,34.2 20.2,38.1 21.3,38.1 24.1,34.2 26.7,38.1 27.8,38.1 30.3,34.6 27.8,32 	"/>
	<polygon points="17,27 17,25 20.8,25 18.8,23 17,23 17,21.2 14,18.2 14,30 25.8,30 22.8,27 	"/>
	<polygon points="33.2,38.1 33.8,38.1 31.8,36.1 	"/>
	<rect x="23" y="0.5" transform="matrix(0.7071 -0.7071 0.7071 0.7071 -9.9411 24)" width="2" height="47"/>
</g>
<g class="st0">
	<polygon class="st1" points="31,13 31,15 19.2,15 21.2,17 25,17 25,19 23.2,19 25.2,21 31,21 31,23 27.2,23 34,29.8 34,10 14.2,10 
		17.2,13 	"/>
	<polygon class="st1" points="14,32 14,38.1 14.8,38.1 17.5,34.2 20.2,38.1 21.3,38.1 24.1,34.2 26.7,38.1 27.8,38.1 30.3,34.6 
		27.8,32 	"/>
	<polygon class="st1" points="17,27 17,25 20.8,25 18.8,23 17,23 17,21.2 14,18.2 14,30 25.8,30 22.8,27 	"/>
	<polygon class="st1" points="33.2,38.1 33.8,38.1 31.8,36.1 	"/>
	<rect x="23" y="0.5" transform="matrix(0.7071 -0.7071 0.7071 0.7071 -9.9411 24)" class="st1" width="2" height="47"/>
</g>
</svg>
