<?xml version="1.0" encoding="utf-8"?>
<!-- Generator: Adobe Illustrator 19.1.0, SVG Export Plug-In . SVG Version: 6.00 Build 0)  -->
<svg version="1.1" id="Layer_1" xmlns="http://www.w3.org/2000/svg" xmlns:xlink="http://www.w3.org/1999/xlink" x="0px" y="0px"
	 viewBox="-350 644 48 48" style="enable-background:new -350 644 48 48;" xml:space="preserve">
<style type="text/css">
	.st0{display:none;}
	.st1{display:inline;fill:#E6E7E8;}
	.st2{display:inline;}
	.st3{fill:none;stroke:#544841;stroke-width:8.061200e-02;stroke-miterlimit:10;}
	.st4{fill:none;stroke:#A7B6BF;stroke-miterlimit:10;}
	.st5{fill-rule:evenodd;clip-rule:evenodd;fill:#A7B6BF;}
</style>
<g id="bg" class="st0">
	<path class="st1" d="M-660.6,1336h-30.8c-4.7,0-8.6-3.9-8.6-8.6v-30.8c0-4.7,3.9-8.6,8.6-8.6h30.8c4.7,0,8.6,3.9,8.6,8.6v30.8
		C-652,1332.1-655.9,1336-660.6,1336z"/>
</g>
<g id="lines" class="st0">
	<g class="st2">
		<line class="st3" x1="-676" y1="1288.2" x2="-676" y2="1335.8"/>
		<line class="st3" x1="-684.9" y1="1288.2" x2="-684.9" y2="1335.8"/>
		<line class="st3" x1="-667.1" y1="1288.2" x2="-667.1" y2="1335.8"/>
		<line class="st3" x1="-655.3" y1="1288.2" x2="-655.3" y2="1335.8"/>
		<line class="st3" x1="-696.7" y1="1288.2" x2="-696.7" y2="1335.8"/>
		<line class="st3" x1="-699.8" y1="1312" x2="-652.2" y2="1312"/>
		<line class="st3" x1="-699.8" y1="1303.1" x2="-652.2" y2="1303.1"/>
		<line class="st3" x1="-699.8" y1="1320.9" x2="-652.2" y2="1320.9"/>
		<line class="st3" x1="-699.8" y1="1332.7" x2="-652.2" y2="1332.7"/>
		<line class="st3" x1="-699.8" y1="1291.3" x2="-652.2" y2="1291.3"/>
		<line class="st3" x1="-699.8" y1="1288.2" x2="-652.2" y2="1335.8"/>
		<line class="st3" x1="-699.8" y1="1335.8" x2="-652.2" y2="1288.2"/>
		<circle class="st3" cx="-676" cy="1312" r="12.5"/>
		<circle class="st3" cx="-676" cy="1312" r="20.7"/>
		<g id="_x31_20px_icon_102_">
			<path id="Rectangle_7_102_" class="st3" d="M-685.1,1335.8c-5.4,0-8.5,0-11.6-3.1c-3.1-3.1-3.1-6.2-3.1-11.6v-18.2
				c0-5.4,0-8.5,3.1-11.6s6.2-3.1,11.6-3.1h18.2c5.4,0,8.5,0,11.6,3.1s3.1,6.2,3.1,11.6v18.2c0,5.4,0,8.5-3.1,11.6
				c-3.1,3.1-6.2,3.1-11.6,3.1H-685.1z"/>
		</g>
		<path class="st3" d="M-676,1297.2"/>
		<circle class="st3" cx="-676" cy="1312" r="8.8"/>
		<path class="st3" d="M-669.3,1313.1c0.1-0.4,0.1-0.7,0.1-1.1s0-0.8-0.1-1.1c-0.5-2.8-2.7-5.1-5.6-5.6c-0.4-0.1-0.8-0.1-1.1-0.1
			c-0.4,0-0.8,0-1.1,0.1c-2.9,0.5-5.1,2.7-5.6,5.6c-0.1,0.4-0.1,0.7-0.1,1.1s0,0.8,0.1,1.1c0.5,2.9,2.7,5.1,5.6,5.6
			c0.4,0.1,0.7,0.1,1.1,0.1s0.8,0,1.1-0.1C-672,1318.2-669.8,1316-669.3,1313.1z"/>
	</g>
</g>
<g>
	<polyline class="st4" points="-336.5,662 -336.5,656 -330.5,656 	"/>
	<polyline class="st4" points="-315.5,674 -315.5,680 -321.5,680 	"/>
	<polyline class="st4" points="-315.5,662 -315.5,656 -321.5,656 	"/>
	<polyline class="st4" points="-336.5,674 -336.5,680 -330.5,680 	"/>
	<g>
		<path class="st5" d="M-331.5,660.2v11.6h11.2v-11.6H-331.5z M-330,663.9h4.3v1h-4.3V663.9z M-325.7,669.1h-4.3v-1h4.3V669.1z
			 M-322,667h-8v-1.1h8V667z M-322,662.8h-8v-1.1h8V662.8z"/>
		<g>
			<polygon class="st5" points="-331.5,672.3 -331.5,676 -331.5,676 -329.7,674 -328,676 -327.5,676 -325.8,674 -324.2,676 
				-323.6,676 -321.9,674 -320.3,676 -320.3,676 -320.3,672.3 			"/>
		</g>
	</g>
</g>
</svg>
