<?xml version="1.0" encoding="utf-8"?>
<!-- Generator: Adobe Illustrator 19.2.1, SVG Export Plug-In . SVG Version: 6.00 Build 0)  -->
<svg version="1.1" id="icon" xmlns="http://www.w3.org/2000/svg" xmlns:xlink="http://www.w3.org/1999/xlink" x="0px" y="0px"
	 viewBox="0 0 48 48" style="enable-background:new 0 0 48 48;" xml:space="preserve">
<style type="text/css">
	.st0{fill-rule:evenodd;clip-rule:evenodd;}
	.st1{display:none;}
	.st2{display:inline;}
	.st3{fill:#FFFFFF;}
	.st4{fill-rule:evenodd;clip-rule:evenodd;fill:#FFFFFF;}
	.st5{fill:#F3A91D;}
</style>
<g>
	<g>
		<polygon points="6,13 4,13 4,2 15,2 15,4 6,4 		"/>
		<polygon points="44,35 42,35 42,44 33,44 33,46 44,46 		"/>
		<polygon points="44,2 33,2 33,4 42,4 42,13 44,13 		"/>
		<polygon points="15,44 6,44 6,35 4,35 4,46 15,46 		"/>
		<path id="receipt_x5F_add_2_" class="st0" d="M14,10v20h20V10H14z M17,17h8v2h-8V17z M25,27h-8v-2h8V27z M31,23H17v-2h14V23z
			 M31,15H17v-2h14V15z M34,32v6.1h-0.8l-2.7-3.8l-2.7,3.8h-1.2l-2.6-3.8l-2.8,3.8h-1.2l-2.7-3.8l-2.7,3.8H14V32H34z"/>
	</g>
	<g>
		<polygon points="6,13 4,13 4,2 15,2 15,4 6,4 		"/>
		<polygon points="44,35 42,35 42,44 33,44 33,46 44,46 		"/>
		<polygon points="44,2 33,2 33,4 42,4 42,13 44,13 		"/>
		<polygon points="15,44 6,44 6,35 4,35 4,46 15,46 		"/>
	</g>
</g>
<g class="st1">
	<g class="st2">
		<polygon class="st3" points="6,13 4,13 4,2 15,2 15,4 6,4 		"/>
		<polygon class="st3" points="44,35 42,35 42,44 33,44 33,46 44,46 		"/>
		<polygon class="st3" points="44,2 33,2 33,4 42,4 42,13 44,13 		"/>
		<polygon class="st3" points="15,44 6,44 6,35 4,35 4,46 15,46 		"/>
		<path id="receipt_x5F_add_1_" class="st4" d="M14,10v20h20V10H14z M17,17h8v2h-8V17z M25,27h-8v-2h8V27z M31,23H17v-2h14V23z
			 M31,15H17v-2h14V15z M34,32v6.1h-0.8l-2.7-3.8l-2.7,3.8h-1.2l-2.6-3.8l-2.8,3.8h-1.2l-2.7-3.8l-2.7,3.8H14V32H34z"/>
	</g>
	<g class="st2">
		<polygon class="st5" points="6,13 4,13 4,2 15,2 15,4 6,4 		"/>
		<polygon class="st5" points="44,35 42,35 42,44 33,44 33,46 44,46 		"/>
		<polygon class="st5" points="44,2 33,2 33,4 42,4 42,13 44,13 		"/>
		<polygon class="st5" points="15,44 6,44 6,35 4,35 4,46 15,46 		"/>
	</g>
</g>
</svg>
