<?xml version="1.0" encoding="utf-8"?>
<!-- Generator: Adobe Illustrator 19.2.1, SVG Export Plug-In . SVG Version: 6.00 Build 0)  -->
<svg version="1.1" id="icon" xmlns="http://www.w3.org/2000/svg" xmlns:xlink="http://www.w3.org/1999/xlink" x="0px" y="0px"
	 viewBox="0 0 48 48" style="enable-background:new 0 0 48 48;" xml:space="preserve">
<g>
	<path d="M16.8,42h19.1c0.6,0,1,0.4,1,1s-0.4,1-1,1H16.8c-0.6,0-1-0.4-1-1S16.2,42,16.8,42z"/>
	<rect x="10.7" y="19.3" transform="matrix(0.5483 -0.8363 0.8363 0.5483 -9.5521 29.7159)" width="24.1" height="8.8"/>
	<g>
		<path d="M33.1,13.2l-4.9-3.3L27.1,9l2.7-4.3c0.4-0.7,1.3-0.9,2-0.4l4.9,3.3c0.7,0.4,0.9,1.3,0.4,2l-2.7,4.3L33.1,13.2z"/>
	</g>
	<path d="M18.2,38.2L11.2,42c-0.3,0-0.6-0.1-0.6-0.4l0.7-8L18.2,38.2z"/>
</g>
</svg>
