<?xml version="1.0" encoding="utf-8"?>
<!-- Generator: Adobe Illustrator 19.2.1, SVG Export Plug-In . SVG Version: 6.00 Build 0)  -->
<svg version="1.1" id="icon" xmlns="http://www.w3.org/2000/svg" xmlns:xlink="http://www.w3.org/1999/xlink" x="0px" y="0px"
	 viewBox="0 0 48 48" style="enable-background:new 0 0 48 48;" xml:space="preserve">
<path id="error_1_" d="M24,4C13,4,4,13,4,24c0,11,9,20,20,20c11,0,20-9,20-20C44,13,35,4,24,4z M24.6,37.9c-1.9,0-3.2-1.5-3.2-3.2
	c0-1.7,1.5-3.2,3.2-3.2c1.7,0,3.2,1.5,3.2,3.2C27.8,36.4,26.5,37.9,24.6,37.9z M26.5,28.4h-4l-1.3-16.2h6.7L26.5,28.4z"/>
</svg>
