<?xml version="1.0" encoding="utf-8"?>
<!-- Generator: Adobe Illustrator 19.2.1, SVG Export Plug-In . SVG Version: 6.00 Build 0)  -->
<svg version="1.1" id="icon" xmlns="http://www.w3.org/2000/svg" xmlns:xlink="http://www.w3.org/1999/xlink" x="0px" y="0px"
	 viewBox="0 0 48 48" style="enable-background:new 0 0 48 48;" xml:space="preserve">
<style type="text/css">
	.st0{filter:url(#Adobe_OpacityMaskFilter);}
	.st1{fill:#FFFFFF;}
	.st2{mask:url(#expenses_1_);}
</style>
<defs>
	<filter id="Adobe_OpacityMaskFilter" filterUnits="userSpaceOnUse" x="4" y="8.6" width="38.2" height="30.4">
		<feColorMatrix  type="matrix" values="1 0 0 0 0  0 1 0 0 0  0 0 1 0 0  0 0 0 1 0"/>
	</filter>
</defs>
<mask maskUnits="userSpaceOnUse" x="4" y="8.6" width="38.2" height="30.4" id="expenses_1_">
	<g class="st0">
		<g>
			<path class="st1" d="M9,35V21c0-2.2,1.8-4,4-4h26.2l-2.1-5.8c-0.8-2.1-3.1-3.1-5.1-2.4L6.6,18.1c-2.1,0.8-3.1,3.1-2.4,5.1L9,36.4
				C9.6,38,11.2,39,12.8,39C10.7,38.9,9,37.2,9,35z"/>
		</g>
	</g>
</mask>
<path id="expenses_3_" class="st2" d="M4.2,23.2L9,36.4c0.8,2.1,3.1,3.1,5.1,2.4l25.4-9.2c2.1-0.8,3.1-3.1,2.4-5.1l-4.8-13.2
	c-0.8-2.1-3.1-3.1-5.1-2.4L6.6,18.1C4.6,18.8,3.5,21.1,4.2,23.2z"/>
<path id="expenses_2_" d="M9,21v14c0,2.2,1.8,4,4,4h27c2.2,0,4-1.8,4-4V21c0-2.2-1.8-4-4-4H13C10.8,17,9,18.8,9,21z M10,21
	c0-1.7,1.3-3,3-3l27,0c1.7,0,3,1.3,3,3v0L10,21L10,21z M43,35c0,1.6-1.3,3-3,3l-27,0c-1.7,0-3-1.3-3-3V25h33V35z M40,31h-2
	c-0.6,0-1-0.4-1-1v-2c0-0.6,0.4-1,1-1h2c0.6,0,1,0.4,1,1v2C41,30.6,40.6,31,40,31z"/>
</svg>
