<?xml version="1.0" encoding="utf-8"?>
<!-- Generator: Adobe Illustrator 19.2.1, SVG Export Plug-In . SVG Version: 6.00 Build 0)  -->
<svg version="1.1" id="icon" xmlns="http://www.w3.org/2000/svg" xmlns:xlink="http://www.w3.org/1999/xlink" x="0px" y="0px"
	 viewBox="0 0 48 48" style="enable-background:new 0 0 48 48;" xml:space="preserve">
<path id="expense_x5F_report_1_" d="M32,4l10,10h-8c-1.1,0-2-0.9-2-2V4z M42,16v26c0,1.1-0.9,2-2,2H8c-1.1,0-2-0.9-2-2V6
	c0-1.1,0.9-2,2-2h22v10c0,1.1,0.9,2,2,2H42z M11,10h14c0.6,0,1-0.4,1-1v0c0-0.6-0.4-1-1-1H11c-0.6,0-1,0.4-1,1v0
	C10,9.6,10.4,10,11,10z M11,16h14c0.6,0,1-0.4,1-1v0c0-0.6-0.4-1-1-1H11c-0.6,0-1,0.4-1,1v0C10,15.6,10.4,16,11,16z M33,26H11
	c-0.6,0-1,0.4-1,1v0c0,0.6,0.4,1,1,1h22c0.6,0,1-0.4,1-1v0C34,26.4,33.6,26,33,26z M37,20H11c-0.6,0-1,0.4-1,1v0c0,0.6,0.4,1,1,1h26
	c0.6,0,1-0.4,1-1v0C38,20.4,37.6,20,37,20z"/>
</svg>
