<?xml version="1.0" encoding="utf-8"?>
<!-- Generator: Adobe Illustrator 19.2.1, SVG Export Plug-In . SVG Version: 6.00 Build 0)  -->
<svg version="1.1" id="icon" xmlns="http://www.w3.org/2000/svg" xmlns:xlink="http://www.w3.org/1999/xlink" x="0px" y="0px"
	 viewBox="0 0 48 48" style="enable-background:new 0 0 48 48;" xml:space="preserve">
<style type="text/css">
	.st0{display:none;}
	.st1{display:inline;fill:#FFFFFF;}
	.st2{display:inline;}
	.st3{fill:#FFFFFF;}
</style>
<g>
	<rect x="23" y="0.5" transform="matrix(0.7071 -0.7071 0.7071 0.7071 -9.9411 24)" width="2" height="47"/>
	<g>
		<polygon points="24.1,25.1 23.7,25.1 24,25.4 		"/>
		<polygon points="30.1,5.3 20.7,16.5 24.7,20.4 		"/>
		<polygon points="13.5,25.1 20.8,25.1 16.8,21.1 		"/>
		<polygon points="17.8,42.7 26.8,31.1 23.3,27.5 		"/>
		<polygon points="34.5,21.2 25.4,21.2 30.5,26.3 		"/>
	</g>
</g>
<g class="st0">
	<rect x="23" y="0.5" transform="matrix(0.7071 -0.7071 0.7071 0.7071 -9.9411 24)" class="st1" width="2" height="47"/>
	<g class="st2">
		<polygon class="st3" points="24.1,25.1 23.7,25.1 24,25.4 		"/>
		<polygon class="st3" points="30.1,5.3 20.7,16.5 24.7,20.4 		"/>
		<polygon class="st3" points="13.5,25.1 20.8,25.1 16.8,21.1 		"/>
		<polygon class="st3" points="17.8,42.7 26.8,31.1 23.3,27.5 		"/>
		<polygon class="st3" points="34.5,21.2 25.4,21.2 30.5,26.3 		"/>
	</g>
</g>
</svg>
