<?xml version="1.0" encoding="utf-8"?>
<!-- Generator: Adobe Illustrator 19.2.1, SVG Export Plug-In . SVG Version: 6.00 Build 0)  -->
<svg version="1.1" id="icon" xmlns="http://www.w3.org/2000/svg" xmlns:xlink="http://www.w3.org/1999/xlink" x="0px" y="0px"
	 viewBox="0 0 48 48" style="enable-background:new 0 0 48 48;" xml:space="preserve">
<path id="flight_1_" d="M39.7,39.4L36,25.5l-0.1-0.4c0.5,0,1.1-0.3,1.5-0.8l2.2-2.2l-2.3-2.3l-2,2l-0.9-4.4l5.6-5.6
	c1-1,3.8-5.5,2.9-6.5l-0.3-0.3c-1-1-5.5,1.9-6.5,2.9l-5.6,5.6l-4.4-0.9l2-2l-2.3-2.3l-2.2,2.2c-0.4,0.4-0.6,1-0.8,1.5l-0.4-0.1
	l-14-3.7C7.7,8.1,6.8,8.4,6.1,9L5.4,9.8l9.6,4.4c2.4,1.1,4.6,2.7,6.5,4.6l1.8,1.8c-5.8,6.3-5.5,5.6-9.8,11.3l-5.7-1.3
	c-0.5-0.1-1.1,0-1.5,0.4L5,32.2l6,3.4c-1.3,1.8-2,3.2-1.9,3.3c0.3,0.3,1.5-0.6,3.3-1.9l3.4,6l1.3-1.3c0.4-0.4,0.6-1,0.4-1.5L16,34.4
	c5.7-4.3,5.1-3.8,11.3-9.8l1.8,1.8c1.9,1.9,3.4,4.1,4.6,6.5l4.4,9.6l0.8-0.8C39.7,41.2,39.8,40.3,39.7,39.4z"/>
</svg>
