<?xml version="1.0" encoding="utf-8"?>
<!-- Generator: Adobe Illustrator 19.2.1, SVG Export Plug-In . SVG Version: 6.00 Build 0)  -->
<svg version="1.1" id="icon" xmlns="http://www.w3.org/2000/svg" xmlns:xlink="http://www.w3.org/1999/xlink" x="0px" y="0px"
	 viewBox="0 0 48 48" style="enable-background:new 0 0 48 48;" xml:space="preserve">
<path id="person_1_" d="M24,25.7c4.7,0,8.7-6.8,8.7-11.7S28.7,5,24,5s-8.7,4.1-8.7,9S19.3,25.7,24,25.7z M38.8,32
	c-1.7-2.5-10-4.6-14.8-4.6s-13.1,2-14.8,4.6c-1.7,2.5-2.4,6.3-2.5,8.5c0,0.3,0.2,0.7,0.7,0.8C9.1,41.8,14.7,43,24,43
	s14.9-1.2,16.6-1.7c0.5-0.2,0.7-0.5,0.7-0.8C41.1,38.2,40.5,34.7,38.8,32z"/>
</svg>
