<?xml version="1.0" encoding="utf-8"?>
<!-- Generator: Adobe Illustrator 19.2.1, SVG Export Plug-In . SVG Version: 6.00 Build 0)  -->
<svg version="1.1" id="icon" xmlns="http://www.w3.org/2000/svg" xmlns:xlink="http://www.w3.org/1999/xlink" x="0px" y="0px"
	 viewBox="0 0 48 48" style="enable-background:new 0 0 48 48;" xml:space="preserve">
<g id="emergency_2_">
	<path d="M30.1,30.1c-1.2,1.2-2.8,2-4.4,2.3l6.6,6.6c1.4-0.8,2.7-1.7,3.9-2.9s2.1-2.5,2.9-3.9l-6.6-6.6
		C32.1,27.3,31.3,28.8,30.1,30.1z"/>
	<path d="M17.9,30.1c-1.2-1.2-2-2.8-2.3-4.4L9,32.3c0.8,1.4,1.7,2.7,2.9,3.9s2.5,2.1,3.9,2.9l6.6-6.6C20.7,32.1,19.2,31.3,17.9,30.1
		z"/>
	<path d="M32.3,9l-6.6,6.6c1.6,0.3,3.1,1.1,4.4,2.3s2,2.8,2.3,4.4l6.6-6.6c-0.8-1.4-1.7-2.7-2.9-3.9S33.7,9.8,32.3,9z"/>
	<path d="M17.9,17.9c1.2-1.2,2.8-2,4.4-2.3L15.7,9c-1.4,0.8-2.7,1.7-3.9,2.9S9.8,14.3,9,15.7l6.6,6.6C15.9,20.7,16.7,19.2,17.9,17.9
		z"/>
	<path d="M9.9,9.9C2,17.7,2,30.3,9.9,38.1c7.8,7.8,20.5,7.8,28.3,0s7.8-20.5,0-28.3C30.3,2,17.7,2,9.9,9.9z M36.1,36.1
		c-6.7,6.7-17.5,6.7-24.2,0c-6.7-6.7-6.7-17.5,0-24.2s17.5-6.7,24.2,0C42.8,18.6,42.8,29.4,36.1,36.1z"/>
	<path d="M15.9,15.9c-4.5,4.5-4.5,11.7,0,16.2c4.5,4.5,11.7,4.5,16.2,0s4.5-11.7,0-16.2C27.6,11.5,20.4,11.5,15.9,15.9z M30.1,30.1
		c-3.3,3.3-8.8,3.3-12.1,0c-3.3-3.3-3.3-8.8,0-12.1s8.8-3.3,12.1,0C33.4,21.3,33.4,26.7,30.1,30.1z"/>
</g>
</svg>
