<?xml version="1.0" encoding="utf-8"?>
<!-- Generator: Adobe Illustrator 19.2.1, SVG Export Plug-In . SVG Version: 6.00 Build 0)  -->
<svg version="1.1" id="icon" xmlns="http://www.w3.org/2000/svg" xmlns:xlink="http://www.w3.org/1999/xlink" x="0px" y="0px"
	 viewBox="0 0 48 48" style="enable-background:new 0 0 48 48;" xml:space="preserve">
<rect x="32" y="18" width="8" height="26"/>
<path d="M19,4l-7,5h14L19,4z"/>
<g>
	<path d="M8,11v33h22V11H8z M14.5,40C13,40,12,38.8,12,37.5c-0.2-1.3,1-2.5,2.5-2.5c1.3,0,2.5,1.2,2.5,2.5C17,39,15.8,40,14.5,40z
		 M14.5,33C13,33,12,31.8,12,30.5c-0.2-1.3,1-2.5,2.5-2.5c1.3,0,2.5,1.2,2.5,2.5C17,31.8,15.8,33,14.5,33z M14.5,26
		C13,26,12,24.8,12,23.5c-0.2-1.3,1-2.5,2.5-2.5c1.3,0,2.5,1.2,2.5,2.5C17,25,15.8,26,14.5,26z M14.5,19C13,19,12,17.8,12,16.5
		c-0.2-1.3,1-2.5,2.5-2.5c1.3,0,2.5,1.2,2.5,2.5C17,18,15.8,19,14.5,19z M23.5,40C22,40,21,38.8,21,37.5c-0.2-1.3,1-2.5,2.5-2.5
		c1.3,0,2.5,1.2,2.5,2.5C26,39,24.8,40,23.5,40z M23.5,33C22,33,21,31.8,21,30.5c-0.2-1.3,1-2.5,2.5-2.5c1.3,0,2.5,1.2,2.5,2.5
		C26,31.8,24.8,33,23.5,33z M23.5,26C22,26,21,24.8,21,23.5c-0.2-1.3,1-2.5,2.5-2.5c1.3,0,2.5,1.2,2.5,2.5C26,25,24.8,26,23.5,26z
		 M23.5,19C22,19,21,17.8,21,16.5c-0.2-1.3,1-2.5,2.5-2.5c1.3,0,2.5,1.2,2.5,2.5C26,18,24.8,19,23.5,19z"/>
</g>
</svg>
