<?xml version="1.0" encoding="utf-8"?>
<!-- Generator: Adobe Illustrator 19.2.1, SVG Export Plug-In . SVG Version: 6.00 Build 0)  -->
<svg version="1.1" id="icon" xmlns="http://www.w3.org/2000/svg" xmlns:xlink="http://www.w3.org/1999/xlink" x="0px" y="0px"
	 viewBox="0 0 48 48" style="enable-background:new 0 0 48 48;" xml:space="preserve">
<style type="text/css">
	.st0{display:none;}
	.st1{display:inline;fill:#EB3028;}
	.st2{display:inline;}
	.st3{fill:#927246;}
	.st4{display:inline;fill:#A7B6BF;}
	.st5{fill:#A7B6BF;}
</style>
<g class="st0">
	<path class="st1" d="M29.4,25.8h13.6c0.6,0,1.1-0.5,1.1-1.1v-6.5c0-0.6-0.5-1.1-1.1-1.1H28.7h-0.2c-5.3,0-9.5,4.3-9.5,9.5v0.3v0.5
		v0.3c0,4.3,2.9,8,6.9,9.2c0.1,0,0.2,0.2,0.3,0.3c0.1,1.4,1.4,2.6,2.9,2.6c1.4,0,2.5-1,2.8-2.2c0-0.2,0.2-0.3,0.3-0.3h3.6
		c0.2,0,0.3,0.1,0.3,0.3c0.3,1.3,1.4,2.2,2.8,2.2s2.5-1,2.8-2.2c0-0.2,0.2-0.3,0.3-0.3h1c0.6,0,1.1-0.5,1.1-1.1v-6.5
		c0-0.6-0.5-1.1-1.1-1.1H29.4c-0.8,0-1.4-0.6-1.4-1.4v-0.2C28,26.4,28.6,25.8,29.4,25.8z M38.8,35.1c1.1,0,1.9,0.9,1.9,1.9
		c0,1.1-0.9,1.9-1.9,1.9c-1.1,0-1.9-0.9-1.9-1.9C36.8,36,37.7,35.1,38.8,35.1z M28.9,35.1c1.1,0,1.9,0.9,1.9,1.9
		c0,1.1-0.9,1.9-1.9,1.9c-1.1,0-1.9-0.9-1.9-1.9C26.9,36,27.8,35.1,28.9,35.1z"/>
	<g class="st2">
		<path class="st3" d="M14,37.4H9.8c-1.3,0-2.4-1.1-2.4-2.4V19.6c0-1.3,1.1-2.4,2.4-2.4H14c1.3,0,2.4,1.1,2.4,2.4V35
			C16.4,36.3,15.3,37.4,14,37.4z"/>
		<path class="st3" d="M11.9,15.3l-6.5-3l6.5-3l6.5,3L11.9,15.3z M19.1,11.3l-6.8-3.2C12,8,11.7,8,11.4,8.2l-6.8,3.2
			c-0.8,0.4-0.8,1.5,0,1.9l6.8,3.2c0.3,0.1,0.6,0.1,0.9,0l6.8-3.2C19.9,12.9,19.9,11.7,19.1,11.3z"/>
	</g>
</g>
<g>
	<path d="M29.4,25.8h13.6c0.6,0,1.1-0.5,1.1-1.1v-6.5c0-0.6-0.5-1.1-1.1-1.1H28.7h-0.2c-5.3,0-9.5,4.3-9.5,9.5v0.3v0.5v0.3
		c0,4.3,2.9,8,6.9,9.2c0.1,0,0.2,0.2,0.3,0.3c0.1,1.4,1.4,2.6,2.9,2.6c1.4,0,2.5-1,2.8-2.2c0-0.2,0.2-0.3,0.3-0.3h3.6
		c0.2,0,0.3,0.1,0.3,0.3c0.3,1.3,1.4,2.2,2.8,2.2s2.5-1,2.8-2.2c0-0.2,0.2-0.3,0.3-0.3h1c0.6,0,1.1-0.5,1.1-1.1v-6.5
		c0-0.6-0.5-1.1-1.1-1.1H29.4c-0.8,0-1.4-0.6-1.4-1.4v-0.2C28,26.4,28.6,25.8,29.4,25.8z M38.8,35.1c1.1,0,1.9,0.9,1.9,1.9
		c0,1.1-0.9,1.9-1.9,1.9c-1.1,0-1.9-0.9-1.9-1.9C36.8,36,37.7,35.1,38.8,35.1z M28.9,35.1c1.1,0,1.9,0.9,1.9,1.9
		c0,1.1-0.9,1.9-1.9,1.9c-1.1,0-1.9-0.9-1.9-1.9C26.9,36,27.8,35.1,28.9,35.1z"/>
	<g>
		<path d="M14,37.4H9.8c-1.3,0-2.4-1.1-2.4-2.4V19.6c0-1.3,1.1-2.4,2.4-2.4H14c1.3,0,2.4,1.1,2.4,2.4V35
			C16.4,36.3,15.3,37.4,14,37.4z"/>
		<path d="M11.9,15.3l-6.5-3l6.5-3l6.5,3L11.9,15.3z M19.1,11.3l-6.8-3.2C12,8,11.7,8,11.4,8.2l-6.8,3.2c-0.8,0.4-0.8,1.5,0,1.9
			l6.8,3.2c0.3,0.1,0.6,0.1,0.9,0l6.8-3.2C19.9,12.9,19.9,11.7,19.1,11.3z"/>
	</g>
</g>
<g class="st0">
	<path class="st4" d="M29.4,25.8h13.6c0.6,0,1.1-0.5,1.1-1.1v-6.5c0-0.6-0.5-1.1-1.1-1.1H28.7h-0.2c-5.3,0-9.5,4.3-9.5,9.5v0.3v0.5
		v0.3c0,4.3,2.9,8,6.9,9.2c0.1,0,0.2,0.2,0.3,0.3c0.1,1.4,1.4,2.6,2.9,2.6c1.4,0,2.5-1,2.8-2.2c0-0.2,0.2-0.3,0.3-0.3h3.6
		c0.2,0,0.3,0.1,0.3,0.3c0.3,1.3,1.4,2.2,2.8,2.2s2.5-1,2.8-2.2c0-0.2,0.2-0.3,0.3-0.3h1c0.6,0,1.1-0.5,1.1-1.1v-6.5
		c0-0.6-0.5-1.1-1.1-1.1H29.4c-0.8,0-1.4-0.6-1.4-1.4v-0.2C28,26.4,28.6,25.8,29.4,25.8z M38.8,35.1c1.1,0,1.9,0.9,1.9,1.9
		c0,1.1-0.9,1.9-1.9,1.9c-1.1,0-1.9-0.9-1.9-1.9C36.8,36,37.7,35.1,38.8,35.1z M28.9,35.1c1.1,0,1.9,0.9,1.9,1.9
		c0,1.1-0.9,1.9-1.9,1.9c-1.1,0-1.9-0.9-1.9-1.9C26.9,36,27.8,35.1,28.9,35.1z"/>
	<g class="st2">
		<path class="st5" d="M14,37.4H9.8c-1.3,0-2.4-1.1-2.4-2.4V19.6c0-1.3,1.1-2.4,2.4-2.4H14c1.3,0,2.4,1.1,2.4,2.4V35
			C16.4,36.3,15.3,37.4,14,37.4z"/>
		<path class="st5" d="M11.9,15.3l-6.5-3l6.5-3l6.5,3L11.9,15.3z M19.1,11.3l-6.8-3.2C12,8,11.7,8,11.4,8.2l-6.8,3.2
			c-0.8,0.4-0.8,1.5,0,1.9l6.8,3.2c0.3,0.1,0.6,0.1,0.9,0l6.8-3.2C19.9,12.9,19.9,11.7,19.1,11.3z"/>
	</g>
</g>
</svg>
