<?xml version="1.0" encoding="utf-8"?>
<!-- Generator: Adobe Illustrator 19.2.1, SVG Export Plug-In . SVG Version: 6.00 Build 0)  -->
<svg version="1.1" id="icon" xmlns="http://www.w3.org/2000/svg" xmlns:xlink="http://www.w3.org/1999/xlink" x="0px" y="0px"
	 viewBox="0 0 48 48" style="enable-background:new 0 0 48 48;" xml:space="preserve">
<path id="link_1_" d="M21.9,31.7L18,35.5c-0.8,0.8-1.7,1.1-2.8,1.1c-1.1,0-2-0.5-2.8-1.1c-0.8-0.8-1.1-1.7-1.1-2.8
	c0-1.1,0.5-2,1.1-2.8l6.8-6.8c0.8-0.8,1.7-1.1,2.8-1.1c1.1,0,2,0.5,2.8,1.1l0,0l0,0l0,0c0.3,0.3,0.8,0.5,1.1,0.5
	c0.5,0,0.8-0.2,1.1-0.5l1.7-1.7c-0.3-0.5-0.6-0.9-1.1-1.2C26,18.8,23.9,18,21.9,18c-2.2,0-4.2,0.8-5.7,2.3l-6.8,6.8
	c-3.2,3.2-3.2,8.3,0,11.5c1.5,1.5,3.7,2.3,5.7,2.3c2.2,0,4.2-0.8,5.7-2.3l6.2-6.2c-0.3,0-0.8,0-1.1,0C24.7,32.5,23.3,32.2,21.9,31.7
	z M38.7,9.4C37.1,7.8,35,7.1,33,7.1c-2.2,0-4.2,0.8-5.7,2.3l-6.2,6.2c0.3,0,0.8,0,1.1,0c1.4,0,2.8,0.3,4.2,0.8l3.8-3.8
	c0.8-0.8,1.7-1.1,2.8-1.1c1.1,0,2,0.5,2.8,1.1c1.5,1.5,1.5,4,0,5.5L29,24.8c-0.8,0.8-1.7,1.1-2.8,1.1c-1.1,0-2-0.5-2.8-1.1l0,0l0,0
	l0,0c-0.3-0.3-0.8-0.5-1.1-0.5c-0.5,0-0.8,0.2-1.1,0.5l-1.7,1.7c0.3,0.5,0.6,0.9,1.1,1.2c1.5,1.5,3.7,2.3,5.7,2.3
	c2.2,0,4.2-0.8,5.7-2.3l6.8-6.8C41.8,17.8,41.8,12.6,38.7,9.4z"/>
</svg>
