<?xml version="1.0" encoding="utf-8"?>
<!-- Generator: Adobe Illustrator 19.0.0, SVG Export Plug-In . SVG Version: 6.00 Build 0)  -->
<svg version="1.1" id="icon" xmlns="http://www.w3.org/2000/svg" xmlns:xlink="http://www.w3.org/1999/xlink" x="0px" y="0px"
	 viewBox="-333 627.5 82.6 81.5" style="enable-background:new -333 627.5 82.6 81.5;" xml:space="preserve">
<style type="text/css">
	.st0{fill:#A7B6BF;}
</style>
<g>
	<path class="st0" d="M-273.6,656c0,1.6-1.3,2.9-2.9,2.9h-19.2c-1.6,0-2.9-1.3-2.9-2.9l0,0c0-1.6,1.3-2.9,2.9-2.9h19.3
		C-274.8,653.1-273.6,654.4-273.6,656L-273.6,656z"/>
	<path class="st0" d="M-273.6,668.1c0,1.6-1.3,2.9-2.9,2.9h-19.2c-1.6,0-2.9-1.3-2.9-2.9l0,0c0-1.6,1.3-2.9,2.9-2.9h19.3
		C-274.8,665.2-273.6,666.5-273.6,668.1L-273.6,668.1z"/>
	<path class="st0" d="M-273.6,680.5c0,1.6-1.3,2.9-2.9,2.9h-19.2c-1.6,0-2.9-1.3-2.9-2.9l0,0c0-1.6,1.3-2.9,2.9-2.9h19.3
		C-274.8,677.7-273.6,678.9-273.6,680.5L-273.6,680.5z"/>
	<path class="st0" d="M-302.2,656c0,1.6-1.3,2.9-2.9,2.9h-1.9c-1.6,0-2.9-1.3-2.9-2.9l0,0c0-1.6,1.3-2.9,2.9-2.9h1.9
		C-303.5,653.1-302.2,654.4-302.2,656L-302.2,656z"/>
	<path class="st0" d="M-302.2,668.1c0,1.6-1.3,2.9-2.9,2.9h-1.9c-1.6,0-2.9-1.3-2.9-2.9l0,0c0-1.6,1.3-2.9,2.9-2.9h1.9
		C-303.5,665.2-302.2,666.5-302.2,668.1L-302.2,668.1z"/>
	<path class="st0" d="M-302.2,680.5c0,1.6-1.3,2.9-2.9,2.9h-1.9c-1.6,0-2.9-1.3-2.9-2.9l0,0c0-1.6,1.3-2.9,2.9-2.9h1.9
		C-303.5,677.7-302.2,678.9-302.2,680.5L-302.2,680.5z"/>
</g>
</svg>
