<?xml version="1.0" encoding="utf-8"?>
<!-- Generator: Adobe Illustrator 19.2.1, SVG Export Plug-In . SVG Version: 6.00 Build 0)  -->
<svg version="1.1" id="icon" xmlns="http://www.w3.org/2000/svg" xmlns:xlink="http://www.w3.org/1999/xlink" x="0px" y="0px"
	 viewBox="0 0 48 48" style="enable-background:new 0 0 48 48;" xml:space="preserve">
<g>
	<path d="M40,40H19c-1.6,0-3-1.3-3-3v0c0-1.6,1.3-3,3-3h21c1.6,0,3,1.3,3,3v0C43,38.7,41.7,40,40,40z"/>
	<path d="M40,27H19c-1.6,0-3-1.3-3-3v0c0-1.6,1.3-3,3-3h21c1.6,0,3,1.3,3,3v0C43,25.7,41.7,27,40,27z"/>
	<path d="M40,14H19c-1.6,0-3-1.3-3-3v0c0-1.6,1.3-3,3-3h21c1.6,0,3,1.3,3,3v0C43,12.7,41.7,14,40,14z"/>
</g>
<g>
	<path d="M10,40H8c-1.6,0-3-1.3-3-3v0c0-1.6,1.3-3,3-3h2c1.6,0,3,1.3,3,3v0C13,38.7,11.7,40,10,40z"/>
	<path d="M10,27H8c-1.6,0-3-1.3-3-3v0c0-1.6,1.3-3,3-3h2c1.6,0,3,1.3,3,3v0C13,25.7,11.7,27,10,27z"/>
	<path d="M10,14H8c-1.6,0-3-1.3-3-3v0c0-1.6,1.3-3,3-3h2c1.6,0,3,1.3,3,3v0C13,12.7,11.7,14,10,14z"/>
</g>
</svg>
