<?xml version="1.0" encoding="utf-8"?>
<!-- Generator: Adobe Illustrator 19.2.1, SVG Export Plug-In . SVG Version: 6.00 Build 0)  -->
<svg version="1.1" id="icon" xmlns="http://www.w3.org/2000/svg" xmlns:xlink="http://www.w3.org/1999/xlink" x="0px" y="0px"
	 viewBox="0 0 48 48" style="enable-background:new 0 0 48 48;" xml:space="preserve">
<path id="mail_1_" d="M4,15v18.3l9.2-9L4,15z M44,33V14.8l-9.2,9L44,33z M42.1,9.9H5.6c-1,0-1.6,0.8-1.6,1.6v0.3l16.3,16.4
	c1,1,2.2,1.4,3.7,1.4s2.7-0.5,3.7-1.4L44,11.8v-0.3C43.7,10.7,43,9.9,42.1,9.9z M29.4,29.2c-1.4,1.4-3,2.5-5.6,2.5s-4.1-1-5.6-2.5
	l-3.7-3.7L4,36.2v0.3c0,1,0.8,1.6,1.6,1.6h36.5c1,0,1.6-0.8,1.6-1.6v-0.3L33,25.6L29.4,29.2z"/>
</svg>
