<?xml version="1.0" encoding="utf-8"?>
<!-- Generator: Adobe Illustrator 19.0.0, SVG Export Plug-In . SVG Version: 6.00 Build 0)  -->
<svg version="1.1" id="Layer_1" xmlns="http://www.w3.org/2000/svg" xmlns:xlink="http://www.w3.org/1999/xlink" x="0px" y="0px"
	 viewBox="-350 644 48 48" style="enable-background:new -350 644 48 48;" xml:space="preserve">
<style type="text/css">
	.st0{display:none;}
	.st1{display:inline;fill:#E6E7E8;}
	.st2{display:inline;}
	.st3{fill:none;stroke:#544841;stroke-width:8.061200e-02;stroke-miterlimit:10;}
	.st4{fill:#A7B6BF;}
</style>
<g id="bg" class="st0">
	<path class="st1" d="M-1148.6,1826h-30.8c-4.7,0-8.6-3.9-8.6-8.6v-30.8c0-4.7,3.9-8.6,8.6-8.6h30.8c4.7,0,8.6,3.9,8.6,8.6v30.8
		C-1140,1822.1-1143.9,1826-1148.6,1826z"/>
</g>
<g id="lines" class="st0">
	<g class="st2">
		<line class="st3" x1="-1164.2" y1="1778.3" x2="-1164.2" y2="1826"/>
		<line class="st3" x1="-1173" y1="1778.3" x2="-1173" y2="1826"/>
		<line class="st3" x1="-1155.3" y1="1778.3" x2="-1155.3" y2="1826"/>
		<line class="st3" x1="-1143.4" y1="1778.3" x2="-1143.4" y2="1826"/>
		<line class="st3" x1="-1184.9" y1="1778.3" x2="-1184.9" y2="1826"/>
		<line class="st3" x1="-1188" y1="1802.2" x2="-1140.3" y2="1802.2"/>
		<line class="st3" x1="-1188" y1="1793.3" x2="-1140.3" y2="1793.3"/>
		<line class="st3" x1="-1188" y1="1811" x2="-1140.3" y2="1811"/>
		<line class="st3" x1="-1188" y1="1822.9" x2="-1140.3" y2="1822.9"/>
		<line class="st3" x1="-1188" y1="1781.4" x2="-1140.3" y2="1781.4"/>
		<line class="st3" x1="-1188" y1="1778.3" x2="-1140.3" y2="1826"/>
		<line class="st3" x1="-1188" y1="1826" x2="-1140.3" y2="1778.3"/>
		<circle class="st3" cx="-1164.2" cy="1802.2" r="12.5"/>
		<circle class="st3" cx="-1164.2" cy="1802.2" r="20.7"/>
		<g id="_x31_20px_icon_102_">
			<path id="Rectangle_7_102_" class="st3" d="M-1173.3,1826c-5.4,0-8.5,0-11.6-3.1c-3.1-3.1-3.1-6.2-3.1-11.6v-18.2
				c0-5.4,0-8.5,3.1-11.7c3.1-3.1,6.2-3.1,11.6-3.1h18.2c5.4,0,8.5,0,11.6,3.1s3.1,6.2,3.1,11.6v18.2c0,5.4,0,8.5-3.1,11.6
				c-3,3.2-6.2,3.2-11.6,3.2H-1173.3z"/>
		</g>
		<path class="st3" d="M-1164.2,1787.3"/>
		<circle class="st3" cx="-1164.2" cy="1802.2" r="8.8"/>
		<path class="st3" d="M-1157.5,1803.3c0.1-0.4,0.1-0.7,0.1-1.1s0-0.8-0.1-1.1c-0.5-2.8-2.7-5.1-5.6-5.6c-0.4-0.1-0.8-0.1-1.1-0.1
			c-0.4,0-0.8,0-1.1,0.1c-2.9,0.5-5.1,2.7-5.6,5.6c-0.1,0.4-0.1,0.7-0.1,1.1s0,0.8,0.1,1.1c0.5,2.9,2.7,5.1,5.6,5.6
			c0.4,0.1,0.7,0.1,1.1,0.1s0.8,0,1.1-0.1C-1160.2,1808.4-1158,1806.1-1157.5,1803.3z"/>
	</g>
</g>
<path class="st4" d="M-338.6,662.3v11.5l5.8-5.7L-338.6,662.3z M-313.6,673.7v-11.5l-5.8,5.7L-313.6,673.7z M-314.6,659.1h-23
	c-0.6,0-1,0.5-1,1v0.2l10.3,10.3c0.6,0.6,1.4,0.9,2.3,0.9s1.7-0.3,2.3-0.9l10.3-10.3v-0.2C-313.6,659.6-314,659.1-314.6,659.1z
	 M-322.6,671.3c-0.9,0.9-1.9,1.6-3.5,1.6s-2.6-0.6-3.5-1.6l-2.3-2.3l-6.7,6.7v0.2c0,0.6,0.5,1,1,1h23c0.6,0,1-0.5,1-1v-0.2l-6.7-6.7
	L-322.6,671.3z"/>
</svg>
