<?xml version="1.0" encoding="utf-8"?>
<!-- Generator: Adobe Illustrator 19.0.0, SVG Export Plug-In . SVG Version: 6.00 Build 0)  -->
<svg version="1.1" id="Layer_1" xmlns="http://www.w3.org/2000/svg" xmlns:xlink="http://www.w3.org/1999/xlink" x="0px" y="0px"
	 viewBox="-350 644 48 48" style="enable-background:new -350 644 48 48;" xml:space="preserve">
<style type="text/css">
	.st0{display:none;}
	.st1{display:inline;fill:#E6E7E8;}
	.st2{display:inline;}
	.st3{fill:none;stroke:#544841;stroke-width:8.061200e-02;stroke-miterlimit:10;}
	.st4{fill:#A7B6BF;}
</style>
<g id="bg" class="st0">
	<path class="st1" d="M-1360.6,2624h-30.8c-4.7,0-8.6-3.9-8.6-8.6v-30.8c0-4.7,3.9-8.6,8.6-8.6h30.8c4.7,0,8.6,3.9,8.6,8.6v30.8
		C-1352,2620.1-1355.9,2624-1360.6,2624z"/>
</g>
<g id="lines" class="st0">
	<g class="st2">
		<line class="st3" x1="-1376.1" y1="2576.2" x2="-1376.1" y2="2623.8"/>
		<line class="st3" x1="-1384.9" y1="2576.2" x2="-1384.9" y2="2623.8"/>
		<line class="st3" x1="-1367.1" y1="2576.2" x2="-1367.1" y2="2623.8"/>
		<line class="st3" x1="-1355.3" y1="2576.2" x2="-1355.3" y2="2623.8"/>
		<line class="st3" x1="-1396.8" y1="2576.2" x2="-1396.8" y2="2623.8"/>
		<line class="st3" x1="-1399.9" y1="2600" x2="-1352.1" y2="2600"/>
		<line class="st3" x1="-1399.9" y1="2591.2" x2="-1352.1" y2="2591.2"/>
		<line class="st3" x1="-1399.9" y1="2608.8" x2="-1352.1" y2="2608.8"/>
		<line class="st3" x1="-1399.9" y1="2620.8" x2="-1352.1" y2="2620.8"/>
		<line class="st3" x1="-1399.9" y1="2579.2" x2="-1352.1" y2="2579.2"/>
		<line class="st3" x1="-1399.9" y1="2576.2" x2="-1352.1" y2="2623.8"/>
		<line class="st3" x1="-1399.9" y1="2623.8" x2="-1352.1" y2="2576.2"/>
		<circle class="st3" cx="-1376.1" cy="2600" r="12.5"/>
		<circle class="st3" cx="-1376.1" cy="2600" r="20.7"/>
		<g id="_x31_20px_icon_102_">
			<path id="Rectangle_7_102_" class="st3" d="M-1385.1,2623.8c-5.4,0-8.5,0-11.6-3.1c-3.1-3.1-3.1-6.2-3.1-11.6V2591
				c0-5.4,0-8.5,3.1-11.7c3.1-3.1,6.2-3.1,11.6-3.1h18.2c5.4,0,8.5,0,11.6,3.1c3.1,3.1,3.1,6.2,3.1,11.6v18.2c0,5.4,0,8.5-3.1,11.6
				c-3,3.2-6.2,3.2-11.6,3.2L-1385.1,2623.8L-1385.1,2623.8z"/>
		</g>
		<path class="st3" d="M-1376.1,2585.2"/>
		<circle class="st3" cx="-1376.1" cy="2600" r="8.8"/>
		<path class="st3" d="M-1369.4,2601.2c0.1-0.4,0.1-0.7,0.1-1.1c0-0.4,0-0.8-0.1-1.1c-0.5-2.8-2.7-5.1-5.6-5.6
			c-0.4-0.1-0.8-0.1-1.1-0.1c-0.4,0-0.8,0-1.1,0.1c-2.9,0.5-5.1,2.7-5.6,5.6c-0.1,0.4-0.1,0.7-0.1,1.1c0,0.4,0,0.8,0.1,1.1
			c0.5,2.9,2.7,5.1,5.6,5.6c0.4,0.1,0.7,0.1,1.1,0.1s0.8,0,1.1-0.1C-1372.1,2606.2-1369.9,2603.9-1369.4,2601.2z"/>
	</g>
</g>
<path id="manual" class="st4" d="M-323.6,665.9v-1.8c0-1.4-1.1-2.4-2.4-2.4l0,0c-1.4,0-2.4,1.1-2.4,2.4l0,0v0.1l0,0v1.7h-2.1v-1.8
	l0,0l0,0l0,0c0-2.5,2-4.5,4.5-4.5l0,0c2.5,0,4.5,2,4.5,4.5l0,0v1.8H-323.6L-323.6,665.9z M-321.5,666.8h-9.1c-0.8,0-1.4,0.6-1.4,1.4
	v5.5c0,0.8,0.6,1.4,1.4,1.4h9.2c0.8,0,1.4-0.7,1.4-1.4v-5.5C-320,667.4-320.7,666.8-321.5,666.8z M-325.3,671.2v1.6
	c0,0.4-0.3,0.8-0.7,0.8s-0.7-0.3-0.7-0.8v-1.6c-0.5-0.3-0.7-0.7-0.7-1.3c0-0.8,0.6-1.5,1.5-1.5c0.8,0,1.5,0.7,1.5,1.5
	C-324.5,670.5-324.8,670.9-325.3,671.2z M-339,668c0-7.2,5.9-13,13-13l0,0c7.1,0,13,5.8,13,13l0,0l0,0c0,7.2-5.9,13-13,13l0,0
	C-333.1,681-339,675.2-339,668L-339,668z M-336.8,668c0,6,4.8,10.8,10.8,10.8l0,0c6,0,10.8-4.8,10.8-10.8l0,0
	c0-6-4.8-10.8-10.8-10.8l0,0C-332,657.2-336.8,662-336.8,668L-336.8,668z"/>
</svg>
