<?xml version="1.0" encoding="utf-8"?>
<!-- Generator: Adobe Illustrator 19.2.1, SVG Export Plug-In . SVG Version: 6.00 Build 0)  -->
<svg version="1.1" id="icon" xmlns="http://www.w3.org/2000/svg" xmlns:xlink="http://www.w3.org/1999/xlink" x="0px" y="0px"
	 viewBox="0 0 48 48" style="enable-background:new 0 0 48 48;" xml:space="preserve">
<g>
	<g>
		<g>
			<path d="M27.3,21v-2.4c0-1.8-1.5-3.3-3.3-3.3l0,0c-1.8,0-3.3,1.5-3.3,3.3l0,0c0,0,0,0.1,0,0.1l0,0V21h-2.9v-2.4c0,0,0,0,0,0l0,0
				l0,0c0-3.4,2.7-6.1,6.1-6.1l0,0c3.4,0,6.1,2.7,6.1,6.1l0,0V21H27.3L27.3,21z"/>
		</g>
	</g>
	<g>
		<path d="M30.1,22.2H17.9c-1.1,0-1.9,0.9-1.9,1.9v7.5c0,1,0.9,1.9,1.9,1.9h12.3c1.1,0,1.9-0.9,1.9-1.9v-7.5
			C32.1,23.1,31.2,22.2,30.1,22.2z M25,28.1v2.1c0,0.6-0.5,1-1,1s-1-0.5-1-1v-2.1c-0.6-0.3-1-1-1-1.7c0-1.1,0.9-2,2-2
			c1.1,0,2,0.9,2,2C26,27.2,25.6,27.8,25,28.1z"/>
	</g>
</g>
<path d="M24,4C13,4,4,13,4,24c0,11,9,20,20,20s20-9,20-20S35,4,24,4z M24,41.5c-9.7,0-17.6-7.8-17.6-17.5c0-9.6,7.9-17.5,17.6-17.5
	c9.7,0,17.4,7.8,17.4,17.5C41.4,33.6,33.7,41.5,24,41.5z"/>
</svg>
