<?xml version="1.0" encoding="utf-8"?>
<!-- Generator: Adobe Illustrator 19.2.1, SVG Export Plug-In . SVG Version: 6.00 Build 0)  -->
<svg version="1.1" id="icon" xmlns="http://www.w3.org/2000/svg" xmlns:xlink="http://www.w3.org/1999/xlink" x="0px" y="0px"
	 viewBox="0 0 48 48" style="enable-background:new 0 0 48 48;" xml:space="preserve">
<path d="M5.2,14.5L16,10v27L4,42V16.3C4,15.5,4.5,14.8,5.2,14.5z"/>
<polygon points="18,37 30,42 30,15 18,10 "/>
<path d="M39.4,23.4L38,24.8l-1.4-1.4c-0.1-0.1-2.7-2.7-4.6-5.8V42l10.8-5c0.7-0.3,1.2-1,1.2-1.8V17.7C42.1,20.8,39.5,23.3,39.4,23.4
	z"/>
<path d="M38,6c-3.3,0-6,2.7-6,5.9c0,0.1,0,0.3,0,0.4c0,0.7,0.3,1.4,0.6,2.1C34.1,18.1,38,22,38,22s3.9-3.8,5.4-7.4
	c0.4-0.8,0.6-1.7,0.6-2.5c0,0,0,0,0-0.1c0-0.1,0-0.1,0-0.1C43.9,8.5,41.3,6,38,6z M38,14c-1.1,0-2-0.9-2-2s0.9-2,2-2s2,0.9,2,2
	S39.1,14,38,14z"/>
</svg>
