<?xml version="1.0" encoding="utf-8"?>
<!-- Generator: Adobe Illustrator 19.0.0, SVG Export Plug-In . SVG Version: 6.00 Build 0)  -->
<svg version="1.1" id="Layer_1" xmlns="http://www.w3.org/2000/svg" xmlns:xlink="http://www.w3.org/1999/xlink" x="0px" y="0px"
	 viewBox="-350 644 48 48" style="enable-background:new -350 644 48 48;" xml:space="preserve">
<style type="text/css">
	.st0{display:none;}
	.st1{display:inline;fill:#E6E7E8;}
	.st2{display:inline;}
	.st3{fill:none;stroke:#544841;stroke-width:8.061200e-02;stroke-miterlimit:10;}
	.st4{fill:#A7B6BF;}
</style>
<g id="bg" class="st0">
	<path class="st1" d="M-660.6,1336h-30.8c-4.7,0-8.6-3.9-8.6-8.6v-30.8c0-4.7,3.9-8.6,8.6-8.6h30.8c4.7,0,8.6,3.9,8.6,8.6v30.8
		C-652,1332.1-655.9,1336-660.6,1336z"/>
</g>
<g id="lines" class="st0">
	<g class="st2">
		<line class="st3" x1="-676.1" y1="1288.2" x2="-676.1" y2="1335.8"/>
		<line class="st3" x1="-684.9" y1="1288.2" x2="-684.9" y2="1335.8"/>
		<line class="st3" x1="-667.1" y1="1288.2" x2="-667.1" y2="1335.8"/>
		<line class="st3" x1="-655.3" y1="1288.2" x2="-655.3" y2="1335.8"/>
		<line class="st3" x1="-696.8" y1="1288.2" x2="-696.8" y2="1335.8"/>
		<line class="st3" x1="-699.9" y1="1312" x2="-652.1" y2="1312"/>
		<line class="st3" x1="-699.9" y1="1303.2" x2="-652.1" y2="1303.2"/>
		<line class="st3" x1="-699.9" y1="1320.8" x2="-652.1" y2="1320.8"/>
		<line class="st3" x1="-699.9" y1="1332.8" x2="-652.1" y2="1332.8"/>
		<line class="st3" x1="-699.9" y1="1291.2" x2="-652.1" y2="1291.2"/>
		<line class="st3" x1="-699.9" y1="1288.2" x2="-652.1" y2="1335.8"/>
		<line class="st3" x1="-699.9" y1="1335.8" x2="-652.1" y2="1288.2"/>
		<circle class="st3" cx="-676.1" cy="1312" r="12.5"/>
		<circle class="st3" cx="-676.1" cy="1312" r="20.7"/>
		<g id="_x31_20px_icon_102_">
			<path id="Rectangle_7_102_" class="st3" d="M-685.1,1335.8c-5.4,0-8.5,0-11.6-3.1c-3.1-3.1-3.1-6.2-3.1-11.6V1303
				c0-5.4,0-8.5,3.1-11.7c3.1-3.1,6.2-3.1,11.6-3.1h18.2c5.4,0,8.5,0,11.6,3.1c3.1,3.1,3.1,6.2,3.1,11.6v18.2c0,5.4,0,8.5-3.1,11.6
				c-3,3.2-6.2,3.2-11.6,3.2L-685.1,1335.8L-685.1,1335.8z"/>
		</g>
		<path class="st3" d="M-676.1,1297.2"/>
		<circle class="st3" cx="-676.1" cy="1312" r="8.8"/>
		<path class="st3" d="M-669.4,1313.2c0.1-0.4,0.1-0.7,0.1-1.1c0-0.4,0-0.8-0.1-1.1c-0.5-2.8-2.7-5.1-5.6-5.6
			c-0.4-0.1-0.8-0.1-1.1-0.1c-0.4,0-0.8,0-1.1,0.1c-2.9,0.5-5.1,2.7-5.6,5.6c-0.1,0.4-0.1,0.7-0.1,1.1c0,0.4,0,0.8,0.1,1.1
			c0.5,2.9,2.7,5.1,5.6,5.6c0.4,0.1,0.7,0.1,1.1,0.1c0.4,0,0.8,0,1.1-0.1C-672.1,1318.2-669.9,1315.9-669.4,1313.2z"/>
	</g>
</g>
<path id="medical" class="st4" d="M-316.4,660h-4.7v-0.8c0-1.4-1.2-2.5-2.5-2.5h-4.7c-1.4,0-2.5,1.2-2.5,2.5v0.8h-4.7
	c-1.9,0-3.4,1.6-3.4,3.4v12.4c0,1.9,1.6,3.4,3.4,3.4h19.1c1.9,0,3.4-1.6,3.4-3.4v-12.4C-313,661.6-314.6,660-316.4,660z
	 M-329.4,659.3c0-0.6,0.5-1,1-1h4.7c0.6,0,1,0.5,1,1v0.8h-6.7V659.3L-329.4,659.3z M-326,675.4c-3.1,0-5.7-2.5-5.7-5.7
	c0-3.2,2.5-5.7,5.7-5.7s5.7,2.5,5.7,5.7C-320.3,672.9-322.9,675.4-326,675.4z M-322.1,671h-2.7v2.7h-2.5V671h-2.7v-2.5h2.7v-2.7h2.5
	v2.7h2.7V671z"/>
</svg>
