<?xml version="1.0" encoding="utf-8"?>
<!-- Generator: Adobe Illustrator 19.2.1, SVG Export Plug-In . SVG Version: 6.00 Build 0)  -->
<svg version="1.1" id="icon" xmlns="http://www.w3.org/2000/svg" xmlns:xlink="http://www.w3.org/1999/xlink" x="0px" y="0px"
	 viewBox="0 0 48 48" style="enable-background:new 0 0 48 48;" xml:space="preserve">
<path d="M39,12h-8v-1c0-2.2-1.8-4-4-4h-6c-2.2,0-4,1.8-4,4v1H9c-2.8,0-5,2.2-5,5v18c0,2.8,2.2,5,5,5h30c2.8,0,5-2.2,5-5V17
	C44,14.2,41.8,12,39,12z M19,11c0-1.1,0.9-2,2-2h6c1.1,0,2,0.9,2,2v1H19V11z M24,35c-5,0-9-4-9-9c0-5,4-9,9-9s9,4,9,9
	C33,31,29,35,24,35z"/>
<polygon points="30,24 26,24 26,20 22,20 22,24 18,24 18,28 22,28 22,32 26,32 26,28 30,28 "/>
</svg>
