<?xml version="1.0" encoding="utf-8"?>
<!-- Generator: Adobe Illustrator 19.2.1, SVG Export Plug-In . SVG Version: 6.00 Build 0)  -->
<svg version="1.1" id="icon" xmlns="http://www.w3.org/2000/svg" xmlns:xlink="http://www.w3.org/1999/xlink" x="0px" y="0px"
	 viewBox="0 0 48 48" style="enable-background:new 0 0 48 48;" xml:space="preserve">
<path d="M40,40H8c-1.6,0-3-1.3-3-3v0c0-1.6,1.3-3,3-3h32c1.6,0,3,1.3,3,3v0C43,38.7,41.7,40,40,40z"/>
<path d="M40,27H8c-1.6,0-3-1.3-3-3v0c0-1.6,1.3-3,3-3h32c1.6,0,3,1.3,3,3v0C43,25.7,41.7,27,40,27z"/>
<path d="M40,14H8c-1.6,0-3-1.3-3-3v0c0-1.6,1.3-3,3-3h32c1.6,0,3,1.3,3,3v0C43,12.7,41.7,14,40,14z"/>
</svg>
