<?xml version="1.0" encoding="utf-8"?>
<!-- Generator: Adobe Illustrator 19.2.1, SVG Export Plug-In . SVG Version: 6.00 Build 0)  -->
<svg version="1.1" id="icon" xmlns="http://www.w3.org/2000/svg" xmlns:xlink="http://www.w3.org/1999/xlink" x="0px" y="0px"
	 viewBox="0 0 48 48" style="enable-background:new 0 0 48 48;" xml:space="preserve">
<path d="M36.4,19h-2L33,20.5v0c0,0.3,0,0.2-0.1,0.5c-0.5,4.5-4.3,8-8.9,8s-8.4-3.5-8.9-8c0-0.3-0.1-0.2-0.1-0.5v0L13.6,19h-2
	c0,0.3-0.1,0.7-0.1,1v0c0,0.3,0,0.7,0.1,1C12,26.8,16.4,31.4,22,32.3V41h-3.5c-0.8,0-1.5,0.7-1.5,1.5s0.7,1.5,1.5,1.5h11
	c0.8,0,1.5-0.7,1.5-1.5S30.3,41,29.5,41H26v-8.7c5.6-0.9,10-5.6,10.4-11.3c0-0.3,0.1-0.7,0.1-1v0C36.5,19.7,36.5,19.3,36.4,19z"/>
<path d="M24.5,4h-1c-2.8,0-5,2.2-5,5v12c0,2.8,2.2,5,5,5h1c2.8,0,5-2.2,5-5V9C29.5,6.2,27.2,4,24.5,4z M23,20h-2v-2h2V20z M23,16h-2
	v-2h2V16z M23,12h-2v-2h2V12z M27,20h-2v-2h2V20z M27,16h-2v-2h2V16z M27,12h-2v-2h2V12z"/>
</svg>
