<?xml version="1.0" encoding="utf-8"?>
<!-- Generator: Adobe Illustrator 19.2.1, SVG Export Plug-In . SVG Version: 6.00 Build 0)  -->
<svg version="1.1" id="icon" xmlns="http://www.w3.org/2000/svg" xmlns:xlink="http://www.w3.org/1999/xlink" x="0px" y="0px"
	 viewBox="0 0 48 48" style="enable-background:new 0 0 48 48;" xml:space="preserve">
<path id="mileage_1_" d="M21.6,31l-6.2-13.6l2.2-1.1l6.2,13.6c0.1,0,0.3,0,0.4,0c2.2,0,4.1,1.8,4.1,4.1H44c0-11.1-8.9-20-20-20
	S4,22.9,4,34h16.2C20.3,32.8,20.8,31.8,21.6,31z M42.4,31.2v1.6h-5.9v-1.6H42.4z M36.8,20.3l1.2,1.2l-4.2,4.2l-1.2-1.2L36.8,20.3z
	 M23.3,15.4h1.6v5.9h-1.6V15.4z M11.8,32.8H5.8v-1.6h5.9V32.8z M10.3,21.5l1.2-1.2l4.2,4.2l-1.2,1.2L10.3,21.5z"/>
</svg>
