<?xml version="1.0" encoding="utf-8"?>
<!-- Generator: Adobe Illustrator 19.2.1, SVG Export Plug-In . SVG Version: 6.00 Build 0)  -->
<svg version="1.1" id="icon" xmlns="http://www.w3.org/2000/svg" xmlns:xlink="http://www.w3.org/1999/xlink" x="0px" y="0px"
	 viewBox="0 0 48 48" style="enable-background:new 0 0 48 48;" xml:space="preserve">
<path id="more" d="M24,29c-2.8,0-5-2.2-5-5s2.2-5,5-5c2.8,0,5,2.2,5,5S26.8,29,24,29z M29,7.2c0-2.8-2.2-5-5-5c-2.8,0-5,2.2-5,5
	c0,2.8,2.2,5,5,5C26.8,12.2,29,9.9,29,7.2z M29,40.8c0-2.8-2.2-5-5-5c-2.8,0-5,2.2-5,5c0,2.8,2.2,5,5,5C26.8,45.8,29,43.6,29,40.8z"
	/>
</svg>
