<?xml version="1.0" encoding="utf-8"?>
<!-- Generator: Adobe Illustrator 19.2.1, SVG Export Plug-In . SVG Version: 6.00 Build 0)  -->
<svg version="1.1" id="icon" xmlns="http://www.w3.org/2000/svg" xmlns:xlink="http://www.w3.org/1999/xlink" x="0px" y="0px"
	 viewBox="0 0 48 48" style="enable-background:new 0 0 48 48;" xml:space="preserve">
<path id="more" d="M29,24c0,2.8-2.2,5-5,5s-5-2.2-5-5c0-2.8,2.2-5,5-5S29,21.2,29,24z M7.2,19c-2.8,0-5,2.2-5,5c0,2.8,2.2,5,5,5
	s5-2.2,5-5C12.2,21.2,9.9,19,7.2,19z M40.8,19c-2.8,0-5,2.2-5,5c0,2.8,2.2,5,5,5s5-2.2,5-5C45.8,21.2,43.6,19,40.8,19z"/>
</svg>
