<?xml version="1.0" encoding="utf-8"?>
<!-- Generator: Adobe Illustrator 19.2.1, SVG Export Plug-In . SVG Version: 6.00 Build 0)  -->
<svg version="1.1" id="icon" xmlns="http://www.w3.org/2000/svg" xmlns:xlink="http://www.w3.org/1999/xlink" x="0px" y="0px"
	 viewBox="0 0 48 48" style="enable-background:new 0 0 48 48;" xml:space="preserve">
<path id="odemeter_x5F_end_1_" d="M8.8,44h2.9V4H8.8V44z M27.8,14.6c0,0,0,8.5,0,9.4c0,1-1,1-1,1s-1,0-1-1c0-0.8,0-14,0-14
	c-4.2-5.8-12-6-12-6v24c0,0,4.6-5,10.4-5c0,0,0,0.2,0,1.9c0,0.8,0.8,1.7,2.5,1.7c8.3,0,12.5-8.3,12.5-8.3S32,18.8,27.8,14.6z"/>
</svg>
