<?xml version="1.0" encoding="utf-8"?>
<!-- Generator: Adobe Illustrator 19.2.1, SVG Export Plug-In . SVG Version: 6.00 Build 0)  -->
<svg version="1.1" id="icon" xmlns="http://www.w3.org/2000/svg" xmlns:xlink="http://www.w3.org/1999/xlink" x="0px" y="0px"
	 viewBox="0 0 48 48" style="enable-background:new 0 0 48 48;" xml:space="preserve">
<g>
	<path d="M13,12v28h22V12H13z M18,38c-1.1,0-2-0.9-2-2c0-1.1,0.9-2,2-2s2,0.9,2,2C20,37,19.1,38,18,38z M18,33c-1.1,0-2-0.9-2-2
		c0-1.1,0.9-2,2-2s2,0.9,2,2C20,32,19.1,33,18,33z M18,28c-1.1,0-2-0.9-2-2c0-1.1,0.9-2,2-2s2,0.9,2,2C20,27,19.1,28,18,28z M18,23
		c-1.1,0-2-0.9-2-2c0-1.1,0.9-2,2-2s2,0.9,2,2C20,22,19.1,23,18,23z M18,18c-1.1,0-2-0.9-2-2c0-1.1,0.9-2,2-2s2,0.9,2,2
		C20,17,19.1,18,18,18z M24,38c-1.1,0-2-0.9-2-2c0-1.1,0.9-2,2-2s2,0.9,2,2C26,37,25.1,38,24,38z M24,33c-1.1,0-2-0.9-2-2
		c0-1.1,0.9-2,2-2s2,0.9,2,2C26,32,25.1,33,24,33z M24,28c-1.1,0-2-0.9-2-2c0-1.1,0.9-2,2-2s2,0.9,2,2C26,27,25.1,28,24,28z M24,23
		c-1.1,0-2-0.9-2-2c0-1.1,0.9-2,2-2s2,0.9,2,2C26,22,25.1,23,24,23z M24,18c-1.1,0-2-0.9-2-2c0-1.1,0.9-2,2-2s2,0.9,2,2
		C26,17,25.1,18,24,18z M30,38c-1.1,0-2-0.9-2-2c0-1.1,0.9-2,2-2s2,0.9,2,2C32,37,31.1,38,30,38z M30,33c-1.1,0-2-0.9-2-2
		c0-1.1,0.9-2,2-2s2,0.9,2,2C32,32,31.1,33,30,33z M30,28c-1.1,0-2-0.9-2-2c0-1.1,0.9-2,2-2s2,0.9,2,2C32,27,31.1,28,30,28z M30,23
		c-1.1,0-2-0.9-2-2c0-1.1,0.9-2,2-2s2,0.9,2,2C32,22,31.1,23,30,23z M30,18c-1.1,0-2-0.9-2-2c0-1.1,0.9-2,2-2s2,0.9,2,2
		C32,17,31.1,18,30,18z"/>
</g>
<rect x="15" y="8" width="18" height="2"/>
<rect x="11" y="42" width="26" height="2"/>
<rect x="18" y="4" width="12" height="2"/>
</svg>
