<?xml version="1.0" encoding="utf-8"?>
<!-- Generator: Adobe Illustrator 19.2.1, SVG Export Plug-In . SVG Version: 6.00 Build 0)  -->
<svg version="1.1" id="icon" xmlns="http://www.w3.org/2000/svg" xmlns:xlink="http://www.w3.org/1999/xlink" x="0px" y="0px"
	 viewBox="0 0 48 48" style="enable-background:new 0 0 48 48;" xml:space="preserve">
<path id="options_1_" d="M5.8,10.9C6,11,6,11,6.1,11.2c1.6,1.6,3,3,4.6,4.6c0.9,0.9,2,0.9,3.2,0c0.6-0.6,1.3-1.3,1.9-1.9
	c0.8-0.8,0.8-2,0-2.8c-1.6-1.6-3.2-3.2-4.7-4.7c-0.2-0.2-0.2-0.2-0.3-0.3c0.9-0.5,2-0.6,3.2-0.6c5.5-0.2,9.6,4.6,9,9.9
	c0,0.3,0.2,0.6,0.3,0.8c6,6,12,12,18,18c2,2,2.2,5,0.5,7.1c-1.9,2.4-5.4,2.5-7.6,0.3c-6.1-6.1-12.1-12.1-18.3-18.3
	c-0.3-0.3-0.5-0.3-0.8-0.3c-5.2,0.3-9.3-3.5-9.5-8.7C5.4,12.9,5.5,11.5,5.8,10.9z M35,37.7c0,1.4,1.3,2.7,2.7,2.7
	c1.4,0,2.7-1.3,2.7-2.7c0-1.4-1.3-2.7-2.7-2.7C36.2,35,35,36.1,35,37.7z M29.8,19.4c3.2-3.2,6.3-6.3,9.5-9.5c0-0.2,0.2-0.2,0.3-0.3
	c0.3-0.2,0.6-0.2,0.8,0.2c0.2,0.3,0.2,0.5,0,0.8c-0.2,0.2-0.2,0.2-0.3,0.3c-3.2,3.2-6.3,6.3-9.5,9.5l-0.3,0.2
	c0.5,0.6,0.9,1.1,1.4,1.6c0-0.2,0.2-0.2,0.2-0.2c3.3-3.3,6.5-6.5,9.6-9.6c1.3-1.3,1.6-2.8,0.9-4.6c-1.1-3-4.9-3.6-7.1-1.4
	c-3.2,3.2-6.1,6.1-9.3,9.3c-0.2,0.2-0.2,0.2-0.3,0.3c0.5,0.5,0.9,0.9,1.4,1.4c0.3-0.3,0.5-0.5,0.8-0.8c3-3,6.1-6.1,9.1-9.1
	c0.3-0.5,0.6-0.5,0.9-0.2c0.3,0.3,0.2,0.6-0.2,0.9l-0.2,0.2c-3,3.2-6.1,6.1-9.3,9.3c-0.2,0.2-0.3,0.2-0.5,0.3
	c0.6,0.6,1.1,1.1,1.7,1.7C29.8,19.5,29.8,19.5,29.8,19.4z M13.6,38c0,0,0.2-0.2,0.2-0.3c0.2-0.6,0.3-1.3,0.5-1.9
	c0-0.2,0.2-0.5,0.3-0.6c1.7-1.7,3.5-3.5,5.2-5.2c0.2-0.2,0.2-0.2,0.2-0.2c-0.6-0.6-1.4-1.4-2-2c-1.3,1.3-2.8,2.7-4.1,4.1
	c-0.9,1.1-2,1.7-3.6,1.9c-0.3,0.2-0.5,0.3-0.6,0.5c-1.1,1.7-2.4,3.6-3.5,5.4c-0.3,0.5-0.5,0.8-0.8,1.3c0.6,0.6,1.1,1.1,1.7,1.7
	C9.1,41.1,11.3,39.7,13.6,38z"/>
</svg>
