<?xml version="1.0" encoding="utf-8"?>
<!-- Generator: Adobe Illustrator 19.2.1, SVG Export Plug-In . SVG Version: 6.00 Build 0)  -->
<svg version="1.1" id="icon" xmlns="http://www.w3.org/2000/svg" xmlns:xlink="http://www.w3.org/1999/xlink" x="0px" y="0px"
	 viewBox="0 0 48 48" style="enable-background:new 0 0 48 48;" xml:space="preserve">
<path id="phone_1_" d="M27.9,34.5c-1.8,0-6.6-3.8-8.6-5.6c-1.8-1.8-5.6-6.6-5.6-8.6c0-1.8,5-4.3,5-5.3L14.5,4c0,0-1,0-3.8,0
	C8.8,4,4,9.6,4,13.5s1.8,11.5,10.5,20.1S30.7,44,34.5,44s9.5-4.8,9.5-6.6c0-2.8,0-3.8,0-3.8l-11-4.1C32.2,29.6,29.7,34.5,27.9,34.5z
	"/>
</svg>
