<?xml version="1.0" encoding="utf-8"?>
<!-- Generator: Adobe Illustrator 19.2.1, SVG Export Plug-In . SVG Version: 6.00 Build 0)  -->
<svg version="1.1" id="icon" xmlns="http://www.w3.org/2000/svg" xmlns:xlink="http://www.w3.org/1999/xlink" x="0px" y="0px"
	 viewBox="0 0 48 48" style="enable-background:new 0 0 48 48;" xml:space="preserve">
<style type="text/css">
	.st0{display:none;fill:#FFFFFF;}
</style>
<path d="M4,9v30h40V9H4z M7,36v-5l9-7l8,6l10-8l7,6v8H7z M20.5,16c0,1.9-1.6,3.5-3.5,3.5s-3.5-1.6-3.5-3.5s1.6-3.5,3.5-3.5
	S20.5,14.1,20.5,16z"/>
<path class="st0" d="M4,9v30h40V9H4z M7,36v-5l9-7l8,6l10-8l7,6v8H7z M20.5,16c0,1.9-1.6,3.5-3.5,3.5s-3.5-1.6-3.5-3.5
	s1.6-3.5,3.5-3.5S20.5,14.1,20.5,16z"/>
</svg>
