<?xml version="1.0" encoding="utf-8"?>
<!-- Generator: Adobe Illustrator 19.2.1, SVG Export Plug-In . SVG Version: 6.00 Build 0)  -->
<svg version="1.1" id="icon" xmlns="http://www.w3.org/2000/svg" xmlns:xlink="http://www.w3.org/1999/xlink" x="0px" y="0px"
	 viewBox="0 0 48 48" style="enable-background:new 0 0 48 48;" xml:space="preserve">
<path d="M24,4C12.9,4,4,13,4,24c0,11,8.9,20,20,20s20-9,20-20C44,13,35.1,4,24,4z M26,35h-4v-4h4V35z M29,23.8c-1.3,1-2.7,1.4-3,3.2
	v2h-4v-2c0.2-2.7,1.2-3.6,2.5-4.6c1.1-1,2.5-1.6,2.5-3.4c0-1.9-1.4-3-3-3c-2.3,0-3,1.7-3,4h-5c0.2-4.4,3.5-7,8-7c5.8,0,8,3.6,8,6
	C31.8,21.9,30.3,22.9,29,23.8z"/>
</svg>
