<?xml version="1.0" encoding="utf-8"?>
<!-- Generator: Adobe Illustrator 19.2.1, SVG Export Plug-In . SVG Version: 6.00 Build 0)  -->
<svg version="1.1" id="icon" xmlns="http://www.w3.org/2000/svg" xmlns:xlink="http://www.w3.org/1999/xlink" x="0px" y="0px"
	 viewBox="0 0 48 48" style="enable-background:new 0 0 48 48;" xml:space="preserve">
<path id="rail_1_" d="M31.7,44c-0.8,0-1.7-0.5-2.2-1.1l-0.9-1.3c-0.5-0.6-0.2-1.1,0.6-1.1h2.1c0.8,0,1.7,0.5,2.2,1.1l0.9,1.3
	c0.5,0.6,0.2,1.1-0.6,1.1H31.7z M17,40.4c-0.8,0-1.7,0.5-2.2,1.1l-0.9,1.4c-0.5,0.6-0.2,1.1,0.6,1.1h2.1c0.8,0,1.7-0.5,2.2-1.1
	l0.9-1.3c0.5-0.6,0.2-1.1-0.6-1.1H17V40.4z M38,11.7c0,7,0,14.1,0,21c0,2.4-1.7,4.9-4.1,5.4c-6.5,1.4-13.3,1.4-19.8,0
	C11.9,37.5,10,35,10,32.8c0-7,0-14.1,0-21c0-2.4,1.7-4.9,4.1-5.4c1.6-0.3,3.2-0.6,4.7-0.8c0.5-0.9,1.7-1.6,3-1.6h4.3
	c1.3,0,2.4,0.6,3,1.6c1.6,0.2,3.2,0.5,4.7,0.8C36.1,6.8,38,9.4,38,11.7z M21.1,7c0,0.6,0.3,1.1,1.1,1.1h3.6c0.8,0,1.1-0.3,1.1-0.9
	s-0.3-1.1-1.1-1.1h-3.6C21.2,6.1,21.1,6.4,21.1,7z M19,30.2c0-1.4-1.1-2.5-2.5-2.5S14,28.8,14,30.2s1.1,2.5,2.5,2.5
	C17.9,32.8,19.2,31.7,19,30.2z M29.1,24.2c0.3,0,0.8-0.3,1.1-0.6c2.2-3.5,3.6-7.3,3.3-10.4c0-0.3-0.5-0.6-0.9-0.8
	c-6.3-1.4-11.1-1.4-17.4,0c-0.5,0.2-0.9,0.5-0.9,0.8c-0.3,3.2,1.1,7,3.3,10.4c0.2,0.5,0.8,0.6,1.1,0.6
	C22.2,24.2,25.7,24.2,29.1,24.2z M33.9,30.2c0-1.4-1.1-2.5-2.5-2.5c-1.4,0-2.5,1.1-2.5,2.5s1.1,2.5,2.5,2.5
	C32.8,32.8,33.9,31.7,33.9,30.2z"/>
</svg>
