<?xml version="1.0" encoding="utf-8"?>
<!-- Generator: Adobe Illustrator 19.2.1, SVG Export Plug-In . SVG Version: 6.00 Build 0)  -->
<svg version="1.1" id="icon" xmlns="http://www.w3.org/2000/svg" xmlns:xlink="http://www.w3.org/1999/xlink" x="0px" y="0px"
	 viewBox="0 0 48 48" style="enable-background:new 0 0 48 48;" xml:space="preserve">
<style type="text/css">
	.st0{fill-rule:evenodd;clip-rule:evenodd;}
</style>
<path id="receipt_x5F_add_2_" class="st0" d="M4,8v24h24V8H4z M7,15h10v2H7V15z M17,25H7v-2h10V25z M24,21H7v-2h17V21z M24,13H7v-2
	h17V13z M28,34v7h-1l-3-4l-3,4h-2l-3-4l-3,4h-2l-3-4l-3,4H4v-7H28z"/>
<polygon class="st0" points="36,8 39,8 39,13 44,13 44,16 39,16 39,21 36,21 36,16 31,16 31,13 36,13 "/>
</svg>
