<?xml version="1.0" encoding="utf-8"?>
<!-- Generator: Adobe Illustrator 19.2.1, SVG Export Plug-In . SVG Version: 6.00 Build 0)  -->
<svg version="1.1" id="icon" xmlns="http://www.w3.org/2000/svg" xmlns:xlink="http://www.w3.org/1999/xlink" x="0px" y="0px"
	 viewBox="0 0 48 48" style="enable-background:new 0 0 48 48;" xml:space="preserve">
<path d="M24,4C14.7,4,6.9,10.4,4.7,19h4.2C10.9,12.6,16.9,8,24,8c8.8,0,16,7.2,16,16s-7.2,16-16,16c-7.1,0-13.1-4.6-15.2-11H4.7
	c2.2,8.6,10,15,19.3,15c11,0,20-9,20-20C44,13,35,4,24,4z"/>
<polygon points="4,4 4,19 19,19 19,15 8,15 8,4 "/>
</svg>
