<?xml version="1.0" encoding="utf-8"?>
<!-- Generator: Adobe Illustrator 19.2.1, SVG Export Plug-In . SVG Version: 6.00 Build 0)  -->
<svg version="1.1" id="icon" xmlns="http://www.w3.org/2000/svg" xmlns:xlink="http://www.w3.org/1999/xlink" x="0px" y="0px"
	 viewBox="0 0 48 48" style="enable-background:new 0 0 48 48;" xml:space="preserve">
<g>
	<path d="M43.7,21.3L31.4,9c-0.3-0.3-0.7-0.4-1.1-0.2C30,9,29.7,9.3,29.7,9.7v5.7l-7.7,0v13.2l7.7,0v5.7c0,0.4,0.2,0.8,0.6,0.9
		c0.1,0.1,0.3,0.1,0.4,0.1c0.3,0,0.5-0.1,0.7-0.3l12.3-12.3C44.1,22.3,44.1,21.7,43.7,21.3z"/>
	<path d="M17.3,30.6c-0.6,0-1,0.4-1,1v4.2L6.4,26l9.9-9.9v4.2c0,0.6,0.4,1,1,1H20v-2h-1.7v-5.7c0-0.4-0.2-0.8-0.6-0.9
		c-0.1-0.1-0.3-0.1-0.4-0.1c-0.3,0-0.5,0.1-0.7,0.3L4.3,25.3c-0.4,0.4-0.4,1,0,1.4L16.6,39c0.3,0.3,0.7,0.4,1.1,0.2
		c0.4-0.2,0.6-0.5,0.6-0.9v-5.7H28v-2H17.3z"/>
</g>
</svg>
