<?xml version="1.0" encoding="utf-8"?>
<!-- Generator: Adobe Illustrator 19.2.1, SVG Export Plug-In . SVG Version: 6.00 Build 0)  -->
<svg version="1.1" id="icon" xmlns="http://www.w3.org/2000/svg" xmlns:xlink="http://www.w3.org/1999/xlink" x="0px" y="0px"
	 viewBox="0 0 48 48" style="enable-background:new 0 0 48 48;" xml:space="preserve">
<g>
	<polygon points="7,38 41,38 41,39 39,40 38,41 10,41 9,40 7,39 	"/>
	<path d="M40,20c1.1,0,2,0.9,2,2v5v0c0,1.7-1.3,3-3,3h0h-1c-0.6,0-1,0.4-1,1v1c0,2.2-1.8,4-4,4h0H15.9h0c-2.7,0-4.9-2.2-4.9-4.9V31
		l0-9.9C11,20.5,11.4,20,12,20H40z M38,22v6h1c1.1,0,1-0.9,1-2v0v-3c0-0.6-0.4-1-1-1H38z"/>
	<g>
		<path d="M18.6,6.3h1.8c-0.9,1.5-1.3,3.4-0.7,4.6c0.6,1,1,2.2,1,3.5c0,1.1-0.7,2.4-1.2,3.1h-1.6c1.2-1.9,1.8-3.7,0.4-5.7
			c-0.6-0.9-0.7-2.1-0.4-3.5C18,7.6,18.3,6.9,18.6,6.3L18.6,6.3z"/>
		<path d="M24.4,6.3h1.8c-0.9,1.5-1.3,3.4-0.7,4.6c0.6,1,1,2.2,1,3.5c0,1.1-0.7,2.4-1.2,3.1h-1.6c1.2-1.9,1.8-3.7,0.4-5.7
			c-0.6-0.9-0.7-2.1-0.4-3.5C23.8,7.6,24.1,6.9,24.4,6.3L24.4,6.3z"/>
		<path d="M30.3,6.3H32c-0.9,1.5-1.3,3.4-0.7,4.6c0.6,1,1,2.2,1,3.5c0,1.1-0.7,2.4-1.2,3.1h-1.6c1.2-1.9,1.8-3.7,0.4-5.7
			c-0.6-0.9-0.7-2.1-0.4-3.5C29.7,7.6,30,6.9,30.3,6.3L30.3,6.3z"/>
	</g>
</g>
</svg>
