<?xml version="1.0" encoding="utf-8"?>
<!-- Generator: Adobe Illustrator 19.2.1, SVG Export Plug-In . SVG Version: 6.00 Build 0)  -->
<svg version="1.1" id="icon" xmlns="http://www.w3.org/2000/svg" xmlns:xlink="http://www.w3.org/1999/xlink" x="0px" y="0px"
	 viewBox="0 0 48 48" style="enable-background:new 0 0 48 48;" xml:space="preserve">
<polyline id="star_2_" points="24,13.9 26.6,21.5 34.6,21.6 28.3,26.5 30.5,34.1 24,29.5 17.5,34.1 19.7,26.5 13.4,21.6 21.4,21.5 
	24,13.9 "/>
<path d="M24,4C13,4,4,13,4,24c0,11,9,20,20,20s20-9,20-20S35,4,24,4z M24,41.5c-9.7,0-17.6-7.8-17.6-17.5c0-9.6,7.9-17.5,17.6-17.5
	c9.7,0,17.4,7.8,17.4,17.5C41.4,33.6,33.7,41.5,24,41.5z"/>
</svg>
