<?xml version="1.0" encoding="utf-8"?>
<!-- Generator: Adobe Illustrator 19.2.1, SVG Export Plug-In . SVG Version: 6.00 Build 0)  -->
<svg version="1.1" id="icon" xmlns="http://www.w3.org/2000/svg" xmlns:xlink="http://www.w3.org/1999/xlink" x="0px" y="0px"
	 viewBox="0 0 48 48" style="enable-background:new 0 0 48 48;" xml:space="preserve">
<g>
	<path d="M9,9c-6.6,6.6-6.6,17.4,0,24s17.4,6.6,24,0s6.6-17.4,0-24S15.6,2.3,9,9z M21,34c-7.2,0-13-5.8-13-13c0-7.2,5.8-13,13-13
		s13,5.8,13,13C34,28.2,28.2,34,21,34z"/>
</g>
<path d="M43.6,43.6L43.6,43.6c-0.8,0.8-2,0.8-2.8,0L29.5,32.3l2.8-2.8l11.3,11.3C44.4,41.6,44.4,42.8,43.6,43.6z"/>
</svg>
