<?xml version="1.0" encoding="utf-8"?>
<!-- Generator: Adobe Illustrator 19.2.1, SVG Export Plug-In . SVG Version: 6.00 Build 0)  -->
<svg version="1.1" id="icon" xmlns="http://www.w3.org/2000/svg" xmlns:xlink="http://www.w3.org/1999/xlink" x="0px" y="0px"
	 viewBox="0 0 48 48" style="enable-background:new 0 0 48 48;" xml:space="preserve">
<path d="M40,32.5V36c0,2.8-2.2,5-5,5H11c-2.8,0-5-2.2-5-5V12c0-2.8,2.2-5,5-5l21,0c0.8,0,1.5,0.7,1.5,1.5v0c0,0.8-0.7,1.5-1.5,1.5
	H11c-1.1,0-2,0.9-2,2v24c0,1.1,0.9,2,2,2h24c1.1,0,2-0.9,2-2v-3.5c0-0.8,0.7-1.5,1.5-1.5l0,0C39.3,31,40,31.7,40,32.5z"/>
<path id="approvals_1_" d="M41.6,15.6c0.4-0.4,0.4-1,0-1.4l-2.1-2.1c-0.4-0.4-1-0.4-1.4,0L23.2,26.9l-6.4-6.4c-0.4-0.4-1-0.4-1.4,0
	l-2.1,2.1c-0.4,0.4-0.4,1,0,1.4l9.9,9.9L41.6,15.6z"/>
</svg>
