<?xml version="1.0" encoding="utf-8"?>
<!-- Generator: Adobe Illustrator 19.0.0, SVG Export Plug-In . SVG Version: 6.00 Build 0)  -->
<svg version="1.1" id="Layer_1" xmlns="http://www.w3.org/2000/svg" xmlns:xlink="http://www.w3.org/1999/xlink" x="0px" y="0px"
	 viewBox="-350 644 48 48" style="enable-background:new -350 644 48 48;" xml:space="preserve">
<style type="text/css">
	.st0{display:none;}
	.st1{display:inline;fill:#E6E7E8;}
	.st2{display:inline;}
	.st3{fill:none;stroke:#544841;stroke-width:8.061200e-02;stroke-miterlimit:10;}
	.st4{fill:#A7B6BF;}
</style>
<g id="bg" class="st0">
	<path class="st1" d="M-310.6,692h-30.8c-4.7,0-8.6-3.9-8.6-8.6v-30.8c0-4.7,3.9-8.6,8.6-8.6h30.8c4.7,0,8.6,3.9,8.6,8.6v30.8
		C-302,688.1-305.9,692-310.6,692z"/>
</g>
<g id="lines" class="st0">
	<g class="st2">
		<line class="st3" x1="-326" y1="644.2" x2="-326" y2="691.8"/>
		<line class="st3" x1="-334.9" y1="644.2" x2="-334.9" y2="691.8"/>
		<line class="st3" x1="-317.1" y1="644.2" x2="-317.1" y2="691.8"/>
		<line class="st3" x1="-305.3" y1="644.2" x2="-305.3" y2="691.8"/>
		<line class="st3" x1="-346.7" y1="644.2" x2="-346.7" y2="691.8"/>
		<line class="st3" x1="-349.8" y1="668" x2="-302.2" y2="668"/>
		<line class="st3" x1="-349.8" y1="659.1" x2="-302.2" y2="659.1"/>
		<line class="st3" x1="-349.8" y1="676.9" x2="-302.2" y2="676.9"/>
		<line class="st3" x1="-349.8" y1="688.7" x2="-302.2" y2="688.7"/>
		<line class="st3" x1="-349.8" y1="647.3" x2="-302.2" y2="647.3"/>
		<line class="st3" x1="-349.8" y1="644.2" x2="-302.2" y2="691.8"/>
		<line class="st3" x1="-349.8" y1="691.8" x2="-302.2" y2="644.2"/>
		<circle class="st3" cx="-326" cy="668" r="12.5"/>
		<circle class="st3" cx="-326" cy="668" r="20.7"/>
		<g id="_x31_20px_icon_102_">
			<path id="Rectangle_7_102_" class="st3" d="M-335.1,691.8c-5.4,0-8.5,0-11.6-3.1c-3.1-3.1-3.1-6.2-3.1-11.6v-18.2
				c0-5.4,0-8.5,3.1-11.6c3.1-3.1,6.2-3.1,11.6-3.1h18.2c5.4,0,8.5,0,11.6,3.1c3.1,3.1,3.1,6.2,3.1,11.6v18.2c0,5.4,0,8.5-3.1,11.6
				c-3.1,3.1-6.2,3.1-11.6,3.1C-316.9,691.8-335.1,691.8-335.1,691.8z"/>
		</g>
		<path class="st3" d="M-326,653.2"/>
		<circle class="st3" cx="-326" cy="668" r="8.8"/>
		<path class="st3" d="M-319.3,669.1c0.1-0.4,0.1-0.7,0.1-1.1s0-0.8-0.1-1.1c-0.5-2.8-2.7-5.1-5.6-5.6c-0.4-0.1-0.8-0.1-1.1-0.1
			c-0.4,0-0.8,0-1.1,0.1c-2.9,0.5-5.1,2.7-5.6,5.6c-0.1,0.4-0.1,0.7-0.1,1.1s0,0.8,0.1,1.1c0.5,2.9,2.7,5.1,5.6,5.6
			c0.4,0.1,0.7,0.1,1.1,0.1s0.8,0,1.1-0.1C-322,674.2-319.8,672-319.3,669.1z"/>
	</g>
</g>
<g id="icon">
	<g>
		<path class="st4" d="M-314.4,668.6c-0.3,0-0.6,0.3-0.6,0.6v8.2c0,1-0.8,1.7-1.7,1.7h-18.6c-1,0-1.7-0.8-1.7-1.7v-18.7
			c0-1,0.8-1.7,1.7-1.7h7.6c0.3,0,0.6-0.3,0.6-0.6c0-0.3-0.3-0.6-0.6-0.6h-7.6c-1.6,0-2.9,1.3-2.9,2.9v18.6c0,1.6,1.3,2.9,2.9,2.9
			h18.6c1.6,0,2.9-1.3,2.9-2.9v-8.2C-313.8,668.8-314,668.6-314.4,668.6z"/>
		<path class="st4" d="M-314.4,668.6v-0.8c-0.7,0-1.3,0.6-1.3,1.3v8.2c0,0.5-0.4,1-1,1h-18.6c-0.5,0-1-0.4-1-1v-18.6
			c0-0.5,0.4-1,1-1h7.6c0.7,0,1.3-0.6,1.3-1.3c0-0.7-0.6-1.3-1.3-1.3h-7.6c-2,0-3.7,1.6-3.7,3.7v18.6c0,2,1.6,3.7,3.7,3.7h18.6
			c2,0,3.7-1.6,3.7-3.7v-8.2c0-0.7-0.6-1.3-1.3-1.3v0.7v0.7v-0.2h-0.2c0,0.1,0.1,0.2,0.2,0.2v-0.2h-0.2v8.2c0,1.2-1,2.2-2.2,2.2
			h-18.6c-1.2,0-2.2-1-2.2-2.2v-18.6c0-1.2,1-2.2,2.2-2.2h7.6v-0.2h-0.2c0,0.1,0.1,0.2,0.2,0.2v-0.2h-0.2h0.2v-0.2
			c-0.1,0-0.2,0.1-0.2,0.2h0.2v-0.2h-7.6c-1.4,0-2.5,1.1-2.5,2.5v18.6c0,1.4,1.1,2.5,2.5,2.5h18.6c1.4,0,2.5-1.1,2.5-2.5V669h-0.2
			v0.2c0.1,0,0.2-0.1,0.2-0.2h-0.2v0.2V668.6z"/>
		<path class="st4" d="M-314.4,660.6l-10.8,10.6c-0.1,0.1-0.1,0.2-0.2,0.3l-0.5,0.5c-0.3,0.3-0.6,0.4-0.7,0.3l-5.1-5.4
			c-0.1-0.1,0-0.5,0.3-0.7l0.5-0.5c0.3-0.3,0.6-0.4,0.7-0.3l3.9,4l10.5-10.3c0.3-0.3,0.7-0.3,1,0l0.5,0.5
			C-314.1,659.9-314.1,660.3-314.4,660.6z"/>
		<path class="st4" d="M-314.4,660.6l-0.5-0.5l-10.9,10.6v0.1l-0.2,0.1l-0.5,0.5l-0.1,0.1l0,0l0,0l0.1,0.3v-0.3h-0.1l0.1,0.3v-0.3
			v0.6l0.4-0.4c-0.1-0.1-0.3-0.2-0.4-0.2v0.6l0.4-0.4l-0.5,0.5l0.5-0.5l-5.1-5.4l0,0l-0.4,0.4h0.6c0-0.1,0-0.3-0.2-0.4l-0.4,0.4h0.6
			h-0.3l0.3,0.1v-0.1h-0.3l0.3,0.1l0,0l0,0l0,0l0,0l0,0l0.1-0.2l0.5-0.5l0.1-0.1l0,0l0,0l-0.1-0.3v0.3h0.1l-0.1-0.3v0.3v-0.6
			l-0.4,0.4c0.1,0.1,0.3,0.2,0.4,0.2v-0.6l-0.4,0.4l0.5-0.5l-0.5,0.5l4.4,4.6l11-10.8l0,0l0,0l0,0l0,0l0,0l0,0l0,0l0,0l0,0l0,0l0,0
			l0.5,0.5l0,0l0,0l0,0l0,0l0,0l0,0l0,0l0,0l0,0l0,0L-314.4,660.6l-0.5-0.5L-314.4,660.6l0.5,0.5c0.3-0.3,0.4-0.7,0.4-1
			c0-0.4-0.1-0.8-0.4-1l-0.5-0.5c-0.3-0.3-0.7-0.4-1-0.4c-0.4,0-0.8,0.1-1,0.4l0.5,0.5l-0.5-0.5l-10,9.7l-3.3-3.5l0,0
			c-0.2-0.2-0.5-0.3-0.7-0.3c-0.3,0-0.5,0.1-0.6,0.2c-0.2,0.1-0.3,0.2-0.5,0.4l-0.5,0.5c-0.2,0.2-0.3,0.3-0.4,0.5
			c-0.1,0.2-0.2,0.4-0.2,0.6s0.1,0.5,0.3,0.7l0.5-0.5l-0.5,0.5l5.1,5.4l0,0c0.2,0.2,0.5,0.2,0.7,0.2c0.3,0,0.5-0.1,0.6-0.2
			c0.2-0.1,0.3-0.2,0.5-0.4l0.5-0.5c0.1-0.1,0.2-0.3,0.3-0.4l-0.6-0.4l0.5,0.5l10.8-10.6l0,0L-314.4,660.6z"/>
	</g>
</g>
</svg>
