<?xml version="1.0" encoding="utf-8"?>
<!-- Generator: Adobe Illustrator 19.2.1, SVG Export Plug-In . SVG Version: 6.00 Build 0)  -->
<svg version="1.1" id="icon" xmlns="http://www.w3.org/2000/svg" xmlns:xlink="http://www.w3.org/1999/xlink" x="0px" y="0px"
	 viewBox="0 0 48 48" style="enable-background:new 0 0 48 48;" xml:space="preserve">
<path id="settings_1_" d="M36.6,17.5c0.3,0.6,0.6,1.5,1,2.3H44v8.5h-6.5c-0.3,0.8-0.5,1.6-1,2.3l4.5,4.5l-6,6l-4.7-4.5
	c-0.6,0.3-1.5,0.6-2.3,1v6.5h-8.5v-6.5c-0.8-0.3-1.6-0.5-2.3-1L12.9,41l-6-6l4.5-4.5c-0.3-0.6-0.6-1.5-1-2.3H4v-8.5h6.5
	c0.3-0.8,0.5-1.6,1-2.3L6.9,13l6-6l4.5,4.5c0.6-0.3,1.5-0.6,2.3-1V4.1h8.5v6.5c0.8,0.3,1.6,0.5,2.3,1L35,7l6,6L36.6,17.5z M24,15.4
	c-4.7,0-8.5,3.9-8.5,8.5s3.9,8.5,8.5,8.5s8.5-3.9,8.5-8.5S28.7,15.4,24,15.4z"/>
</svg>
