<?xml version="1.0" encoding="utf-8"?>
<!-- Generator: Adobe Illustrator 19.2.1, SVG Export Plug-In . SVG Version: 6.00 Build 0)  -->
<svg version="1.1" id="icon" xmlns="http://www.w3.org/2000/svg" xmlns:xlink="http://www.w3.org/1999/xlink" x="0px" y="0px"
	 viewBox="0 0 48 48" style="enable-background:new 0 0 48 48;" xml:space="preserve">
<path id="social_x5F_share_1_" d="M14.4,15.8c1.4,0,2.8,0.4,3.9,1.1c0.7,0.5,1.7,0.4,2.4-0.1l8.2-5.4C29.5,11,30,10.3,30,9.4
	c0.1-3,2.7-5.4,5.7-5.4c3.1,0,5.7,2.7,5.7,5.8c0,4.1-4.1,6.9-7.7,5.4c-0.7-0.2-1.4-0.2-2.2,0.2l-7.1,4.7c-1.3,0.8-2.1,2.3-2.1,3.9
	l0,0c0,1.6,0.7,2.9,2.1,3.7l7.2,4.7c0.6,0.4,1.4,0.5,2.2,0.2c3.7-1.5,7.7,1.3,7.7,5.4c0,3.3-2.5,5.8-5.7,5.8c-3,0-5.4-2.4-5.7-5.4
	c0-0.7-0.5-1.5-1.1-1.9l-8.2-5.3c-0.7-0.5-1.7-0.5-2.4-0.1c-1.2,0.7-2.5,1.1-3.9,1.1c-4.3,0-8-3.6-8-8.2
	C6.4,19.6,10.1,15.8,14.4,15.8z"/>
</svg>
