<?xml version="1.0" encoding="utf-8"?>
<!-- Generator: Adobe Illustrator 19.2.1, SVG Export Plug-In . SVG Version: 6.00 Build 0)  -->
<svg version="1.1" id="icon" xmlns="http://www.w3.org/2000/svg" xmlns:xlink="http://www.w3.org/1999/xlink" x="0px" y="0px"
	 viewBox="0 0 48 48" style="enable-background:new 0 0 48 48;" xml:space="preserve">
<g>
	<polygon id="upload_3_" points="3,5 25,5 25,9 3,9 	"/>
	<polygon id="upload_4_" points="3,17 19,17 19,13 3,13 	"/>
	<polygon id="upload_5_" points="3,25 13,25 13,21 3,21 	"/>
	<polygon id="upload_7_" points="3,33 7,33 7,29 3,29 	"/>
</g>
<g>
	<g>
		<path d="M33.1,41.3l-1.4,1.4c-0.4,0.4-1,0.4-1.4,0L16.9,29.3c-0.4-0.4-0.4-1,0-1.4l1.4-1.4c0.4-0.4,1-0.4,1.4,0l13.4,13.4
			C33.5,40.3,33.5,40.9,33.1,41.3z"/>
		<path d="M30.3,42.7l-1.4-1.4c-0.4-0.4-0.4-1,0-1.4l13.4-13.4c0.4-0.4,1-0.4,1.4,0l1.4,1.4c0.4,0.4,0.4,1,0,1.4L31.7,42.7
			C31.3,43.1,30.7,43.1,30.3,42.7z"/>
	</g>
	<path d="M32,41h-2c-0.6,0-1-0.4-1-1V6c0-0.6,0.4-1,1-1h2c0.6,0,1,0.4,1,1v34C33,40.6,32.6,41,32,41z"/>
</g>
</svg>
