<?xml version="1.0" encoding="utf-8"?>
<!-- Generator: Adobe Illustrator 19.2.1, SVG Export Plug-In . SVG Version: 6.00 Build 0)  -->
<svg version="1.1" id="icon" xmlns="http://www.w3.org/2000/svg" xmlns:xlink="http://www.w3.org/1999/xlink" x="0px" y="0px"
	 viewBox="0 0 48 48" style="enable-background:new 0 0 48 48;" xml:space="preserve">
<path d="M41.9,6h-6v19.4h6V6z M6.8,21c0,0.6,0.1,1.1,0.6,1.7c0.4,0.6,0.3,1.4-0.3,2c-0.7,0.6-1,1.4-1,2.3c0,1.7,1.3,3,3,3h7.4
	c0,0-1.4,3-1.4,6c0,2.3,0.7,6,3.7,6c1.4,0,2-0.7,2-1.4c0.1-6.7,3.1-9,3.1-9l10.4-7.4v-15c0,0-6-3-12-3h-1.4c-7.3,0-12,2-12,4.4
	c0,0.1,0,0.4,0.1,0.6c0.1,0.6,0,1.3-0.4,1.6c-0.7,0.6-1.1,1.4-1.1,2.3c0,0.6,0.1,1.1,0.6,1.7c0.4,0.6,0.3,1.4-0.3,2
	C7.1,19.3,6.8,20.1,6.8,21z"/>
</svg>
