<?xml version="1.0" encoding="utf-8"?>
<!-- Generator: Adobe Illustrator 19.0.0, SVG Export Plug-In . SVG Version: 6.00 Build 0)  -->
<svg version="1.1" id="Layer_1" xmlns="http://www.w3.org/2000/svg" xmlns:xlink="http://www.w3.org/1999/xlink" x="0px" y="0px"
	 viewBox="-350 644 48 48" style="enable-background:new -350 644 48 48;" xml:space="preserve">
<style type="text/css">
	.st0{display:none;}
	.st1{display:inline;fill:#E6E7E8;}
	.st2{display:inline;}
	.st3{fill:none;stroke:#544841;stroke-width:8.061200e-02;stroke-miterlimit:10;}
	.st4{fill:#A7B6BF;}
</style>
<g id="bg" class="st0">
	<path class="st1" d="M-310.6,692h-30.8c-4.7,0-8.6-3.9-8.6-8.6v-30.8c0-4.7,3.9-8.6,8.6-8.6h30.8c4.7,0,8.6,3.9,8.6,8.6v30.8
		C-302,688.1-305.9,692-310.6,692z"/>
</g>
<g id="lines" class="st0">
	<g class="st2">
		<line class="st3" x1="-326" y1="644.2" x2="-326" y2="691.8"/>
		<line class="st3" x1="-334.9" y1="644.2" x2="-334.9" y2="691.8"/>
		<line class="st3" x1="-317.1" y1="644.2" x2="-317.1" y2="691.8"/>
		<line class="st3" x1="-305.3" y1="644.2" x2="-305.3" y2="691.8"/>
		<line class="st3" x1="-346.7" y1="644.2" x2="-346.7" y2="691.8"/>
		<line class="st3" x1="-349.8" y1="668" x2="-302.2" y2="668"/>
		<line class="st3" x1="-349.8" y1="659.1" x2="-302.2" y2="659.1"/>
		<line class="st3" x1="-349.8" y1="676.9" x2="-302.2" y2="676.9"/>
		<line class="st3" x1="-349.8" y1="688.7" x2="-302.2" y2="688.7"/>
		<line class="st3" x1="-349.8" y1="647.3" x2="-302.2" y2="647.3"/>
		<line class="st3" x1="-349.8" y1="644.2" x2="-302.2" y2="691.8"/>
		<line class="st3" x1="-349.8" y1="691.8" x2="-302.2" y2="644.2"/>
		<circle class="st3" cx="-326" cy="668" r="12.5"/>
		<circle class="st3" cx="-326" cy="668" r="20.7"/>
		<g id="_x31_20px_icon_102_">
			<path id="Rectangle_7_102_" class="st3" d="M-335.1,691.8c-5.4,0-8.5,0-11.6-3.1c-3.1-3.1-3.1-6.2-3.1-11.6v-18.2
				c0-5.4,0-8.5,3.1-11.6c3.1-3.1,6.2-3.1,11.6-3.1h18.2c5.4,0,8.5,0,11.6,3.1c3.1,3.1,3.1,6.2,3.1,11.6v18.2c0,5.4,0,8.5-3.1,11.6
				c-3.1,3.1-6.2,3.1-11.6,3.1C-316.9,691.8-335.1,691.8-335.1,691.8z"/>
		</g>
		<path class="st3" d="M-326,653.2"/>
		<circle class="st3" cx="-326" cy="668" r="8.8"/>
		<path class="st3" d="M-319.3,669.1c0.1-0.4,0.1-0.7,0.1-1.1s0-0.8-0.1-1.1c-0.5-2.8-2.7-5.1-5.6-5.6c-0.4-0.1-0.8-0.1-1.1-0.1
			c-0.4,0-0.8,0-1.1,0.1c-2.9,0.5-5.1,2.7-5.6,5.6c-0.1,0.4-0.1,0.7-0.1,1.1s0,0.8,0.1,1.1c0.5,2.9,2.7,5.1,5.6,5.6
			c0.4,0.1,0.7,0.1,1.1,0.1s0.8,0,1.1-0.1C-322,674.2-319.8,672-319.3,669.1z"/>
	</g>
</g>
<g id="icon">
	<g>
		<g>
			<path class="st4" d="M-326,679.7c-6.4,0-11.7-5.2-11.7-11.7c0-6.4,5.2-11.7,11.7-11.7c6.4,0,11.7,5.2,11.7,11.7
				C-314.3,674.4-319.6,679.7-326,679.7L-326,679.7z M-326,658.3c-5.3,0-9.7,4.3-9.7,9.7s4.3,9.7,9.7,9.7s9.7-4.3,9.7-9.7
				S-320.7,658.3-326,658.3L-326,658.3z"/>
		</g>
		<g>
			<path class="st4" d="M-326,669c-0.6,0-1-0.4-1-1v-7.2c0-0.6,0.4-1,1-1s1,0.4,1,1v7.2C-325,668.6-325.4,669-326,669L-326,669z"/>
		</g>
		<g>
			<path class="st4" d="M-326,659c-0.6,0-1-0.4-1-1v-0.6c0-0.6,0.4-1,1-1s1,0.4,1,1v0.6C-325,658.5-325.4,659-326,659L-326,659z"/>
		</g>
		<g>
			<path class="st4" d="M-326,679.7c-0.6,0-1-0.4-1-1V678c0-0.6,0.4-1,1-1s1,0.4,1,1v0.6C-325,679.2-325.4,679.7-326,679.7
				L-326,679.7z"/>
		</g>
		<g>
			<path class="st4" d="M-315.3,669h-0.7c-0.6,0-1-0.4-1-1s0.4-1,1-1h0.6c0.6,0,1,0.4,1,1C-314.3,668.6-314.8,669-315.3,669
				L-315.3,669z"/>
		</g>
		<g>
			<path class="st4" d="M-336,669h-0.6c-0.6,0-1-0.4-1-1s0.4-1,1-1h0.6c0.6,0,1,0.4,1,1S-335.5,669-336,669L-336,669z"/>
		</g>
		<g>
			<g>
				<g>
					<path class="st4" d="M-321.5,660.6c-0.1,0-0.2,0-0.2-0.1c-0.2-0.1-0.3-0.4-0.2-0.7l0.3-0.5c0.1-0.2,0.4-0.3,0.7-0.2
						c0.2,0.1,0.3,0.4,0.2,0.7l-0.3,0.6C-321.1,660.5-321.3,660.6-321.5,660.6L-321.5,660.6z"/>
				</g>
				<g>
					<path class="st4" d="M-330.8,676.9c-0.1,0-0.2,0-0.2-0.1c-0.2-0.1-0.3-0.4-0.2-0.7l0.3-0.5c0.1-0.2,0.4-0.3,0.7-0.2
						c0.2,0.1,0.3,0.4,0.2,0.7l-0.3,0.5C-330.5,676.8-330.7,676.9-330.8,676.9L-330.8,676.9z"/>
				</g>
				<g>
					<path class="st4" d="M-317.6,673.3c-0.1,0-0.2,0-0.2-0.1l-0.6-0.2c-0.2-0.1-0.3-0.4-0.2-0.7c0.1-0.2,0.4-0.3,0.7-0.2l0.5,0.3
						c0.2,0.1,0.3,0.4,0.2,0.7C-317.3,673.3-317.4,673.3-317.6,673.3L-317.6,673.3z"/>
				</g>
				<g>
					<path class="st4" d="M-333.9,663.9c-0.1,0-0.2,0-0.2-0.1l-0.5-0.3c-0.2-0.1-0.3-0.4-0.2-0.7c0.1-0.2,0.4-0.3,0.7-0.2l0.5,0.3
						c0.2,0.1,0.3,0.4,0.2,0.7C-333.5,663.9-333.7,663.9-333.9,663.9L-333.9,663.9z"/>
				</g>
			</g>
			<g>
				<g>
					<path class="st4" d="M-330.5,660.6c-0.2,0-0.3-0.1-0.4-0.3l-0.3-0.5c-0.1-0.2-0.1-0.5,0.2-0.7c0.2-0.1,0.5-0.1,0.7,0.2l0.3,0.5
						c0.1,0.2,0.1,0.5-0.2,0.7C-330.4,660.6-330.5,660.6-330.5,660.6L-330.5,660.6z"/>
				</g>
				<g>
					<path class="st4" d="M-321.2,676.9c-0.2,0-0.3-0.1-0.4-0.2l-0.3-0.5c-0.1-0.2-0.1-0.5,0.2-0.7c0.2-0.1,0.5-0.1,0.7,0.2l0.3,0.5
						c0.1,0.2,0.1,0.5-0.2,0.7C-321,676.9-321.1,676.9-321.2,676.9L-321.2,676.9z"/>
				</g>
				<g>
					<path class="st4" d="M-334.4,673.3c-0.2,0-0.3-0.1-0.4-0.3c-0.1-0.2-0.1-0.5,0.2-0.7l0.5-0.3c0.2-0.1,0.5-0.1,0.7,0.2
						c0.1,0.2,0.1,0.5-0.2,0.7l-0.5,0.3C-334.2,673.3-334.3,673.3-334.4,673.3L-334.4,673.3z"/>
				</g>
				<g>
					<path class="st4" d="M-318.1,663.9c-0.2,0-0.3-0.1-0.4-0.2c-0.1-0.2-0.1-0.5,0.2-0.7l0.5-0.3c0.2-0.1,0.5-0.1,0.7,0.2
						c0.1,0.2,0.1,0.5-0.2,0.7l-0.5,0.3C-317.9,663.9-318,663.9-318.1,663.9L-318.1,663.9z"/>
				</g>
			</g>
		</g>
		<g>
			<path class="st4" d="M-329,672c-0.3,0-0.5-0.1-0.7-0.3c-0.4-0.4-0.4-1,0-1.4l2.9-2.9c0.4-0.4,1-0.4,1.4,0c0.4,0.4,0.4,1,0,1.4
				l-2.9,2.9C-328.5,671.9-328.8,672-329,672L-329,672z"/>
		</g>
	</g>
</g>
</svg>
