<?xml version="1.0" encoding="utf-8"?>
<!-- Generator: Adobe Illustrator 19.2.1, SVG Export Plug-In . SVG Version: 6.00 Build 0)  -->
<svg version="1.1" id="icon" xmlns="http://www.w3.org/2000/svg" xmlns:xlink="http://www.w3.org/1999/xlink" x="0px" y="0px"
	 viewBox="0 0 48 48" style="enable-background:new 0 0 48 48;" xml:space="preserve">
<g>
	<path d="M24,4C12.9,4,4,13.1,4,24c0,11.1,9.1,20,20,20s20-9.1,20-20C44,12.9,34.9,4,24,4z M24,40c-8.8,0-16-7.1-16-16
		c0-8.8,7.1-16,16-16c8.8,0,16,7.1,16,16C40,32.8,32.8,40,24,40z"/>
</g>
<path d="M26,24.9h-4V13c0-1.1,0.9-2,2-2h0c1.1,0,2,0.9,2,2V24.9z"/>
<path d="M26,24.9l-2.8-2.8l-5.7,5.7c-0.8,0.8-0.8,2,0,2.8l0,0c0.8,0.8,2,0.8,2.8,0L26,24.9z"/>
</svg>
