<?xml version="1.0" encoding="utf-8"?>
<!-- Generator: Adobe Illustrator 19.2.1, SVG Export Plug-In . SVG Version: 6.00 Build 0)  -->
<svg version="1.1" id="icon" xmlns="http://www.w3.org/2000/svg" xmlns:xlink="http://www.w3.org/1999/xlink" x="0px" y="0px"
	 viewBox="0 0 48 48" style="enable-background:new 0 0 48 48;" xml:space="preserve">
<path id="touch" d="M12.2,33.7c-0.1,0-0.3,0.1-0.4,0.1c-0.5,0-1-0.3-1.2-0.8c-0.2-0.6,0.1-1.3,0.8-1.5c0.8-0.3,1.8-0.5,2.9-0.8
	c5.5-1.3,12.2-3,12.6-13.2c0-0.7-0.2-1.4-0.8-1.9c-0.5-0.6-1.3-0.9-2.1-0.9c-0.8,0-1.6,0.3-2.1,0.9c-0.4,0.5-0.6,1.2-0.8,2.2
	c-1,5.1-4.7,8-10.4,8.1c-0.7,0-1.2-0.5-1.2-1.2c0-0.7,0.5-1.2,1.2-1.2c4.6-0.1,7.2-2,8-6.1c0.2-1,0.4-2.4,1.4-3.4
	c1-1.1,2.4-1.7,3.9-1.7c1.5,0,2.9,0.6,3.9,1.6c1,1,1.5,2.3,1.4,3.7C28.9,29.5,20.5,31.6,14.9,33C13.9,33.2,13,33.4,12.2,33.7z
	 M37.2,27.4c-2.2-0.7-4.1-1.5-4.1-5c0-0.8,0.1-1.3,0.1-1.8c0.1-0.7,0.1-1.6,0.1-3.2C33.3,12.2,29.1,8,24,8c-4.6,0-8.3,3.2-9.3,8.1
	c-0.6,2.9-2.1,3-3.5,2.9c-0.7-0.1-1.3,0.4-1.3,1.1c-0.1,0.7,0.4,1.3,1.1,1.3c4.2,0.4,5.7-2.4,6.1-4.8c0.8-3.8,3.4-6.1,6.9-6.1
	c3.8,0,6.9,3.1,6.9,6.9c0,1.5,0,2.2-0.1,2.9c0,0.6-0.1,1.1-0.1,2c0,5.6,4.1,6.8,5.8,7.3c0.1,0,0.2,0.1,0.4,0.1c0.5,0,1-0.3,1.2-0.9
	C38.2,28.2,37.9,27.6,37.2,27.4z M37.7,23.3c-0.1-0.1-0.6-0.5-0.5-1.6c0.2-1.6,0.3-4.2,0.3-4.3l0,0C37.4,10,31.4,4,24,4
	c-5.5,0-10.5,3.4-12.5,8.6c-0.2,0.6-0.4,1.3-0.6,2c-0.1,0.3-0.2,0.7-0.2,0.9c-0.2,0.6,0.1,1.3,0.7,1.6c0.6,0.2,1.3-0.1,1.6-0.7
	c0.1-0.3,0.2-0.7,0.3-1.2c0.1-0.6,0.3-1.2,0.5-1.7c1.6-4.2,5.8-7,10.3-7c6.1,0,11,4.9,11,11c0,0.2-0.1,2.6-0.2,4.1
	c-0.3,2.7,1.4,4,2.3,4.2c0.1,0,0.2,0,0.3,0c0.6,0,1.1-0.4,1.2-1C38.6,24.1,38.3,23.5,37.7,23.3z M11.4,29.7c0.2-0.1,0.5-0.1,0.8-0.2
	c4.8-1,12.7-2.6,13.1-12.2c0-0.7-0.5-1.2-1.2-1.3c-0.7,0-1.2,0.5-1.3,1.2c-0.3,7.7-6.6,9-11.1,9.9c-0.3,0.1-0.5,0.1-0.8,0.2
	c-0.7,0.1-1.1,0.8-0.9,1.4c0.1,0.6,0.6,1,1.2,1C11.2,29.8,11.3,29.7,11.4,29.7z M36.4,31.3c-1.2-0.3-2.3-0.7-3.6-1.2
	c-1-0.4-2.1-1.2-2.9-2.2c-0.4-0.5-1.2-0.6-1.7-0.1c-0.5,0.4-0.6,1.2-0.1,1.7c1,1.2,2.4,2.2,3.8,2.8c1.2,0.5,2.6,1,4,1.4
	c0.1,0,0.2,0,0.3,0c0.6,0,1.1-0.4,1.2-1C37.5,32.1,37.1,31.5,36.4,31.3z M35.2,35.2c-2.3-0.5-3.8-1.3-5.2-2.1
	c-1.4-0.7-2.6-1.4-3.9-1.4c-1.1,0-2.4,0.4-4.4,1c-2.1,0.7-4.9,1.6-8.9,2.4c-0.7,0.1-1.1,0.8-1,1.4c0.1,0.7,0.8,1.1,1.4,1
	c4.1-0.8,7-1.8,9.1-2.4c1.7-0.5,2.9-0.9,3.6-0.9c0.8,0,1.7,0.5,2.8,1.1c1.5,0.8,3.3,1.7,5.9,2.3c0.1,0,0.2,0,0.3,0
	c0.6,0,1.1-0.4,1.2-1C36.3,36,35.9,35.4,35.2,35.2z M32.9,38.7c-0.9-0.2-1.9-0.7-3-1.2c-1.5-0.7-3-1.4-4.3-1.4
	c-0.9,0-2.5,0.5-5.1,1.2c-1.8,0.5-3.9,1.1-5.4,1.4c-0.7,0.1-1.1,0.7-1,1.4c0.1,0.7,0.7,1.1,1.4,1c1.6-0.3,3.8-0.9,5.7-1.5
	c1.8-0.5,3.8-1.1,4.4-1.1c0.7,0,2,0.6,3.2,1.2c1.1,0.5,2.3,1.1,3.4,1.4c0.1,0,0.2,0,0.3,0c0.5,0,1-0.4,1.2-0.9
	C34,39.5,33.6,38.8,32.9,38.7z M29.8,41.6c-0.3-0.1-0.6-0.2-0.9-0.4c-1-0.5-2.2-1-3.7-1c-0.7,0-1.7,0.2-3.2,0.6
	c-1.1,0.3-2.4,0.6-3.4,0.7c-0.7,0.1-1.2,0.7-1.1,1.4c0.1,0.7,0.7,1.1,1.4,1.1c1.1-0.1,2.4-0.5,3.6-0.7c1-0.3,2.2-0.5,2.7-0.5
	c1,0,1.8,0.4,2.7,0.8c0.3,0.2,0.7,0.3,1.1,0.4c0.1,0.1,0.3,0.1,0.4,0.1c0.5,0,1-0.3,1.1-0.8C30.7,42.6,30.4,41.9,29.8,41.6z"/>
</svg>
