<?xml version="1.0" encoding="utf-8"?>
<!-- Generator: Adobe Illustrator 19.2.1, SVG Export Plug-In . SVG Version: 6.00 Build 0)  -->
<svg version="1.1" id="icon" xmlns="http://www.w3.org/2000/svg" xmlns:xlink="http://www.w3.org/1999/xlink" x="0px" y="0px"
	 viewBox="0 0 48 48" style="enable-background:new 0 0 48 48;" xml:space="preserve">
<g>
	<path d="M7,13c-1.7,0-3,1.3-3,3v22c0,1.6,1.3,3,3,3h2V13H7z"/>
	<rect x="12" y="13" width="24" height="28"/>
	<path d="M41,13h-2v28h2c1.7,0,3-1.4,3-3V16C44,14.3,42.7,13,41,13z"/>
</g>
<g>
	<path d="M28,6h-8c-1.1,0-2,0.9-2,2v1c0,1.1,0.9,2,2,2h1l-1-1V8h8l0,2l-1,1h1c1.1,0,2-0.9,2-2V8C30,6.9,29.1,6,28,6z"/>
</g>
</svg>
