<?xml version="1.0" encoding="utf-8"?>
<!-- Generator: Adobe Illustrator 19.2.1, SVG Export Plug-In . SVG Version: 6.00 Build 0)  -->
<svg version="1.1" id="icon" xmlns="http://www.w3.org/2000/svg" xmlns:xlink="http://www.w3.org/1999/xlink" x="0px" y="0px"
	 viewBox="0 0 48 48" style="enable-background:new 0 0 48 48;" xml:space="preserve">
<path id="user_2_" d="M30.3,30.1c-2-0.9-2-1.4-2-2.2c0-0.3,0-2.3,0-2.3c0.7-0.7,1.3-3.9,1.3-3.9c0.7,0.1,1.7-1,2.2-2.6
	c0.4-1.6-0.1-3.2-0.7-3.3c-0.1,0,0.4-3.6,0.4-5.2c0-2.3-0.9-3.9-3-3.9c-0.6-1-1.6-1.6-4.2-1.6c-2.7,0-4,1.6-6.6,1.6
	c-1.2,0-1.6,1.9-1.6,3.9c0,2.2,0.4,5.2,0.4,5.2c-0.7,0.1-1.2,1.7-0.7,3.3c0.4,1.6,1.4,2.9,2.2,2.6c0,0,0.6,3,1.3,3.9
	c0,0,0,2.2,0,2.3c0,0.7,0,1.4-2,2.2c-2,0.9-7.2,3.2-8.2,4.2c-1.6,1.6-2,5.8-2,6.3c0,0.3,0.1,0.6,0.7,0.7c1.6,0.4,7.1,1.4,16.3,1.4
	s14.7-1,16.3-1.4c0.4-0.1,0.7-0.4,0.7-0.7c0-0.4-0.6-4.8-2-6.3C37.5,33.1,32.4,31,30.3,30.1z"/>
</svg>
