<?xml version="1.0" encoding="utf-8"?>
<!-- Generator: Adobe Illustrator 19.0.0, SVG Export Plug-In . SVG Version: 6.00 Build 0)  -->
<svg version="1.1" id="Layer_1" xmlns="http://www.w3.org/2000/svg" xmlns:xlink="http://www.w3.org/1999/xlink" x="0px" y="0px"
	 viewBox="-350 644 48 48" style="enable-background:new -350 644 48 48;" xml:space="preserve">
<style type="text/css">
	.st0{display:none;}
	.st1{display:inline;fill:#E6E7E8;}
	.st2{display:inline;}
	.st3{fill:none;stroke:#544841;stroke-width:8.061200e-02;stroke-miterlimit:10;}
	.st4{fill:#A7B6BF;}
</style>
<g id="bg" class="st0">
	<path class="st1" d="M-310.6,692h-30.8c-4.7,0-8.6-3.9-8.6-8.6v-30.8c0-4.7,3.9-8.6,8.6-8.6h30.8c4.7,0,8.6,3.9,8.6,8.6v30.8
		C-302,688.1-305.9,692-310.6,692z"/>
</g>
<g id="lines" class="st0">
	<g class="st2">
		<line class="st3" x1="-326.2" y1="644.3" x2="-326.2" y2="692"/>
		<line class="st3" x1="-335" y1="644.3" x2="-335" y2="692"/>
		<line class="st3" x1="-317.3" y1="644.3" x2="-317.3" y2="692"/>
		<line class="st3" x1="-305.4" y1="644.3" x2="-305.4" y2="692"/>
		<line class="st3" x1="-346.9" y1="644.3" x2="-346.9" y2="692"/>
		<line class="st3" x1="-350" y1="668.2" x2="-302.3" y2="668.2"/>
		<line class="st3" x1="-350" y1="659.3" x2="-302.3" y2="659.3"/>
		<line class="st3" x1="-350" y1="677" x2="-302.3" y2="677"/>
		<line class="st3" x1="-350" y1="688.9" x2="-302.3" y2="688.9"/>
		<line class="st3" x1="-350" y1="647.4" x2="-302.3" y2="647.4"/>
		<line class="st3" x1="-350" y1="644.3" x2="-302.3" y2="692"/>
		<line class="st3" x1="-350" y1="692" x2="-302.3" y2="644.3"/>
		<circle class="st3" cx="-326.2" cy="668.2" r="12.5"/>
		<circle class="st3" cx="-326.2" cy="668.2" r="20.7"/>
		<g id="_x31_20px_icon_102_">
			<path id="Rectangle_7_102_" class="st3" d="M-335.3,692c-5.4,0-8.5,0-11.6-3.1c-3.1-3.1-3.1-6.2-3.1-11.6v-18.2
				c0-5.4,0-8.5,3.1-11.7c3.1-3.1,6.2-3.1,11.6-3.1h18.2c5.4,0,8.5,0,11.6,3.1c3.1,3.1,3.1,6.2,3.1,11.6v18.2c0,5.4,0,8.5-3.1,11.6
				c-3,3.2-6.2,3.2-11.6,3.2H-335.3z"/>
		</g>
		<path class="st3" d="M-326.2,653.3"/>
		<circle class="st3" cx="-326.2" cy="668.2" r="8.8"/>
		<path class="st3" d="M-319.5,669.3c0.1-0.4,0.1-0.7,0.1-1.1c0-0.4,0-0.8-0.1-1.1c-0.5-2.8-2.7-5.1-5.6-5.6
			c-0.4-0.1-0.8-0.1-1.1-0.1c-0.4,0-0.8,0-1.1,0.1c-2.9,0.5-5.1,2.7-5.6,5.6c-0.1,0.4-0.1,0.7-0.1,1.1c0,0.4,0,0.8,0.1,1.1
			c0.5,2.9,2.7,5.1,5.6,5.6c0.4,0.1,0.7,0.1,1.1,0.1c0.4,0,0.8,0,1.1-0.1C-322.2,674.4-320,672.1-319.5,669.3z"/>
	</g>
</g>
<g id="icon">
	<path class="st4" d="M-313.4,677.5l-11.6-20.1c-0.2-0.3-0.6-0.6-1-0.6s-0.8,0.2-1,0.6l-11.6,20.1c-0.2,0.3-0.2,0.8,0,1.1
		c0.2,0.3,0.6,0.6,1,0.6h23.3c0.4,0,0.8-0.2,1-0.6C-313.2,678.3-313.2,677.8-313.4,677.5z M-324.3,663.7l-0.7,8.5h-2.1l-0.7-8.5
		H-324.3z M-326,677.2c-1,0-1.7-0.8-1.7-1.7s0.8-1.7,1.7-1.7s1.7,0.8,1.7,1.7S-325,677.2-326,677.2z"/>
</g>
</svg>
