<?xml version="1.0" encoding="utf-8"?>
<!-- Generator: Adobe Illustrator 19.2.1, SVG Export Plug-In . SVG Version: 6.00 Build 0)  -->
<svg version="1.1" id="icon" xmlns="http://www.w3.org/2000/svg" xmlns:xlink="http://www.w3.org/1999/xlink" x="0px" y="0px"
	 viewBox="0 0 48 48" style="enable-background:new 0 0 48 48;" xml:space="preserve">
<path id="warning_1_" d="M43.7,38.9L25.6,7.4c-0.3-0.5-0.9-0.9-1.6-0.9c-0.6,0-1.3,0.3-1.6,0.9L4.2,38.9c-0.3,0.5-0.3,1.3,0,1.7
	c0.3,0.5,0.9,0.9,1.6,0.9h36.5c0.6,0,1.3-0.3,1.6-0.9C44.1,40.2,44.1,39.4,43.7,38.9z M26.7,17.3l-1.1,13.3h-3.3l-1.1-13.3H26.7z
	 M24,38.4c-1.6,0-2.7-1.3-2.7-2.7c0-1.4,1.3-2.7,2.7-2.7c1.4,0,2.7,1.3,2.7,2.7C26.7,37.2,25.6,38.4,24,38.4z"/>
</svg>
