<?xml version="1.0" encoding="utf-8"?>
<!-- Generator: Adobe Illustrator 19.2.1, SVG Export Plug-In . SVG Version: 6.00 Build 0)  -->
<svg version="1.1" id="icon" xmlns="http://www.w3.org/2000/svg" xmlns:xlink="http://www.w3.org/1999/xlink" x="0px" y="0px"
	 viewBox="0 0 48 48" style="enable-background:new 0 0 48 48;" xml:space="preserve">
<g>
	<path d="M5.6,20.4c-0.4,0-0.8-0.2-1.1-0.5c-0.6-0.6-0.6-1.6,0-2.3c10.8-10.8,28.3-10.8,39.1,0c0.6,0.6,0.6,1.6,0,2.3
		c-0.6,0.6-1.6,0.6-2.3,0c-9.5-9.5-25-9.5-34.5,0C6.4,20.3,6,20.4,5.6,20.4L5.6,20.4z"/>
	<path d="M30.9,22c-2.1-1-4.5-1.5-6.9-1.5c0,0,0,0,0,0c-4.5,0-8.7,1.7-11.9,4.9c-0.3,0.3-0.7,0.5-1.1,0.5l0,0
		c-0.4,0-0.8-0.2-1.1-0.5c-0.6-0.6-0.6-1.6,0-2.3c3.8-3.8,8.8-5.9,14.1-5.9c0,0,0,0,0,0c5.3,0,10.4,2.1,14.1,5.8
		c0.6,0.6,0.6,1.6,0,2.3c-0.6,0.6-1.6,0.6-2.3,0C34.4,23.9,32.7,22.8,30.9,22"/>
	<path d="M16.7,31.5c-0.4,0-0.8-0.2-1.1-0.5c-0.6-0.6-0.6-1.6,0-2.3c4.7-4.7,12.2-4.7,16.9,0c0.6,0.6,0.6,1.6,0,2.3
		c-0.6,0.6-1.6,0.6-2.3,0c-3.4-3.4-8.9-3.4-12.3,0C17.5,31.4,17.1,31.5,16.7,31.5L16.7,31.5z"/>
	<path d="M24,33.4c-0.6,0-1.3,0.2-1.8,0.7c-1,1-1,2.6,0,3.5c0.5,0.5,1.1,0.7,1.8,0.7c0.6,0,1.3-0.2,1.8-0.7c1-1,1-2.6,0-3.5
		C25.3,33.6,24.6,33.4,24,33.4L24,33.4z"/>
</g>
</svg>
