<?xml version="1.0" encoding="iso-8859-1"?>
<!DOCTYPE svg PUBLIC "-//W3C//DTD SVG 1.1//EN" "http://www.w3.org/Graphics/SVG/1.1/DTD/svg11.dtd">
<svg 
 version="1.1" xmlns="http://www.w3.org/2000/svg" xmlns:xlink="http://www.w3.org/1999/xlink" x="0px" y="0px" width="512px"
	 height="512px" viewBox="0 0 512 512" style="enable-background:new 0 0 512 512;" xml:space="preserve"
><g id="afcae5a789ccd549f9c6e2a2f80fbdf3"><g></g><g fill="#0078c8"><path style="display: inline;" d="M468.916,259.404c0-103.007-73.147-188.921-170.334-208.65v-4.267
		c0-11.76-9.53-21.292-21.29-21.292h-42.583c-11.761,0-21.292,9.532-21.292,21.292v4.267
		C116.232,70.483,43.083,156.397,43.083,259.404c0,61.967,26.494,117.733,68.749,156.642l-46.385,46.382l30.108,30.11l50.676-50.675
		c32.058,19.323,69.609,30.456,109.769,30.456s77.711-11.133,109.769-30.456l50.676,50.675l30.107-30.11l-46.385-46.382
		C442.423,377.138,468.916,321.371,468.916,259.404z M85.667,259.404C85.667,165.481,162.08,89.07,256,89.07
		c93.92,0,170.332,76.411,170.332,170.334c0,93.921-76.412,170.332-170.332,170.332C162.08,429.736,85.667,353.325,85.667,259.404z
		 M277.292,238.111h21.29v42.583h-63.874v-21.29v-21.293V131.654h42.583V238.111z M73.071,92.032
		c-23.546,23.549-40.413,51.249-50.622,80.737l-1.472,1.468c-29.318-38.753-27.28-93.163,6.928-127.372
		c34.208-34.204,88.619-36.246,127.372-6.928l-1.468,1.472C124.32,51.619,96.62,68.485,73.071,92.032z M491.023,174.237
		l-1.473-1.468c-10.209-29.488-27.075-57.188-50.621-80.737c-23.55-23.546-51.25-40.413-80.737-50.622l-1.469-1.472
		c38.753-29.317,93.163-27.276,127.372,6.928C518.304,81.074,520.341,135.484,491.023,174.237z"></path></g></g></svg>