<?xml version="1.0" encoding="iso-8859-1"?>
<!DOCTYPE svg PUBLIC "-//W3C//DTD SVG 1.1//EN" "http://www.w3.org/Graphics/SVG/1.1/DTD/svg11.dtd">
<svg 
 version="1.1" xmlns="http://www.w3.org/2000/svg" xmlns:xlink="http://www.w3.org/1999/xlink" x="0px" y="0px" width="512px"
	 height="512px" viewBox="0 0 512 512" style="enable-background:new 0 0 512 512;" xml:space="preserve"
><g fill="#0078c8" id="afcae5a789ccd549f9c6e2a2f811c0f1"><g fill="#0078c8"></g><path style="display: inline;" d="M490.209,234.708h-22.356c-9.989-100.586-89.975-180.572-190.562-190.56V21.791
		c0-11.76-9.532-21.291-21.291-21.291c-11.758,0-21.292,9.531-21.292,21.291v22.357c-100.589,9.988-180.573,89.974-190.562,190.56
		H21.791C10.031,234.708,0.5,244.24,0.5,256c0,11.76,9.531,21.291,21.291,21.291h22.355
		c9.989,100.587,89.973,180.573,190.562,190.562v22.356c0,11.76,9.534,21.291,21.292,21.291c11.759,0,21.291-9.531,21.291-21.291
		v-22.356c100.587-9.988,180.572-89.975,190.562-190.562h22.356c11.76,0,21.291-9.531,21.291-21.291
		C511.5,244.24,501.969,234.708,490.209,234.708z M277.291,424.952v-62.494c0-11.76-9.532-21.291-21.291-21.291
		c-11.758,0-21.292,9.531-21.292,21.291v62.494c-76.922-9.639-138.021-70.736-147.663-147.661h62.497
		c11.76,0,21.291-9.531,21.291-21.291c0-11.76-9.531-21.292-21.291-21.292H87.045c9.642-76.92,70.741-138.021,147.663-147.661
		v62.495c0,11.76,9.534,21.292,21.292,21.292c11.759,0,21.291-9.532,21.291-21.292V87.047
		c76.921,9.64,138.022,70.741,147.666,147.661h-62.499c-11.76,0-21.291,9.532-21.291,21.292c0,11.76,9.531,21.291,21.291,21.291
		h62.499C415.313,354.216,354.212,415.313,277.291,424.952z"></path></g></svg>