<?xml version="1.0" encoding="iso-8859-1"?>
<!DOCTYPE svg PUBLIC "-//W3C//DTD SVG 1.1//EN" "http://www.w3.org/Graphics/SVG/1.1/DTD/svg11.dtd">
<svg 
 version="1.1" xmlns="http://www.w3.org/2000/svg" xmlns:xlink="http://www.w3.org/1999/xlink" x="0px" y="0px" width="512px"
	 height="512px" viewBox="0 0 512 512" style="enable-background:new 0 0 512 512;" xml:space="preserve"
><g id="afcae5a789ccd549f9c6e2a2f80e000e"><g></g><path style="display: inline; fill:#0078c8;" d="M256,52.944c111.963,0,203.056,91.087,203.056,203.056
		c0,111.968-91.093,203.056-203.056,203.056c-111.963,0-203.056-91.088-203.056-203.056C52.944,144.032,144.037,52.944,256,52.944
		 M256,2.181C115.819,2.181,2.181,115.819,2.181,256S115.819,509.819,256,509.819S509.819,396.181,509.819,256
		S396.181,2.181,256,2.181L256,2.181z M149.212,328.686l35.896,35.896l71.789-71.788l71.793,71.788l35.892-35.892l-71.788-71.793
		l71.788-71.789l-35.892-35.896L256.897,221l-73.583-73.583l-35.896,35.892L221,256.897L149.212,328.686z"></path></g></svg>