<?xml version="1.0" encoding="utf-8"?>
<!-- Generator: Adobe Illustrator 19.2.0, SVG Export Plug-In . SVG Version: 6.00 Build 0)  -->
<!DOCTYPE svg PUBLIC "-//W3C//DTD SVG 1.1//EN" "http://www.w3.org/Graphics/SVG/1.1/DTD/svg11.dtd">
<svg version="1.1" id="Layer_1" xmlns="http://www.w3.org/2000/svg" xmlns:xlink="http://www.w3.org/1999/xlink" x="0px" y="0px"
	 width="49.5px" height="49.5px" viewBox="0 0 49.5 49.5" style="enable-background:new 0 0 49.5 49.5;" xml:space="preserve">
<style type="text/css">
	.st0{fill:#dbe1e6;}
</style>
<path class="st0" d="M33.9,14.6l-11.6,5.1c-1,0.4-2.2,1.6-2.6,2.6l-5.1,11.6c-0.4,1,0,1.5,1,1l11.6-5.1c1-0.4,2.2-1.6,2.6-2.6
	l5.1-11.6C35.4,14.6,34.9,14.1,33.9,14.6z M24.8,26.8c-1.1,0-2.1-0.9-2.1-2.1c0-1.1,0.9-2.1,2.1-2.1c1.1,0,2.1,0.9,2.1,2.1
	C26.8,25.9,25.9,26.8,24.8,26.8z M24.8,0.1C24.7,0.1,24.7,0.1,24.8,0.1C24.7,0.1,24.7,0.1,24.8,0.1C24.7,0.1,24.7,0.1,24.8,0.1
	C11.1,0.1,0.1,11.2,0.1,24.8c0,13.6,11.1,24.7,24.7,24.7c13.6,0,24.7-11.1,24.7-24.7C49.4,11.1,38.4,0.1,24.8,0.1z M40.1,38.6l-1-1
	c-0.4-0.4-1-0.4-1.4,0s-0.4,1,0,1.4l1,1c-3.2,2.9-7.4,4.9-12,5.3v-1.4c0-1.1-0.9-2-2-2s-2,0.9-2,2v1.4c-4.6-0.5-8.7-2.4-11.9-5.4
	l1-1c0.4-0.4,0.4-1,0-1.4s-1-0.4-1.4,0l-1,1c-2.9-3.2-4.8-7.3-5.2-11.9h1.3c1.1,0,2-0.9,2-2s-0.9-2-2-2H4.2
	c0.5-4.5,2.4-8.6,5.3-11.8l0.9,0.9c0.2,0.2,0.5,0.3,0.7,0.3s0.5-0.1,0.7-0.3c0.4-0.4,0.4-1,0-1.4l-0.9-0.9c3.2-2.9,7.3-4.8,11.8-5.2
	v1.2c0,1.1,0.9,2,2,2s2-0.9,2-2V4.2c4.5,0.4,8.6,2.3,11.8,5.2l-0.9,0.9c-0.4,0.4-0.4,1,0,1.4c0.2,0.2,0.5,0.3,0.7,0.3
	s0.5-0.1,0.7-0.3l0.9-0.9c2.9,3.2,4.9,7.3,5.4,11.8H44c-1.1,0-2,0.9-2,2s0.9,2,2,2h1.4C44.9,31.2,43,35.3,40.1,38.6z"/>
</svg>
