<?xml version="1.0" encoding="utf-8"?>
<!-- Generator: Adobe Illustrator 18.1.1, SVG Export Plug-In . SVG Version: 6.00 Build 0)  -->
<!DOCTYPE svg PUBLIC "-//W3C//DTD SVG 1.1//EN" "http://www.w3.org/Graphics/SVG/1.1/DTD/svg11.dtd">
<svg version="1.1" id="Layer_1" xmlns="http://www.w3.org/2000/svg" xmlns:xlink="http://www.w3.org/1999/xlink" x="0px" y="0px"
	 viewBox="0 0 102.8 25.3" enable-background="new 0 0 102.8 25.3" xml:space="preserve">
<path fill="#FFFFFF" d="M12.2,4.5C14,4.5,15.8,5.2,17,6c0.3,0.2,0.3,0.3,0.2,0.4c-0.3,0.4-1,1.4-1.4,2.2c0,0-0.1,0.2-0.3,0.1
	c-0.8-0.5-1.8-1-3.5-1c-2.7,0-4.7,2.1-4.7,4.9c0,2.8,2.4,4.9,5,4.9c0.9,0,1.9-0.3,2.2-0.4c0.2-0.1,0.2,0.1,0.2,0.1
	c0.6,1.4,1.5,2,1.7,2.3c0.1,0.1-0.1,0.2-0.1,0.2c-1,0.6-2.7,1-4,1c-4.7,0-8.4-3.7-8.4-8C4,7.8,7.7,4.4,12.2,4.5"/>
<path fill="#FFFFFF" d="M21.8,15.4c0,1.3-1,2.3-2.3,2.3c-1.3,0-2.3-1-2.3-2.3c0-1.3,1-2.3,2.3-2.3C20.8,13.1,21.8,14.2,21.8,15.4"/>
<path fill="#0078C9" d="M25.7,1.4c0-0.8-0.6-1.4-1.4-1.4H1.4C0.6,0,0,0.6,0,1.4v22.4c0,0.8,0.6,1.4,1.4,1.4h22.9
	c0.8,0,1.4-0.6,1.4-1.4V1.4z M12.3,17.4c0.9,0,1.9-0.3,2.2-0.4c0.2-0.1,0.2,0.1,0.2,0.1c0.6,1.4,1.5,2,1.7,2.3
	c0.1,0.1-0.1,0.2-0.1,0.2c-1,0.6-2.7,1-4,1c-4.7,0-8.4-3.6-8.4-8c0-4.7,3.7-8.2,8.2-8c1.8,0,3.6,0.7,4.8,1.4
	c0.3,0.2,0.3,0.3,0.2,0.4c-0.3,0.4-1,1.4-1.3,2.2c0,0-0.1,0.2-0.3,0.1c-0.8-0.5-1.8-1-3.5-1c-2.7,0-4.7,2.1-4.7,4.9
	C7.3,15.3,9.6,17.4,12.3,17.4z M19.4,17.7c-1.3,0-2.3-1-2.3-2.3c0-1.3,1-2.3,2.3-2.3c1.3,0,2.3,1,2.3,2.3
	C21.7,16.7,20.7,17.7,19.4,17.7z"/>
<g>
	<path fill="#0078C9" d="M30.3,12.5c0-3.5,2.6-5.9,6-5.9c2.5,0,3.9,1.4,4.7,2.8l-2.1,1c-0.5-0.9-1.5-1.6-2.7-1.6
		c-2.1,0-3.6,1.6-3.6,3.7c0,2.1,1.5,3.7,3.6,3.7c1.2,0,2.2-0.7,2.7-1.7l2.1,1c-0.8,1.4-2.2,2.8-4.7,2.8C32.9,18.4,30.3,16,30.3,12.5
		"/>
	<path fill="#0078C9" d="M42.1,12.5c0-3.4,2.5-5.9,5.9-5.9c3.4,0,5.9,2.4,5.9,5.9c0,3.4-2.5,5.9-5.9,5.9
		C44.6,18.4,42.1,16,42.1,12.5 M51.5,12.5c0-2.1-1.4-3.7-3.5-3.7c-2.1,0-3.4,1.6-3.4,3.7c0,2.1,1.3,3.7,3.4,3.7
		C50.1,16.3,51.5,14.6,51.5,12.5"/>
	<polygon fill="#0078C9" points="63.9,18.2 58.4,10.8 58.4,18.2 56,18.2 56,6.9 58.5,6.9 63.8,14 63.8,6.9 66.2,6.9 66.2,18.2 	"/>
	<path fill="#0078C9" d="M68.2,12.5c0-3.5,2.6-5.9,6-5.9c2.5,0,4,1.4,4.8,2.8l-2.1,1c-0.5-0.9-1.5-1.6-2.7-1.6
		c-2.1,0-3.6,1.6-3.6,3.7c0,2.1,1.5,3.7,3.6,3.7c1.2,0,2.2-0.7,2.7-1.7l2.1,1c-0.8,1.4-2.2,2.8-4.8,2.8C70.9,18.4,68.2,16,68.2,12.5
		"/>
	<path fill="#0078C9" d="M80.6,13.7V6.9h2.5v6.7c0,1.6,0.9,2.7,2.7,2.7c1.8,0,2.7-1.1,2.7-2.7V6.9h2.5v6.8c0,2.8-1.7,4.7-5.1,4.7
		C82.3,18.4,80.6,16.5,80.6,13.7"/>
	<path fill="#0078C9" d="M99.6,18.2l-2.2-4h-1.8v4h-2.4V6.9h5.3c2.4,0,3.8,1.5,3.8,3.7c0,2-1.3,3.1-2.5,3.4l2.6,4.3H99.6z
		 M99.9,10.5c0-1-0.7-1.5-1.7-1.5h-2.5V12h2.5C99.2,12,99.9,11.5,99.9,10.5"/>
</g>
</svg>
