<?xml version="1.0" encoding="iso-8859-1"?>
<!DOCTYPE svg PUBLIC "-//W3C//DTD SVG 1.1//EN" "http://www.w3.org/Graphics/SVG/1.1/DTD/svg11.dtd">
<svg 
 version="1.1" xmlns="http://www.w3.org/2000/svg" xmlns:xlink="http://www.w3.org/1999/xlink" x="0px" y="0px" width="512px"
	 height="512px" viewBox="0 0 512 512" style="enable-background:new 0 0 512 512;" xml:space="preserve"
><g fill="#e2e2e2" id="de95281e9f52527e65bb740c59013742"><g fill="#e2e2e2"></g><path style="display: inline; evenodd; clip-rule: evenodd;" d="M135.438,19.243c-19.899,11.438-26.772,36.927-15.284,56.775
		c11.591,19.848,36.927,26.721,56.827,15.232c19.899-11.488,26.772-36.927,15.283-56.827
		C180.674,14.576,155.338,7.806,135.438,19.243z M46.506,107.047c-18.874,10.873-25.336,34.875-14.463,53.647
		c10.873,18.771,34.875,25.233,53.646,14.36c18.771-10.822,25.233-34.875,14.36-53.646C89.28,102.637,65.174,96.174,46.506,107.047z
		 M17.99,222.803c-17.13,9.847-23.08,31.798-13.232,48.928c9.95,17.182,31.901,23.028,49.031,13.078
		c17.13-9.847,22.977-31.747,13.027-48.876C56.969,218.751,35.12,212.905,17.99,222.803z M92.972,349.945
		c-9.129-15.797-29.234-21.233-45.03-12.104c-15.796,9.078-21.13,29.234-12.001,45.134c9.129,15.693,29.131,21.027,45.031,12.001
		C96.665,385.847,102.102,365.741,92.972,349.945z M135.233,423.184c-13.643,7.898-18.361,25.438-10.463,39.184
		c8.001,13.643,25.438,18.361,39.184,10.463c13.745-8.001,18.361-25.438,10.463-39.184
		C166.519,419.901,148.978,415.285,135.233,423.184z M250.015,452.931c-11.591,6.667-15.591,21.54-8.924,33.233
		c6.872,11.592,21.746,15.592,33.337,8.925c11.591-6.668,15.693-21.644,8.924-33.234
		C276.581,450.161,261.708,446.16,250.015,452.931z M366.335,422.158c-10.976,6.257-14.669,20.31-8.309,31.388
		c6.257,10.873,20.31,14.668,31.285,8.309c10.976-6.36,14.771-20.31,8.411-31.285C391.363,419.491,377.413,415.798,366.335,422.158z
		 M454.036,341.739c-8.924,5.129-12.001,16.565-6.77,25.438c5.025,8.924,16.515,12.001,25.438,6.872
		c8.821-5.231,12.001-16.565,6.77-25.489C474.346,339.636,462.96,336.61,454.036,341.739z M487.271,233.112
		c-7.488,4.359-10.155,14.053-5.744,21.541c4.308,7.59,13.95,10.155,21.644,5.795c7.487-4.359,10.052-14.001,5.744-21.541
		C504.503,231.419,494.861,228.804,487.271,233.112z M460.088,123.049c-6.154,3.59-8.206,11.437-4.615,17.591
		c3.59,6.206,11.488,8.309,17.643,4.719c6.052-3.539,8.206-11.438,4.616-17.592C474.243,121.613,466.345,119.459,460.088,123.049z
		 M388.491,61.863c4.718-2.77,6.359-8.924,3.59-13.745c-2.77-4.77-8.924-6.411-13.643-3.642c-4.924,2.77-6.564,8.873-3.692,13.694
		C377.516,62.992,383.567,64.633,388.491,61.863z M269.709,31.091c2.77-1.59,3.692-5.129,2.154-7.847
		c-1.642-2.718-5.231-3.641-7.898-2.051c-2.77,1.539-3.692,5.026-2.052,7.795C263.452,31.706,266.939,32.681,269.709,31.091z"></path></g></svg>