<?xml version="1.0" encoding="utf-8"?>
<!-- Generator: Adobe Illustrator 18.0.0, SVG Export Plug-In . SVG Version: 6.00 Build 0)  -->
<!DOCTYPE svg PUBLIC "-//W3C//DTD SVG 1.1//EN" "http://www.w3.org/Graphics/SVG/1.1/DTD/svg11.dtd">
<svg version="1.1" id="Layer_1" xmlns="http://www.w3.org/2000/svg" xmlns:xlink="http://www.w3.org/1999/xlink" x="0px" y="0px"
	 viewBox="27.9 360.4 556.2 71.2" enable-background="new 27.9 360.4 556.2 71.2" xml:space="preserve">
<circle fill="#FFFFFF" cx="57.8" cy="418.2" r="8.8"/>
<circle fill="#FFFFFF" cx="78" cy="396" r="13.4"/>
<circle fill="#FFFFFF" cx="45.2" cy="377.7" r="17.3"/>
<g enable-background="new    ">
	<path fill="#FFFFFF" d="M181.3,416.7v-39.8l-16.5,39.8h-2.5L146,376.8v39.8h-6v-48.4h8.6l15,36.4l15.1-36.4h8.6v48.4h-6V416.7z"/>
	<path fill="#FFFFFF" d="M196.7,392.5c0-14.3,9.6-25,24-25c14.3,0,24,10.7,24,25s-9.7,25-24,25C206.3,417.5,196.7,406.8,196.7,392.5
		z M238.5,392.5c0-11.3-7-19.7-17.8-19.7c-10.9,0-17.8,8.3-17.8,19.7c0,11.2,6.9,19.7,17.8,19.7
		C231.5,412.2,238.5,403.7,238.5,392.5z"/>
	<path fill="#FFFFFF" d="M254.1,416.7v-48.4h21.5c8.4,0,13.6,5.1,13.6,12.3c0,6.1-4.1,10.2-8.5,11.1c5.2,0.8,9.4,6.1,9.4,11.9
		c0,7.8-5.2,13.1-14,13.1H254.1z M283,381.5c0-4.4-2.9-7.8-8.3-7.8h-14.5v15.6h14.5C280.1,389.2,283,385.9,283,381.5z M283.9,402.9
		c0-4.4-3-8.3-9-8.3h-14.8v16.7H275C280.6,411.3,283.9,408.1,283.9,402.9z"/>
	<path fill="#FFFFFF" d="M299.8,416.7v-48.4h6v48.4H299.8z"/>
	<path fill="#FFFFFF" d="M317.1,416.7v-48.4h6v43h22.5v5.4H317.1z"/>
	<path fill="#FFFFFF" d="M354.1,416.7v-48.4h31.7v5.4h-25.7v15.6h25.2v5.4h-25.2v16.7h25.7v5.4h-31.7V416.7z"/>
</g>
<g enable-background="new    ">
	<path fill="#FFFFFF" d="M413.3,416.7v-48.4h10.3v39.3h20.5v9.1H413.3z"/>
	<path fill="#FFFFFF" d="M484.6,416.7l-3-8.2h-20.8l-3,8.2H446l18.7-48.4h12.9l18.6,48.4H484.6z M471.3,378.6l-7.5,20.8h15.1
		L471.3,378.6z"/>
	<path fill="#FFFFFF" d="M500.9,416.7v-48.4h25.5c9.2,0,13.9,5.9,13.9,12.3c0,6.1-3.8,10.2-8.3,11.1c5.2,0.8,9.3,5.8,9.3,11.9
		c0,7.3-4.9,13.1-14.1,13.1H500.9z M529.7,382.4c0-3-2.2-5.3-5.7-5.3h-12.9v10.5H524C527.6,387.6,529.7,385.5,529.7,382.4z
		 M530.7,402.1c0-3-2.2-5.7-6.2-5.7h-13.3v11.2h13.3C528.4,407.7,530.7,405.6,530.7,402.1z"/>
	<path fill="#FFFFFF" d="M545.7,409.8l5.6-7.8c3.4,3.6,8.7,6.5,15.4,6.5c5.7,0,8.4-2.6,8.4-5.4c0-8.6-27.9-2.7-27.9-20.9
		c0-8.1,7-14.7,18.4-14.7c7.7,0,14.1,2.3,18.9,6.7l-5.7,7.5c-3.9-3.6-9.1-5.3-14.1-5.3c-4.4,0-6.9,2-6.9,4.9
		c0,7.7,27.8,2.5,27.8,20.6c0,8.9-6.3,15.5-19.4,15.5C556.9,417.5,550.2,414.4,545.7,409.8z"/>
</g>
</svg>
