<?xml version="1.0" encoding="utf-8"?>
<!-- Generator: Adobe Illustrator 18.0.0, SVG Export Plug-In . SVG Version: 6.00 Build 0)  -->
<!DOCTYPE svg PUBLIC "-//W3C//DTD SVG 1.1//EN" "http://www.w3.org/Graphics/SVG/1.1/DTD/svg11.dtd">
<svg version="1.1" id="Ñëîé_1" xmlns="http://www.w3.org/2000/svg" xmlns:xlink="http://www.w3.org/1999/xlink" x="0px" y="0px"
	 viewBox="0 450.7 612 341.3" enable-background="new 0 450.7 612 341.3" xml:space="preserve">
<path fill="#616161" d="M326.4,551.6c-44.7,0-83.5,25.1-103.1,62c-19.6-36.9-58.4-62-103.1-62c-26.3,0-50.5,8.7-70,23.3v-98.3l0,0
	c-0.3-12.7-10.6-22.9-23.4-22.9S3.7,463.9,3.4,476.6l0,0v193.7l0,0c1,63.6,52.9,114.8,116.7,114.8c44.7,0,83.5-25.1,103.1-62
	c19.6,36.9,58.4,62,103.1,62c64.5,0,116.7-52.3,116.7-116.7C443.1,603.9,390.9,551.6,326.4,551.6z M120.1,738.4
	c-38.7,0-70-31.4-70-70c0-38.7,31.4-70,70-70c38.7,0,70,31.4,70,70C190.2,707,158.8,738.4,120.1,738.4z M326.4,738.4
	c-38.7,0-70-31.4-70-70c0-38.7,31.4-70,70-70c38.7,0,70,31.4,70,70S365.1,738.4,326.4,738.4z"/>
<path fill="#616161" d="M600.2,748.4l-59.8-79.9l59.8-79.9l0,0c7.4-10.3,5.3-24.7-4.9-32.3c-10.2-7.7-24.6-5.7-32.4,4.3l0,0
	l-51.6,69l-51.6-69l0,0c-7.8-10-22.2-11.9-32.4-4.3c-10.2,7.7-12.3,22-4.9,32.3l0,0l59.8,79.9l-59.8,79.9l0,0
	c-7.4,10.3-5.3,24.7,4.9,32.3c10.2,7.7,24.6,5.7,32.4-4.3l0,0l51.6-69l51.6,69l0,0c7.8,10,22.2,11.9,32.4,4.3
	C605.4,773,607.6,758.7,600.2,748.4L600.2,748.4z"/>
</svg>
