<?xml version="1.0" encoding="utf-8"?>
<!-- Generator: Adobe Illustrator 18.0.0, SVG Export Plug-In . SVG Version: 6.00 Build 0)  -->
<!DOCTYPE svg PUBLIC "-//W3C//DTD SVG 1.1//EN" "http://www.w3.org/Graphics/SVG/1.1/DTD/svg11.dtd">
<svg version="1.1" id="Layer_1" xmlns="http://www.w3.org/2000/svg" xmlns:xlink="http://www.w3.org/1999/xlink" x="0px" y="0px"
	 viewBox="27.9 717.2 613.7 73.3" enable-background="new 27.9 717.2 613.7 73.3" xml:space="preserve">
<circle fill="#89BF42" cx="60.8" cy="780.8" r="9.7"/>
<circle fill="#89BF42" cx="83" cy="756.4" r="14.7"/>
<circle fill="#89BF42" cx="46.9" cy="736.3" r="19"/>
<g enable-background="new    ">
	<path d="M196.7,779.2v-43.8l-18.2,43.8h-2.8l-17.9-43.9v43.8h-6.6v-53.3h9.5l16.5,40.1l16.6-40.1h9.5v53.3h-6.6L196.7,779.2
		L196.7,779.2z"/>
	<path d="M213.6,752.5c0-15.7,10.6-27.5,26.4-27.5c15.7,0,26.4,11.8,26.4,27.5s-10.7,27.5-26.4,27.5
		C224.2,780.1,213.6,768.3,213.6,752.5z M259.6,752.5c0-12.4-7.7-21.7-19.6-21.7c-12,0-19.6,9.1-19.6,21.7
		c0,12.3,7.6,21.7,19.6,21.7C251.9,774.2,259.6,764.9,259.6,752.5z"/>
	<path d="M276.8,779.2v-53.3h23.7c9.2,0,15,5.6,15,13.5c0,6.7-4.5,11.2-9.4,12.2c5.7,0.9,10.3,6.7,10.3,13.1
		c0,8.6-5.7,14.4-15.4,14.4H276.8z M308.6,740.4c0-4.8-3.2-8.6-9.1-8.6h-16V749h16C305.4,748.9,308.6,745.3,308.6,740.4z M309.6,764
		c0-4.8-3.3-9.1-9.9-9.1h-16.3v18.4h16.4C306,773.2,309.6,769.7,309.6,764z"/>
	<path d="M327.1,779.2v-53.3h6.6v53.3H327.1z"/>
	<path d="M346.1,779.2v-53.3h6.6v47.3h24.8v5.9H346.1z"/>
	<path d="M386.8,779.2v-53.3h34.9v5.9h-28.3V749h27.7v5.9h-27.7v18.4h28.3v5.9h-34.9V779.2z"/>
</g>
<g enable-background="new    ">
	<path d="M452,779.2v-53.3h11.3v43.2h22.6v10H452z"/>
	<path d="M530.4,779.2l-3.3-9h-22.9l-3.3,9h-13l20.6-53.3h14.2l20.5,53.3H530.4z M515.8,737.3l-8.3,22.9h16.6L515.8,737.3z"/>
	<path d="M548.4,779.2v-53.3h28.1c10.1,0,15.3,6.5,15.3,13.5c0,6.7-4.2,11.2-9.1,12.2c5.7,0.9,10.2,6.4,10.2,13.1
		c0,8-5.4,14.4-15.5,14.4H548.4z M580,741.4c0-3.3-2.4-5.8-6.3-5.8h-14.2v11.6h14.2C577.7,747.2,580,744.8,580,741.4z M581.1,763.1
		c0-3.3-2.4-6.3-6.8-6.3h-14.6v12.3h14.6C578.6,769.3,581.1,767,581.1,763.1z"/>
	<path d="M597.6,771.6l6.2-8.6c3.7,4,9.6,7.2,16.9,7.2c6.3,0,9.2-2.9,9.2-5.9c0-9.5-30.7-3-30.7-23c0-8.9,7.7-16.2,20.2-16.2
		c8.5,0,15.5,2.5,20.8,7.4l-6.3,8.3c-4.3-4-10-5.8-15.5-5.8c-4.8,0-7.6,2.2-7.6,5.4c0,8.5,30.6,2.8,30.6,22.7
		c0,9.8-6.9,17.1-21.3,17.1C610,780.1,602.6,776.6,597.6,771.6z"/>
</g>
</svg>
