<?xml version="1.0" encoding="utf-8"?>
<!-- Generator: Adobe Illustrator 19.0.0, SVG Export Plug-In . SVG Version: 6.00 Build 0)  -->
<svg version="1.1" id="Layer_1" xmlns="http://www.w3.org/2000/svg" xmlns:xlink="http://www.w3.org/1999/xlink" x="0px" y="0px"
	 viewBox="-233 477.8 556.2 71.2" style="enable-background:new -233 477.8 556.2 71.2;" xml:space="preserve">
<style type="text/css">
	.st0{display:none;}
	.st1{display:inline;fill:#FFFFFF;}
	.st2{display:inline;enable-background:new    ;}
	.st3{fill:#FFFFFF;}
</style>
<g class="st0">
	<circle class="st1" cx="-175.2" cy="896" r="8.8"/>
	<circle class="st1" cx="-155" cy="873.8" r="13.4"/>
	<circle class="st1" cx="-187.8" cy="855.5" r="17.3"/>
	<g class="st2">
		<path class="st3" d="M-51.7,894.5v-39.8l-16.5,39.8h-2.5L-87,854.6v39.8h-6V846h8.6l15,36.4l15.1-36.4h8.6v48.4L-51.7,894.5
			L-51.7,894.5L-51.7,894.5z"/>
		<path class="st3" d="M-36.3,870.3c0-14.3,9.6-25,24-25c14.3,0,24,10.7,24,25c0,14.3-9.7,25-24,25
			C-26.7,895.3-36.3,884.6-36.3,870.3z M5.5,870.3c0-11.3-7-19.7-17.8-19.7c-10.9,0-17.8,8.3-17.8,19.7c0,11.2,6.9,19.7,17.8,19.7
			C-1.5,890,5.5,881.5,5.5,870.3z"/>
		<path class="st3" d="M21.1,894.5v-48.4h21.5c8.4,0,13.6,5.1,13.6,12.3c0,6.1-4.1,10.2-8.5,11.1c5.2,0.8,9.4,6.1,9.4,11.9
			c0,7.8-5.2,13.1-14,13.1H21.1z M50,859.3c0-4.4-2.9-7.8-8.3-7.8H27.2v15.6h14.5C47.1,867,50,863.7,50,859.3z M50.9,880.7
			c0-4.4-3-8.3-9-8.3H27.1v16.7H42C47.6,889.1,50.9,885.9,50.9,880.7z"/>
		<path class="st3" d="M66.8,894.5v-48.4h6v48.4H66.8z"/>
		<path class="st3" d="M84.1,894.5v-48.4h6v43h22.5v5.4H84.1z"/>
		<path class="st3" d="M121.1,894.5v-48.4h31.7v5.4h-25.7v15.6h25.2v5.4h-25.2v16.7h25.7v5.4h-31.7V894.5z"/>
	</g>
	<g class="st2">
		<path class="st3" d="M180.3,894.5v-48.4h10.3v39.3h20.5v9.1H180.3z"/>
		<path class="st3" d="M251.6,894.5l-3-8.2h-20.8l-3,8.2H213l18.7-48.4h12.9l18.6,48.4H251.6z M238.3,856.4l-7.5,20.8h15.1
			L238.3,856.4z"/>
		<path class="st3" d="M267.9,894.5v-48.4h25.5c9.2,0,13.9,5.9,13.9,12.3c0,6.1-3.8,10.2-8.3,11.1c5.2,0.8,9.3,5.8,9.3,11.9
			c0,7.3-4.9,13.1-14.1,13.1H267.9z M296.7,860.2c0-3-2.2-5.3-5.7-5.3h-12.9v10.5H291C294.6,865.4,296.7,863.3,296.7,860.2z
			 M297.7,879.9c0-3-2.2-5.7-6.2-5.7h-13.3v11.2h13.3C295.4,885.5,297.7,883.4,297.7,879.9z"/>
		<path class="st3" d="M312.7,887.6l5.6-7.8c3.4,3.6,8.7,6.5,15.4,6.5c5.7,0,8.4-2.6,8.4-5.4c0-8.6-27.9-2.7-27.9-20.9
			c0-8.1,7-14.7,18.4-14.7c7.7,0,14.1,2.3,18.9,6.7l-5.7,7.5c-3.9-3.6-9.1-5.3-14.1-5.3c-4.4,0-6.9,2-6.9,4.9
			c0,7.7,27.8,2.5,27.8,20.6c0,8.9-6.3,15.5-19.4,15.5C323.9,895.3,317.2,892.2,312.7,887.6z"/>
	</g>
</g>
<g>
	<path class="st3" d="M-167,479.8h-60.3c-2,0-3.7,1.4-3.7,3.7v59.1c0,2,1.7,3.7,3.7,3.7h60.6c2,0,3.7-1.7,3.7-3.7v-59.1
		C-163.3,481.2-164.7,479.8-167,479.8z M-198.6,525.7c2.3,0,4.9-0.9,5.7-1.1c0.3-0.3,0.6,0.3,0.6,0.3c1.7,3.4,4,5.2,4.3,6
		c0.3,0.3-0.3,0.6-0.3,0.6c-2.6,1.7-7.2,2.6-10.6,2.6c-12.1,0-21.8-9.8-21.8-21.2c0-12.6,9.8-21.5,21.8-21.2c4.9,0,9.5,1.7,12.6,3.7
		c0.9,0.6,0.9,0.9,0.6,1.1c-0.6,0.9-2.6,3.7-3.4,5.7c0,0-0.3,0.6-0.9,0.3c-2-1.4-4.9-2.6-9.2-2.6c-6.9,0-12.3,5.5-12.3,12.9
		C-211.8,520.3-205.7,525.7-198.6,525.7z M-179.6,526.6c-0.9,0-1.7-0.3-2.6-0.6c-2.3-0.9-3.7-3.2-3.7-5.5c0-3.4,2.6-6,6-6
		c0.9,0,1.7,0.3,2.6,0.6c2.3,0.9,3.7,3.2,3.7,5.5C-173.6,523.7-176.2,526.6-179.6,526.6z"/>
	<g>
		<path class="st3" d="M-151.2,512.8c0-9.2,6.9-15.5,16.1-15.5c6.6,0,10.3,3.7,12.6,7.5l-5.5,2.6c-1.1-2.3-4-4.3-7.2-4.3
			c-5.5,0-9.5,4.3-9.5,9.8c0,5.7,4,9.8,9.5,9.8c3.2,0,5.7-2,7.2-4.3l5.5,2.6c-2,3.7-6,7.5-12.6,7.5
			C-144,528.3-151.2,522-151.2,512.8"/>
		<path class="st3" d="M-119.9,512.8c0-8.9,6.6-15.5,15.5-15.5c9.2,0,15.8,6.6,15.8,15.5c0,8.9-6.6,15.5-15.8,15.5
			C-113.3,528.3-119.9,521.7-119.9,512.8 M-95.2,512.8c0-5.7-3.7-9.8-9.2-9.8s-9.2,4.3-9.2,9.8c0,5.5,3.4,9.8,9.2,9.8
			S-95.2,518.3-95.2,512.8"/>
		<polygon class="st3" points="-62.5,527.7 -76.8,508.2 -76.8,527.7 -83.2,527.7 -83.2,497.9 -76.8,497.9 -62.8,516.5 -62.8,497.9 
			-56.5,497.9 -56.5,527.7 		"/>
		<path class="st3" d="M-51,512.8c0-9.2,6.9-15.5,15.8-15.5c6.6,0,10.3,3.7,12.6,7.5l-5.5,2.6c-1.1-2.3-4-4.3-7.2-4.3
			c-5.5,0-9.5,4.3-9.5,9.8c0,5.7,4,9.8,9.5,9.8c3.2,0,5.7-2,7.2-4.3l5.5,2.6c-2.3,3.7-6,7.5-12.6,7.5C-44.1,528.3-51,522-51,512.8"
			/>
		<path class="st3" d="M-18.6,515.7v-17.8h6.6v17.8c0,4.3,2.3,7.2,7.2,7.2c4.6,0,6.9-2.9,6.9-7.2v-17.8h6.6v17.8
			c0,7.5-4.3,12.6-13.5,12.6C-14,528.3-18.6,523.1-18.6,515.7"/>
		<path class="st3" d="M32,527.7l-5.7-10.6h-4.6v10.6h-6.3v-29.9h14.1c6.3,0,10,4,10,9.8c0,5.2-3.4,8-6.6,8.9l6.6,11.5H32V527.7z
			 M32.5,507.4c0-2.6-2-4-4.6-4h-6.6v8h6.6C30.5,511.4,32.5,509.9,32.5,507.4"/>
	</g>
</g>
</svg>
