<?xml version="1.0" encoding="utf-8"?>
<!-- Generator: Adobe Illustrator 18.0.0, SVG Export Plug-In . SVG Version: 6.00 Build 0)  -->
<!DOCTYPE svg PUBLIC "-//W3C//DTD SVG 1.1//EN" "http://www.w3.org/Graphics/SVG/1.1/DTD/svg11.dtd">
<svg version="1.1" id="Layer_2" xmlns="http://www.w3.org/2000/svg" xmlns:xlink="http://www.w3.org/1999/xlink" x="0px" y="0px"
	 viewBox="0 0 185 34.1" enable-background="new 0 0 185 34.1" xml:space="preserve">
<g>
	<path fill="#FFFFFF" d="M3,33.6c-1.4,0-2.5-1.1-2.5-2.5v-28c0-1.4,1.1-2.5,2.5-2.5h179c1.4,0,2.5,1.1,2.5,2.5v28
		c0,1.4-1.1,2.5-2.5,2.5H3z"/>
	<path fill="#1E77BA" d="M182,1.1c1.1,0,2,0.9,2,2v28c0,1.1-0.9,2-2,2H3c-1.1,0-2-0.9-2-2v-28c0-1.1,0.9-2,2-2H182 M182,0.1H3
		c-1.7,0-3,1.3-3,3v28c0,1.7,1.3,3,3,3h179c1.7,0,3-1.3,3-3v-28C185,1.4,183.7,0.1,182,0.1L182,0.1z"/>
</g>
<g>
	<path fill="#1F78BB" d="M50.5,22v-9.5h1.2V21h4.4V22H50.5z"/>
	<path fill="#1F78BB" d="M57,18.6c0-2,1.3-3.6,3.4-3.6s3.4,1.6,3.4,3.6s-1.3,3.6-3.4,3.6S57,20.6,57,18.6z M62.7,18.6
		c0-1.4-0.8-2.6-2.3-2.6s-2.3,1.3-2.3,2.6c0,1.4,0.8,2.7,2.3,2.7S62.7,20,62.7,18.6z"/>
	<path fill="#1F78BB" d="M65.6,23.8l0.5-0.8c0.6,0.7,1.3,0.9,2.2,0.9c1.1,0,2.2-0.6,2.2-2.1v-1c-0.5,0.7-1.3,1.2-2.3,1.2
		c-1.8,0-3.1-1.3-3.1-3.6c0-2.2,1.3-3.6,3.1-3.6c0.9,0,1.8,0.5,2.3,1.2v-1h1.1v6.7c0,2.3-1.6,3-3.3,3C67.2,24.8,66.4,24.6,65.6,23.8
		z M70.6,20.1v-3c-0.4-0.6-1.2-1.1-2-1.1c-1.4,0-2.2,1.1-2.2,2.6c0,1.5,0.8,2.6,2.2,2.6C69.4,21.2,70.2,20.7,70.6,20.1z"/>
	<path fill="#1F78BB" d="M77.5,22v-9.5h1.2V22H77.5z"/>
	<path fill="#1F78BB" d="M85.5,22v-4.5c0-1.2-0.6-1.6-1.5-1.6c-0.8,0-1.6,0.5-2,1.1v5h-1.1v-6.9h1.1v1c0.5-0.6,1.4-1.2,2.4-1.2
		c1.4,0,2.2,0.7,2.2,2.2V22H85.5z"/>
	<path fill="#1F78BB" d="M99.6,22l-2.1-7.7L95.5,22h-1.3l-2.7-9.5h1.3l2.1,7.9l2.2-7.9h1l2.2,7.9l2.1-7.9h1.3l-2.7,9.5H99.6z"/>
	<path fill="#1F78BB" d="M104.7,13.5c0-0.4,0.3-0.7,0.7-0.7c0.4,0,0.7,0.3,0.7,0.7s-0.3,0.7-0.7,0.7
		C105.1,14.2,104.7,13.9,104.7,13.5z M104.9,22v-6.9h1.1V22H104.9z"/>
	<path fill="#1F78BB" d="M108.3,20.6v-4.5h-1.1v-0.9h1.1v-1.9h1.1v1.9h1.4v0.9h-1.4v4.3c0,0.5,0.2,0.9,0.7,0.9
		c0.3,0,0.6-0.1,0.7-0.3l0.3,0.8c-0.3,0.3-0.7,0.4-1.3,0.4C108.8,22.2,108.3,21.6,108.3,20.6z"/>
	<path fill="#1F78BB" d="M117,22v-4.5c0-1.2-0.6-1.6-1.6-1.6c-0.8,0-1.6,0.5-2,1.1v5h-1.1v-9.5h1.1v3.6c0.5-0.6,1.4-1.2,2.5-1.2
		c1.4,0,2.2,0.7,2.2,2.2V22H117z"/>
	<path fill="#1F78BB" d="M123.5,17.3c0-2.9,2.2-4.9,4.9-4.9c1.7,0,2.8,0.8,3.6,1.9l-1,0.6c-0.5-0.8-1.5-1.4-2.6-1.4
		c-2.1,0-3.7,1.6-3.7,3.9c0,2.2,1.6,3.9,3.7,3.9c1.1,0,2.1-0.6,2.6-1.4l1,0.6c-0.8,1.1-1.9,1.9-3.6,1.9
		C125.6,22.2,123.5,20.2,123.5,17.3z"/>
	<path fill="#1F78BB" d="M133,18.6c0-2,1.3-3.6,3.4-3.6s3.4,1.6,3.4,3.6s-1.3,3.6-3.4,3.6S133,20.6,133,18.6z M138.7,18.6
		c0-1.4-0.8-2.6-2.3-2.6c-1.5,0-2.3,1.3-2.3,2.6c0,1.4,0.8,2.7,2.3,2.7C137.9,21.3,138.7,20,138.7,18.6z"/>
	<path fill="#1F78BB" d="M146.2,22v-4.5c0-1.2-0.6-1.6-1.5-1.6c-0.8,0-1.6,0.5-2,1.1v5h-1.1v-6.9h1.1v1c0.5-0.6,1.4-1.2,2.4-1.2
		c1.4,0,2.2,0.7,2.2,2.2V22H146.2z"/>
	<path fill="#1F78BB" d="M149,18.6c0-2,1.4-3.6,3.4-3.6c1.3,0,2,0.5,2.5,1.2l-0.7,0.7c-0.5-0.6-1-0.9-1.8-0.9
		c-1.5,0-2.4,1.1-2.4,2.6s0.9,2.7,2.4,2.7c0.7,0,1.3-0.3,1.8-0.9L155,21c-0.5,0.7-1.3,1.2-2.5,1.2C150.4,22.2,149,20.6,149,18.6z"/>
	<path fill="#1F78BB" d="M161.1,22v-1c-0.5,0.6-1.4,1.1-2.4,1.1c-1.4,0-2.2-0.7-2.2-2.2v-4.9h1.1v4.5c0,1.2,0.6,1.6,1.5,1.6
		c0.8,0,1.6-0.5,2-1v-5.1h1.1V22H161.1z"/>
	<path fill="#1F78BB" d="M164.3,22v-6.9h1.1v1.1c0.6-0.7,1.4-1.3,2.3-1.3v1.1c-0.1,0-0.3,0-0.4,0c-0.7,0-1.6,0.5-1.9,1.1V22H164.3z"
		/>
</g>
<g>
	<path fill="#1F78BB" d="M16.9,9.6c1.7,0,3.3,0.6,4.4,1.3c0.3,0.2,0.3,0.3,0.2,0.4c-0.2,0.3-0.9,1.3-1.3,2c0,0-0.1,0.2-0.3,0.1
		c-0.7-0.5-1.7-0.9-3.3-0.9c-2.5,0-4.4,1.9-4.4,4.6c0,2.6,2.2,4.6,4.7,4.6c0.9,0,1.7-0.3,2-0.4c0.1-0.1,0.2,0.1,0.2,0.1
		c0.6,1.3,1.4,1.9,1.6,2.1c0.1,0.1-0.1,0.2-0.1,0.2c-1,0.6-2.5,0.9-3.7,0.9c-4.4,0-7.8-3.4-7.8-7.5C9.2,12.7,12.7,9.4,16.9,9.6"/>
	<path fill="#1F78BB" d="M25.8,19.7c0,1.2-1,2.1-2.1,2.1c-1.2,0-2.1-1-2.1-2.1c0-1.2,1-2.1,2.1-2.1C24.9,17.6,25.8,18.6,25.8,19.7"
		/>
</g>
<line opacity="0.3" fill="#FFFFFF" stroke="#1E77BA" stroke-miterlimit="10" x1="34" y1="2.3" x2="34" y2="31.9"/>
</svg>
