<?xml version="1.0" encoding="utf-8"?>
<!-- Generator: Adobe Illustrator 18.0.0, SVG Export Plug-In . SVG Version: 6.00 Build 0)  -->
<!DOCTYPE svg PUBLIC "-//W3C//DTD SVG 1.1//EN" "http://www.w3.org/Graphics/SVG/1.1/DTD/svg11.dtd">
<svg version="1.1" xmlns="http://www.w3.org/2000/svg" xmlns:xlink="http://www.w3.org/1999/xlink" x="0px" y="0px"
	 viewBox="0 0 48 48" enable-background="new 0 0 48 48" xml:space="preserve">
<g id="bg" display="none">
	<path display="inline" fill-rule="evenodd" clip-rule="evenodd" fill="#E6E7E8" d="M39.4,48H8.6C3.9,48,0,44.1,0,39.4V8.6
		C0,3.9,3.9,0,8.6,0h30.8C44.1,0,48,3.9,48,8.6v30.8C48,44.1,44.1,48,39.4,48z"/>
</g>
<g id="lines" display="none">
	<g display="inline">
		<line fill="none" stroke="#544841" stroke-width="8.061200e-02" stroke-miterlimit="10" x1="23.8" y1="0.3" x2="23.8" y2="48"/>
		<line fill="none" stroke="#544841" stroke-width="8.061200e-02" stroke-miterlimit="10" x1="15" y1="0.3" x2="15" y2="48"/>
		<line fill="none" stroke="#544841" stroke-width="8.061200e-02" stroke-miterlimit="10" x1="32.7" y1="0.3" x2="32.7" y2="48"/>
		<line fill="none" stroke="#544841" stroke-width="8.061200e-02" stroke-miterlimit="10" x1="44.6" y1="0.3" x2="44.6" y2="48"/>
		<line fill="none" stroke="#544841" stroke-width="8.061200e-02" stroke-miterlimit="10" x1="3.1" y1="0.3" x2="3.1" y2="48"/>
		<line fill="none" stroke="#544841" stroke-width="8.061200e-02" stroke-miterlimit="10" x1="0" y1="24.2" x2="47.7" y2="24.2"/>
		<line fill="none" stroke="#544841" stroke-width="8.061200e-02" stroke-miterlimit="10" x1="0" y1="15.3" x2="47.7" y2="15.3"/>
		<line fill="none" stroke="#544841" stroke-width="8.061200e-02" stroke-miterlimit="10" x1="0" y1="33" x2="47.7" y2="33"/>
		<line fill="none" stroke="#544841" stroke-width="8.061200e-02" stroke-miterlimit="10" x1="0" y1="44.9" x2="47.7" y2="44.9"/>
		<line fill="none" stroke="#544841" stroke-width="8.061200e-02" stroke-miterlimit="10" x1="0" y1="3.4" x2="47.7" y2="3.4"/>
		<line fill="none" stroke="#544841" stroke-width="8.061200e-02" stroke-miterlimit="10" x1="0" y1="0.3" x2="47.7" y2="48"/>
		<line fill="none" stroke="#544841" stroke-width="8.061200e-02" stroke-miterlimit="10" x1="0" y1="48" x2="47.7" y2="0.3"/>
		<circle fill="none" stroke="#544841" stroke-width="8.061200e-02" stroke-miterlimit="10" cx="23.8" cy="24.2" r="12.5"/>
		<circle fill="none" stroke="#544841" stroke-width="8.061200e-02" stroke-miterlimit="10" cx="23.8" cy="24.2" r="20.7"/>
		<g id="_x31_20px_icon_102_">
			<path id="Rectangle_7_102_" fill="none" stroke="#544841" stroke-width="8.061200e-02" stroke-miterlimit="10" d="M14.7,48
				c-5.4,0-8.5,0-11.6-3.1C0,41.8,0,38.7,0,33.3V15.1C0,9.7,0,6.6,3.1,3.4c3.1-3.1,6.2-3.1,11.6-3.1h18.2c5.4,0,8.5,0,11.6,3.1
				c3.1,3.1,3.1,6.2,3.1,11.6v18.2c0,5.4,0,8.5-3.1,11.6C41.5,48,38.3,48,32.9,48H14.7z"/>
		</g>
		<path fill="none" stroke="#544841" stroke-width="8.061200e-02" stroke-miterlimit="10" d="M23.8,9.3"/>
		<circle fill="none" stroke="#544841" stroke-width="8.061200e-02" stroke-miterlimit="10" cx="23.8" cy="24.2" r="8.8"/>
		<path fill="none" stroke="#544841" stroke-width="8.061200e-02" stroke-miterlimit="10" d="M30.5,25.3c0.1-0.4,0.1-0.7,0.1-1.1
			c0-0.4,0-0.8-0.1-1.1c-0.5-2.8-2.7-5.1-5.6-5.6c-0.4-0.1-0.8-0.1-1.1-0.1c-0.4,0-0.8,0-1.1,0.1c-2.9,0.5-5.1,2.7-5.6,5.6
			c-0.1,0.4-0.1,0.7-0.1,1.1c0,0.4,0,0.8,0.1,1.1c0.5,2.9,2.7,5.1,5.6,5.6c0.4,0.1,0.7,0.1,1.1,0.1c0.4,0,0.8,0,1.1-0.1
			C27.8,30.4,30,28.1,30.5,25.3z"/>
	</g>
</g>
<g id="icon">
	<path fill="#A7A9AC" d="M24,11.3c-7,0-12.7,5.7-12.7,12.7c0,7,5.7,12.7,12.7,12.7c7,0,12.7-5.7,12.7-12.7C36.7,17,31,11.3,24,11.3z
		 M30.8,25h-5.3v5.4h-2.6V25h-5.3v-2.6h5.3V17h2.6v5.4h5.3V25z"/>
</g>
</svg>
