<?xml version="1.0" encoding="utf-8"?>
<!-- Generator: Adobe Illustrator 18.0.0, SVG Export Plug-In . SVG Version: 6.00 Build 0)  -->
<!DOCTYPE svg PUBLIC "-//W3C//DTD SVG 1.1//EN" "http://www.w3.org/Graphics/SVG/1.1/DTD/svg11.dtd">
<svg version="1.1" xmlns="http://www.w3.org/2000/svg" xmlns:xlink="http://www.w3.org/1999/xlink" x="0px" y="0px"
	 viewBox="0 0 48 48" enable-background="new 0 0 48 48" xml:space="preserve">
<g id="bg" display="none">
	<path display="inline" fill-rule="evenodd" clip-rule="evenodd" fill="#E6E7E8" d="M39.4,48H8.6C3.9,48,0,44.1,0,39.4V8.6
		C0,3.9,3.9,0,8.6,0h30.8C44.1,0,48,3.9,48,8.6v30.8C48,44.1,44.1,48,39.4,48z"/>
</g>
<g id="lines" display="none">
	<g display="inline">
		<line fill="none" stroke="#544841" stroke-width="8.061200e-02" stroke-miterlimit="10" x1="23.8" y1="0.3" x2="23.8" y2="48"/>
		<line fill="none" stroke="#544841" stroke-width="8.061200e-02" stroke-miterlimit="10" x1="15" y1="0.3" x2="15" y2="48"/>
		<line fill="none" stroke="#544841" stroke-width="8.061200e-02" stroke-miterlimit="10" x1="32.7" y1="0.3" x2="32.7" y2="48"/>
		<line fill="none" stroke="#544841" stroke-width="8.061200e-02" stroke-miterlimit="10" x1="44.6" y1="0.3" x2="44.6" y2="48"/>
		<line fill="none" stroke="#544841" stroke-width="8.061200e-02" stroke-miterlimit="10" x1="3.1" y1="0.3" x2="3.1" y2="48"/>
		<line fill="none" stroke="#544841" stroke-width="8.061200e-02" stroke-miterlimit="10" x1="0" y1="24.2" x2="47.7" y2="24.2"/>
		<line fill="none" stroke="#544841" stroke-width="8.061200e-02" stroke-miterlimit="10" x1="0" y1="15.3" x2="47.7" y2="15.3"/>
		<line fill="none" stroke="#544841" stroke-width="8.061200e-02" stroke-miterlimit="10" x1="0" y1="33" x2="47.7" y2="33"/>
		<line fill="none" stroke="#544841" stroke-width="8.061200e-02" stroke-miterlimit="10" x1="0" y1="44.9" x2="47.7" y2="44.9"/>
		<line fill="none" stroke="#544841" stroke-width="8.061200e-02" stroke-miterlimit="10" x1="0" y1="3.4" x2="47.7" y2="3.4"/>
		<line fill="none" stroke="#544841" stroke-width="8.061200e-02" stroke-miterlimit="10" x1="0" y1="0.3" x2="47.7" y2="48"/>
		<line fill="none" stroke="#544841" stroke-width="8.061200e-02" stroke-miterlimit="10" x1="0" y1="48" x2="47.7" y2="0.3"/>
		<circle fill="none" stroke="#544841" stroke-width="8.061200e-02" stroke-miterlimit="10" cx="23.8" cy="24.2" r="12.5"/>
		<circle fill="none" stroke="#544841" stroke-width="8.061200e-02" stroke-miterlimit="10" cx="23.8" cy="24.2" r="20.7"/>
		<g id="_x31_20px_icon_102_">
			<path id="Rectangle_7_102_" fill="none" stroke="#544841" stroke-width="8.061200e-02" stroke-miterlimit="10" d="M14.7,48
				c-5.4,0-8.5,0-11.6-3.1C0,41.8,0,38.7,0,33.3V15.1C0,9.7,0,6.6,3.1,3.4c3.1-3.1,6.2-3.1,11.6-3.1h18.2c5.4,0,8.5,0,11.6,3.1
				c3.1,3.1,3.1,6.2,3.1,11.6v18.2c0,5.4,0,8.5-3.1,11.6C41.5,48,38.3,48,32.9,48H14.7z"/>
		</g>
		<path fill="none" stroke="#544841" stroke-width="8.061200e-02" stroke-miterlimit="10" d="M23.8,9.3"/>
		<circle fill="none" stroke="#544841" stroke-width="8.061200e-02" stroke-miterlimit="10" cx="23.8" cy="24.2" r="8.8"/>
		<path fill="none" stroke="#544841" stroke-width="8.061200e-02" stroke-miterlimit="10" d="M30.5,25.3c0.1-0.4,0.1-0.7,0.1-1.1
			c0-0.4,0-0.8-0.1-1.1c-0.5-2.8-2.7-5.1-5.6-5.6c-0.4-0.1-0.8-0.1-1.1-0.1c-0.4,0-0.8,0-1.1,0.1c-2.9,0.5-5.1,2.7-5.6,5.6
			c-0.1,0.4-0.1,0.7-0.1,1.1c0,0.4,0,0.8,0.1,1.1c0.5,2.9,2.7,5.1,5.6,5.6c0.4,0.1,0.7,0.1,1.1,0.1c0.4,0,0.8,0,1.1-0.1
			C27.8,30.4,30,28.1,30.5,25.3z"/>
	</g>
</g>
<g id="icon">
	<g>
		<path fill="#A7A9AC" d="M14.3,19.4H5.9c-0.3,0-0.5,0.2-0.5,0.5v8.1c0,0.3,0.2,0.5,0.5,0.5h8.3c0.3,0,0.5-0.2,0.5-0.5v-8.1
			C14.8,19.7,14.5,19.4,14.3,19.4z M9.9,25.8c0.3,0,0.7-0.1,0.8-0.2c0.1,0,0.1,0,0.1,0c0.2,0.5,0.5,0.7,0.6,0.8c0,0.1,0,0.1,0,0.1
			c-0.4,0.2-1,0.4-1.5,0.4c-1.7,0-3-1.3-3-2.9c0-1.7,1.4-3,3-2.9c0.7,0,1.3,0.2,1.7,0.5c0.1,0.1,0.1,0.1,0.1,0.1
			c-0.1,0.1-0.4,0.5-0.5,0.8c0,0,0,0.1-0.1,0c-0.3-0.2-0.7-0.4-1.3-0.4c-1,0-1.7,0.8-1.7,1.8C8.1,25,8.9,25.8,9.9,25.8z M12.5,25.9
			c-0.1,0-0.2,0-0.3-0.1c-0.3-0.1-0.5-0.4-0.5-0.8c0-0.5,0.4-0.8,0.8-0.8c0.1,0,0.2,0,0.3,0.1c0.3,0.1,0.5,0.4,0.5,0.8
			C13.3,25.5,13,25.9,12.5,25.9z"/>
		<g>
			<path fill="#A7A9AC" d="M16.4,24c0-1.3,1-2.1,2.2-2.1c0.9,0,1.4,0.5,1.7,1l-0.8,0.4c-0.2-0.3-0.5-0.6-1-0.6
				c-0.7,0-1.3,0.6-1.3,1.4c0,0.8,0.5,1.4,1.3,1.4c0.4,0,0.8-0.3,1-0.6l0.8,0.4c-0.3,0.5-0.8,1-1.7,1C17.4,26.1,16.4,25.2,16.4,24"
				/>
			<path fill="#A7A9AC" d="M20.7,24c0-1.2,0.9-2.1,2.1-2.1c1.2,0,2.2,0.9,2.2,2.1c0,1.2-0.9,2.1-2.2,2.1
				C21.6,26.1,20.7,25.2,20.7,24 M24.1,24c0-0.8-0.5-1.4-1.3-1.4s-1.2,0.6-1.2,1.4c0,0.8,0.5,1.4,1.2,1.4S24.1,24.7,24.1,24"/>
			<polygon fill="#A7A9AC" points="28.6,26 26.6,23.3 26.6,26 25.7,26 25.7,21.9 26.6,21.9 28.6,24.5 28.6,21.9 29.4,21.9 29.4,26 
							"/>
			<path fill="#A7A9AC" d="M30.2,24c0-1.3,1-2.1,2.2-2.1c0.9,0,1.4,0.5,1.7,1l-0.8,0.4c-0.2-0.3-0.5-0.6-1-0.6
				c-0.7,0-1.3,0.6-1.3,1.4c0,0.8,0.5,1.4,1.3,1.4c0.4,0,0.8-0.3,1-0.6l0.8,0.4c-0.3,0.5-0.8,1-1.7,1C31.1,26.1,30.2,25.2,30.2,24"
				/>
			<path fill="#A7A9AC" d="M34.7,24.4v-2.5h0.9v2.4c0,0.6,0.3,1,1,1c0.6,0,1-0.4,1-1v-2.4h0.9v2.5c0,1-0.6,1.7-1.9,1.7
				C35.3,26.1,34.7,25.4,34.7,24.4"/>
			<path fill="#A7A9AC" d="M41.6,26l-0.8-1.5h-0.6V26h-0.9v-4.1h1.9c0.9,0,1.4,0.6,1.4,1.3c0,0.7-0.5,1.1-0.9,1.2l0.9,1.6H41.6z
				 M41.6,23.2c0-0.3-0.3-0.6-0.6-0.6h-0.9v1.1H41C41.4,23.8,41.6,23.6,41.6,23.2"/>
		</g>
	</g>
</g>
</svg>
