<?xml version="1.0" encoding="utf-8"?>
<!-- Generator: Adobe Illustrator 18.0.0, SVG Export Plug-In . SVG Version: 6.00 Build 0)  -->
<!DOCTYPE svg PUBLIC "-//W3C//DTD SVG 1.1//EN" "http://www.w3.org/Graphics/SVG/1.1/DTD/svg11.dtd">
<svg version="1.1" id="icon" xmlns="http://www.w3.org/2000/svg" xmlns:xlink="http://www.w3.org/1999/xlink" x="0px" y="0px"
	 viewBox="0 0 82.6 81.5" enable-background="new 0 0 82.6 81.5" xml:space="preserve">
<path fill-rule="evenodd" clip-rule="evenodd" fill="#A7A9AC" d="M59.4,28.5c0,1.6-1.3,2.9-2.9,2.9H37.3c-1.6,0-2.9-1.3-2.9-2.9l0,0
	c0-1.6,1.3-2.9,2.9-2.9h19.3C58.2,25.6,59.4,26.9,59.4,28.5L59.4,28.5z"/>
<path fill-rule="evenodd" clip-rule="evenodd" fill="#A7A9AC" d="M59.4,40.6c0,1.6-1.3,2.9-2.9,2.9H37.3c-1.6,0-2.9-1.3-2.9-2.9l0,0
	c0-1.6,1.3-2.9,2.9-2.9h19.3C58.2,37.7,59.4,39,59.4,40.6L59.4,40.6z"/>
<path fill-rule="evenodd" clip-rule="evenodd" fill="#A7A9AC" d="M59.4,53c0,1.6-1.3,2.9-2.9,2.9H37.3c-1.6,0-2.9-1.3-2.9-2.9l0,0
	c0-1.6,1.3-2.9,2.9-2.9h19.3C58.2,50.2,59.4,51.4,59.4,53L59.4,53z"/>
<path fill-rule="evenodd" clip-rule="evenodd" fill="#A7A9AC" d="M30.8,28.5c0,1.6-1.3,2.9-2.9,2.9h-1.9c-1.6,0-2.9-1.3-2.9-2.9l0,0
	c0-1.6,1.3-2.9,2.9-2.9h1.9C29.5,25.6,30.8,26.9,30.8,28.5L30.8,28.5z"/>
<path fill-rule="evenodd" clip-rule="evenodd" fill="#A7A9AC" d="M30.8,40.6c0,1.6-1.3,2.9-2.9,2.9h-1.9c-1.6,0-2.9-1.3-2.9-2.9l0,0
	c0-1.6,1.3-2.9,2.9-2.9h1.9C29.5,37.7,30.8,39,30.8,40.6L30.8,40.6z"/>
<path fill-rule="evenodd" clip-rule="evenodd" fill="#A7A9AC" d="M30.8,53c0,1.6-1.3,2.9-2.9,2.9h-1.9c-1.6,0-2.9-1.3-2.9-2.9l0,0
	c0-1.6,1.3-2.9,2.9-2.9h1.9C29.5,50.2,30.8,51.4,30.8,53L30.8,53z"/>
</svg>
