<?xml version="1.0" encoding="utf-8"?>
<!-- Generator: Adobe Illustrator 18.0.0, SVG Export Plug-In . SVG Version: 6.00 Build 0)  -->
<!DOCTYPE svg PUBLIC "-//W3C//DTD SVG 1.1//EN" "http://www.w3.org/Graphics/SVG/1.1/DTD/svg11.dtd">
<svg version="1.1" xmlns="http://www.w3.org/2000/svg" xmlns:xlink="http://www.w3.org/1999/xlink" x="0px" y="0px"
	 viewBox="0 0 48 48" enable-background="new 0 0 48 48" xml:space="preserve">
<g id="bg" display="none">
	<path display="inline" fill-rule="evenodd" clip-rule="evenodd" fill="#E6E7E8" d="M39.4,48H8.6C3.9,48,0,44.1,0,39.4V8.6
		C0,3.9,3.9,0,8.6,0h30.8C44.1,0,48,3.9,48,8.6v30.8C48,44.1,44.1,48,39.4,48z"/>
</g>
<g id="lines" display="none">
	<g display="inline">
		<line fill="none" stroke="#544841" stroke-width="8.061200e-02" stroke-miterlimit="10" x1="24" y1="0.2" x2="24" y2="47.8"/>
		<line fill="none" stroke="#544841" stroke-width="8.061200e-02" stroke-miterlimit="10" x1="15.1" y1="0.2" x2="15.1" y2="47.8"/>
		<line fill="none" stroke="#544841" stroke-width="8.061200e-02" stroke-miterlimit="10" x1="32.9" y1="0.2" x2="32.9" y2="47.8"/>
		<line fill="none" stroke="#544841" stroke-width="8.061200e-02" stroke-miterlimit="10" x1="44.7" y1="0.2" x2="44.7" y2="47.8"/>
		<line fill="none" stroke="#544841" stroke-width="8.061200e-02" stroke-miterlimit="10" x1="3.3" y1="0.2" x2="3.3" y2="47.8"/>
		<line fill="none" stroke="#544841" stroke-width="8.061200e-02" stroke-miterlimit="10" x1="0.2" y1="24" x2="47.8" y2="24"/>
		<line fill="none" stroke="#544841" stroke-width="8.061200e-02" stroke-miterlimit="10" x1="0.2" y1="15.1" x2="47.8" y2="15.1"/>
		<line fill="none" stroke="#544841" stroke-width="8.061200e-02" stroke-miterlimit="10" x1="0.2" y1="32.9" x2="47.8" y2="32.9"/>
		<line fill="none" stroke="#544841" stroke-width="8.061200e-02" stroke-miterlimit="10" x1="0.2" y1="44.7" x2="47.8" y2="44.7"/>
		<line fill="none" stroke="#544841" stroke-width="8.061200e-02" stroke-miterlimit="10" x1="0.2" y1="3.3" x2="47.8" y2="3.3"/>
		<line fill="none" stroke="#544841" stroke-width="8.061200e-02" stroke-miterlimit="10" x1="0.2" y1="0.2" x2="47.8" y2="47.8"/>
		<line fill="none" stroke="#544841" stroke-width="8.061200e-02" stroke-miterlimit="10" x1="0.2" y1="47.8" x2="47.8" y2="0.2"/>
		<circle fill="none" stroke="#544841" stroke-width="8.061200e-02" stroke-miterlimit="10" cx="24" cy="24" r="12.5"/>
		<circle fill="none" stroke="#544841" stroke-width="8.061200e-02" stroke-miterlimit="10" cx="24" cy="24" r="20.7"/>
		<g id="_x31_20px_icon_102_">
			<path id="Rectangle_7_102_" fill="none" stroke="#544841" stroke-width="8.061200e-02" stroke-miterlimit="10" d="M14.9,47.8
				c-5.4,0-8.5,0-11.6-3.1c-3.1-3.1-3.1-6.2-3.1-11.6V14.9c0-5.4,0-8.5,3.1-11.6c3.1-3.1,6.2-3.1,11.6-3.1h18.2
				c5.4,0,8.5,0,11.6,3.1c3.1,3.1,3.1,6.2,3.1,11.6v18.2c0,5.4,0,8.5-3.1,11.6c-3.1,3.1-6.2,3.1-11.6,3.1H14.9z"/>
		</g>
		<path fill="none" stroke="#544841" stroke-width="8.061200e-02" stroke-miterlimit="10" d="M24,9.2"/>
		<circle fill="none" stroke="#544841" stroke-width="8.061200e-02" stroke-miterlimit="10" cx="24" cy="24" r="8.8"/>
		<path fill="none" stroke="#544841" stroke-width="8.061200e-02" stroke-miterlimit="10" d="M30.7,25.1c0.1-0.4,0.1-0.7,0.1-1.1
			c0-0.4,0-0.8-0.1-1.1c-0.5-2.8-2.7-5.1-5.6-5.6c-0.4-0.1-0.8-0.1-1.1-0.1c-0.4,0-0.8,0-1.1,0.1c-2.9,0.5-5.1,2.7-5.6,5.6
			c-0.1,0.4-0.1,0.7-0.1,1.1c0,0.4,0,0.8,0.1,1.1c0.5,2.9,2.7,5.1,5.6,5.6c0.4,0.1,0.7,0.1,1.1,0.1c0.4,0,0.8,0,1.1-0.1
			C28,30.2,30.2,28,30.7,25.1z"/>
	</g>
</g>
<g id="icon">
	<g>
		<path fill="#9E9E9E" d="M15.2,13.5v23.8h17.5V13.5H15.2z M19.2,35.5c-0.8,0-1.4-0.6-1.4-1.4c0-0.8,0.6-1.4,1.4-1.4
			c0.8,0,1.4,0.6,1.4,1.4C20.6,34.8,20,35.5,19.2,35.5z M19.2,31.3c-0.8,0-1.4-0.6-1.4-1.4c0-0.8,0.6-1.4,1.4-1.4
			c0.8,0,1.4,0.6,1.4,1.4C20.6,30.6,20,31.3,19.2,31.3z M19.2,27.1c-0.8,0-1.4-0.6-1.4-1.4c0-0.8,0.6-1.4,1.4-1.4
			c0.8,0,1.4,0.6,1.4,1.4C20.6,26.4,20,27.1,19.2,27.1z M19.2,22.9c-0.8,0-1.4-0.6-1.4-1.4c0-0.8,0.6-1.4,1.4-1.4
			c0.8,0,1.4,0.6,1.4,1.4C20.6,22.2,20,22.9,19.2,22.9z M19.2,18.7c-0.8,0-1.4-0.6-1.4-1.4c0-0.8,0.6-1.4,1.4-1.4
			c0.8,0,1.4,0.6,1.4,1.4C20.6,18,20,18.7,19.2,18.7z M24,35.5c-0.8,0-1.4-0.6-1.4-1.4c0-0.8,0.6-1.4,1.4-1.4s1.4,0.6,1.4,1.4
			C25.4,34.8,24.8,35.5,24,35.5z M24,31.3c-0.8,0-1.4-0.6-1.4-1.4c0-0.8,0.6-1.4,1.4-1.4s1.4,0.6,1.4,1.4
			C25.4,30.6,24.8,31.3,24,31.3z M24,27.1c-0.8,0-1.4-0.6-1.4-1.4c0-0.8,0.6-1.4,1.4-1.4s1.4,0.6,1.4,1.4
			C25.4,26.4,24.8,27.1,24,27.1z M24,22.9c-0.8,0-1.4-0.6-1.4-1.4c0-0.8,0.6-1.4,1.4-1.4s1.4,0.6,1.4,1.4
			C25.4,22.2,24.8,22.9,24,22.9z M24,18.7c-0.8,0-1.4-0.6-1.4-1.4c0-0.8,0.6-1.4,1.4-1.4s1.4,0.6,1.4,1.4C25.4,18,24.8,18.7,24,18.7
			z M28.7,35.5c-0.8,0-1.4-0.6-1.4-1.4c0-0.8,0.6-1.4,1.4-1.4c0.8,0,1.4,0.6,1.4,1.4C30.1,34.8,29.5,35.5,28.7,35.5z M28.7,31.3
			c-0.8,0-1.4-0.6-1.4-1.4c0-0.8,0.6-1.4,1.4-1.4c0.8,0,1.4,0.6,1.4,1.4C30.1,30.6,29.5,31.3,28.7,31.3z M28.7,27.1
			c-0.8,0-1.4-0.6-1.4-1.4c0-0.8,0.6-1.4,1.4-1.4c0.8,0,1.4,0.6,1.4,1.4C30.1,26.4,29.5,27.1,28.7,27.1z M28.7,22.9
			c-0.8,0-1.4-0.6-1.4-1.4c0-0.8,0.6-1.4,1.4-1.4c0.8,0,1.4,0.6,1.4,1.4C30.1,22.2,29.5,22.9,28.7,22.9z M28.7,18.7
			c-0.8,0-1.4-0.6-1.4-1.4c0-0.8,0.6-1.4,1.4-1.4c0.8,0,1.4,0.6,1.4,1.4C30.1,18,29.5,18.7,28.7,18.7z"/>
		<rect x="17" y="10.7" fill="#9E9E9E" width="14" height="1.8"/>
		<rect x="13.6" y="38.2" fill="#9E9E9E" width="20.7" height="1.8"/>
		<rect x="18.8" y="7.9" fill="#9E9E9E" width="10.5" height="1.8"/>
	</g>
</g>
</svg>
