<?xml version="1.0" encoding="utf-8"?>
<!-- Generator: Adobe Illustrator 19.2.1, SVG Export Plug-In . SVG Version: 6.00 Build 0)  -->
<svg version="1.1" id="Layer_1" xmlns="http://www.w3.org/2000/svg" xmlns:xlink="http://www.w3.org/1999/xlink" x="0px" y="0px"
	 viewBox="0 0 874 565" style="enable-background:new 0 0 874 565;" xml:space="preserve">
<style type="text/css">
	.st0{clip-path:url(#SVGID_2_);}
	.st1{clip-path:url(#SVGID_6_);}
	.st2{clip-path:url(#SVGID_10_);}
	.st3{clip-path:url(#SVGID_14_);}
	.st4{clip-path:url(#SVGID_18_);}
	.st5{clip-path:url(#SVGID_22_);}
	.st6{clip-path:url(#SVGID_26_);}
	.st7{clip-path:url(#SVGID_30_);}
	.st8{clip-path:url(#SVGID_34_);}
	.st9{clip-path:url(#SVGID_38_);}
</style>
<g>
	<defs>
		<path id="SVGID_1_" d="M6,56.5c4.7,0,7.3,2.8,7.3,7.7c0,4.9-2.7,7.7-7.3,7.7H1.2V56.5H6z M1.5,20.7c0-11.3,6-18.5,15.4-18.5
			c7.1,0,13,5.2,13.7,12.2h-1.9C28,8.6,22.9,4.1,16.9,4.1c-8.2,0-13.4,6.4-13.4,16.6c0,10.5,5.3,17.1,13.4,17.1
			c6.2,0,11.1-3.8,11.8-9.7h1.9c-0.8,6.9-6.4,11.5-13.7,11.5C7.5,39.7,1.5,32.3,1.5,20.7z M2.1,71.1H6c4.2,0,6.5-2.5,6.5-6.9
			c0-4.4-2.3-6.9-6.5-6.9H2.1V71.1z M15.4,71.9V56.5h0.8v15.4H15.4z M19.1,67.8c0.1,2.1,2.1,3.5,4.8,3.5c2.6,0,4.4-1.5,4.4-3.5
			c0-1.6-1.1-2.5-3.7-3.2l-1.8-0.4c-2.8-0.7-4.1-1.9-4.1-3.8c0-2.4,2.2-4.1,5-4.1c2.9,0,5.1,1.7,5.2,4H28c-0.1-1.8-1.9-3.2-4.3-3.2
			c-2.3,0-4.2,1.4-4.2,3.3c0,1.5,1.1,2.4,3.6,3l1.7,0.4c3,0.7,4.3,1.9,4.3,3.9c0,2.5-2.1,4.3-5.4,4.3c-3.2,0-5.4-1.8-5.5-4.3H19.1z
			 M36.1,56.5c3,0,4.9,1.8,4.9,4.6c0,2.8-2,4.6-4.9,4.6h-4.2v6.2h-0.8V56.5H36.1z M31.9,64.9h4c2.6,0,4.2-1.4,4.2-3.8
			c0-2.4-1.6-3.8-4.2-3.8h-4V64.9z M33,25.6c0-8.5,4.7-13.9,11.6-13.9c7,0,11.6,5.4,11.6,13.9c0,8.5-4.7,13.9-11.6,13.9
			S33,34.1,33,25.6z M54.4,25.6c0-7.5-3.9-12.2-9.7-12.2s-9.7,4.6-9.7,12.2c0,7.5,3.9,12.2,9.7,12.2S54.4,33,54.4,25.6z M51.9,71.9
			H43V56.5h0.8v14.6h8.1V71.9z M62.5,66.7h-6.9l-1.9,5.1h-0.9l5.9-15.4h0.9l5.8,15.4h-0.9L62.5,66.7z M55.9,66h6.4l-3.2-8.4H59
			L55.9,66z M59.5,12h1.8v6h0.1c1.2-3.8,4.7-6.3,9.1-6.3c5.7,0,9.6,3.9,9.6,10v17.5h-1.9V21.8c0-5.3-3.3-8.4-8.1-8.4
			c-5.1,0-8.6,3.9-8.6,9.6v16.2h-1.9V12z M69.1,71.9v-6.7l-5.6-8.7h1l5,7.8h0.1l5-7.8h1L70,65.2v6.7H69.1z M85.8,71.9V57.3h-5.4
			v-0.8H92v0.8h-5.4v14.6H85.8z M103.2,20.2c-0.8-3.9-4-6.7-8.6-6.7c-5.9,0-9.6,4.7-9.6,12.2c0,7.4,3.7,12.2,9.6,12.2
			c4.5,0,7.7-2.6,8.5-6.5h1.9c-0.8,4.9-4.9,8.3-10.4,8.3c-7,0-11.5-5.4-11.5-13.9c0-8.5,4.5-13.9,11.5-13.9c5.6,0,9.7,3.7,10.4,8.5
			H103.2z M104.2,71.9v-7.5h-9.7v7.5h-0.8V56.5h0.8v7.1h9.7v-7.1h0.8v15.4H104.2z M107.8,71.9V56.5h0.8v15.4H107.8z M128.5,39.1
			h-1.7v-5.9h-0.1c-1.2,3.7-4.9,6.3-9.2,6.3c-5.6,0-9.5-3.8-9.5-9.9V12h1.9v17.3c0,5.3,3.2,8.4,8,8.4c5,0,8.8-3.7,8.8-9.5V12h1.9
			V39.1z M111.3,71.9V56.5h0.9l9.8,13.8h0.1V56.5h0.8v15.4h-0.8l-9.9-13.9h-0.1v13.9H111.3z M133.1,12h1.8v5.4h0.1
			c1-3.7,3.5-5.7,7-5.7c0.9,0,1.9,0.3,2.4,0.5v2c-0.5-0.3-1.5-0.6-2.7-0.6c-4.1,0-6.7,3.7-6.7,8.8v16.9h-1.9V12z M189.5,39.1h-1.8
			V6.9h-0.1l-13.5,32.2h-1.8L158.8,6.9h-0.1v32.3h-1.8V2.8h2.1l14.1,33.8h0.1l14.1-33.8h2.2V39.1z M192.3,25.6
			c0-8.5,4.7-13.9,11.6-13.9c7,0,11.6,5.4,11.6,13.9c0,8.5-4.7,13.9-11.6,13.9S192.3,34.1,192.3,25.6z M213.7,25.6
			c0-7.5-3.9-12.2-9.7-12.2s-9.7,4.6-9.7,12.2c0,7.5,3.9,12.2,9.7,12.2S213.7,33,213.7,25.6z M220.9,31.9L220.9,31.9l-0.1,7.3H219
			v-38h1.9v18h0.1c1.3-4.5,5-7.5,9.7-7.5c6.5,0,11,5.6,11,13.9c0,8.3-4.5,13.9-11,13.9C226.1,39.5,222.3,36.6,220.9,31.9z
			 M220.9,25.6c0,7.1,3.9,12.2,9.5,12.2c5.6,0,9.4-4.9,9.4-12.2c0-7.2-3.8-12.1-9.3-12.1C224.8,13.4,220.9,18.5,220.9,25.6z
			 M244.5,3.8c0-0.9,0.7-1.6,1.5-1.6c0.8,0,1.5,0.7,1.5,1.6c0,0.9-0.7,1.5-1.5,1.5C245.2,5.3,244.5,4.6,244.5,3.8z M245.1,12h1.9
			v27.2h-1.9V12z M252.8,1.2h1.9v38h-1.9V1.2z M281.3,31.6c-0.8,4.6-4.9,7.9-10.6,7.9c-7.1,0-11.6-5.2-11.6-13.9
			c0-8.4,4.6-14,11.4-14c6.7,0,11.2,5.2,11.2,13.1v1.1H261V26c0,7.4,3.9,11.8,9.7,11.8c4.8,0,8-2.6,8.7-6.2H281.3z M261,24.2h18.7
			c0-6.4-3.8-10.8-9.3-10.8C265,13.4,261.3,17.7,261,24.2z"/>
	</defs>
	<clipPath id="SVGID_2_">
		<use xlink:href="#SVGID_1_"  style="overflow:visible;"/>
	</clipPath>
	<g class="st0">
		<defs>
			<rect id="SVGID_3_" x="-24.5" y="-39.4" width="397.3" height="550.9"/>
		</defs>
		<clipPath id="SVGID_4_">
			<use xlink:href="#SVGID_3_"  style="overflow:visible;"/>
		</clipPath>
		<g transform="matrix(1 0 0 1 0 0)" style="clip-path:url(#SVGID_4_);">
			
				<image style="overflow:visible;" width="437" height="606" xlink:href="2ED3A80F8799221E.jpg"  transform="matrix(0.9091 0 0 0.9091 -24.4922 -39.4462)">
			</image>
		</g>
	</g>
</g>
<g>
	<defs>
		<path id="SVGID_5_" d="M6.6,155.6c4.6,0,7.3,2.8,7.3,7.7c0,4.8-2.7,7.7-7.3,7.7H1.4v-15.4H6.6z M1.9,120
			c0-11.4,6.2-18.8,15.8-18.8c7.6,0,13.4,4.8,14.5,12.1h-4.4c-1.1-4.8-5.1-7.9-10.1-7.9c-6.8,0-11.3,5.7-11.3,14.6
			c0,8.9,4.4,14.6,11.3,14.6c5.1,0,8.8-2.6,10.1-7h4.4c-1.6,7.2-6.8,11.2-14.5,11.2C8,138.8,1.9,131.6,1.9,120z M3.3,169.2h3.2
			c3.5,0,5.4-2.1,5.4-5.9c0-3.8-1.9-6-5.4-6H3.3V169.2z M16.3,171v-15.4h1.9V171H16.3z M22.4,166.7c0.2,1.7,1.8,2.8,4,2.8
			c2.1,0,3.6-1.1,3.6-2.6c0-1.3-0.9-2.1-3-2.6l-2-0.5c-2.8-0.7-4.1-2-4.1-4.1c0-2.6,2.2-4.3,5.4-4.3c3.1,0,5.3,1.8,5.4,4.4h-1.9
			c-0.2-1.7-1.5-2.7-3.5-2.7c-2,0-3.4,1-3.4,2.5c0,1.2,0.9,1.9,2.9,2.4l1.6,0.4c3.2,0.8,4.5,2,4.5,4.2c0,2.8-2.2,4.6-5.8,4.6
			c-3.3,0-5.5-1.8-5.7-4.5H22.4z M33.9,124.6c0-8.4,4.7-13.8,12.1-13.8S58,116.2,58,124.6c0,8.4-4.7,13.8-12.1,13.8
			S33.9,133.1,33.9,124.6z M39.9,155.6c2.9,0,4.9,2,4.9,4.9c0,2.9-2.1,5-4.9,5H36v5.5h-1.9v-15.4H39.9z M36,163.8h3.4
			c2.2,0,3.5-1.2,3.5-3.2c0-2-1.2-3.2-3.5-3.2H36V163.8z M53.7,124.6c0-6.3-2.9-9.9-7.8-9.9c-4.9,0-7.8,3.7-7.8,9.9s2.9,9.9,7.8,9.9
			C50.8,134.6,53.7,130.9,53.7,124.6z M56.4,171H47v-15.4H49v13.6h7.4V171z M66.9,166.6h-6.1l-1.5,4.4h-2l5.7-15.4h1.9l5.7,15.4h-2
			L66.9,166.6z M61.1,111.1h4v4.4h0.1c1.6-3.1,4.5-4.7,8.5-4.7c5.7,0,9.3,3.8,9.3,10v17.4h-4.2v-16.7c0-4.4-2.2-6.9-6.4-6.9
			c-4.3,0-7.1,3.1-7.1,7.7v15.8h-4.2V111.1z M61.4,164.9h5l-2.5-7h-0.1L61.4,164.9z M74.6,171v-6.6l-5.5-8.8h2.2l4.2,6.9h0.1
			l4.2-6.9h2.2l-5.5,8.8v6.6H74.6z M104.8,119.9c-0.5-2.9-2.9-5.2-6.8-5.2c-4.6,0-7.7,3.9-7.7,9.9c0,6.2,3.2,9.9,7.7,9.9
			c3.6,0,6.1-1.8,6.8-5h4.1c-0.7,5.3-5,9-11,9c-7.2,0-12-5.3-12-13.8c0-8.3,4.8-13.8,11.9-13.8c6.5,0,10.4,4.3,11,9.1H104.8z
			 M90.8,171h-1.9v-15.4h5.9c3,0,4.9,1.8,4.9,4.6c0,2.1-1.2,3.8-3.1,4.4l3.6,6.4h-2.2l-3.3-6.1h-3.8V171z M90.8,163.2h3.8
			c2,0,3.1-1.1,3.1-3c0-1.8-1.2-2.9-3.2-2.9h-3.7V163.2z M111.6,171h-9.5v-15.4h9.5v1.7H104v4.9h7.2v1.7H104v5.3h7.6V171z
			 M133.6,138.2h-4v-4.5h-0.1c-1.6,3.1-4.6,4.7-8.6,4.7c-5.7,0-9.3-3.8-9.3-10v-17.4h4.2v16.7c0,4.5,2.3,6.9,6.4,6.9
			c4.3,0,7.1-3.1,7.1-7.7v-15.8h4.2V138.2z M120.6,171.2c-4.3,0-7-3.1-7-8c0-4.8,2.7-7.9,7-7.9c3.3,0,5.8,2,6.4,5h-2
			c-0.6-2.1-2.2-3.3-4.4-3.3c-3.2,0-5.1,2.3-5.1,6.1c0,3.9,1.9,6.3,5.1,6.3c2.7,0,4.6-1.8,4.6-4.3v-0.3h-4.3v-1.7h6.3v1.5
			C127.1,168.8,124.7,171.2,120.6,171.2z M131.5,165.4c0,2.3,1.5,4,4.2,4s4.2-1.7,4.2-4v-9.9h1.9v10c0,3.3-2.3,5.6-6.1,5.6
			c-3.8,0-6.1-2.4-6.1-5.6v-10h1.9V165.4z M138,111.1h4v4.4h0.1c0.8-2.8,3.3-4.7,6.3-4.7c0.5,0,1.3,0.1,1.6,0.2v4.3
			c-0.3-0.2-1.5-0.3-2.2-0.3c-3.4,0-5.6,2.6-5.6,6.4v16.8H138V111.1z M154.1,171h-9.3v-15.4h1.9v13.6h7.4V171z M164.6,166.6h-6.1
			L157,171h-2l5.7-15.4h1.9l5.7,15.4h-2L164.6,166.6z M159.1,164.9h5l-2.5-7h-0.1L159.1,164.9z M199.3,138.2h-4.1v-28H195L183.9,138
			h-3.7L169,110.2h-0.2v28h-4.1v-36.4h5.1l12.1,30.4h0.2l12.1-30.4h5.1V138.2z M171.9,171h-1.9v-15.4h5.9c3,0,4.9,1.8,4.9,4.6
			c0,2.1-1.2,3.8-3.1,4.4l3.6,6.4h-2.2l-3.3-6.1h-3.8V171z M171.9,163.2h3.8c2,0,3.1-1.1,3.1-3c0-1.8-1.2-2.9-3.2-2.9h-3.7V163.2z
			 M202.3,124.6c0-8.4,4.7-13.8,12.1-13.8c7.3,0,12.1,5.4,12.1,13.8c0,8.4-4.7,13.8-12.1,13.8C207,138.5,202.3,133.1,202.3,124.6z
			 M222.1,124.6c0-6.3-2.9-9.9-7.8-9.9s-7.8,3.7-7.8,9.9s2.9,9.9,7.8,9.9C219.2,134.6,222.1,130.9,222.1,124.6z M233.8,133.7
			L233.8,133.7l-0.1,4.6h-4v-38h4.2v15.2h0.1c1.6-3,4.7-4.7,8.4-4.7c6.6,0,11.1,5.5,11.1,13.8c0,8.3-4.5,13.8-11.2,13.8
			C238.5,138.5,235.5,136.8,233.8,133.7z M233.9,124.6c0,5.9,3.1,9.9,7.7,9.9c4.6,0,7.6-3.9,7.6-9.9c0-6-3-9.9-7.6-9.9
			C237,114.7,233.9,118.8,233.9,124.6z M256.2,103.9c0-1.5,1.2-2.8,2.7-2.8c1.5,0,2.7,1.2,2.7,2.8c0,1.5-1.2,2.8-2.7,2.8
			C257.5,106.7,256.2,105.4,256.2,103.9z M256.8,111.1h4.2v27.2h-4.2V111.1z M266.7,100.3h4.2v38h-4.2V100.3z M297.9,130.5
			c-0.7,4.7-5.3,8-10.8,8c-7.3,0-12-5.3-12-13.7s4.7-13.9,11.8-13.9c7,0,11.3,5.1,11.3,13.3v1.7h-18.8v0.3c0,5.2,3.1,8.5,7.7,8.5
			c3.3,0,5.8-1.6,6.6-4.2H297.9z M279.5,122.4h14.4c-0.1-4.6-2.9-7.7-7-7.7C282.7,114.7,279.8,117.8,279.5,122.4z"/>
	</defs>
	<clipPath id="SVGID_6_">
		<use xlink:href="#SVGID_5_"  style="overflow:visible;"/>
	</clipPath>
	<g class="st1">
		<defs>
			<rect id="SVGID_7_" x="-24.5" y="-39.4" width="397.3" height="550.9"/>
		</defs>
		<clipPath id="SVGID_8_">
			<use xlink:href="#SVGID_7_"  style="overflow:visible;"/>
		</clipPath>
		<g transform="matrix(1 0 0 1 0 0)" style="clip-path:url(#SVGID_8_);">
			
				<image style="overflow:visible;" width="437" height="606" xlink:href="2ED3A80F87992222.jpg"  transform="matrix(0.9091 0 0 0.9091 -24.4922 -39.4462)">
			</image>
		</g>
	</g>
</g>
<g>
	<defs>
		<path id="SVGID_9_" d="M6.9,254.7c4.6,0,7.3,2.8,7.3,7.6c0,4.9-2.7,7.7-7.3,7.7H1.2v-15.4H6.9z M1.8,219.1
			c0-11.6,6.3-18.8,16.3-18.8c8.1,0,14.3,5.3,15.1,13.1H27c-0.8-4.6-4.4-7.6-8.9-7.6c-6,0-9.9,5.1-9.9,13.3c0,8.2,3.8,13.3,9.9,13.3
			c4.6,0,8-2.6,8.9-7h6.1c-1.1,7.8-6.8,12.5-15.1,12.5C8,237.9,1.8,230.8,1.8,219.1z M4,267.7h2.7c3.1,0,4.8-1.9,4.8-5.4
			c0-3.4-1.7-5.3-4.8-5.3H4V267.7z M16.4,270.1v-15.4h2.7v15.4H16.4z M23.9,265.7c0.2,1.4,1.6,2.3,3.5,2.3c1.9,0,3.1-0.9,3.1-2.2
			c0-1.1-0.8-1.7-2.7-2.2l-2-0.5c-2.8-0.6-4.2-2-4.2-4.2c0-2.7,2.4-4.6,5.7-4.6c3.4,0,5.6,1.8,5.7,4.5h-2.6
			c-0.1-1.4-1.3-2.3-3.1-2.3c-1.7,0-2.9,0.9-2.9,2.1c0,1,0.8,1.6,2.7,2.1l1.8,0.4c3.1,0.7,4.4,2,4.4,4.3c0,2.9-2.3,4.8-6.1,4.8
			c-3.5,0-5.9-1.7-6-4.6H23.9z M34.5,223.5c0-8.7,5-14.1,12.8-14.1c7.8,0,12.8,5.4,12.8,14.1c0,8.8-4.9,14.2-12.8,14.2
			C39.5,237.7,34.5,232.3,34.5,223.5z M41.5,254.7c3,0,5.2,2.1,5.2,5.1c0,3.1-2.2,5.1-5.3,5.1h-3.3v5.1h-2.7v-15.4H41.5z
			 M38.1,262.8h2.7c2,0,3.1-1.1,3.1-2.9c0-1.8-1.1-2.9-3.1-2.9h-2.7V262.8z M53.9,223.6c0-5.8-2.5-9.2-6.6-9.2
			c-4.1,0-6.6,3.4-6.6,9.2c0,5.8,2.5,9.2,6.6,9.2C51.5,232.7,53.9,229.3,53.9,223.6z M58.4,270.1h-9.7v-15.4h2.7v13h7V270.1z
			 M69.1,266.1h-5.7l-1.3,4h-2.8l5.5-15.4h3.1l5.5,15.4h-2.9L69.1,266.1z M62.7,209.8h5.8v4.8h0.1c1.6-3.4,4.5-5.1,8.6-5.1
			c5.9,0,9.5,3.9,9.5,10.2v17.7h-6v-16.4c0-3.9-2-6.2-5.7-6.2c-3.7,0-6.2,2.7-6.2,6.8v15.8h-6V209.8z M64.1,264h4.4l-2.1-6.6h-0.1
			L64.1,264z M77.2,270.1V264l-5.4-9.3h3l3.7,6.7h0.1l3.7-6.7h3L80,264v6.1H77.2z M107.8,219.5c-0.4-2.9-2.5-5-5.9-5
			c-4,0-6.6,3.5-6.6,9c0,5.7,2.6,9.1,6.6,9.1c3.2,0,5.4-1.7,5.9-4.9h5.7c-0.5,6-5,10-11.7,10c-7.7,0-12.7-5.4-12.7-14.2
			c0-8.6,5-14.1,12.6-14.1c6.9,0,11.3,4.5,11.7,10.1H107.8z M93.9,265.7c0.2,1.4,1.6,2.3,3.5,2.3c1.9,0,3.1-0.9,3.1-2.2
			c0-1.1-0.8-1.7-2.7-2.2l-2-0.5c-2.8-0.6-4.2-2-4.2-4.2c0-2.7,2.4-4.6,5.7-4.6c3.4,0,5.6,1.8,5.7,4.5h-2.6
			c-0.1-1.4-1.3-2.3-3.1-2.3c-1.7,0-2.9,0.9-2.9,2.1c0,1,0.8,1.6,2.7,2.1l1.8,0.4c3.1,0.7,4.4,2,4.4,4.3c0,2.9-2.3,4.8-6.1,4.8
			c-3.5,0-5.9-1.7-6-4.6H93.9z M115.3,270.1h-10v-15.4h10v2.3h-7.2v4.2h6.8v2.2h-6.8v4.4h7.2V270.1z M139.8,237.3H134v-4.8h-0.1
			c-1.5,3.4-4.4,5.2-8.4,5.2c-5.8,0-9.6-3.9-9.6-10.2v-17.7h6v16.4c0,4,2.1,6.2,5.7,6.2c3.7,0,6.2-2.7,6.2-6.8v-15.8h6V237.3z
			 M133.6,270.1h-2.5v-10.9H131l-4.4,10.8h-1.9l-4.4-10.8h-0.1v10.9h-2.5v-15.4h3.2l4.7,11.6h0.1l4.7-11.6h3.2V270.1z M136.3,270.1
			v-15.4h2.7v15.4H136.3z M141.7,270.1v-15.4h6.5c2.8,0,4.6,1.5,4.6,3.8c0,1.7-1.2,3.1-2.8,3.3v0.1c2.1,0.2,3.6,1.7,3.6,3.7
			c0,2.7-2,4.4-5.3,4.4H141.7z M143.5,209.8h5.8v4.8h0.1c0.8-3.2,3.2-5.1,6.4-5.1c0.6,0,1.4,0.1,1.8,0.3v5.7
			c-0.5-0.2-1.6-0.4-2.4-0.4c-3.5,0-5.7,2.4-5.7,6.3v16h-6V209.8z M144.5,261.2h2.6c1.9,0,3-0.8,3-2.2c0-1.3-0.9-2.1-2.6-2.1h-3.1
			V261.2z M147.7,267.9c2,0,3.1-0.8,3.1-2.4c0-1.6-1.1-2.4-3.2-2.4h-3.1v4.8H147.7z M169.6,262.4c0,4.9-2.8,7.9-7.3,7.9
			c-4.5,0-7.3-3-7.3-7.9s2.8-7.9,7.3-7.9C166.8,254.4,169.6,257.5,169.6,262.4z M157.8,262.4c0,3.4,1.7,5.6,4.5,5.6
			c2.7,0,4.5-2.2,4.5-5.6c0-3.4-1.7-5.6-4.5-5.6C159.6,256.8,157.8,258.9,157.8,262.4z M207.3,237.3h-5.6v-25.8h-0.2L191.4,237h-4.3
			L177,211.5h-0.2v25.8h-5.6v-36.4h7.3l10.7,27.5h0.2l10.7-27.5h7.2V237.3z M181.5,270.1h-9.7v-15.4h2.7v13h7V270.1z M189.2,254.7
			c4.6,0,7.3,2.8,7.3,7.6c0,4.9-2.7,7.7-7.3,7.7h-5.7v-15.4H189.2z M186.2,267.7h2.7c3.1,0,4.8-1.9,4.8-5.4c0-3.4-1.7-5.3-4.8-5.3
			h-2.7V267.7z M209.8,223.5c0-8.7,5-14.1,12.8-14.1c7.8,0,12.8,5.4,12.8,14.1c0,8.8-4.9,14.2-12.8,14.2
			C214.8,237.7,209.8,232.3,209.8,223.5z M229.2,223.6c0-5.8-2.5-9.2-6.6-9.2c-4.1,0-6.6,3.4-6.6,9.2c0,5.8,2.5,9.2,6.6,9.2
			C226.7,232.7,229.2,229.3,229.2,223.6z M244.2,232.6h-0.1v4.7h-5.9v-38.1h6v15.2h0.1c1.5-3.1,4.5-4.9,8.3-4.9
			c6.7,0,11,5.4,11,14.1c0,8.6-4.3,14.1-11,14.1C248.8,237.6,245.8,235.8,244.2,232.6z M244.2,223.6c0,5.3,2.7,8.9,6.6,8.9
			c4,0,6.6-3.5,6.6-8.9s-2.6-8.9-6.6-8.9C246.9,214.7,244.2,218.3,244.2,223.6z M266,202.8c0-2,1.5-3.5,3.4-3.5
			c1.9,0,3.4,1.5,3.4,3.5c0,1.9-1.5,3.5-3.4,3.5C267.6,206.3,266,204.8,266,202.8z M266.4,209.8h6v27.6h-6V209.8z M277.4,199.3h6
			v38.1h-6V199.3z M311.5,229.1c-0.8,5.1-5.5,8.6-11.7,8.6c-7.8,0-12.7-5.4-12.7-14.1c0-8.7,4.9-14.3,12.5-14.3
			c7.4,0,12.1,5.3,12.1,13.6v2.1h-18.5v0.4c0,4.4,2.7,7.4,6.8,7.4c2.9,0,5.2-1.4,5.9-3.7H311.5z M293.2,220.9h12.6
			c-0.1-4-2.6-6.6-6.2-6.6C296,214.3,293.5,217,293.2,220.9z"/>
	</defs>
	<clipPath id="SVGID_10_">
		<use xlink:href="#SVGID_9_"  style="overflow:visible;"/>
	</clipPath>
	<g class="st2">
		<defs>
			<rect id="SVGID_11_" x="-24.5" y="-39.4" width="397.3" height="550.9"/>
		</defs>
		<clipPath id="SVGID_12_">
			<use xlink:href="#SVGID_11_"  style="overflow:visible;"/>
		</clipPath>
		<g transform="matrix(1 0 0 1 0 0)" style="clip-path:url(#SVGID_12_);">
			
				<image style="overflow:visible;" width="437" height="606" xlink:href="2ED3A80F87992225.jpg"  transform="matrix(0.9091 0 0 0.9091 -24.4922 -39.4462)">
			</image>
		</g>
	</g>
</g>
<g>
	<defs>
		<path id="SVGID_13_" d="M7.1,353.8c4.6,0,7.3,2.7,7.3,7.6c0,4.9-2.7,7.7-7.3,7.7H1.1v-15.4H7.1z M1.7,318.2
			c0-11.7,6.4-18.8,16.6-18.8c8.4,0,14.8,5.5,15.4,13.7h-7.1c-0.7-4.5-4-7.4-8.2-7.4c-5.5,0-9.1,4.8-9.1,12.5
			c0,7.8,3.5,12.6,9.1,12.6c4.3,0,7.5-2.6,8.2-7h7.1c-0.8,8.1-6.8,13.3-15.4,13.3C8.1,337.1,1.7,330,1.7,318.2z M4.4,366.5h2.3
			c2.9,0,4.4-1.7,4.4-5.1c0-3.2-1.6-5-4.4-5H4.4V366.5z M16.5,369.2v-15.4h3.2v15.4H16.5z M24.8,364.8c0.1,1.3,1.5,2.1,3.2,2.1
			c1.7,0,2.9-0.8,2.9-1.9c0-1-0.7-1.6-2.6-2l-2-0.4c-2.8-0.6-4.2-2-4.2-4.3c0-2.8,2.5-4.7,5.9-4.7c3.6,0,5.8,1.8,5.9,4.6h-3
			c-0.1-1.3-1.2-2.1-2.9-2.1c-1.6,0-2.7,0.8-2.7,1.9c0,0.9,0.7,1.5,2.5,1.9l1.9,0.4c3.1,0.7,4.4,2,4.4,4.3c0,3-2.4,4.9-6.2,4.9
			c-3.7,0-6.1-1.8-6.1-4.6H24.8z M34.9,322.5c0-8.9,5.1-14.3,13.2-14.3c8.1,0,13.2,5.4,13.2,14.3c0,9-5.1,14.4-13.2,14.4
			S34.9,331.5,34.9,322.5z M42.4,353.8c3.2,0,5.3,2.1,5.3,5.3c0,3.2-2.2,5.3-5.5,5.3h-3v4.8H36v-15.4H42.4z M39.2,361.8h2.3
			c1.8,0,2.9-1,2.9-2.7c0-1.7-1.1-2.7-2.9-2.7h-2.3V361.8z M54.1,322.5c0-5.5-2.3-8.7-6-8.7c-3.7,0-6,3.3-6,8.7c0,5.5,2.3,8.7,6,8.7
			C51.8,331.2,54.1,328.1,54.1,322.5z M59.6,369.2h-9.9v-15.4h3.2v12.7h6.7V369.2z M70.4,365.4H65l-1.2,3.7h-3.3l5.3-15.4h3.8
			l5.3,15.4h-3.4L70.4,365.4z M63.7,308.7h6.8v5h0.1c1.5-3.5,4.5-5.4,8.6-5.4c5.9,0,9.5,3.9,9.5,10.4v17.8h-7.1v-16.3
			c0-3.7-1.9-5.8-5.2-5.8c-3.4,0-5.7,2.5-5.7,6.2v15.8h-7.1V308.7z M65.7,363h4l-2-6.3h-0.1L65.7,363z M78.8,369.2v-5.7l-5.3-9.6
			h3.5l3.4,6.6h0.1l3.5-6.6h3.5l-5.4,9.6v5.7H78.8z M109.5,318.9c-0.4-2.9-2.3-4.9-5.4-4.9c-3.6,0-5.9,3.2-5.9,8.5
			c0,5.4,2.3,8.5,6,8.5c3,0,4.9-1.7,5.4-4.7h6.6c-0.4,6.5-5.1,10.6-12.1,10.6c-8,0-13.1-5.4-13.1-14.4c0-8.8,5.1-14.3,13-14.3
			c7.2,0,11.8,4.5,12.1,10.7H109.5z M93.6,369.2v-15.4h6.8c2.9,0,4.7,1.5,4.7,3.8c0,1.7-1.3,3.1-2.9,3.3v0.1
			c2.1,0.2,3.6,1.7,3.6,3.7c0,2.7-2,4.4-5.3,4.4H93.6z M96.8,360.2h2.4c1.7,0,2.7-0.8,2.7-2.1c0-1.2-0.9-1.9-2.4-1.9h-2.7V360.2z
			 M99.7,366.8c1.9,0,2.9-0.8,2.9-2.3c0-1.4-1-2.2-2.9-2.2h-2.8v4.5H99.7z M122,361.5c0,4.9-2.9,7.9-7.4,7.9c-4.6,0-7.4-3.1-7.4-7.9
			c0-4.9,2.9-8,7.4-8C119.2,353.5,122,356.6,122,361.5z M110.5,361.5c0,3.2,1.6,5.3,4.1,5.3c2.5,0,4.1-2,4.1-5.3
			c0-3.2-1.6-5.3-4.1-5.3C112.1,356.2,110.5,358.2,110.5,361.5z M143.3,336.4h-6.8v-5h-0.1c-1.4,3.5-4.3,5.4-8.4,5.4
			c-5.8,0-9.7-3.9-9.7-10.4v-17.8h7.1v16.3c0,3.8,2,5.8,5.3,5.8c3.3,0,5.6-2.5,5.6-6.2v-15.8h7.1V336.4z M134,369.2h-9.9v-15.4h3.2
			v12.7h6.7V369.2z M141.9,353.8c4.6,0,7.3,2.7,7.3,7.6c0,4.9-2.7,7.7-7.3,7.7h-5.9v-15.4H141.9z M139.2,366.5h2.3
			c2.9,0,4.4-1.7,4.4-5.1c0-3.2-1.6-5-4.4-5h-2.3V366.5z M146.7,308.7h6.8v5h0.1c0.9-3.4,3.2-5.3,6.4-5.3c0.7,0,1.5,0.1,2,0.3v6.5
			c-0.6-0.3-1.7-0.5-2.5-0.5c-3.6,0-5.7,2.3-5.7,6.2v15.5h-7.1V308.7z M211.9,336.4h-6.5v-24.6h-0.2l-9.5,24.2h-4.6l-9.5-24.2h-0.2
			v24.6h-6.5V300h8.5l9.9,25.8h0.2l9.9-25.8h8.5V336.4z M214.2,322.5c0-8.9,5.1-14.3,13.2-14.3c8.1,0,13.2,5.4,13.2,14.3
			c0,9-5.1,14.4-13.2,14.4S214.2,331.5,214.2,322.5z M233.3,322.5c0-5.5-2.3-8.7-6-8.7c-3.7,0-6,3.3-6,8.7c0,5.5,2.3,8.7,6,8.7
			S233.3,328.1,233.3,322.5z M250.2,331.7H250v4.7h-7v-38.1h7.1v15.1h0.1c1.5-3.2,4.4-5.1,8.2-5.1c6.7,0,10.9,5.4,10.9,14.2
			c0,8.8-4.1,14.2-10.9,14.2C254.7,336.8,251.7,334.9,250.2,331.7z M250.1,322.6c0,5,2.4,8.2,6.1,8.2c3.7,0,6-3.2,6-8.3
			c0-5-2.4-8.2-6-8.2C252.5,314.3,250.1,317.6,250.1,322.6z M271.6,301.8c0-2.2,1.7-3.8,3.8-3.8c2.1,0,3.8,1.6,3.8,3.8
			s-1.7,3.9-3.8,3.9C273.3,305.6,271.6,304,271.6,301.8z M271.9,308.7h7.1v27.8h-7.1V308.7z M283.5,298.3h7.1v38.1h-7.1V298.3z
			 M319.2,328c-0.8,5.4-5.6,9-12.1,9c-8.1,0-13.1-5.4-13.1-14.2c0-8.8,5-14.5,12.8-14.5c7.7,0,12.6,5.3,12.6,13.8v2.3H301v0.5
			c0,4,2.5,6.7,6.2,6.7c2.7,0,4.8-1.3,5.5-3.5H319.2z M301,319.7h11.5c-0.1-3.6-2.4-6-5.7-6C303.7,313.7,301.3,316.1,301,319.7z"/>
	</defs>
	<clipPath id="SVGID_14_">
		<use xlink:href="#SVGID_13_"  style="overflow:visible;"/>
	</clipPath>
	<g class="st3">
		<defs>
			<rect id="SVGID_15_" x="-24.5" y="-39.4" width="397.3" height="550.9"/>
		</defs>
		<clipPath id="SVGID_16_">
			<use xlink:href="#SVGID_15_"  style="overflow:visible;"/>
		</clipPath>
		<g transform="matrix(1 0 0 1 0 0)" style="clip-path:url(#SVGID_16_);">
			
				<image style="overflow:visible;" width="437" height="606" xlink:href="2ED3A80F87992226.jpg"  transform="matrix(0.9091 0 0 0.9091 -24.4922 -39.4462)">
			</image>
		</g>
	</g>
</g>
<g>
	<defs>
		<path id="SVGID_17_" d="M7.3,452.9c4.6,0,7.4,2.7,7.4,7.6c0,4.9-2.7,7.8-7.4,7.8H1v-15.4H7.3z M1.5,417.3c0-11.9,6.6-18.8,17-18.8
			c8.9,0,15.6,5.9,15.8,14.5h-8.6c-0.4-4.3-3.4-7.1-7.3-7.1c-4.8,0-7.9,4.3-7.9,11.4c0,7.1,3.1,11.4,8,11.4c3.9,0,6.7-2.7,7.3-6.9
			h8.6c-0.4,8.7-6.9,14.3-15.9,14.3C8.1,436.1,1.5,429.2,1.5,417.3z M4.9,465.1h1.8c2.5,0,3.9-1.5,3.9-4.6c0-2.9-1.4-4.5-3.9-4.5
			H4.9V465.1z M16.6,468.2v-15.4h3.9v15.4H16.6z M26,463.8c0.1,1.1,1.3,1.8,2.8,1.8c1.5,0,2.5-0.7,2.5-1.6c0-0.9-0.6-1.3-2.4-1.6
			l-2-0.4c-2.8-0.5-4.3-2.1-4.3-4.4c0-3,2.6-4.9,6.1-4.9c3.8,0,6.1,1.9,6.2,4.8h-3.6c-0.1-1.1-1.1-1.8-2.5-1.8
			c-1.4,0-2.3,0.6-2.3,1.6c0,0.8,0.7,1.3,2.3,1.6l2,0.4c3,0.6,4.4,2,4.4,4.4c0,3.1-2.5,5-6.5,5c-3.9,0-6.3-1.7-6.4-4.7H26z
			 M35.5,421.5c0-9.1,5.4-14.6,13.7-14.6c8.4,0,13.7,5.5,13.7,14.6c0,9.3-5.2,14.7-13.7,14.7S35.5,430.8,35.5,421.5z M43.8,452.9
			c3.3,0,5.5,2.1,5.5,5.4c0,3.3-2.4,5.4-5.8,5.4h-2.6v4.5H37v-15.4H43.8z M40.9,460.8h1.8c1.7,0,2.6-0.9,2.6-2.5
			c0-1.6-1-2.5-2.6-2.5h-1.8V460.8z M54.3,421.5c0-5-1.9-8-5-8c-3.1,0-5,3-5,8c0,5.2,1.9,8.1,5,8.1
			C52.4,429.5,54.3,426.6,54.3,421.5z M61.3,468.2H51v-15.4h3.9v12.2h6.4V468.2z M72.2,464.9h-5l-1,3.4h-4l5.2-15.4h4.8l5.2,15.4
			h-4.2L72.2,464.9z M65,407.4h8.3v5.3h0.2C75,409,78,407,82.2,407c6,0,9.6,3.9,9.6,10.6v18h-8.6v-16.1c0-3.3-1.7-5.2-4.7-5.2
			c-2.9,0-4.9,2.2-4.9,5.4v15.8H65V407.4z M68,462.1h3.5l-1.7-5.9h-0.1L68,462.1z M81,468.2V463l-5.3-10.1h4.2l3.1,6.4H83l3-6.4h4.1
			L84.9,463v5.3H81z M112,418.4c-0.3-2.9-2-4.8-4.7-4.8c-3.2,0-5.1,2.9-5.1,7.8c0,5,1.9,7.8,5.1,7.8c2.6,0,4.3-1.7,4.7-4.6h7.9
			c-0.3,7.1-5.1,11.4-12.7,11.4c-8.4,0-13.7-5.5-13.7-14.7c0-9,5.2-14.6,13.6-14.6c7.5,0,12.4,4.7,12.7,11.6H112z M106.1,468.2v-6.2
			H100v6.2h-3.9v-15.4h3.9v6h6.1v-6h3.9v15.4H106.1z M122.9,468.2h-10.5v-15.4h10.5v3.2h-6.6v3.1h6.2v2.9h-6.2v3.1h6.6V468.2z
			 M148.5,435.5h-8.4v-5.3h-0.2c-1.2,3.7-4.2,5.8-8.3,5.8c-5.8,0-9.9-3.9-9.9-10.5v-18h8.6v16c0,3.4,1.9,5.2,4.8,5.2
			c2.8,0,4.8-2.2,4.8-5.4v-15.8h8.6V435.5z M134.2,464.9h-5l-1,3.4h-4l5.2-15.4h4.8l5.2,15.4h-4.2L134.2,464.9z M130,462.1h3.5
			l-1.7-5.9h-0.1L130,462.1z M143.1,468.2l-4.9-15.4h4.4l3,11.5h0.1l3-11.5h4.3l-4.9,15.4H143.1z M151.3,407.4h8.3v5.3h0.2
			c1-3.7,3.2-5.6,6.4-5.6c0.8,0,1.6,0.2,2.2,0.4v7.7c-0.7-0.3-1.8-0.5-2.8-0.5c-3.7,0-5.7,2.2-5.7,6.1v14.8h-8.6V407.4z
			 M158.8,468.2V463l-5.3-10.1h4.2l3.1,6.4h0.1l3-6.4h4.1l-5.3,10.1v5.3H158.8z M218.6,435.5h-7.8v-22.7h-0.2l-8.7,22.3h-5.1
			l-8.6-22.3H188v22.7h-7.8v-36.4h10.3l8.8,23.4h0.2l8.8-23.4h10.3V435.5z M220.4,421.5c0-9.1,5.4-14.6,13.7-14.6
			c8.4,0,13.7,5.5,13.7,14.6c0,9.3-5.2,14.7-13.7,14.7C225.7,436.1,220.4,430.8,220.4,421.5z M239.2,421.5c0-5-1.9-8-5-8
			c-3.1,0-5,3-5,8c0,5.2,1.9,8.1,5,8.1C237.3,429.5,239.2,426.6,239.2,421.5z M258.8,430.7h-0.2v4.8h-8.5v-38.2h8.6v15.1h0.2
			c1.4-3.3,4.3-5.3,8.2-5.3c6.8,0,10.8,5.3,10.8,14.4s-4,14.4-10.7,14.4C263.2,435.9,260.2,434,258.8,430.7z M258.7,421.5
			c0,4.5,2,7.4,5.2,7.4c3.2,0,5.2-2.9,5.2-7.4c0-4.5-2.1-7.4-5.2-7.4C260.7,414.1,258.7,417,258.7,421.5z M279.7,400.7
			c0-2.5,2-4.4,4.4-4.4c2.4,0,4.4,1.9,4.4,4.4c0,2.5-2,4.4-4.4,4.4C281.7,405.1,279.7,403.3,279.7,400.7z M279.8,407.4h8.6v28.1
			h-8.6V407.4z M292.3,397.3h8.6v38.2h-8.6V397.3z M330.4,426.7c-0.8,5.7-5.8,9.4-12.8,9.4c-8.5,0-13.7-5.5-13.7-14.5
			c0-9.1,5.2-14.8,13.4-14.8c8.1,0,13.2,5.5,13.2,14v2.5h-18.3v0.6c0,3.4,2.2,5.8,5.4,5.8c2.4,0,4.2-1.2,4.9-3.1H330.4z
			 M312.4,418.3h10c-0.2-3.1-2.1-5.1-5-5.1C314.7,413.2,312.6,415.3,312.4,418.3z"/>
	</defs>
	<clipPath id="SVGID_18_">
		<use xlink:href="#SVGID_17_"  style="overflow:visible;"/>
	</clipPath>
	<g class="st4">
		<defs>
			<rect id="SVGID_19_" x="-24.5" y="-39.4" width="397.3" height="550.9"/>
		</defs>
		<clipPath id="SVGID_20_">
			<use xlink:href="#SVGID_19_"  style="overflow:visible;"/>
		</clipPath>
		<g transform="matrix(1 0 0 1 0 0)" style="clip-path:url(#SVGID_20_);">
			
				<image style="overflow:visible;" width="437" height="606" xlink:href="2ED3A80F87992224.jpg"  transform="matrix(0.9091 0 0 0.9091 -24.4922 -39.4462)">
			</image>
		</g>
	</g>
</g>
<g>
	<defs>
		<path id="SVGID_21_" d="M424.6,71.9V57.8h-5.2v-1.3h11.8v1.3h-5.2v14.1H424.6z M421.6,21c0-11.7,5.9-19,15.4-19
			c7.2,0,13,5,14,11.9h-3.4c-1-5.1-5.3-8.7-10.6-8.7c-7.3,0-12,6.1-12,15.8s4.7,15.7,12,15.7c5.4,0,9.6-3.1,10.6-7.9h3.4
			c-1,6.7-6.5,11.1-13.9,11.1C427.6,39.9,421.6,32.6,421.6,21z M443.5,71.9h-9.3V56.5h9.3v1.3h-7.8v5.5h7.4v1.3h-7.4v5.9h7.8V71.9z
			 M451.3,64.2l-5.3-7.7h1.8l4.5,6.5h0.1l4.5-6.5h1.7l-5.4,7.7l5.3,7.7h-1.7l-4.4-6.5h-0.1l-4.5,6.5H446L451.3,64.2z M454.9,25.6
			c0-8.7,4.6-14,11.9-14s11.9,5.3,11.9,14s-4.6,14-11.9,14S454.9,34.2,454.9,25.6z M475.4,25.6c0-6.9-3.2-11-8.6-11
			c-5.4,0-8.6,4.2-8.6,11c0,6.9,3.2,11,8.6,11C472.2,36.6,475.4,32.4,475.4,25.6z M465.6,71.9V57.8h-5.2v-1.3h11.8v1.3H467v14.1
			H465.6z M490.2,71.9H481V56.5h1.5v14.1h7.7V71.9z M484.1,12h3v4.9h0.3c1.4-3.4,4.6-5.3,8.8-5.3c5.8,0,9.2,3.6,9.2,10v17.7h-3.2
			V22.3c0-5.2-2.3-7.8-6.8-7.8c-4.9,0-8.1,3.4-8.1,8.5v16.1h-3.2V12z M493.1,71.9V56.5h1.5v15.4H493.1z M504.8,72.2
			c-4.2,0-6.9-3.2-6.9-8c0-4.8,2.7-8,6.9-8c3.3,0,5.7,1.9,6.3,4.8h-1.5c-0.6-2.2-2.4-3.5-4.8-3.5c-3.2,0-5.4,2.6-5.4,6.6
			c0,4,2.1,6.7,5.4,6.7c3,0,5-1.9,5-4.8v-0.5h-4.7v-1.3h6.1v1.7C511.2,69.7,508.7,72.2,504.8,72.2z M529.9,20
			c-0.8-3.1-3.5-5.5-7.5-5.5c-5.2,0-8.5,4.3-8.5,11c0,6.8,3.3,11.1,8.5,11.1c3.9,0,6.7-1.9,7.5-5.3h3.2c-0.8,4.9-4.7,8.3-10.7,8.3
			c-7.2,0-11.8-5.5-11.8-14.1c0-8.5,4.6-13.9,11.8-13.9c6,0,9.9,3.7,10.7,8.4H529.9z M525,71.9v-7.2h-9v7.2h-1.5V56.5h1.5v6.8h9
			v-6.8h1.5v15.4H525z M534.6,71.9V57.8h-5.2v-1.3h11.8v1.3H536v14.1H534.6z M559.5,39.1h-3v-4.9h-0.3c-1.3,3.4-4.5,5.3-8.7,5.3
			c-5.8,0-9.3-3.7-9.3-10V12h3.2v16.8c0,5.1,2.4,7.8,6.9,7.8c4.9,0,8-3.3,8-8.4V12h3.2V39.1z M566.2,12h3v4.5h0.3
			c0.9-3,3.8-4.9,7.3-4.9c0.9,0,1.7,0.1,2.4,0.2v3.3c-0.6-0.2-1.9-0.3-2.8-0.3c-4,0-7.1,3.2-7.1,7.5v16.9h-3.2V12z M596.8,39.1V2.8
			h3.8l12.9,31.7h0.3l12.9-31.7h3.8v36.4h-3.1V9.5h-0.2L615.1,39h-2.9L600.2,9.5H600v29.7H596.8z M635.8,25.6c0-8.7,4.6-14,11.9-14
			s11.9,5.3,11.9,14s-4.6,14-11.9,14S635.8,34.2,635.8,25.6z M656.2,25.6c0-6.9-3.2-11-8.6-11s-8.6,4.2-8.6,11c0,6.9,3.2,11,8.6,11
			S656.2,32.4,656.2,25.6z M668.6,33.7h-0.3v5.4h-3v-38h3.2v16.1h0.3c1.5-3.5,4.8-5.7,8.8-5.7c6.6,0,11,5.5,11,14
			c0,8.4-4.4,14-11,14C673.5,39.6,670.1,37.4,668.6,33.7z M668.3,25.6c0,6.7,3.4,11,8.5,11c5.1,0,8.4-4.3,8.4-11.1
			c0-6.8-3.2-11-8.4-11C671.7,14.5,668.3,18.9,668.3,25.6z M693.2,3.5c0-1.3,1.1-2.4,2.4-2.4c1.3,0,2.4,1.1,2.4,2.4
			c0,1.4-1.1,2.5-2.4,2.5C694.3,5.9,693.2,4.8,693.2,3.5z M694,12h3.2v27.2H694V12z M705.2,1.2h3.2v38h-3.2V1.2z M737.4,32.4
			c-1.3,4.4-5.3,7.2-10.8,7.2c-7.2,0-11.7-5.4-11.7-14c0-8.5,4.6-14,11.7-14c7,0,11.2,5.1,11.2,13.4v1.5h-19.6v0.2
			c0.2,6.1,3.4,10.1,8.5,10.1c3.7,0,6.4-1.5,7.5-4.2H737.4z M718.2,23.7h16.3c-0.1-5.6-3.2-9.3-7.9-9.3
			C721.8,14.5,718.5,18.1,718.2,23.7z"/>
	</defs>
	<clipPath id="SVGID_22_">
		<use xlink:href="#SVGID_21_"  style="overflow:visible;"/>
	</clipPath>
	<g class="st5">
		<defs>
			<rect id="SVGID_23_" x="394.2" y="-39.4" width="397.3" height="550.9"/>
		</defs>
		<clipPath id="SVGID_24_">
			<use xlink:href="#SVGID_23_"  style="overflow:visible;"/>
		</clipPath>
		<g transform="matrix(1 0 0 1 0 0)" style="clip-path:url(#SVGID_24_);">
			
				<image style="overflow:visible;" width="437" height="606" xlink:href="2ED3A80F87992223.jpg"  transform="matrix(0.9091 0 0 0.9091 394.1976 -39.4462)">
			</image>
		</g>
	</g>
</g>
<g>
	<defs>
		<path id="SVGID_25_" d="M424.5,171v-13.6h-5v-1.7h11.8v1.7h-5V171H424.5z M421.7,120.1c0-11.8,5.9-19.1,15.4-19.1
			c7.4,0,13.1,4.8,14.2,11.8h-4.4c-1.2-4.7-4.9-7.6-9.7-7.6c-6.7,0-10.9,5.7-10.9,14.9s4.2,14.9,11,14.9c4.9,0,8.6-2.6,9.7-6.8h4.4
			c-1.2,6.7-6.7,11-14.1,11C427.6,139.1,421.7,131.8,421.7,120.1z M443.9,171h-9.5v-15.4h9.5v1.7h-7.6v4.9h7.2v1.7h-7.2v5.3h7.6V171
			z M451.6,163.2l-5.2-7.6h2.3l4,6.1h0.2l4.1-6.1h2.2l-5.3,7.7l5.2,7.6h-2.3l-4-6.1h-0.2l-4.1,6.1h-2.2L451.6,163.2z M455,124.6
			c0-8.8,4.6-14.1,12.1-14.1s12.1,5.3,12.1,14.1c0,8.7-4.6,14.1-12.1,14.1S455,133.4,455,124.6z M474.8,124.6
			c0-6.5-2.8-10.2-7.7-10.2s-7.7,3.7-7.7,10.2c0,6.4,2.8,10.2,7.7,10.2S474.8,131.1,474.8,124.6z M466.1,171v-13.6h-5v-1.7H473v1.7
			h-5V171H466.1z M484.1,171h-1.9v-15.4h5.9c3,0,4.9,1.8,4.9,4.6c0,2.1-1.2,3.8-3.1,4.4l3.6,6.4h-2.2l-3.3-6.1h-3.8V171z
			 M484.1,163.2h3.8c2,0,3.1-1.1,3.1-2.9c0-1.8-1.2-2.9-3.2-2.9h-3.7V163.2z M484.3,111.1h4v4.3h0.4c1.3-3,4.3-4.8,8.3-4.8
			c5.9,0,9.1,3.6,9.1,10.1v17.6h-4.2v-16.5c0-4.9-2-7.2-6.2-7.2c-4.6,0-7.3,2.9-7.3,7.7v16.1h-4.2V111.1z M505.9,171h-9.5v-15.4h9.5
			v1.7h-7.6v4.9h7.2v1.7h-7.2v5.3h7.6V171z M515.8,171.3c-4.3,0-7-3.1-7-8.1c0-4.9,2.8-8,7-8c3.4,0,5.9,1.9,6.4,4.9h-1.9
			c-0.7-2.1-2.2-3.2-4.5-3.2c-3,0-5,2.5-5,6.3c0,3.9,1.9,6.3,5,6.3c2.7,0,4.6-1.8,4.6-4.4v-0.4h-4.3v-1.7h6.2v1.9
			C522.3,168.8,519.7,171.3,515.8,171.3z M529.7,119.4c-0.7-2.7-3-4.9-6.7-4.9c-4.7,0-7.7,3.9-7.7,10.1c0,6.3,3,10.3,7.7,10.3
			c3.5,0,6-1.7,6.7-4.8h4.2c-0.8,5-4.7,8.7-10.9,8.7c-7.3,0-12-5.5-12-14.2c0-8.5,4.7-14,12-14c6.4,0,10.2,4,11,8.8H529.7z
			 M527.6,165.6c0,2.3,1.5,4,4.2,4c2.7,0,4.2-1.7,4.2-4v-10h1.9v10.1c0,3.3-2.3,5.6-6.1,5.6c-3.8,0-6.1-2.4-6.1-5.6v-10.1h1.9V165.6
			z M560.4,138.2h-4V134H556c-1.3,3-4.3,4.7-8.3,4.7c-5.9,0-9.2-3.6-9.2-10.1v-17.6h4.2v16.5c0,4.9,2,7.2,6.2,7.2
			c4.6,0,7.4-2.8,7.4-7.6v-16.1h4.2V138.2z M551.2,171h-9.3v-15.4h1.9v13.6h7.4V171z M562.8,166.6h-6.1l-1.5,4.4h-2l5.7-15.4h1.9
			l5.7,15.4h-2L562.8,166.6z M557.2,164.9h5l-2.4-6.9h-0.2L557.2,164.9z M566.8,111.1h4v4h0.4c0.8-2.6,3.8-4.5,7.3-4.5
			c0.7,0,1.6,0.1,2.1,0.1v4.3c-0.3-0.1-1.8-0.3-2.7-0.3c-4,0-6.9,2.8-6.9,6.6v16.8h-4.2V111.1z M570.9,171H569v-15.4h5.9
			c3,0,4.9,1.8,4.9,4.6c0,2.1-1.2,3.8-3.1,4.4l3.6,6.4H578l-3.3-6.1h-3.8V171z M570.9,163.2h3.8c2,0,3.1-1.1,3.1-2.9
			c0-1.8-1.2-2.9-3.2-2.9h-3.7V163.2z M598.3,138.2v-36.4h5.1l12,30.1h0.4l12-30.1h5.1v36.4h-4.1v-27.8h-0.3l-11,27.5h-3.7l-11-27.5
			h-0.3v27.8H598.3z M637.8,124.6c0-8.8,4.6-14.1,12.1-14.1s12.1,5.3,12.1,14.1c0,8.7-4.6,14.1-12.1,14.1S637.8,133.4,637.8,124.6z
			 M657.6,124.6c0-6.5-2.8-10.2-7.7-10.2s-7.7,3.7-7.7,10.2c0,6.4,2.8,10.2,7.7,10.2S657.6,131.1,657.6,124.6z M671.7,133.9h-0.4
			v4.3h-4v-38h4.2v15.1h0.4c1.4-2.9,4.6-4.8,8.2-4.8c6.6,0,11,5.5,11,14.1c0,8.5-4.3,14.1-11,14.1
			C676.4,138.7,673.3,136.9,671.7,133.9z M671.4,124.6c0,6.3,3,10.2,7.7,10.2c4.8,0,7.6-3.8,7.6-10.2c0-6.4-2.8-10.2-7.6-10.2
			C674.3,114.5,671.4,118.4,671.4,124.6z M695.4,102.5c0-1.7,1.3-3,2.9-3c1.6,0,2.9,1.4,2.9,3s-1.3,3-2.9,3
			C696.7,105.5,695.4,104.2,695.4,102.5z M696.2,111.1h4.2v27.2h-4.2V111.1z M708,100.3h4.2v38H708V100.3z M741.1,131.2
			c-1.3,4.7-5.3,7.5-11,7.5c-7.3,0-11.8-5.4-11.8-14c0-8.5,4.6-14.1,11.8-14.1c7.1,0,11.3,5.2,11.3,13.7v1.7h-18.8v0.2
			c0.2,5.4,3.1,8.8,7.5,8.8c3.4,0,5.6-1.3,6.7-3.7H741.1z M722.7,122.4h14.4c-0.1-4.8-2.9-8-7-8C725.9,114.4,723,117.6,722.7,122.4z
			"/>
	</defs>
	<clipPath id="SVGID_26_">
		<use xlink:href="#SVGID_25_"  style="overflow:visible;"/>
	</clipPath>
	<g class="st6">
		<defs>
			<rect id="SVGID_27_" x="394.2" y="-39.4" width="397.3" height="550.9"/>
		</defs>
		<clipPath id="SVGID_28_">
			<use xlink:href="#SVGID_27_"  style="overflow:visible;"/>
		</clipPath>
		<g transform="matrix(1 0 0 1 0 0)" style="clip-path:url(#SVGID_28_);">
			
				<image style="overflow:visible;" width="437" height="606" xlink:href="2ED3A80F8799222D.jpg"  transform="matrix(0.9091 0 0 0.9091 394.1976 -39.4462)">
			</image>
		</g>
	</g>
</g>
<g>
	<defs>
		<path id="SVGID_29_" d="M424.3,270.1v-13h-4.7v-2.4h12.2v2.4H427v13H424.3z M421.4,219.2c0-11.8,6.1-19.1,16.1-19.1
			c8,0,14.1,5.4,14.8,13h-6.2c-0.9-4.4-4.2-7.2-8.7-7.2c-5.9,0-9.7,5.1-9.7,13.3c0,8.2,3.7,13.3,9.7,13.3c4.4,0,7.8-2.6,8.7-6.7h6.2
			c-0.8,7.4-6.7,12.5-14.8,12.5C427.6,238.2,421.4,230.9,421.4,219.2z M444.6,270.1h-10v-15.4h10v2.4h-7.2v4.1h6.8v2.2h-6.8v4.3h7.2
			V270.1z M452.1,262.3l-5-7.6h3.2l3.5,5.6h0.2l3.6-5.6h3.1l-5.2,7.7l5.1,7.7h-3.2l-3.6-5.5h-0.2l-3.6,5.5h-3L452.1,262.3z
			 M455.5,223.5c0-8.9,4.9-14.3,12.8-14.3c7.9,0,12.8,5.4,12.8,14.3c0,9-4.8,14.3-12.8,14.3C460.3,237.9,455.5,232.5,455.5,223.5z
			 M474.9,223.5c0-5.7-2.4-9.1-6.6-9.1c-4.2,0-6.6,3.4-6.6,9.1c0,5.8,2.4,9.1,6.6,9.1C472.5,232.6,474.9,229.3,474.9,223.5z
			 M467.3,270.1v-13h-4.7v-2.4h12.2v2.4h-4.7v13H467.3z M485.5,265.9c0.2,1.4,1.5,2.3,3.5,2.3c1.8,0,3.1-0.9,3.1-2.2
			c0-1.1-0.8-1.8-2.8-2.2l-2-0.5c-2.8-0.6-4.1-2-4.1-4.3c0-2.8,2.3-4.6,5.7-4.6c3.2,0,5.6,1.9,5.7,4.5H492c-0.2-1.4-1.4-2.2-3.1-2.2
			c-1.8,0-2.9,0.9-2.9,2.2c0,1,0.8,1.6,2.7,2.1l1.8,0.4c3.1,0.7,4.4,2,4.4,4.3c0,3-2.3,4.9-6,4.9c-3.5,0-5.9-1.8-6-4.6H485.5z
			 M485.6,209.7h5.8v4.4h0.4c1.3-3.1,4.4-5,8.3-5c5.9,0,9.2,3.7,9.2,10.3v17.9h-6V221c0-4.2-1.8-6.3-5.5-6.3c-3.9,0-6.3,2.6-6.3,6.6
			v16.1h-6V209.7z M507.9,270.1h-10v-15.4h10v2.4h-7.2v4.1h6.8v2.2h-6.8v4.3h7.2V270.1z M511.3,270.1v-15.4h3.2l4.6,11.2h0.2
			l4.6-11.2h3.2v15.4h-2.6v-10.8h-0.1l-4.3,10.2h-2l-4.3-10.2h-0.1v10.8H511.3z M532.3,219c-0.6-2.7-2.5-4.6-5.8-4.6
			c-4.1,0-6.6,3.3-6.6,9c0,5.8,2.5,9.2,6.6,9.2c3.1,0,5.2-1.5,5.8-4.4h5.7c-0.7,5.8-4.8,9.7-11.5,9.7c-8,0-12.7-5.3-12.7-14.4
			c0-9,4.7-14.3,12.7-14.3c6.8,0,10.9,4,11.6,9.8H532.3z M531,270.1v-15.4h2.7v15.4H531z M537.5,270.1v-15.4h6.4
			c2.9,0,4.7,1.5,4.7,3.8c0,1.6-1.2,3-2.7,3.3v0.2c2.1,0.2,3.5,1.7,3.5,3.7c0,2.7-2,4.4-5.3,4.4H537.5z M540.3,261.2h2.7
			c1.9,0,3-0.8,3-2.1c0-1.4-1-2.1-2.6-2.1h-3V261.2z M543.5,267.9c2,0,3.1-0.8,3.1-2.4c0-1.5-1.1-2.3-3.2-2.3h-3.1v4.7H543.5z
			 M566,237.3h-5.8v-4.4h-0.4c-1.3,3.2-4.3,4.9-8.2,4.9c-5.8,0-9.5-3.8-9.5-10.3v-17.9h6v16.4c0,4.2,1.9,6.3,5.5,6.3
			c3.9,0,6.3-2.5,6.3-6.6v-16.1h6V237.3z M566.2,262.4c0,5-2.8,8.1-7.3,8.1c-4.5,0-7.3-3.1-7.3-8.1s2.8-8.1,7.3-8.1
			S566.2,257.4,566.2,262.4z M554.5,262.4c0,3.4,1.7,5.6,4.5,5.6c2.7,0,4.4-2.2,4.4-5.6c0-3.4-1.7-5.6-4.4-5.6
			C556.3,256.7,554.5,258.9,554.5,262.4z M579.2,270.1h-9.8v-15.4h2.7v13h7.1V270.1z M571.9,209.7h5.8v4.3h0.4
			c0.7-2.7,3.6-4.7,7-4.7c0.8,0,1.9,0.1,2.5,0.3v5.8c-0.5-0.2-2.1-0.4-3.1-0.4c-3.9,0-6.6,2.5-6.6,6.4v15.9h-6V209.7z M587.9,254.7
			c4.6,0,7.2,2.8,7.2,7.6c0,4.9-2.6,7.8-7.2,7.8h-5.8v-15.4H587.9z M584.9,267.7h2.7c3.1,0,4.8-1.9,4.8-5.3c0-3.4-1.8-5.3-4.8-5.3
			h-2.7V267.7z M604.5,237.3v-36.4h7.3l10.5,26.5h0.4l10.5-26.5h7.3v36.4h-5.8v-25.6h-0.3l-9.7,24.2h-4.5l-9.7-24.2h-0.3v25.6H604.5
			z M645.2,223.5c0-8.9,4.9-14.3,12.8-14.3c7.9,0,12.8,5.4,12.8,14.3c0,9-4.8,14.3-12.8,14.3C650,237.9,645.2,232.5,645.2,223.5z
			 M664.5,223.5c0-5.7-2.4-9.1-6.6-9.1c-4.2,0-6.6,3.4-6.6,9.1c0,5.8,2.4,9.1,6.6,9.1C662.1,232.6,664.5,229.3,664.5,223.5z
			 M681.7,233h-0.4v4.4h-5.8v-38.3h6v15.1h0.4c1.4-3,4.4-4.8,8.1-4.8c6.7,0,10.9,5.4,10.9,14.2c0,8.8-4.2,14.2-10.9,14.2
			C686.3,237.8,683.2,236,681.7,233z M681.4,223.5c0,5.5,2.6,8.9,6.7,8.9c4.1,0,6.6-3.4,6.6-8.9c0-5.5-2.5-8.9-6.6-8.9
			S681.4,218,681.4,223.5z M704.8,201.8c0-2,1.5-3.5,3.7-3.5c2.2,0,3.7,1.5,3.7,3.5c0,2-1.5,3.5-3.7,3.5
			C706.3,205.3,704.8,203.8,704.8,201.8z M705.5,209.7h6v27.6h-6V209.7z M718.5,199.1h6v38.3h-6V199.1z M754.5,229.7
			c-1.1,5-5.5,8.1-11.8,8.1c-7.8,0-12.5-5.4-12.5-14.2c0-8.9,4.8-14.5,12.5-14.5c7.6,0,12.1,5.2,12.1,13.9v2h-18.5v0.3
			c0.1,4.6,2.7,7.5,6.6,7.5c3,0,5-1.1,5.9-3.2H754.5z M736.2,220.9h12.5c-0.1-4.1-2.5-6.7-6.1-6.7
			C739,214.2,736.5,216.8,736.2,220.9z"/>
	</defs>
	<clipPath id="SVGID_30_">
		<use xlink:href="#SVGID_29_"  style="overflow:visible;"/>
	</clipPath>
	<g class="st7">
		<defs>
			<rect id="SVGID_31_" x="394.2" y="-39.4" width="397.3" height="550.9"/>
		</defs>
		<clipPath id="SVGID_32_">
			<use xlink:href="#SVGID_31_"  style="overflow:visible;"/>
		</clipPath>
		<g transform="matrix(1 0 0 1 0 0)" style="clip-path:url(#SVGID_32_);">
			
				<image style="overflow:visible;" width="437" height="606" xlink:href="2ED3A80F8799222E.jpg"  transform="matrix(0.9091 0 0 0.9091 394.1976 -39.4462)">
			</image>
		</g>
	</g>
</g>
<g>
	<defs>
		<path id="SVGID_33_" d="M424.1,369.2v-12.6h-4.6v-2.7H432v2.7h-4.6v12.6H424.1z M421.2,318.2c0-11.8,6.3-19.1,16.4-19.1
			c8.3,0,14.6,5.7,15.2,13.6h-7.1c-0.7-4.2-3.9-6.9-8.1-6.9c-5.5,0-8.9,4.7-8.9,12.4s3.4,12.4,8.9,12.4c4.2,0,7.3-2.6,8.1-6.6h7.1
			c-0.6,7.9-6.8,13.3-15.2,13.3C427.5,337.4,421.2,330.1,421.2,318.2z M445,369.2h-10.2v-15.4H445v2.7h-7v3.6h6.6v2.5H438v3.7h7
			V369.2z M452.4,361.4l-4.9-7.6h3.8l3.2,5.4h0.2l3.2-5.4h3.6l-5.1,7.7l5,7.7h-3.7l-3.3-5.2h-0.2l-3.3,5.2h-3.5L452.4,361.4z
			 M455.8,322.5c0-9,5-14.5,13.2-14.5c8.1,0,13.2,5.5,13.2,14.5c0,9.1-4.9,14.5-13.2,14.5C460.8,337,455.8,331.6,455.8,322.5z
			 M474.9,322.5c0-5.3-2.2-8.5-5.9-8.5c-3.8,0-5.9,3.2-5.9,8.5c0,5.4,2.1,8.5,5.9,8.5C472.7,331,474.9,327.9,474.9,322.5z
			 M468,369.2v-12.6h-4.6v-2.7h12.4v2.7h-4.6v12.6H468z M484.3,369.2v-15.4h6.7c3,0,4.8,1.5,4.8,3.8c0,1.6-1.2,3-2.8,3.3v0.2
			c2,0.1,3.5,1.7,3.5,3.7c0,2.7-2,4.4-5.3,4.4H484.3z M486.4,308.6h6.8v4.5h0.4c1.2-3.1,4.4-5.1,8.3-5.1c6,0,9.3,3.8,9.3,10.4v18
			h-7.1v-16.2c0-3.8-1.7-5.9-5.1-5.9c-3.5,0-5.7,2.4-5.7,6.1v16h-7.1V308.6z M487.6,360.2h2.4c1.7,0,2.7-0.7,2.7-1.9
			c0-1.2-0.9-2-2.4-2h-2.7V360.2z M490.4,366.7c1.9,0,2.9-0.8,2.9-2.2c0-1.4-1-2.2-2.9-2.2h-2.8v4.4H490.4z M513.6,361.5
			c0,5-2.8,8.1-7.4,8.1c-4.6,0-7.4-3.1-7.4-8.1c0-5,2.9-8.1,7.4-8.1C510.7,353.4,513.6,356.5,513.6,361.5z M502.1,361.5
			c0,3.2,1.6,5.3,4.1,5.3c2.5,0,4.1-2.1,4.1-5.3c0-3.2-1.6-5.3-4.1-5.3C503.7,356.2,502.1,358.2,502.1,361.5z M533.7,318.4
			c-0.5-2.6-2.3-4.4-5.3-4.4c-3.8,0-5.9,3-5.9,8.4c0,5.5,2.2,8.5,5.9,8.5c2.9,0,4.8-1.5,5.3-4.2h6.6c-0.6,6.2-4.9,10.2-11.9,10.2
			c-8.3,0-13.1-5.2-13.1-14.6c0-9.2,4.7-14.5,13.1-14.5c7.1,0,11.3,4.1,11.9,10.4H533.7z M526.7,369.2h-10.1v-15.4h3.2v12.6h6.8
			V369.2z M535.6,353.8c4.6,0,7.2,2.8,7.2,7.6c0,5-2.6,7.8-7.2,7.8h-6.1v-15.4H535.6z M532.8,366.4h2.3c2.8,0,4.4-1.7,4.4-5
			c0-3.1-1.7-4.9-4.4-4.9h-2.3V366.4z M569.2,336.4h-6.8V332H562c-1.3,3.2-4.2,5.1-8.1,5.1c-5.9,0-9.7-3.8-9.7-10.4v-18h7.1v16.2
			c0,3.9,1.9,5.8,5.2,5.8c3.5,0,5.7-2.3,5.7-6v-16h7.1V336.4z M574.8,308.6h6.8v4.4h0.4c0.7-2.8,3.4-4.9,6.8-4.9
			c0.9,0,2.1,0.1,2.7,0.4v6.7c-0.6-0.2-2.3-0.5-3.3-0.5c-3.8,0-6.4,2.4-6.4,6.3v15.4h-7.1V308.6z M608.1,336.4V300h8.6l9.7,24.5h0.4
			l9.7-24.5h8.6v36.4h-6.8v-24.3H638l-8.9,22.2h-4.9l-8.9-22.2h-0.4v24.3H608.1z M649.4,322.5c0-9,5-14.5,13.2-14.5
			s13.2,5.5,13.2,14.5c0,9.1-4.9,14.5-13.2,14.5C654.4,337,649.4,331.6,649.4,322.5z M668.5,322.5c0-5.3-2.2-8.5-5.9-8.5
			c-3.8,0-5.9,3.2-5.9,8.5c0,5.4,2.1,8.5,5.9,8.5C666.3,331,668.5,327.9,668.5,322.5z M687.5,332.1h-0.4v4.4h-6.8V298h7.1v15.1h0.4
			c1.4-3.1,4.4-4.9,8-4.9c6.8,0,10.8,5.4,10.8,14.3c0,8.9-4.1,14.3-10.8,14.3C692,336.9,689,335.1,687.5,332.1z M687.2,322.5
			c0,5,2.4,8.2,6.1,8.2c3.8,0,6-3.1,6-8.2c0-5.1-2.3-8.2-6-8.2C689.6,314.3,687.3,317.5,687.2,322.5z M710.2,301
			c0-2.2,1.6-3.7,4.2-3.7c2.5,0,4.2,1.5,4.2,3.7c0,2.2-1.6,3.7-4.2,3.7C711.8,304.7,710.2,303.2,710.2,301z M710.9,308.6h7.1v27.8
			h-7.1V308.6z M724.6,298h7.1v38.4h-7.1V298z M762.1,328.5c-1.1,5.2-5.7,8.5-12.2,8.5c-8.1,0-12.9-5.3-12.9-14.4
			c0-9.1,4.9-14.7,12.9-14.7c7.9,0,12.5,5.2,12.5,14v2.2H744v0.4c0.1,4.1,2.4,6.7,6.1,6.7c2.8,0,4.7-1,5.5-2.9H762.1z M744,319.6
			h11.4c-0.1-3.7-2.3-6-5.6-6C746.6,313.6,744.3,316,744,319.6z"/>
	</defs>
	<clipPath id="SVGID_34_">
		<use xlink:href="#SVGID_33_"  style="overflow:visible;"/>
	</clipPath>
	<g class="st8">
		<defs>
			<rect id="SVGID_35_" x="394.2" y="-39.4" width="397.3" height="550.9"/>
		</defs>
		<clipPath id="SVGID_36_">
			<use xlink:href="#SVGID_35_"  style="overflow:visible;"/>
		</clipPath>
		<g transform="matrix(1 0 0 1 0 0)" style="clip-path:url(#SVGID_36_);">
			
				<image style="overflow:visible;" width="437" height="606" xlink:href="2ED3A80F8799222C.jpg"  transform="matrix(0.9091 0 0 0.9091 394.1976 -39.4462)">
			</image>
		</g>
	</g>
</g>
<g>
	<defs>
		<path id="SVGID_37_" d="M424,468.2V456h-4.4v-3.1h12.8v3.1h-4.4v12.2H424z M421,417.3c0-11.9,6.4-19.2,16.9-19.2
			c8.8,0,15.5,6.1,15.7,14.3h-8.6c-0.5-4-3.3-6.6-7.2-6.6c-4.9,0-7.9,4.3-7.9,11.4c0,7.1,3,11.5,7.9,11.5c3.8,0,6.7-2.6,7.2-6.5h8.5
			c-0.3,8.3-6.8,14.2-15.8,14.2C427.5,436.5,421,429.2,421,417.3z M445.6,468.2h-10.5v-15.4h10.5v3.1H439v3.1h6.2v2.9H439v3.1h6.6
			V468.2z M452.8,460.5l-4.7-7.6h4.6l2.8,5.1h0.2l2.8-5.1h4.3l-4.9,7.7l4.9,7.7h-4.4l-2.9-4.9h-0.2l-2.9,4.9h-4.2L452.8,460.5z
			 M456.2,421.5c0-9.1,5.3-14.7,13.7-14.7c8.5,0,13.7,5.5,13.7,14.7c0,9.3-5.1,14.7-13.7,14.7C461.3,436.2,456.2,430.7,456.2,421.5z
			 M469,468.2V456h-4.4v-3.1h12.8v3.1h-4.4v12.2H469z M474.9,421.5c0-4.9-1.8-7.9-4.9-7.9s-4.9,3-4.9,7.9c0,5,1.8,7.9,4.9,7.9
			S474.9,426.5,474.9,421.5z M495.5,468.2V462h-6.1v6.2h-3.9v-15.4h3.9v6h6.1v-6h3.9v15.4H495.5z M487.6,407.4h8.3v4.6h0.5
			c1.2-3.2,4.4-5.2,8.3-5.2c6,0,9.4,3.9,9.4,10.6v18.1h-8.6v-16.1c0-3.4-1.6-5.3-4.5-5.3c-2.9,0-4.8,2.2-4.8,5.4v16h-8.6V407.4z
			 M513.6,468.2h-10.5v-15.4h10.5v3.1H507v3.1h6.2v2.9H507v3.1h6.6V468.2z M525.8,464.9h-5l-1,3.4h-3.9l5.2-15.4h4.8l5.2,15.4h-4.3
			L525.8,464.9z M535.8,417.8c-0.4-2.6-1.9-4.2-4.5-4.2c-3.3,0-5,2.6-5,7.8c0,5.2,1.7,7.9,5,7.9c2.6,0,4.1-1.4,4.5-4h7.9
			c-0.5,6.7-5.1,10.8-12.4,10.8c-8.9,0-13.7-5.1-13.7-14.7c0-9.5,4.8-14.7,13.7-14.7c7.4,0,11.9,4.2,12.4,11H535.8z M521.5,462.1
			h3.5l-1.7-5.7h-0.2L521.5,462.1z M536.1,468.2l-5-15.4h4.5l3,11.3h0.2l2.9-11.3h4.2l-4.8,15.4H536.1z M573.9,435.5h-8.4V431h-0.5
			c-1.2,3.3-4.2,5.2-8,5.2c-5.8,0-9.9-3.9-9.9-10.6v-18.2h8.6v16.1c0,3.5,1.9,5.2,4.7,5.2c2.9,0,4.9-2.1,4.9-5.3v-16h8.6V435.5z
			 M552.8,468.2V463l-5.3-10.1h4.2l3,6.3h0.2l3-6.3h4.2l-5.3,10.1v5.3H552.8z M579,407.4h8.3v4.6h0.5c0.7-2.8,3.3-5,6.5-5
			c1.1,0,2.4,0.2,3,0.4v7.6c-0.7-0.3-2.5-0.5-3.6-0.5c-3.7,0-6.2,2.2-6.2,6.1v14.9H579V407.4z M613.2,435.5v-36.4h10.5l8.5,22.2h0.5
			l8.5-22.2h10.5v36.4h-8.2v-23h-0.4l-7.8,20.2h-5.5l-7.8-20.2h-0.4v23H613.2z M655.5,421.5c0-9.1,5.3-14.7,13.7-14.7
			c8.5,0,13.7,5.5,13.7,14.7c0,9.3-5.1,14.7-13.7,14.7C660.6,436.2,655.5,430.7,655.5,421.5z M674.1,421.5c0-4.9-1.8-7.9-4.9-7.9
			c-3.1,0-4.9,3-4.9,7.9c0,5,1.8,7.9,4.9,7.9C672.4,429.4,674.1,426.5,674.1,421.5z M695.8,431.1h-0.5v4.4H687v-38.6h8.6v15h0.5
			c1.3-3.1,4.2-4.9,7.9-4.9c6.8,0,10.8,5.3,10.8,14.5c0,9.1-4,14.5-10.8,14.5C700.2,435.9,697.1,434.2,695.8,431.1z M695.5,421.5
			c0,4.6,2,7.4,5.2,7.4c3.2,0,5.2-2.8,5.2-7.5c0-4.6-2-7.4-5.2-7.4C697.6,414,695.6,416.9,695.5,421.5z M718,400.2
			c0-2.4,1.8-4,4.8-4c3,0,4.8,1.6,4.8,4c0,2.4-1.8,4-4.8,4C719.8,404.2,718,402.6,718,400.2z M718.5,407.4h8.6v28.1h-8.6V407.4z
			 M733.3,396.9h8.6v38.6h-8.6V396.9z M773.1,427.2c-0.9,5.5-5.9,8.9-12.9,8.9c-8.6,0-13.6-5.3-13.6-14.5c0-9.3,5.1-14.9,13.4-14.9
			c8.3,0,13.2,5.2,13.2,14.2v2.5h-18.2v0.5c0.1,3.7,2.1,5.9,5.4,5.9c2.5,0,4.2-1,4.8-2.6H773.1z M755.2,418.3h9.8
			c-0.1-3.3-1.9-5.2-4.8-5.2C757.4,413.1,755.4,415.2,755.2,418.3z"/>
	</defs>
	<clipPath id="SVGID_38_">
		<use xlink:href="#SVGID_37_"  style="overflow:visible;"/>
	</clipPath>
	<g class="st9">
		<defs>
			<rect id="SVGID_39_" x="394.2" y="-39.4" width="397.3" height="550.9"/>
		</defs>
		<clipPath id="SVGID_40_">
			<use xlink:href="#SVGID_39_"  style="overflow:visible;"/>
		</clipPath>
		<g transform="matrix(1 0 0 1 0 0)" style="clip-path:url(#SVGID_40_);">
			
				<image style="overflow:visible;" width="437" height="606" xlink:href="C4974A3E9921EEA0.jpg"  transform="matrix(0.9091 0 0 0.9091 394.1976 -39.4462)">
			</image>
		</g>
	</g>
</g>
</svg>
