<?xml version="1.0" encoding="utf-8"?>
<!-- Generator: Adobe Illustrator 18.0.0, SVG Export Plug-In . SVG Version: 6.00 Build 0)  -->
<!DOCTYPE svg PUBLIC "-//W3C//DTD SVG 1.1//EN" "http://www.w3.org/Graphics/SVG/1.1/DTD/svg11.dtd">
<svg version="1.1" id="Ñëîé_1" xmlns="http://www.w3.org/2000/svg" xmlns:xlink="http://www.w3.org/1999/xlink" x="0px" y="0px"
	 viewBox="0 109 612 569.3" enable-background="new 0 109 612 569.3" xml:space="preserve">
<path fill="#616161" d="M181.9,633.5c0,7.1,0,14.2,0,21.3s2.4,11.8,7.1,16.5c4.7,4.7,9.5,7.1,16.5,7.1c33.1,0,68.5,0,99.2,0
	c33.1,0,68.5,0,99.2,0c11.8,0,23.6-9.5,23.6-23.6c0-7.1,0-14.2,0-21.3c0-11.8-9.5-23.6-23.6-23.6l-33.1-2.4l2.4-420.6
	c35.4,0,118.1,2.4,130,4.7c9.5,2.4,14.2,7.1,14.2,14.2l9.5,52c2.4,11.8,14.2,21.3,26,18.9c14.2-2.4,26-2.4,40.2-4.7
	c11.8,0,21.3-11.8,21.3-23.6c0-37.8-2.4-75.6-4.7-113.4c0-11.8-11.8-21.3-23.6-21.3c-186.7,2.4-371,2.4-555.3,2.4
	c-11.8,0-23.6,9.5-23.6,21.3C4.7,175.1,2.4,212.9,0,253.1c0,11.8,9.5,23.6,21.3,26c11.8,0,26,2.4,37.8,2.4s23.6-7.1,26-18.9
	l9.5-56.7c2.4-7.1,4.7-14.2,14.2-14.2c11.8-2.4,99.2-4.7,130-4.7v418.2c0,2.4,0,2.4-2.4,2.4l-30.7,2.4
	C193.8,609.9,181.9,619.2,181.9,633.5z"/>
</svg>
