<?xml version="1.0" encoding="utf-8"?>
<!-- Generator: Adobe Illustrator 19.0.0, SVG Export Plug-In . SVG Version: 6.00 Build 0)  -->
<svg version="1.1" id="Layer_1" xmlns="http://www.w3.org/2000/svg" xmlns:xlink="http://www.w3.org/1999/xlink" x="0px" y="0px"
	 viewBox="-174 326 122 142" style="enable-background:new -174 326 122 142;" xml:space="preserve">
<style type="text/css">
	.st0{display:none;}
	.st1{display:inline;fill:none;stroke:#575858;stroke-width:0.5;stroke-miterlimit:100;}
	.st2{display:inline;}
	.st3{display:inline;fill:none;stroke:#000000;stroke-width:6;stroke-linecap:round;stroke-linejoin:round;stroke-miterlimit:10;}
	.st4{stroke:#000000;stroke-width:6;stroke-linecap:round;stroke-linejoin:round;stroke-miterlimit:10;}
	.st5{display:none;stroke:#000000;stroke-width:3;stroke-miterlimit:10;}
	.st6{display:inline;stroke:#000000;stroke-width:3;stroke-miterlimit:10;}
	.st7{display:none;stroke:#000000;stroke-miterlimit:10;}
	.st8{stroke:#010101;stroke-miterlimit:10;}
</style>
<g id="GRID" class="st0">
	<circle class="st1" cx="-113" cy="397" r="88"/>
	<path class="st1" d="M-49,473h-128c-6.6,0-12-5.4-12-12V333c0-6.6,5.4-12,12-12h128c6.6,0,12,5.4,12,12v128
		C-37,467.6-42.4,473-49,473z"/>
	<path class="st1" d="M-61,485h-104c-6.6,0-12-5.4-12-12V321c0-6.6,5.4-12,12-12h104c6.6,0,12,5.4,12,12v152
		C-49,479.6-54.4,485-61,485z"/>
	<path class="st1" d="M-201,449V345c0-6.6,5.4-12,12-12h152c6.6,0,12,5.4,12,12v104c0,6.6-5.4,12-12,12h-152
		C-195.6,461-201,455.6-201,449z"/>
	<line class="st1" x1="-209" y1="397" x2="-17" y2="397"/>
	<line class="st1" x1="-113" y1="493" x2="-113" y2="301"/>
	<line class="st1" x1="-209" y1="369" x2="-17" y2="369"/>
	<line class="st1" x1="-209" y1="425" x2="-17" y2="425"/>
	<line class="st1" x1="-141" y1="493" x2="-141" y2="301"/>
	<line class="st1" x1="-85" y1="493" x2="-85" y2="301"/>
	<line class="st1" x1="-17" y1="493" x2="-209" y2="301"/>
	<line class="st1" x1="-209" y1="493" x2="-17" y2="301"/>
	<circle class="st1" cx="-113" cy="397" r="39.5"/>
</g>
<g id="Layer_2">
	<g class="st0">
		<g class="st2">
			<path d="M-112.5,339L-47,455h-132L-112.5,339 M-112.5,333c-2.2,0-4.1,1.2-5.2,3l-66.5,116c-1.1,1.9-1.1,4.1,0,6
				c1.1,1.9,3.1,3,5.2,3h132c2.1,0,4.1-1.1,5.2-3c1.1-1.8,1.1-4.1,0-6l-65.5-116C-108.4,334.2-110.4,333-112.5,333L-112.5,333
				L-112.5,333z"/>
		</g>
		<g class="st2">
			<ellipse cx="-112.5" cy="386" rx="7.4" ry="7.4"/>
			<ellipse cx="-112.5" cy="386" rx="7.4" ry="7.4"/>
			<ellipse cx="-112.5" cy="433.8" rx="5.5" ry="5.5"/>
			<ellipse cx="-112.5" cy="420.5" rx="4.2" ry="4.1"/>
			<polygon points="-108.4,420.5 -116.7,420.5 -119.9,386 -105.2,386 			"/>
		</g>
	</g>
	<g class="st0">
		<g class="st2">
			<path d="M-113,327.5c23.8,0,43.1,19.3,43.1,43.1c0,23.2-21,33.8-21,43.4v13.4c0,5.8-4.7,10.5-10.5,10.5h-24.2
				c-5.8,0-10.5-4.7-10.5-10.5v-14c0-10.8-20-19.7-20-42.7C-156.1,346.8-136.8,327.5-113,327.5 M-113,321.5
				c-27.1,0-49.1,22-49.1,49.1c0,15.8,8.2,25.9,14.1,33.2c3,3.7,5.9,7.3,5.9,9.5v14c0,9.1,7.4,16.5,16.5,16.5h24.2
				c9.1,0,16.5-7.4,16.5-16.5V414c0-1.6,3.3-5.7,5.8-8.6c6.4-7.8,15.2-18.5,15.2-34.8C-63.9,343.5-85.9,321.5-113,321.5L-113,321.5z
				"/>
		</g>
		<line class="st3" x1="-131.9" y1="449.2" x2="-95.1" y2="449.2"/>
		<line class="st3" x1="-131.9" y1="457.6" x2="-95.1" y2="457.6"/>
		<line class="st3" x1="-127.7" y1="466" x2="-99.3" y2="466"/>
		<path class="st3" d="M-99.3,466"/>
		<path class="st3" d="M-127.7,466"/>
		<line class="st3" x1="-121.4" y1="468.5" x2="-105.6" y2="468.5"/>
	</g>
	<g class="st0">
		<path class="st3" d="M-173.5,457.9l-0.4-0.4c-0.1-0.1,4.3-41.1,7.9-44.7l78-78c3.6-3.6,9.5-3.6,13.1,0l24.2,24.2
			c3.6,3.6,3.6,9.5,0,13.1l-78,78C-132.4,453.6-173.5,458-173.5,457.9z"/>
		<g class="st2">
			<path class="st4" d="M-159.4,456.3c-11.1,1.5-14.1,1.7-14.1,1.6l-0.4-0.4c0,0,0.2-3.4,1.7-14.5
				C-171.6,438-153.8,455.5-159.4,456.3z"/>
		</g>
		<line class="st3" x1="-101.4" y1="348.2" x2="-64.2" y2="385.4"/>
	</g>
	<g class="st0">
		<path class="st2" d="M-95,335.5c5.5,0,10,4.5,10,10V397h27.5l-55.5,62.1l-55.5-62.1h27.5v-51.5c0-5.5,4.5-10,10-10H-95 M-57.5,397
			L-57.5,397 M-95,329.5h-36c-8.8,0-16,7.2-16,16V391h-21.5c-2.4,0-4.5,1.4-5.5,3.6c-1,2.2-0.6,4.7,1,6.4l55.5,62.1
			c1.1,1.3,2.8,2,4.5,2s3.3-0.7,4.5-2l55.4-62c1-1.1,1.6-2.5,1.6-4.1c0-3.3-2.7-6-6-6l0,0H-79v-45.5C-79,336.7-86.2,329.5-95,329.5
			L-95,329.5z"/>
	</g>
	<g class="st0">
		<path class="st2" d="M-113,315.1c45.2,0,81.9,36.7,81.9,81.9s-36.7,81.9-81.9,81.9s-81.9-36.7-81.9-81.9S-158.2,315.1-113,315.1
			 M-113,309.1c-48.5,0-87.9,39.4-87.9,87.9s39.4,87.9,87.9,87.9s87.9-39.4,87.9-87.9S-64.5,309.1-113,309.1L-113,309.1z"/>
	</g>
	<path class="st5" d="M-108.8,397l37.3-37.3c1.2-1.2,1.2-3.1,0-4.2c-1.2-1.2-3.1-1.2-4.2,0l-37.3,37.3l-37.3-37.4
		c-1.2-1.2-3.1-1.2-4.2,0c-1.2,1.2-1.2,3.1,0,4.2l37.3,37.4l-37.3,37.3c-1.2,1.2-1.2,3.1,0,4.2c0.6,0.6,1.4,0.9,2.1,0.9
		s1.5-0.3,2.1-0.9l37.3-37.3l37.3,37.3c0.6,0.6,1.4,0.9,2.1,0.9s1.5-0.3,2.1-0.9c1.2-1.2,1.2-3.1,0-4.2L-108.8,397z"/>
	<path class="st5" d="M-130.1,431.9c-0.8,0-1.5-0.3-2.1-0.9l-29.6-29.6c-1.2-1.2-1.2-3.1,0-4.2c1.2-1.2,3.1-1.2,4.2,0l27.5,27.5
		l61.7-61.7c1.2-1.2,3.1-1.2,4.2,0c1.2,1.2,1.2,3.1,0,4.2L-128,431C-128.6,431.6-129.3,431.9-130.1,431.9z"/>
	<g class="st0">
		<path class="st6" d="M-170.9,457.9c-0.8,0-1.5-0.3-2.1-0.9c-1.2-1.2-1.2-3.1,0-4.2L-57.2,337c1.2-1.2,3.1-1.2,4.2,0
			c1.2,1.2,1.2,3.1,0,4.2L-168.8,457C-169.4,457.6-170.1,457.9-170.9,457.9z"/>
	</g>
	<path class="st7" d="M-72,329.7h-82c-5.5,0-10,4.5-10,10v115.6c0,5.5,4.5,10,10,10h82c5.5,0,10-4.5,10-10V339.7
		C-62,334.2-66.5,329.7-72,329.7z M-113,461.1c-3.5,0-6.4-2.8-6.4-6.4s2.8-6.4,6.4-6.4s6.4,2.8,6.4,6.4S-109.5,461.1-113,461.1z
		 M-74.7,444.1H-151V342.4h76.3V444.1z"/>
	<path class="st8" d="M-86.4,329.6h-53.2c-5.5,0-10,4.5-10,10v116c0,5.5,4.5,10,10,10h53.1c5.5,0,10-4.5,10-10v-116
		C-76.4,334.1-80.9,329.6-86.4,329.6z M-120.2,335.9c0-0.9,0.7-1.6,1.6-1.6h11.2c0.9,0,1.6,0.7,1.6,1.6l0,0c0,0.9-0.7,1.6-1.6,1.6
		h-11.2C-119.5,337.6-120.2,336.8-120.2,335.9L-120.2,335.9z M-113,460.9c-2.5,0-4.6-2-4.6-4.6c0-2.5,2-4.6,4.6-4.6
		c2.5,0,4.6,2,4.6,4.6C-108.4,458.8-110.5,460.9-113,460.9z M-80.9,445.1h-64.2V340.7h64.2V445.1z"/>
</g>
</svg>
