<?xml version="1.0" encoding="utf-8"?>
<!-- Generator: Adobe Illustrator 19.0.0, SVG Export Plug-In . SVG Version: 6.00 Build 0)  -->
<svg version="1.1" xmlns="http://www.w3.org/2000/svg" xmlns:xlink="http://www.w3.org/1999/xlink" x="0px" y="0px"
	 viewBox="0 0 192 192" style="enable-background:new 0 0 192 192;" xml:space="preserve">
<style type="text/css">
	.st0{display:none;}
	.st1{display:inline;fill-rule:evenodd;clip-rule:evenodd;fill:none;stroke:#575858;stroke-width:0.5;stroke-miterlimit:100;}
	.st2{display:inline;}
	.st3{display:inline;fill:none;stroke:#000000;stroke-width:6;stroke-linecap:round;stroke-linejoin:round;stroke-miterlimit:10;}
	.st4{stroke:#000000;stroke-width:6;stroke-linecap:round;stroke-linejoin:round;stroke-miterlimit:10;}
	.st5{display:none;fill:none;stroke:#000000;stroke-width:6;stroke-linecap:round;stroke-linejoin:round;stroke-miterlimit:10;}
	.st6{stroke:#000000;stroke-width:3;stroke-miterlimit:10;}
	.st7{stroke:#000000;stroke-width:3;stroke-linecap:round;stroke-linejoin:round;stroke-miterlimit:10;}
</style>
<g id="GRID" class="st0">
	<circle class="st1" cx="96" cy="96" r="88"/>
	<path class="st1" d="M160,172H32c-6.6,0-12-5.4-12-12V32c0-6.6,5.4-12,12-12h128c6.6,0,12,5.4,12,12v128
		C172,166.6,166.6,172,160,172z"/>
	<path class="st1" d="M148,184H44c-6.6,0-12-5.4-12-12V20c0-6.6,5.4-12,12-12h104c6.6,0,12,5.4,12,12v152
		C160,178.6,154.6,184,148,184z"/>
	<path class="st1" d="M8,148V44c0-6.6,5.4-12,12-12h152c6.6,0,12,5.4,12,12v104c0,6.6-5.4,12-12,12H20C13.4,160,8,154.6,8,148z"/>
	<line class="st1" x1="0" y1="96" x2="192" y2="96"/>
	<line class="st1" x1="96" y1="192" x2="96" y2="0"/>
	<line class="st1" x1="0" y1="68" x2="192" y2="68"/>
	<line class="st1" x1="0" y1="124" x2="192" y2="124"/>
	<line class="st1" x1="68" y1="192" x2="68" y2="0"/>
	<line class="st1" x1="124" y1="192" x2="124" y2="0"/>
	<line class="st1" x1="192" y1="192" x2="0" y2="0"/>
	<line class="st1" x1="0" y1="192" x2="192" y2="0"/>
	<circle class="st1" cx="96" cy="96" r="39.5"/>
</g>
<g id="Layer_2">
	<g class="st0">
		<g class="st2">
			<path d="M96.5,38L162,154H30L96.5,38 M96.5,32c-2.2,0-4.1,1.2-5.2,3L24.8,151c-1.1,1.9-1.1,4.1,0,6s3.1,3,5.2,3h132
				c2.1,0,4.1-1.1,5.2-3c1.1-1.8,1.1-4.1,0-6L101.7,35C100.6,33.2,98.6,32,96.5,32C96.5,32,96.5,32,96.5,32L96.5,32z"/>
		</g>
		<g class="st2">
			<ellipse cx="96.5" cy="85" rx="7.4" ry="7.4"/>
			<ellipse cx="96.5" cy="85" rx="7.4" ry="7.4"/>
			<ellipse cx="96.5" cy="132.8" rx="5.5" ry="5.5"/>
			<ellipse cx="96.5" cy="119.5" rx="4.2" ry="4.1"/>
			<polygon points="100.6,119.5 92.3,119.5 89.1,85 103.8,85 			"/>
		</g>
	</g>
	<g class="st0">
		<g class="st2">
			<path d="M96,26.5c23.8,0,43.1,19.3,43.1,43.1c0,23.2-21,33.8-21,43.4v13.4c0,5.8-4.7,10.5-10.5,10.5H83.4
				c-5.8,0-10.5-4.7-10.5-10.5v-14c0-10.8-20-19.7-20-42.7C52.9,45.8,72.2,26.5,96,26.5 M96,20.5c-27.1,0-49.1,22-49.1,49.1
				c0,15.8,8.2,25.9,14.1,33.2c3,3.7,5.9,7.3,5.9,9.5v14c0,9.1,7.4,16.5,16.5,16.5h24.2c9.1,0,16.5-7.4,16.5-16.5V113
				c0-1.6,3.3-5.7,5.8-8.6c6.4-7.8,15.2-18.5,15.2-34.8C145.1,42.5,123.1,20.5,96,20.5L96,20.5z"/>
		</g>
		<line class="st3" x1="77.1" y1="148.2" x2="113.9" y2="148.2"/>
		<line class="st3" x1="77.1" y1="156.6" x2="113.9" y2="156.6"/>
		<line class="st3" x1="81.3" y1="165" x2="109.7" y2="165"/>
		<path class="st3" d="M109.7,165"/>
		<path class="st3" d="M81.3,165"/>
		<line class="st3" x1="87.6" y1="167.5" x2="103.4" y2="167.5"/>
	</g>
	<g class="st0">
		<path class="st3" d="M35.5,156.9l-0.4-0.4c-0.1-0.1,4.3-41.1,7.9-44.7l78-78c3.6-3.6,9.5-3.6,13.1,0l24.2,24.2
			c3.6,3.6,3.6,9.5,0,13.1l-78,78C76.6,152.6,35.5,157,35.5,156.9z"/>
		<g class="st2">
			<path class="st4" d="M49.6,155.3c-11.1,1.5-14.1,1.7-14.1,1.6l-0.4-0.4c0,0,0.2-3.4,1.7-14.5C37.4,137,55.2,154.5,49.6,155.3z"/>
		</g>
		<line class="st3" x1="107.6" y1="47.2" x2="144.8" y2="84.4"/>
	</g>
	<g class="st0">
		<path class="st2" d="M114,34.5c5.5,0,10,4.5,10,10V96h27.5L96,158.1L40.5,96H68V44.5c0-5.5,4.5-10,10-10H114 M151.5,96L151.5,96
			 M114,28.5H78c-8.8,0-16,7.2-16,16V90H40.5c-2.4,0-4.5,1.4-5.5,3.6c-1,2.2-0.6,4.7,1,6.4l55.5,62.1c1.1,1.3,2.8,2,4.5,2
			s3.3-0.7,4.5-2l55.4-62c1-1.1,1.6-2.5,1.6-4.1c0-3.3-2.7-6-6-6h0H130V44.5C130,35.7,122.8,28.5,114,28.5L114,28.5z"/>
	</g>
	<line class="st5" x1="58" y1="169.6" x2="134" y2="169.6"/>
	<g>
		<g>
			<path d="M96,14.1c45.2,0,81.9,36.7,81.9,81.9s-36.7,81.9-81.9,81.9S14.1,141.2,14.1,96S50.8,14.1,96,14.1 M96,8.1
				C47.5,8.1,8.1,47.5,8.1,96s39.4,87.9,87.9,87.9s87.9-39.4,87.9-87.9S144.5,8.1,96,8.1L96,8.1z"/>
		</g>
		<path class="st6" d="M72.2,55.9l67.1,40.4l-67.1,40.4L72.2,55.9 M72.2,49.9c-1,0-2,0.3-3,0.8c-1.9,1.1-3,3.1-3,5.2l0,80.9
			c0,2.2,1.2,4.2,3,5.2c0.9,0.5,1.9,0.8,3,0.8c1.1,0,2.1-0.3,3.1-0.9l67.1-40.4c1.8-1.1,2.9-3,2.9-5.1c0-2.1-1.1-4.1-2.9-5.1
			L75.3,50.7C74.4,50.1,73.3,49.9,72.2,49.9L72.2,49.9z"/>
	</g>
	<g class="st0">
		<g class="st2">
			<path d="M96,14.1c45.2,0,81.9,36.7,81.9,81.9s-36.7,81.9-81.9,81.9S14.1,141.2,14.1,96S50.8,14.1,96,14.1 M96,8.1
				C47.5,8.1,8.1,47.5,8.1,96s39.4,87.9,87.9,87.9s87.9-39.4,87.9-87.9S144.5,8.1,96,8.1L96,8.1z"/>
		</g>
		<g class="st2">
			<path class="st7" d="M101.8,53.9l-4.4-0.3L97,58.2l4.9,0.4c17.2,2.8,30.4,17.7,30.4,35.7c0,20-16.2,36.2-36.2,36.2
				c-20,0-36.2-16.2-36.2-36.2c0-4,0.7-7.9,1.9-11.6l-3.8-3.3c-1.8,4.6-2.8,9.6-2.8,14.9c0,22.5,18.3,40.9,40.9,40.9
				c22.5,0,40.9-18.3,40.9-40.9C136.9,73.8,121.6,56.7,101.8,53.9z"/>
		</g>
		<g class="st2">
			<path class="st7" d="M95.8,86.7L73.1,66.4L95.8,46h0h0v12.1c1.6,0,3.2,0.1,4.7,0.3V46.1c0,0,0-0.1,0-0.1c0-2.6-2-4.6-4.6-4.7
				c0,0-0.1,0-0.1,0c-0.1,0-0.1,0-0.2,0c-1.1,0-2.2,0.5-3,1.2L69.9,62.8c-1,0.9-1.6,2.2-1.6,3.5c0,1.3,0.6,2.6,1.6,3.5l22.8,20.3
				c0.9,0.8,2,1.2,3.1,1.2c0.6,0,1.3-0.1,1.9-0.4c1.7-0.8,2.8-2.4,2.8-4.3l0-17.2c-1.5-0.2-3.1-0.4-4.7-0.4V86.7z"/>
		</g>
	</g>
</g>
</svg>
