<?xml version="1.0" encoding="utf-8"?>
<!-- Generator: Adobe Illustrator 18.0.0, SVG Export Plug-In . SVG Version: 6.00 Build 0)  -->
<!DOCTYPE svg PUBLIC "-//W3C//DTD SVG 1.1//EN" "http://www.w3.org/Graphics/SVG/1.1/DTD/svg11.dtd">
<svg version="1.1" id="Icon" xmlns="http://www.w3.org/2000/svg" xmlns:xlink="http://www.w3.org/1999/xlink" x="0px" y="0px"
	 viewBox="0 75.4 612 639.7" enable-background="new 0 75.4 612 639.7" xml:space="preserve">
<path fill="#616161" d="M320.6,104.6L90.3,225.5c-11.7,5.8-24.8,7.3-37.9,2.9l-29.1-11.7l224.4-118V75.4L14.6,197.8
	C5.8,202.2,0,212.4,0,222.6v324.9c0,17.5,10.2,33.5,27.7,40.8l16,7.3c8.7,2.9,17.5,4.4,24.8,4.4c10.2,0,21.9-2.9,30.6-8.7l17.5-8.7
	c0-1.5,0-2.9,0-4.4V251.7c0-10.2,5.8-18.9,14.6-24.8l189.4-100.5V104.6z M381.8,342.1c-11.7,5.8-24.8,7.3-37.9,2.9l-29.1-11.7
	l224.4-118V192L306,314.4c-8.7,4.4-14.6,14.6-14.6,24.8v324.9c0,17.5,10.2,33.5,27.7,40.8l16,5.8c8.7,2.9,17.5,4.4,24.8,4.4
	c10.2,0,21.9-2.9,30.6-8.7L612,592.7V221.1L381.8,342.1z M582.9,346.5l-145.7,78.7v-58.3l145.7-78.7V346.5z M466.3,162.9
	L236.1,283.8c-11.7,5.8-24.8,7.3-37.9,2.9L169,275.1l224.4-118v-23.3L160.3,256.1c-8.7,4.4-14.6,14.6-14.6,24.8v324.9
	c0,17.5,10.2,33.5,27.7,40.8l16,5.8c8.7,2.9,17.5,4.4,24.8,4.4c10.2,0,21.9-2.9,30.6-8.7l17.5-8.7c0-1.5-1.5-2.9-1.5-4.4V310
	c0-10.2,5.8-18.9,14.6-24.8l189.4-100.5v-21.9H466.3z"/>
</svg>
