<?xml version="1.0" encoding="utf-8"?>
<!-- Generator: Adobe Illustrator 19.1.0, SVG Export Plug-In . SVG Version: 6.00 Build 0)  -->
<svg version="1.1" id="Layer_1" xmlns="http://www.w3.org/2000/svg" xmlns:xlink="http://www.w3.org/1999/xlink" x="0px" y="0px"
	 viewBox="-187 393 878 549" style="enable-background:new -187 393 878 549;" xml:space="preserve">
<style type="text/css">
	.st0{display:none;fill:#1D77BD;}
	.st1{fill:#1C78BD;}
</style>
<path class="st0" d="M-22,966.7h282.2c12.3,0,24.5,9.2,24.5,24.5l0,0v110.5l196.4-202.5L281.8,699.8v110.5
	c0,12.3-9.2,24.5-24.5,24.5l0,0H-22V966.7L-22,966.7z M235.8,1012.7L235.8,1012.7H-43.5l0,0c-12.3,0-24.5-9.2-24.5-24.5V813.3v-3
	c0-12.3,9.2-24.5,24.5-24.5h282.2V647.6c0-6.2,3-12.3,6.2-15.3c9.2-9.2,24.5-9.2,33.7,0L533.3,887l0,0l0,0c9.2,9.2,9.2,24.5,0,33.7
	l-254.6,251.5c-3,6.2-9.2,9.2-18.4,9.2c-12.3,0-24.5-9.2-24.5-24.5L235.8,1012.7L235.8,1012.7z"/>
<path class="st0" d="M263.6,731.7l213.2,170.7l-213.2,170.7V1023v-40h-40.1H-27.6V821.9h251.2h40.1v-40.1L263.6,731.7 M223.5,648.3
	v133.4H-67.7V1023h291.2v133.4l317.5-254L223.5,648.3L223.5,648.3z"/>
<path id="search_1_" class="st1" d="M496.8,862.4L367.3,733.3c-2.4-2.4-2.4-2.4-4.8-4.8c21.6-33.5,36-74.1,36-117.2
	c0-119.6-96-215.2-215.9-215.2S-33.4,491.7-33.4,611.3s96,215.2,215.9,215.2c43.2,0,84-12,117.6-35.9c2.4,2.4,2.4,2.4,4.8,4.8
	l129.6,129.1c9.6,9.6,21.6,14.3,31.2,14.3c12,0,24-4.8,31.2-14.3C513.6,910.2,513.6,881.5,496.8,862.4z M180.1,759.6
	c-81.6,0-148.8-67-148.8-148.3S98.5,463,180.1,463s148.8,67,148.8,148.3S261.7,759.6,180.1,759.6z"/>
</svg>
