<?xml version="1.0" encoding="utf-8"?>
<!-- Generator: Adobe Illustrator 18.1.1, SVG Export Plug-In . SVG Version: 6.00 Build 0)  -->
<!DOCTYPE svg PUBLIC "-//W3C//DTD SVG 1.1//EN" "http://www.w3.org/Graphics/SVG/1.1/DTD/svg11.dtd">
<svg version="1.1" id="icon" xmlns="http://www.w3.org/2000/svg" xmlns:xlink="http://www.w3.org/1999/xlink" x="0px" y="0px"
	 viewBox="0 0 47.6 36.1" enable-background="new 0 0 47.6 36.1" xml:space="preserve">
<path fill="#A7B6BF" d="M46.8,9.9c0,0-2.5,0-4.1,0c-0.3,0-0.5,0.1-0.7,0.3l-2.3-5.6C38.6,2,35.7,0,32.9,0h-18C12.1,0,9.1,1.9,8,4.5
	l-2.4,5.6C5.4,10,5.2,9.9,4.9,9.9c-1.6,0-4.1,0-4.1,0S0,9.9,0,10.7c0,0.8,0.8,2.5,0.8,2.5S1.2,14,2,14c0.2,0,0.6,0,1.1,0
	c-0.7,0.9-1.1,2-1,3.3l0.8,9.9c0.1,1.1,0.6,2.1,1.3,3c0,0.1,0,0.2,0,0.3v4.1c0,0.9,0.7,1.6,1.6,1.6h4.1c0.9,0,1.6-0.7,1.6-1.6V32
	h24.6v2.5c0,0.9,0.7,1.6,1.6,1.6h4.1c0.9,0,1.6-0.7,1.6-1.6v-4.1c0-0.1,0-0.2,0-0.3c0.7-0.8,1.2-1.9,1.3-3l0.8-9.9
	c0.1-1.3-0.3-2.4-1-3.3c0.5,0,0.9,0,1.1,0c0.8,0,1.1-0.8,1.1-0.8s0.8-1.6,0.8-2.5C47.6,9.9,46.8,9.9,46.8,9.9z M8.6,23.1
	c-1.7,0-3-1.3-3-3s1.3-3,3-3c1.7,0,3,1.3,3,3S10.3,23.1,8.6,23.1z M31.9,20.3l-0.5,1.2c-0.5,1.2-2.1,2.3-3.4,2.3h-8.2
	c-1.4,0-2.9-1-3.4-2.3l-0.5-1.2c-0.5-1.2,0.1-2.3,1.5-2.3h13.1C31.7,18.1,32.4,19.1,31.9,20.3z M10,12.3l2.5-5.9
	c0.3-0.8,1.5-1.5,2.3-1.5h18c0.8,0,2,0.8,2.3,1.5l2.4,5.9H10z M39,23.1c-1.7,0-3-1.3-3-3s1.3-3,3-3c1.7,0,3,1.3,3,3
	S40.7,23.1,39,23.1z"/>
</svg>
