<?xml version="1.0" encoding="utf-8"?>
<!-- Generator: Adobe Illustrator 19.1.0, SVG Export Plug-In . SVG Version: 6.00 Build 0)  -->
<!DOCTYPE svg PUBLIC "-//W3C//DTD SVG 1.1//EN" "http://www.w3.org/Graphics/SVG/1.1/DTD/svg11.dtd">
<svg version="1.1" id="Icon" xmlns="http://www.w3.org/2000/svg" xmlns:xlink="http://www.w3.org/1999/xlink" x="0px" y="0px"
	 viewBox="0 0 48 48" enable-background="new 0 0 48 48" xml:space="preserve">
<path fill="#FFFFFF" d="M0,48h8V22H0V48z M47,28c0-0.8-0.3-1.6-0.7-2.3c-0.6-0.8-0.5-2,0.3-2.7c0.9-0.8,1.4-1.9,1.4-3
	c0-2.2-1.8-4-4-4H34c0,0,2-4,2-8c0-3-1-8-5-8c-2,0-2.7,0.9-2.8,2C28,11,24,14,24,14L10,24v20c0,0,8,4,16,4h2c9.8,0,16-2.7,16-6
	c0-0.3,0-0.5-0.1-0.8c-0.2-0.8,0-1.6,0.6-2.1c0.9-0.8,1.5-1.9,1.5-3.1c0-0.8-0.3-1.6-0.7-2.3c-0.6-0.8-0.5-2,0.3-2.7
	C46.5,30.3,47,29.2,47,28z"/>
</svg>
