<?xml version="1.0" encoding="utf-8"?>
<!-- Generator: Adobe Illustrator 19.2.0, SVG Export Plug-In . SVG Version: 6.00 Build 0)  -->
<!DOCTYPE svg PUBLIC "-//W3C//DTD SVG 1.1//EN" "http://www.w3.org/Graphics/SVG/1.1/DTD/svg11.dtd">
<svg version="1.1" id="fingers" xmlns="http://www.w3.org/2000/svg" xmlns:xlink="http://www.w3.org/1999/xlink" x="0px" y="0px"
	 width="70.2px" height="170.1px" viewBox="0 0 70.2 170.1" style="enable-background:new 0 0 70.2 170.1;" xml:space="preserve">
<style type="text/css">
	.st0{filter:url(#Adobe_OpacityMaskFilter);}
	.st1{fill:url(#SVGID_2_);}
	.st2{mask:url(#SVGID_1_);}
	.st3{fill:#333333;}
</style>
<defs>
	<filter id="Adobe_OpacityMaskFilter" filterUnits="userSpaceOnUse" x="0" y="0" width="70.2" height="170.1">
		<feFlood  style="flood-color:white;flood-opacity:1" result="back"/>
		<feBlend  in="SourceGraphic" in2="back" mode="normal"/>
	</filter>
</defs>
<mask maskUnits="userSpaceOnUse" x="0" y="0" width="70.2" height="170.1" id="SVGID_1_">
	<g class="st0">
		<linearGradient id="SVGID_2_" gradientUnits="userSpaceOnUse" x1="35.0722" y1="126.5" x2="35.0722" y2="169.0265">
			<stop  offset="0" style="stop-color:#FFFFFF"/>
			<stop  offset="0.1125" style="stop-color:#FAFAFA"/>
			<stop  offset="0.2365" style="stop-color:#EDEDED"/>
			<stop  offset="0.3661" style="stop-color:#D7D7D7"/>
			<stop  offset="0.4997" style="stop-color:#B8B8B8"/>
			<stop  offset="0.6361" style="stop-color:#909090"/>
			<stop  offset="0.7751" style="stop-color:#606060"/>
			<stop  offset="0.9135" style="stop-color:#272727"/>
			<stop  offset="1" style="stop-color:#000000"/>
		</linearGradient>
		<rect x="0" y="126" class="st1" width="70.2" height="44.1"/>
	</g>
</mask>
<g class="st2">
	<title>Vector Smart Object</title>
	<path class="st3" d="M3.6,106.8c-1.1-4.6-2-9.2-2.5-14C0.6,87,0.1,77.9,0,71.7C-0.1,61.3,2.4,63,5,56.1s4.4-11.9,8.5-13
		c1.5-8.5,1.1-12.7,2.9-18.1c0,0,1.5-5.2,3.3-13.5S23.2-0.2,27.2,0s5.3,4.6,4.4,11.2s-1.9,9.1-1.5,16.8S26.6,40.3,31,43.2
		s5.5-2.2,11,1.1s2.8,9.2,7.6,10.5c9.6,2.5,7,7.2,11,10.1s4.9,1.5,8.1,6.2s0.6,10-1.8,15.6s-4.5,10.3-5.6,15.7s-6.1,9-6.6,17.3
		s2,10.6,1.6,18.5s2.6,24.8,2.6,24.8l-47.5,7.2c0,0-2.8-21.8-4.6-29.2s0.8-12.6-0.6-22.2C5.3,114.7,4.4,110.4,3.6,106.8z"/>
</g>
</svg>
