<?xml version="1.0" encoding="utf-8"?>
<!-- Generator: Adobe Illustrator 18.1.1, SVG Export Plug-In . SVG Version: 6.00 Build 0)  -->
<!DOCTYPE svg PUBLIC "-//W3C//DTD SVG 1.1//EN" "http://www.w3.org/Graphics/SVG/1.1/DTD/svg11.dtd">
<svg version="1.1" id="Layer_1" xmlns="http://www.w3.org/2000/svg" xmlns:xlink="http://www.w3.org/1999/xlink" x="0px" y="0px"
	 viewBox="0 492.2 750 40" enable-background="new 0 492.2 750 40" xml:space="preserve">
<rect y="491.8" fill="#FFFFFF" width="750" height="40"/>
<g>
	<path d="M173.1,505.9c4,0,7.6,1.4,10.3,3.9l1.9-2.2c-3.3-2.9-7.6-4.9-12.3-4.9c-4.7,0-9,2-12.3,4.9l1.9,2.2
		C165.5,507.3,169.1,505.9,173.1,505.9z"/>
	<path d="M173.1,512.2c2.4,0,4.5,0.9,6.2,2.4l2-2.3c-2.3-1.9-5.1-3.2-8.3-3.2c-3.2,0-6,1.2-8.3,3.2l2,2.3
		C168.4,513,170.7,512.2,173.1,512.2z"/>
	<path d="M177.3,516.8c-1.1-0.9-2.6-1.6-4.2-1.6c-1.6,0-3.1,0.6-4.2,1.6l4.2,4.7L177.3,516.8z"/>
</g>
<path d="M732.6,508.9c1.9,0,3.1,1.6,3.1,3.6s-1.1,3.6-3.1,3.6V508.9z"/>
<path d="M728.5,503.8c1.1,0,2,0.9,2,2v13.3c0,1.1-0.9,2-2,2h-39.9c-1.1,0-2-0.9-2-2v-13.3c0-1.1,0.9-2,2-2H728.5 M728.5,502.7h-39.9
	c-1.7,0-3.1,1.3-3.1,3.1v13.3c0,1.7,1.3,3.1,3.1,3.1h39.9c1.7,0,3.1-1.3,3.1-3.1v-13.3C731.6,504.1,730.3,502.7,728.5,502.7
	L728.5,502.7z"/>
<path d="M689.6,504.8h37.9c1.1,0,2,0.9,2,2v11.3c0,1.1-0.9,2-2,2h-37.9c-1.1,0-2-0.9-2-2v-11.3C687.6,505.7,688.5,504.8,689.6,504.8
	z"/>
<path d="M18.9,506.8c3.1,0,5.6,2.6,5.6,5.6s-2.6,5.6-5.6,5.6s-5.6-2.6-5.6-5.6S15.9,506.8,18.9,506.8z"/>
<path d="M33.3,506.8c3.1,0,5.6,2.6,5.6,5.6s-2.6,5.6-5.6,5.6s-5.6-2.6-5.6-5.6S30.2,506.8,33.3,506.8z"/>
<path d="M47.6,506.8c3.1,0,5.6,2.6,5.6,5.6s-2.6,5.6-5.6,5.6c-3.1,0-5.6-2.6-5.6-5.6S44.5,506.8,47.6,506.8z"/>
<path d="M62,506.8c-3.1,0-5.6,2.6-5.6,5.6s2.6,5.6,5.6,5.6c3.1,0,5.6-2.6,5.6-5.6S65,506.8,62,506.8L62,506.8z"/>
<path d="M76.3,507.3c2.9,0,5.1,2.3,5.1,5.1c0,2.9-2.3,5.1-5.1,5.1s-5.1-2.3-5.1-5.1C71.2,509.6,73.4,507.3,76.3,507.3 M76.3,506.8
	c-3.1,0-5.6,2.6-5.6,5.6s2.6,5.6,5.6,5.6s5.6-2.6,5.6-5.6S79.4,506.8,76.3,506.8L76.3,506.8z"/>
<text transform="matrix(1 0 0 1 90.1108 520.7227)" font-family="'HelveticaNeue'" font-size="24.576">AT&amp;T</text>
<text transform="matrix(1 0 0 1 613.1377 520.7227)" font-family="'HelveticaNeue'" font-size="24.576">100%</text>
<text transform="matrix(1 0 0 1 337.0356 520.7227)" font-family="'HelveticaNeue-Medium'" font-size="24.576">8:08 AM</text>
</svg>
