<?xml version="1.0" encoding="utf-8"?>
<!-- Generator: Adobe Illustrator 18.1.1, SVG Export Plug-In . SVG Version: 6.00 Build 0)  -->
<!DOCTYPE svg PUBLIC "-//W3C//DTD SVG 1.1//EN" "http://www.w3.org/Graphics/SVG/1.1/DTD/svg11.dtd">
<svg version="1.1" id="Layer_1" xmlns="http://www.w3.org/2000/svg" xmlns:xlink="http://www.w3.org/1999/xlink" x="0px" y="0px"
	 viewBox="0 0 36.2 30.3" enable-background="new 0 0 36.2 30.3" xml:space="preserve">
<path fill-rule="evenodd" clip-rule="evenodd" fill="#FFFFFF" d="M35.2,19.6H1c-0.6,0-1-0.4-1-1v-6.9c0-0.6,0.4-1,1-1h34.2
	c0.6,0,1,0.4,1,1v6.9C36.2,19.2,35.8,19.6,35.2,19.6z"/>
<path fill-rule="evenodd" clip-rule="evenodd" fill="#FFFFFF" d="M35.2,30.3H1c-0.6,0-1-0.4-1-1v-6.9c0-0.6,0.4-1,1-1h34.2
	c0.6,0,1,0.4,1,1v6.9C36.2,29.8,35.8,30.3,35.2,30.3z"/>
<path fill-rule="evenodd" clip-rule="evenodd" fill="#FFFFFF" d="M35.2,8.9H1c-0.6,0-1-0.4-1-1V1c0-0.6,0.4-1,1-1h34.2
	c0.6,0,1,0.4,1,1v6.9C36.2,8.5,35.8,8.9,35.2,8.9z"/>
</svg>
