<?xml version="1.0" encoding="utf-8"?>
<!-- Generator: Adobe Illustrator 18.1.1, SVG Export Plug-In . SVG Version: 6.00 Build 0)  -->
<!DOCTYPE svg PUBLIC "-//W3C//DTD SVG 1.1//EN" "http://www.w3.org/Graphics/SVG/1.1/DTD/svg11.dtd">
<svg version="1.1" xmlns="http://www.w3.org/2000/svg" xmlns:xlink="http://www.w3.org/1999/xlink" x="0px" y="0px"
	 viewBox="0 0 66 82.8" enable-background="new 0 0 66 82.8" xml:space="preserve">
<g id="bg">
</g>
<g id="icon">
	<g>
		<g>
			<rect x="50.9" y="29.9" fill="#FFFFFF" width="15" height="52.9"/>
			<path fill="#FFFFFF" d="M24.6,0.4c-0.6-0.5-1.6-0.5-2.2,0L9.3,10.5h28.3L24.6,0.4z"/>
			<path fill="#FFFFFF" d="M0,82.8h47V14.4H0V82.8z M14.1,76.5c-2.8,0-5.1-2.3-5.1-5.1c0-2.8,2.3-5.1,5.1-5.1c2.8,0,5.1,2.3,5.1,5.1
				C19.2,74.2,16.9,76.5,14.1,76.5z M32.9,20.7c2.8,0,5.1,2.3,5.1,5.1c0,2.8-2.3,5.1-5.1,5.1c-2.8,0-5.1-2.3-5.1-5.1
				C27.8,23,30.1,20.7,32.9,20.7z M32.9,35.8c2.8,0,5.1,2.3,5.1,5.1c0,2.8-2.3,5.1-5.1,5.1c-2.8,0-5.1-2.3-5.1-5.1
				C27.8,38.1,30.1,35.8,32.9,35.8z M32.9,50.9c2.8,0,5.1,2.3,5.1,5.1c0,2.8-2.3,5.1-5.1,5.1c-2.8,0-5.1-2.3-5.1-5.1
				C27.8,53.2,30.1,50.9,32.9,50.9z M32.9,66.3c2.8,0,5.1,2.3,5.1,5.1c0,2.8-2.3,5.1-5.1,5.1c-2.8,0-5.1-2.3-5.1-5.1
				C27.8,68.6,30.1,66.3,32.9,66.3z M14.1,20.7c2.8,0,5.1,2.3,5.1,5.1c0,2.8-2.3,5.1-5.1,5.1c-2.8,0-5.1-2.3-5.1-5.1
				C9,23,11.3,20.7,14.1,20.7z M14.1,35.8c2.8,0,5.1,2.3,5.1,5.1c0,2.8-2.3,5.1-5.1,5.1C11.3,46,9,43.7,9,40.9
				C9,38.1,11.3,35.8,14.1,35.8z M14.1,50.9c2.8,0,5.1,2.3,5.1,5.1c0,2.8-2.3,5.1-5.1,5.1C11.3,61.1,9,58.8,9,56
				C9,53.2,11.3,50.9,14.1,50.9z"/>
		</g>
	</g>
</g>
<g id="text">
</g>
</svg>
