<?xml version="1.0" encoding="utf-8"?>
<!-- Generator: Adobe Illustrator 18.1.1, SVG Export Plug-In . SVG Version: 6.00 Build 0)  -->
<!DOCTYPE svg PUBLIC "-//W3C//DTD SVG 1.1//EN" "http://www.w3.org/Graphics/SVG/1.1/DTD/svg11.dtd">
<svg version="1.1" id="icon" xmlns="http://www.w3.org/2000/svg" xmlns:xlink="http://www.w3.org/1999/xlink" x="0px" y="0px"
	 viewBox="0 325.3 638.8 486.7" enable-background="new 0 325.3 638.8 486.7" xml:space="preserve">
<path fill="#62AC64" d="M629.2,458.4c0,0-33.6,0-55.1,0c-4,0-6.7,1.3-9.4,4l-30.9-75.3c-14.8-35-53.8-61.8-91.4-61.8h-242
	c-37.6,0-78,25.5-92.8,60.5l-32.3,75.3c-2.7-1.3-5.4-2.7-9.4-2.7c-21.5,0-55.1,0-55.1,0S0,458.4,0,469.2c0,10.8,10.8,33.6,10.8,33.6
	s5.4,10.8,16.1,10.8c2.7,0,8.1,0,14.8,0c-9.4,12.1-14.8,26.9-13.4,44.4L39,691c1.3,14.8,8.1,28.2,17.5,40.3c0,1.3,0,2.7,0,4v55.1
	c0,12.1,9.4,21.5,21.5,21.5h55.1c12.1,0,21.5-9.4,21.5-21.5v-35h330.8v33.6c0,12.1,9.4,21.5,21.5,21.5H562
	c12.1,0,21.5-9.4,21.5-21.5v-55.1c0-1.3,0-2.7,0-4c9.4-10.8,16.1-25.5,17.5-40.3l10.8-133.1c1.3-17.5-4-32.3-13.4-44.4
	c6.7,0,12.1,0,14.8,0c10.8,0,14.8-10.8,14.8-10.8s10.8-21.5,10.8-33.6C640,458.4,629.2,458.4,629.2,458.4z M115.6,635.9
	c-22.9,0-40.3-17.5-40.3-40.3c0-22.9,17.5-40.3,40.3-40.3s40.3,17.5,40.3,40.3C156,618.4,138.5,635.9,115.6,635.9z M428.9,598.3
	l-6.7,16.1c-6.7,16.1-28.2,30.9-45.7,30.9H266.2c-18.8,0-39-13.4-45.7-30.9l-6.7-16.1c-6.7-16.1,1.3-30.9,20.2-30.9h176.1
	C426.2,568.7,435.6,582.1,428.9,598.3z M134.5,490.7l33.6-79.3c4-10.8,20.2-20.2,30.9-20.2h242c10.8,0,26.9,10.8,30.9,20.2
	l32.3,79.3H134.5z M524.4,635.9c-22.9,0-40.3-17.5-40.3-40.3c0-22.9,17.5-40.3,40.3-40.3c22.9,0,40.3,17.5,40.3,40.3
	C564.7,618.4,547.2,635.9,524.4,635.9z"/>
</svg>
