<?xml version="1.0" encoding="utf-8"?>
<!-- Generator: Adobe Illustrator 18.1.0, SVG Export Plug-In . SVG Version: 6.00 Build 0)  -->
<!DOCTYPE svg PUBLIC "-//W3C//DTD SVG 1.1//EN" "http://www.w3.org/Graphics/SVG/1.1/DTD/svg11.dtd">
<svg version="1.1" id="icons" xmlns="http://www.w3.org/2000/svg" xmlns:xlink="http://www.w3.org/1999/xlink" x="0px" y="0px"
	 viewBox="0 0 16.5 26.3" enable-background="new 0 0 16.5 26.3" xml:space="preserve">
<g>
	<path fill-rule="evenodd" clip-rule="evenodd" fill="#1D77BD" d="M4.7,24.1h7c0.8,0,1.2,0.3,1.2,1.1s-0.4,1.1-1.2,1.1h-7
		c-0.8,0-1.2-0.3-1.2-1.1S3.9,24.1,4.7,24.1z"/>
	<g>
		<path fill="#1D77BD" d="M16.5,10.7c0-0.2,0-0.7,0-0.9h-1.2c0,0.2-1.2,0.9-1.2,1.1c0,2.9-2.8,5.5-5.9,5.5c-3,0-5.9-2.6-5.9-5.5
			c0-0.2-1.2-0.9-1.2-1.1H0C0,10,0,10.8,0,11c0,3.8,3.3,7,7,7.7v5.5h2.3v-5.5C13.2,18,16.5,14.6,16.5,10.7z"/>
		<path fill="#1D77BD" d="M8.3,0C5.9,0,4.7,1.2,4.7,3.3V11c0,2.2,1.2,3.3,3.6,3.3v0c2.3,0,3.5-1,3.5-3.3V3.3C11.7,1.2,10.6,0,8.3,0z
			 M5.9,4.4h1.2v1.1H5.9V4.4z M7.1,9.9H5.9V8.8h1.2V9.9z M7.1,7.7H5.9V6.6h1.2V7.7z M10.6,9.9H9.4V8.8h1.2V9.9z M10.6,7.7H9.4V6.6
			h1.2V7.7z M10.6,5.5H9.4V4.4h1.2V5.5z"/>
	</g>
</g>
</svg>
