<?xml version="1.0" encoding="utf-8"?>
<!-- Generator: Adobe Illustrator 18.1.1, SVG Export Plug-In . SVG Version: 6.00 Build 0)  -->
<!DOCTYPE svg PUBLIC "-//W3C//DTD SVG 1.1//EN" "http://www.w3.org/Graphics/SVG/1.1/DTD/svg11.dtd">
<svg version="1.1" id="icon" xmlns="http://www.w3.org/2000/svg" xmlns:xlink="http://www.w3.org/1999/xlink" x="0px" y="0px"
	 viewBox="0 0 44.2 43.8" enable-background="new 0 0 44.2 43.8" xml:space="preserve">
<g>
	<path fill="#FFFFFF" d="M30.4,0.8C30.4,0.4,30,0,29.5,0h-1c-0.5,0-0.9,0.4-0.9,0.8v4.8h2.7V0.8z"/>
	<path fill="#FFFFFF" d="M44,2.9c0-0.2-0.2-0.4-0.4-0.4H30.9v3.8h-3.8V2.5H16v3.8h-3.8V2.5H0.3C0.2,2.5,0,2.7,0,2.9v5.4h44V2.9z"/>
	<path fill="#FFFFFF" d="M42,9.3H2.4c-1.2,0-2.2,1-2.2,2.2v28.1c0,2.3,1.9,4.1,4.1,4.1h35.7c2.3,0,4.1-1.8,4.1-4.1V11.5
		C44.2,10.3,43.2,9.3,42,9.3z M11.7,37.8c0,1.2-1,2.2-2.2,2.2H6.3C5,40,4,39,4,37.8v-3.2c0-1.2,1-2.2,2.2-2.2h3.2
		c1.2,0,2.2,1,2.2,2.2V37.8z M11.7,28.2c0,1.2-1,2.2-2.2,2.2H6.3c-1.2,0-2.2-1-2.2-2.2v-3.2c0-1.2,1-2.2,2.2-2.2h3.2
		c1.2,0,2.2,1,2.2,2.2V28.2z M11.7,18.6c0,1.2-1,2.2-2.2,2.2H6.3c-1.2,0-2.2-1-2.2-2.2v-3.2c0-1.2,1-2.2,2.2-2.2h3.2
		c1.2,0,2.2,1,2.2,2.2V18.6z M21.3,37.8c0,1.2-1,2.2-2.2,2.2h-3.2c-1.2,0-2.2-1-2.2-2.2v-3.2c0-1.2,1-2.2,2.2-2.2H19
		c1.2,0,2.2,1,2.2,2.2V37.8z M21.3,28.2c0,1.2-1,2.2-2.2,2.2h-3.2c-1.2,0-2.2-1-2.2-2.2v-3.2c0-1.2,1-2.2,2.2-2.2H19
		c1.2,0,2.2,1,2.2,2.2V28.2z M21.3,18.6c0,1.2-1,2.2-2.2,2.2h-3.2c-1.2,0-2.2-1-2.2-2.2v-3.2c0-1.2,1-2.2,2.2-2.2H19
		c1.2,0,2.2,1,2.2,2.2V18.6z M30.8,37.8c0,1.2-1,2.2-2.2,2.2h-3.2c-1.2,0-2.2-1-2.2-2.2v-3.2c0-1.2,1-2.2,2.2-2.2h3.2
		c1.2,0,2.2,1,2.2,2.2V37.8z M30.8,28.2c0,1.2-1,2.2-2.2,2.2h-3.2c-1.2,0-2.2-1-2.2-2.2v-3.2c0-1.2,1-2.2,2.2-2.2h3.2
		c1.2,0,2.2,1,2.2,2.2V28.2z M30.8,18.6c0,1.2-1,2.2-2.2,2.2h-3.2c-1.2,0-2.2-1-2.2-2.2v-3.2c0-1.2,1-2.2,2.2-2.2h3.2
		c1.2,0,2.2,1,2.2,2.2V18.6z M40.4,37.8c0,1.2-1,2.2-2.2,2.2H35c-1.2,0-2.2-1-2.2-2.2v-3.2c0-1.2,1-2.2,2.2-2.2h3.2
		c1.2,0,2.2,1,2.2,2.2V37.8z M40.4,28.2c0,1.2-1,2.2-2.2,2.2H35c-1.2,0-2.2-1-2.2-2.2v-3.2c0-1.2,1-2.2,2.2-2.2h3.2
		c1.2,0,2.2,1,2.2,2.2V28.2z M40.4,18.6c0,1.2-1,2.2-2.2,2.2H35c-1.2,0-2.2-1-2.2-2.2v-3.2c0-1.2,1-2.2,2.2-2.2h3.2
		c1.2,0,2.2,1,2.2,2.2V18.6z"/>
	<path fill="#FFFFFF" d="M15.5,0.8L15.5,0.8c-0.1-0.4-0.4-0.7-0.8-0.7h-0.9c-0.4,0-0.8,0.3-0.8,0.7h0v4.8h2.6V0.8z"/>
</g>
</svg>
