<?xml version="1.0" encoding="utf-8"?>
<!-- Generator: Adobe Illustrator 18.1.1, SVG Export Plug-In . SVG Version: 6.00 Build 0)  -->
<!DOCTYPE svg PUBLIC "-//W3C//DTD SVG 1.1//EN" "http://www.w3.org/Graphics/SVG/1.1/DTD/svg11.dtd">
<svg version="1.1" id="Layer_1" xmlns="http://www.w3.org/2000/svg" xmlns:xlink="http://www.w3.org/1999/xlink" x="0px" y="0px"
	 viewBox="0 0 525 514" enable-background="new 0 0 525 514" xml:space="preserve">
<path fill="#FFFFFF" d="M248.8,92.5c37.6,0,72.7,13.3,97.1,29.1c6.4,4.2,6.3,6.2,4.9,8.1c-5.4,7.5-20.1,29.3-27.6,44.6
	c0,0-2,4-6,1.3c-15.8-10.3-37-20.3-72.2-20.3c-54.3,0-95.7,42.5-95.7,100.3c0,57.8,48.2,101,102.6,100.9c18.7,0,38.2-6.7,44.9-9.1
	c3.2-1.2,4.6,1.8,4.6,1.8c13,27.8,30.4,40.6,34.4,46.2c2,2.8-1.8,4.9-1.8,4.9c-21,12.8-54.5,19.8-82,20
	c-96.3,0.7-171.3-74.6-171.3-163.4C80.7,159.9,156.9,89.3,248.8,92.5"/>
<path fill="#FFFFFF" d="M444.5,314.7c0,25.8-20.9,46.7-46.7,46.7c-25.8,0-46.7-20.9-46.7-46.7c0-25.8,20.9-46.7,46.7-46.7
	C423.6,268.1,444.5,289,444.5,314.7"/>
<path fill="#0078C9" d="M525,28.5C525,12.8,512.2,0,496.5,0h-468C12.8,0,0,12.8,0,28.5v457C0,501.2,12.8,514,28.5,514h468
	c15.7,0,28.5-12.8,28.5-28.5V28.5z M251,355.7c18.7,0,38.2-6.7,44.8-9.1c3.2-1.2,4.6,1.8,4.6,1.8c13,27.7,30.4,40.5,34.4,46.1
	c2,2.8-1.8,4.9-1.8,4.9c-20.9,12.8-54.4,19.7-81.9,19.9c-96.2,0.7-171-74.4-171-163.1c0-96.7,76-167.2,167.8-164
	c37.6,0,72.6,13.3,96.9,29.1c6.4,4.1,6.3,6.2,4.9,8.1c-5.4,7.5-20.1,29.3-27.5,44.5c0,0-2,4-6,1.3c-15.7-10.3-37-20.3-72.1-20.3
	c-54.3,0-95.6,42.4-95.6,100.1C148.6,312.7,196.8,355.8,251,355.7z M396.7,360.7c-25.8,0-46.6-20.9-46.6-46.6
	c0-25.7,20.9-46.6,46.6-46.6c25.7,0,46.6,20.9,46.6,46.6C443.3,339.8,422.4,360.7,396.7,360.7z"/>
</svg>
