<?xml version="1.0" encoding="utf-8"?>
<!-- Generator: Adobe Illustrator 18.1.1, SVG Export Plug-In . SVG Version: 6.00 Build 0)  -->
<!DOCTYPE svg PUBLIC "-//W3C//DTD SVG 1.1//EN" "http://www.w3.org/Graphics/SVG/1.1/DTD/svg11.dtd">
<svg version="1.1" id="Layer_1" xmlns="http://www.w3.org/2000/svg" xmlns:xlink="http://www.w3.org/1999/xlink" x="0px" y="0px"
	 viewBox="0 0 264 233.4" enable-background="new 0 0 264 233.4" xml:space="preserve">
<g>
	<linearGradient id="SVGID_1_" gradientUnits="userSpaceOnUse" x1="61.2324" y1="1.6959" x2="61.2324" y2="92.7695">
		<stop  offset="0" style="stop-color:#00D9FF"/>
		<stop  offset="1" style="stop-color:#0E518A"/>
	</linearGradient>
	<path fill="url(#SVGID_1_)" d="M0,0.3c25.7,0,42.3-4,61.1,17.8l61.4,75.8l-45.5,0c-10.3,0-22-2.9-31.6-19.1L0,0.3z"/>
	<linearGradient id="SVGID_2_" gradientUnits="userSpaceOnUse" x1="93.5196" y1="174.6706" x2="236.3624" y2="174.6706">
		<stop  offset="0" style="stop-color:#F12E1F"/>
		<stop  offset="1" style="stop-color:#9F1E1C"/>
	</linearGradient>
	<path fill="url(#SVGID_2_)" d="M139.4,115.9l96.9,117.5h-67.9c-23.5,0-36.9-14-45.8-29l-29.1-49.6l8.4-26.1L139.4,115.9z"/>
	<g>
		<defs>
			<filter id="Adobe_OpacityMaskFilter" filterUnits="userSpaceOnUse" x="90.9" y="113.8" width="64.7" height="53.6">
				<feFlood  style="flood-color:white;flood-opacity:1" result="back"/>
				<feBlend  in="SourceGraphic" in2="back" mode="normal"/>
			</filter>
		</defs>
		<mask maskUnits="userSpaceOnUse" x="90.9" y="113.8" width="64.7" height="53.6" id="SVGID_3_">
			<g filter="url(#Adobe_OpacityMaskFilter)">
				
					<image overflow="visible" width="70" height="58" xlink:href="86870F9729CB5440.jpg"  transform="matrix(1 0 0 1 88.0186 111.7172)">
				</image>
			</g>
		</mask>
		<g mask="url(#SVGID_3_)">
			<linearGradient id="SVGID_4_" gradientUnits="userSpaceOnUse" x1="178.9272" y1="86.5164" x2="98.1386" y2="158.1257">
				<stop  offset="0" style="stop-color:#F12E1F"/>
				<stop  offset="1" style="stop-color:#9F1E1C"/>
			</linearGradient>
			<path fill="url(#SVGID_4_)" d="M100.8,167.4c4.4-19.1,37.6-34.9,54.8-32.3l-17.4-21.3l-28.6,6.2l-18.7,30.2L100.8,167.4z"/>
		</g>
	</g>
	<linearGradient id="SVGID_5_" gradientUnits="userSpaceOnUse" x1="99.1005" y1="132.8512" x2="175.3814" y2="131.3773">
		<stop  offset="0" style="stop-color:#E6EAEF"/>
		<stop  offset="1" style="stop-color:#95AAB1"/>
	</linearGradient>
	<path fill="url(#SVGID_5_)" d="M100.1,166.6l-22.4-37.8c-6.5-11.8-0.6-25.7,23.2-28.3c23.9-2.6,65.4-6.6,77.1,17.7
		C145.7,114.9,97.6,124.7,100.1,166.6z"/>
	<path fill="#394C75" d="M245.7,222.8h-3.6v-1.3h8.8v1.3h-3.6v10.6h-1.6V222.8z"/>
	<path fill="#394C75" d="M262.2,228.2c-0.1-1.7-0.2-3.7-0.2-5.1h0c-0.4,1.4-0.9,2.9-1.5,4.5l-2.1,5.8h-1.2l-1.9-5.7
		c-0.6-1.7-1-3.2-1.4-4.6h0c0,1.5-0.1,3.5-0.2,5.3l-0.3,5.1h-1.5l0.8-11.9h2l2,5.8c0.5,1.5,0.9,2.8,1.2,4h0c0.3-1.2,0.7-2.5,1.3-4
		l2.1-5.8h2l0.7,11.9h-1.5L262.2,228.2z"/>
</g>
</svg>
