<?xml version="1.0" encoding="utf-8"?>
<!-- Generator: Adobe Illustrator 18.1.1, SVG Export Plug-In . SVG Version: 6.00 Build 0)  -->
<!DOCTYPE svg PUBLIC "-//W3C//DTD SVG 1.1//EN" "http://www.w3.org/Graphics/SVG/1.1/DTD/svg11.dtd">
<svg version="1.1" id="Layer_1" xmlns="http://www.w3.org/2000/svg" xmlns:xlink="http://www.w3.org/1999/xlink" x="0px" y="0px"
	 viewBox="0 0 32.2 31.9" enable-background="new 0 0 32.2 31.9" xml:space="preserve">
<path fill-rule="evenodd" clip-rule="evenodd" fill="#005BA8" d="M0,3.5C3,3.2,4.4,5,5,6.8c0.9,4.1-1.2,7.7-5,10.3
	c0-1.5,0-1.5,0-1.5c0.6-0.3,1.8-1.2,2.1-1.5c-0.6-0.3-1.5-0.3-2.1-0.3c0-1.8,0-1.8,0-1.8c0.9,0,2.4,0,3.2,0.3
	c0.3-0.6,0.6-1.2,0.6-1.8c-0.9,0-2.7,0-3.8,0c0-1.2,0-1.2,0-1.2c1.2-0.3,3.2-0.6,4.1-0.3c0-0.6,0-0.9,0-1.5C3.2,7.7,1.2,8,0,8.3
	c0-0.9,0-0.9,0-0.9c0.9-0.6,3-0.9,3.8-0.9c0-0.3-0.3-0.9-0.6-1.2C2.7,5.6,1.2,5.9,0,6.2c0-0.9,0-0.9,0-0.9C0.6,5,1.8,4.7,2.4,4.7
	C2.1,4.4,1.2,4.1,0,4.1V3.5L0,3.5z"/>
<path fill-rule="evenodd" clip-rule="evenodd" fill="#005BA8" d="M2.7,3c6.5-1.2,9.4,1.8,7.7,8.9C8.6,17.7,5,21.6,0,24.5
	c0-3,0-3,0-3c0.3,0,0.9,0.6,1.2,0.9c0.3-0.3,1.2-0.6,1.5-1.2c-0.3-0.6-1.8-2.1-2.7-2.4v-0.3c0.9-0.6,2.1-1.5,2.7-2.1
	c0.6,0.3,2.4,1.8,2.7,2.4c0.6-0.6,1.5-1.8,1.8-2.4c-0.9-0.6-2.1-1.5-3-1.8c0.6-0.6,0.9-1.5,1.2-2.1c0.9,0.3,2.4,0.6,3,1.2
	c0.6-0.6,0.9-1.5,0.9-2.4c-0.6-0.3-2.1-0.6-3-0.6c0-0.6,0-1.5,0-1.8c1.2,0,2.7,0,3.5,0.3c0-0.6,0-1.2,0-1.8c-0.9,0-2.7,0-3.5,0
	c0-0.6-0.3-1.2-0.3-1.5c0.9,0,2.4,0,3.5,0C9.2,5.6,9.2,5.3,8.6,5C8,4.7,6.5,5,5.3,5c0-0.3-0.3-0.6-0.9-0.9c0.9-0.3,2.1-0.3,2.7-0.3
	C6.5,3.5,5.6,3.2,3.8,3.5C3.2,3.2,2.7,3,2.7,3L2.7,3z"/>
<path fill-rule="evenodd" clip-rule="evenodd" fill="#005BA8" d="M32.2,31.9c0-31.9,0-31.9,0-31.9C0,0,0,0,0,0c0,2.7,0,2.7,0,2.7
	c4.7-1.5,13.9-0.6,19.2,4.1c4.1,3.8,7.1,8.6,7.4,15.4c0.3,4.1-0.9,7.7-1.8,9.7H32.2L32.2,31.9z"/>
<path fill-rule="evenodd" clip-rule="evenodd" fill="#005BA8" d="M13.9,7.1c-0.6-0.3-1.5-0.6-2.4-0.6c0.3,0.3,0.3,0.9,0.3,1.5
	c0.9,0,2.1,0.6,2.7,0.6c0.3,0.9,0.3,1.5,0.3,2.4c-0.9-0.6-2.1-0.9-3-1.2c0,0.6-0.3,1.5-0.6,2.4c1.2,0.3,2.7,0.9,3.2,1.5
	c-0.3,0.9-0.6,2.1-0.9,3c-0.9-0.6-2.4-1.5-3.2-2.1c-0.3,0.9-0.9,2.7-1.5,3.2c0.6,0.6,2.1,1.8,2.7,2.4c-0.6,0.9-1.5,1.8-2.1,2.7
	c-0.6-0.9-1.5-2.4-2.4-3c-0.6,1.2-1.8,2.7-3,3.2c0.6,0.6,1.8,1.8,2.1,2.7c-0.6,0.3-1.5,1.2-2.4,1.5c-0.3-0.9-0.9-2.1-1.5-2.7
	C1.8,24.8,0.9,25.4,0,26c0,4.4,0,4.4,0,4.4c5.9-2.1,13.6-8.3,15.4-16.5c0.9-3.8,0-6.2-0.9-7.7c-1.2-2.1-3.8-2.7-5-2.7
	c0.6,0.3,1.2,0.9,1.5,1.2C13,5.3,13.6,6.2,13.9,7.1L13.9,7.1z"/>
<path fill-rule="evenodd" clip-rule="evenodd" fill="#005BA8" d="M0,31.9c0-0.3,0-0.3,0-0.3c2.1-0.6,4.1-1.8,5-2.7
	c0.3,0.9,0.6,2.1,0.9,3c0.6-0.6,1.8-1.2,2.4-2.1c0-0.6-0.6-1.5-0.9-2.4c1.2-0.6,2.7-2.1,3.5-3.2c0.3,0.6,0.9,1.5,1.2,2.4
	c0.9-0.9,1.8-2.1,2.4-3c-0.3-0.9-0.9-1.5-1.5-2.1c0.9-1.2,2.1-3,2.1-3.8c0.6,0.3,1.5,1.2,1.8,1.8c0.6-1.2,1.2-2.4,1.5-3.8
	c-0.6-0.3-1.2-0.9-2.1-1.2c0.3-0.9,0.6-2.1,0.6-3c0.6,0.3,1.2,0.9,1.8,1.2c0-0.9,0-1.8-0.3-2.4c-0.3-0.6-1.2-0.9-1.8-1.2
	c0-0.6-0.3-1.2-0.3-1.5c0.3,0,1.2,0.6,1.5,0.9c-0.3-0.9-1.2-1.8-1.8-1.8c-0.3-0.6-0.6-1.2-1.2-1.5c3.8,1.2,4.1,3.8,4.4,5
	c0.6,3.8,0,7.4-1.8,10.9c-2.4,4.1-5,6.8-9.7,10.6H0L0,31.9z"/>
<path fill-rule="evenodd" clip-rule="evenodd" fill="#005BA8" d="M9.2,31.9c1.8-1.2,3-2.1,4.1-3.5c0.3,0.9,0.6,2.4,0.6,2.4
	c0.6-0.6,2.4-2.4,3-3.5c-0.3-0.3-0.6-1.2-0.9-1.8c0.9-0.9,2.1-3,2.4-4.1c0.6,0.3,0.9,1.2,1.2,1.8c0.6-1.5,1.2-3,1.5-4.7
	c0-0.3-0.6-0.9-0.9-1.5c0.3-0.9,0.3-2.1,0.3-3c0.3,0,0.9,0.9,1.2,1.5c0-1.8,0-3-1.2-3.8c0-0.6-0.3-1.5-0.6-2.1c1.8,1.2,3,3,2.7,6.8
	c-0.6,6.2-4.1,11.8-8.3,15.6H9.2L9.2,31.9z"/>
<path fill-rule="evenodd" clip-rule="evenodd" fill="#005BA8" d="M20.7,31.9c0.9-0.9,1.5-1.5,1.8-2.7c0.3,0.6,0.3,1.2,0.3,1.8
	c0.3-0.6,1.8-3,1.8-6.2c0.3-1.5,0.6-3.2,0.9-4.7c0.3,2.4,0.3,7.4-1.8,11.8H20.7L20.7,31.9z"/>
<path fill-rule="evenodd" clip-rule="evenodd" fill="#005BA8" d="M23.9,18c0-0.6-0.3-1.8-0.6-2.4c0-0.3,0-1.5-0.3-2.1
	c0.9,1.2,1.8,2.7,1.5,5.9c-0.6,4.7-1.8,9.2-5.3,12.4c-1.5,0-1.5,0-1.5,0c0-0.3,0-1.5,0-2.1c1.2-1.2,2.7-3.5,3-5
	c0.6,0.6,0.6,1.5,0.9,2.4c0.9-1.8,1.5-4.1,1.8-5.6c-0.3-0.6-0.6-1.2-0.6-1.5c0.3-0.9,0.6-2.4,0.6-3C23.3,17.1,23.6,17.7,23.9,18
	L23.9,18z"/>
</svg>
