<?xml version="1.0" encoding="utf-8"?>
<!-- Generator: Adobe Illustrator 19.0.0, SVG Export Plug-In . SVG Version: 6.00 Build 0)  -->
<svg version="1.1" id="Layer_1" xmlns="http://www.w3.org/2000/svg" xmlns:xlink="http://www.w3.org/1999/xlink" x="0px" y="0px"
	 viewBox="-350 644 48 48" style="enable-background:new -350 644 48 48;" xml:space="preserve">
<style type="text/css">
	.st0{display:none;}
	.st1{display:inline;fill:#E6E7E8;}
	.st2{display:inline;}
	.st3{fill:none;stroke:#544841;stroke-width:8.061200e-02;stroke-miterlimit:10;}
	.st4{fill:#A7B6BF;}
	.st5{display:none;fill:#9E9E9E;}
</style>
<g id="bg" class="st0">
	<path class="st1" d="M-1010.6,1980h-30.8c-4.7,0-8.6-3.9-8.6-8.6v-30.8c0-4.7,3.9-8.6,8.6-8.6h30.8c4.7,0,8.6,3.9,8.6,8.6v30.8
		C-1002,1976.1-1005.9,1980-1010.6,1980z"/>
</g>
<g id="lines" class="st0">
	<g class="st2">
		<line class="st3" x1="-1026" y1="1932.2" x2="-1026" y2="1979.8"/>
		<line class="st3" x1="-1034.9" y1="1932.2" x2="-1034.9" y2="1979.8"/>
		<line class="st3" x1="-1017.1" y1="1932.2" x2="-1017.1" y2="1979.8"/>
		<line class="st3" x1="-1005.3" y1="1932.2" x2="-1005.3" y2="1979.8"/>
		<line class="st3" x1="-1046.7" y1="1932.2" x2="-1046.7" y2="1979.8"/>
		<line class="st3" x1="-1049.8" y1="1956" x2="-1002.2" y2="1956"/>
		<line class="st3" x1="-1049.8" y1="1947.1" x2="-1002.2" y2="1947.1"/>
		<line class="st3" x1="-1049.8" y1="1964.9" x2="-1002.2" y2="1964.9"/>
		<line class="st3" x1="-1049.8" y1="1976.7" x2="-1002.2" y2="1976.7"/>
		<line class="st3" x1="-1049.8" y1="1935.3" x2="-1002.2" y2="1935.3"/>
		<line class="st3" x1="-1049.8" y1="1932.2" x2="-1002.2" y2="1979.8"/>
		<line class="st3" x1="-1049.8" y1="1979.8" x2="-1002.2" y2="1932.2"/>
		<circle class="st3" cx="-1026" cy="1956" r="12.5"/>
		<circle class="st3" cx="-1026" cy="1956" r="20.7"/>
		<g id="_x31_20px_icon_102_">
			<path id="Rectangle_7_102_" class="st3" d="M-1035.1,1979.8c-5.4,0-8.5,0-11.6-3.1s-3.1-6.2-3.1-11.6v-18.2c0-5.4,0-8.5,3.1-11.6
				s6.2-3.1,11.6-3.1h18.2c5.4,0,8.5,0,11.6,3.1s3.1,6.2,3.1,11.6v18.2c0,5.4,0,8.5-3.1,11.6s-6.2,3.1-11.6,3.1H-1035.1z"/>
		</g>
		<path class="st3" d="M-1026,1941.2"/>
		<circle class="st3" cx="-1026" cy="1956" r="8.8"/>
		<path class="st3" d="M-1019.3,1957.1c0.1-0.4,0.1-0.7,0.1-1.1s0-0.8-0.1-1.1c-0.5-2.8-2.7-5.1-5.6-5.6c-0.4-0.1-0.8-0.1-1.1-0.1
			c-0.4,0-0.8,0-1.1,0.1c-2.9,0.5-5.1,2.7-5.6,5.6c-0.1,0.4-0.1,0.7-0.1,1.1s0,0.8,0.1,1.1c0.5,2.9,2.7,5.1,5.6,5.6
			c0.4,0.1,0.7,0.1,1.1,0.1c0.4,0,0.8,0,1.1-0.1C-1022,1962.2-1019.8,1960-1019.3,1957.1z"/>
	</g>
</g>
<g id="home_icon">
	<polygon class="st4" points="-313,666 -324,666 -324,655 -328,655 -328,666 -339,666 -339,670 -328,670 -328,681 -324,681 
		-324,670 -313,670 	"/>
</g>
<path id="navigation_bar_icon" class="st5" d="M-1013,1957.3h-11.5v11.5h-3v-11.5h-11.5v-2.7h11.5v-11.5h3v11.5h11.5V1957.3z"/>
</svg>
