<?xml version="1.0" encoding="utf-8"?>
<!-- Generator: Adobe Illustrator 19.0.0, SVG Export Plug-In . SVG Version: 6.00 Build 0)  -->
<svg version="1.1" id="Layer_1" xmlns="http://www.w3.org/2000/svg" xmlns:xlink="http://www.w3.org/1999/xlink" x="0px" y="0px"
	 viewBox="-350 644 48 48" style="enable-background:new -350 644 48 48;" xml:space="preserve">
<style type="text/css">
	.st0{display:none;}
	.st1{display:inline;fill:#E6E7E8;}
	.st2{display:inline;}
	.st3{fill:none;stroke:#544841;stroke-width:8.061200e-02;stroke-miterlimit:10;}
	.st4{fill:#A7B6BF;}
	.st5{display:none;fill:#A6A8AB;}
	.st6{display:inline;fill:#A6A8AB;}
	.st7{fill:#A6A8AB;}
</style>
<g id="bg" class="st0">
	<path class="st1" d="M-1010.6,1980h-30.8c-4.7,0-8.6-3.9-8.6-8.6v-30.8c0-4.7,3.9-8.6,8.6-8.6h30.8c4.7,0,8.6,3.9,8.6,8.6v30.8
		C-1002,1976.1-1005.9,1980-1010.6,1980z"/>
</g>
<g id="lines" class="st0">
	<g class="st2">
		<line class="st3" x1="-1026.1" y1="1932.2" x2="-1026.1" y2="1979.8"/>
		<line class="st3" x1="-1034.9" y1="1932.2" x2="-1034.9" y2="1979.8"/>
		<line class="st3" x1="-1017.1" y1="1932.2" x2="-1017.1" y2="1979.8"/>
		<line class="st3" x1="-1005.3" y1="1932.2" x2="-1005.3" y2="1979.8"/>
		<line class="st3" x1="-1046.8" y1="1932.2" x2="-1046.8" y2="1979.8"/>
		<line class="st3" x1="-1049.9" y1="1956" x2="-1002.1" y2="1956"/>
		<line class="st3" x1="-1049.9" y1="1947.2" x2="-1002.1" y2="1947.2"/>
		<line class="st3" x1="-1049.9" y1="1964.8" x2="-1002.1" y2="1964.8"/>
		<line class="st3" x1="-1049.9" y1="1976.8" x2="-1002.1" y2="1976.8"/>
		<line class="st3" x1="-1049.9" y1="1935.2" x2="-1002.1" y2="1935.2"/>
		<line class="st3" x1="-1049.9" y1="1932.2" x2="-1002.1" y2="1979.8"/>
		<line class="st3" x1="-1049.9" y1="1979.8" x2="-1002.1" y2="1932.2"/>
		<circle class="st3" cx="-1026.1" cy="1956" r="12.5"/>
		<circle class="st3" cx="-1026.1" cy="1956" r="20.7"/>
		<g id="_x31_20px_icon_102_">
			<path id="Rectangle_7_102_" class="st3" d="M-1035.1,1979.8c-5.4,0-8.5,0-11.6-3.1s-3.1-6.2-3.1-11.6V1947c0-5.4,0-8.5,3.1-11.7
				c3.1-3.1,6.2-3.1,11.6-3.1h18.2c5.4,0,8.5,0,11.6,3.1s3.1,6.2,3.1,11.6v18.2c0,5.4,0,8.5-3.1,11.6c-3,3.2-6.2,3.2-11.6,3.2
				L-1035.1,1979.8L-1035.1,1979.8z"/>
		</g>
		<path class="st3" d="M-1026.1,1941.2"/>
		<circle class="st3" cx="-1026.1" cy="1956" r="8.8"/>
		<path class="st3" d="M-1019.4,1957.2c0.1-0.4,0.1-0.7,0.1-1.1s0-0.8-0.1-1.1c-0.5-2.8-2.7-5.1-5.6-5.6c-0.4-0.1-0.8-0.1-1.1-0.1
			c-0.4,0-0.8,0-1.1,0.1c-2.9,0.5-5.1,2.7-5.6,5.6c-0.1,0.4-0.1,0.7-0.1,1.1s0,0.8,0.1,1.1c0.5,2.9,2.7,5.1,5.6,5.6
			c0.4,0.1,0.7,0.1,1.1,0.1s0.8,0,1.1-0.1C-1022.1,1962.2-1019.9,1959.9-1019.4,1957.2z"/>
	</g>
</g>
<g id="icon">
	<path class="st4" d="M-326,655.3c-7,0-12.7,5.7-12.7,12.7s5.7,12.7,12.7,12.7s12.7-5.7,12.7-12.7S-319,655.3-326,655.3z
		 M-319.2,669h-5.3v5.4h-2.6V669h-5.3v-2.6h5.3V661h2.6v5.4h5.3V669z"/>
</g>
<path class="st5" d="M-1026,1943.3c-7,0-12.7,5.7-12.7,12.7s5.7,12.7,12.7,12.7s12.7-5.7,12.7-12.7S-1019,1943.3-1026,1943.3z
	 M-1018.8,1956.7h-6v6h-1.6v-6h-6v-1.4h6v-6h1.6v6h6V1956.7z"/>
<g class="st0">
	<path class="st6" d="M-1026,1943.3c7,0,12.7,5.7,12.7,12.7s-5.7,12.7-12.7,12.7s-12.7-5.7-12.7-12.7S-1033,1943.3-1026,1943.3
		 M-1026,1942.3c-7.5,0-13.7,6.1-13.7,13.7c0,7.5,6.1,13.7,13.7,13.7c7.5,0,13.7-6.1,13.7-13.7
		C-1012.3,1948.5-1018.5,1942.3-1026,1942.3L-1026,1942.3z"/>
	<g class="st2">
		<rect x="-1032.7" y="1955.5" class="st7" width="14" height="1"/>
		<rect x="-1026.2" y="1949" class="st7" width="1" height="14"/>
	</g>
</g>
</svg>
