<?xml version="1.0" encoding="utf-8"?>
<!-- Generator: Adobe Illustrator 19.0.0, SVG Export Plug-In . SVG Version: 6.00 Build 0)  -->
<svg version="1.1" id="Layer_1" xmlns="http://www.w3.org/2000/svg" xmlns:xlink="http://www.w3.org/1999/xlink" x="0px" y="0px"
	 viewBox="-350 644 48 48" style="enable-background:new -350 644 48 48;" xml:space="preserve">
<style type="text/css">
	.st0{display:none;}
	.st1{display:inline;fill:#E6E7E8;}
	.st2{display:inline;}
	.st3{fill:none;stroke:#544841;stroke-width:8.061200e-02;stroke-miterlimit:10;}
	.st4{fill:#A7B6BF;}
</style>
<g id="bg" class="st0">
	<path class="st1" d="M-1710.6,3268h-30.8c-4.7,0-8.6-3.9-8.6-8.6v-30.8c0-4.7,3.9-8.6,8.6-8.6h30.8c4.7,0,8.6,3.9,8.6,8.6v30.8
		C-1702,3264.1-1705.9,3268-1710.6,3268z"/>
</g>
<g id="lines" class="st0">
	<g class="st2">
		<line class="st3" x1="-1726.1" y1="3220.2" x2="-1726.1" y2="3267.8"/>
		<line class="st3" x1="-1734.9" y1="3220.2" x2="-1734.9" y2="3267.8"/>
		<line class="st3" x1="-1717.1" y1="3220.2" x2="-1717.1" y2="3267.8"/>
		<line class="st3" x1="-1705.3" y1="3220.2" x2="-1705.3" y2="3267.8"/>
		<line class="st3" x1="-1746.8" y1="3220.2" x2="-1746.8" y2="3267.8"/>
		<line class="st3" x1="-1749.9" y1="3244" x2="-1702.1" y2="3244"/>
		<line class="st3" x1="-1749.9" y1="3235.2" x2="-1702.1" y2="3235.2"/>
		<line class="st3" x1="-1749.9" y1="3252.8" x2="-1702.1" y2="3252.8"/>
		<line class="st3" x1="-1749.9" y1="3264.8" x2="-1702.1" y2="3264.8"/>
		<line class="st3" x1="-1749.9" y1="3223.2" x2="-1702.1" y2="3223.2"/>
		<line class="st3" x1="-1749.9" y1="3220.2" x2="-1702.1" y2="3267.8"/>
		<line class="st3" x1="-1749.9" y1="3267.8" x2="-1702.1" y2="3220.2"/>
		<circle class="st3" cx="-1726.1" cy="3244" r="12.5"/>
		<circle class="st3" cx="-1726.1" cy="3244" r="20.7"/>
		<g id="_x31_20px_icon_102_">
			<path id="Rectangle_7_102_" class="st3" d="M-1735.1,3267.8c-5.4,0-8.5,0-11.6-3.1s-3.1-6.2-3.1-11.6V3235c0-5.4,0-8.5,3.1-11.7
				c3.1-3.1,6.2-3.1,11.6-3.1h18.2c5.4,0,8.5,0,11.6,3.1s3.1,6.2,3.1,11.6v18.2c0,5.4,0,8.5-3.1,11.6c-3,3.2-6.2,3.2-11.6,3.2
				L-1735.1,3267.8L-1735.1,3267.8z"/>
		</g>
		<path class="st3" d="M-1726.1,3229.2"/>
		<circle class="st3" cx="-1726.1" cy="3244" r="8.8"/>
		<path class="st3" d="M-1719.4,3245.2c0.1-0.4,0.1-0.7,0.1-1.1c0-0.4,0-0.8-0.1-1.1c-0.5-2.8-2.7-5.1-5.6-5.6
			c-0.4-0.1-0.8-0.1-1.1-0.1c-0.4,0-0.8,0-1.1,0.1c-2.9,0.5-5.1,2.7-5.6,5.6c-0.1,0.4-0.1,0.7-0.1,1.1c0,0.4,0,0.8,0.1,1.1
			c0.5,2.9,2.7,5.1,5.6,5.6c0.4,0.1,0.7,0.1,1.1,0.1s0.8,0,1.1-0.1C-1722.1,3250.2-1719.9,3247.9-1719.4,3245.2z"/>
	</g>
</g>
<path class="st4" d="M-316.4,657h2.1v3.4v0.5v0.4h4.3v2.1h-4.3v4.3h-2.1v-4.3h-0.4h-0.5h-3.4v-2.1h3.4h0.5h0.4V661v-0.5V657z
	 M-326.3,662.5h4.3l-5.4-5.4v4.3C-327.5,662.1-327,662.5-326.3,662.5z M-327.5,663.8c-0.6,0-1.2-0.6-1.2-1.2v-5.4h-12
	c-0.6,0-1.2,0.6-1.2,1.2v19.4c0,0.6,0.6,1.2,1.2,1.2h17.5c0.6,0,1.2-0.6,1.2-1.2v-13.9L-327.5,663.8L-327.5,663.8z M-340.4,660.2
	c0-0.4,0.2-0.6,0.6-0.6h7.8c0.4,0,0.6,0.2,0.6,0.6v0.2c0,0.4-0.2,0.6-0.6,0.6h-7.8c-0.4,0-0.6-0.2-0.6-0.6V660.2z M-340.4,663.8
	c0-0.4,0.2-0.6,0.6-0.6h7.8c0.4,0,0.6,0.2,0.6,0.6v0.2c0,0.4-0.2,0.6-0.6,0.6h-7.8c-0.4,0-0.6-0.2-0.6-0.6V663.8z M-325.9,671.4
	c0,0.4-0.2,0.6-0.6,0.6h-13.2c-0.4,0-0.6-0.2-0.6-0.6v-0.2c0-0.4,0.2-0.6,0.6-0.6h13.2c0.4,0,0.6,0.2,0.6,0.6V671.4z M-323.5,667.7
	c0,0.4-0.2,0.6-0.6,0.6h-15.7c-0.4,0-0.6-0.2-0.6-0.6v-0.2c0-0.4,0.2-0.6,0.6-0.6h15.7c0.4,0,0.6,0.2,0.6,0.6V667.7z"/>
</svg>
