<?xml version="1.0" encoding="utf-8"?>
<!-- Generator: Adobe Illustrator 19.0.0, SVG Export Plug-In . SVG Version: 6.00 Build 0)  -->
<svg version="1.1" id="Layer_1" xmlns="http://www.w3.org/2000/svg" xmlns:xlink="http://www.w3.org/1999/xlink" x="0px" y="0px"
	 viewBox="-350 644 48 48" style="enable-background:new -350 644 48 48;" xml:space="preserve">
<style type="text/css">
	.st0{display:none;}
	.st1{display:inline;fill:#E6E7E8;}
	.st2{display:inline;}
	.st3{fill:none;stroke:#544841;stroke-width:8.061200e-02;stroke-miterlimit:10;}
	.st4{fill:#A7B6BF;}
</style>
<g id="bg" class="st0">
	<path class="st1" d="M-1148.6,1826h-30.8c-4.7,0-8.6-3.9-8.6-8.6v-30.8c0-4.7,3.9-8.6,8.6-8.6h30.8c4.7,0,8.6,3.9,8.6,8.6v30.8
		C-1140,1822.1-1143.9,1826-1148.6,1826z"/>
</g>
<g id="lines" class="st0">
	<g class="st2">
		<line class="st3" x1="-1164.2" y1="1778.3" x2="-1164.2" y2="1826"/>
		<line class="st3" x1="-1173" y1="1778.3" x2="-1173" y2="1826"/>
		<line class="st3" x1="-1155.3" y1="1778.3" x2="-1155.3" y2="1826"/>
		<line class="st3" x1="-1143.4" y1="1778.3" x2="-1143.4" y2="1826"/>
		<line class="st3" x1="-1184.9" y1="1778.3" x2="-1184.9" y2="1826"/>
		<line class="st3" x1="-1188" y1="1802.2" x2="-1140.3" y2="1802.2"/>
		<line class="st3" x1="-1188" y1="1793.3" x2="-1140.3" y2="1793.3"/>
		<line class="st3" x1="-1188" y1="1811" x2="-1140.3" y2="1811"/>
		<line class="st3" x1="-1188" y1="1822.9" x2="-1140.3" y2="1822.9"/>
		<line class="st3" x1="-1188" y1="1781.4" x2="-1140.3" y2="1781.4"/>
		<line class="st3" x1="-1188" y1="1778.3" x2="-1140.3" y2="1826"/>
		<line class="st3" x1="-1188" y1="1826" x2="-1140.3" y2="1778.3"/>
		<circle class="st3" cx="-1164.2" cy="1802.2" r="12.5"/>
		<circle class="st3" cx="-1164.2" cy="1802.2" r="20.7"/>
		<g id="_x31_20px_icon_102_">
			<path id="Rectangle_7_102_" class="st3" d="M-1173.3,1826c-5.4,0-8.5,0-11.6-3.1c-3.1-3.1-3.1-6.2-3.1-11.6v-18.2
				c0-5.4,0-8.5,3.1-11.7c3.1-3.1,6.2-3.1,11.6-3.1h18.2c5.4,0,8.5,0,11.6,3.1s3.1,6.2,3.1,11.6v18.2c0,5.4,0,8.5-3.1,11.6
				c-3,3.2-6.2,3.2-11.6,3.2H-1173.3z"/>
		</g>
		<path class="st3" d="M-1164.2,1787.3"/>
		<circle class="st3" cx="-1164.2" cy="1802.2" r="8.8"/>
		<path class="st3" d="M-1157.5,1803.3c0.1-0.4,0.1-0.7,0.1-1.1s0-0.8-0.1-1.1c-0.5-2.8-2.7-5.1-5.6-5.6c-0.4-0.1-0.8-0.1-1.1-0.1
			c-0.4,0-0.8,0-1.1,0.1c-2.9,0.5-5.1,2.7-5.6,5.6c-0.1,0.4-0.1,0.7-0.1,1.1s0,0.8,0.1,1.1c0.5,2.9,2.7,5.1,5.6,5.6
			c0.4,0.1,0.7,0.1,1.1,0.1s0.8,0,1.1-0.1C-1160.2,1808.4-1158,1806.1-1157.5,1803.3z"/>
	</g>
</g>
<path class="st4" d="M-313,670.5c-0.4-0.4-2.3-1.2-3-1.5s-0.8-0.5-0.8-0.8v-0.4c1.1-0.1,2.1-0.4,2.9-0.8c-1.4-0.5-1.7-2.5-1.7-4.2
	s-1.1-2.9-2.9-2.9c-0.6,0-1.1,0.1-1.6,0.4c0,0.6-0.1,1.3-0.2,1.9c0,0.1,0,0.2,0,0.3c0.5,0.7,0.6,1.7,0.4,2.8
	c-0.2,0.9-0.7,1.8-1.4,2.2c0,0.1,0,0.1,0,0.2c0.4,0.1,0.7,0.1,1.1,0.2v0.4c0,0.3,0,0.5-0.8,0.8c-0.2,0.1-0.6,0.2-0.9,0.4v0.9
	c0.1,0.1,0.2,0.1,0.5,0.3c2.1,0.9,4.6,2.1,5.4,2.8c0.1,0.1,0.1,0.2,0.2,0.2c1.8-0.1,2.9-0.3,3.4-0.5c0.2-0.1,0.2-0.2,0.2-0.3
	C-312.3,672.8-312.4,671.2-313,670.5z M-335.9,673.5c1-1,5.3-2.8,5.4-2.8c0.3-0.1,0.4-0.2,0.5-0.2v-0.9c-0.4-0.2-0.7-0.3-0.9-0.4
	c-0.7-0.3-0.8-0.5-0.8-0.8c0-0.1,0-0.9,0-0.9c0.1-0.1,0.2-0.4,0.3-0.7c-0.3-0.4-0.5-1-0.7-1.5c-0.3-1.1-0.1-2.1,0.4-2.8
	c-0.1-0.6-0.1-1.4-0.2-2.1c-0.2-0.2-0.8-0.4-1.6-0.4c-1.1,0-2.3,0.6-2.3,0.6s-0.6,0.6-0.6,1.7c0,1.1,0.2,1.6,0.2,1.6
	c-0.3,0.1-0.4,0.6-0.3,1.2c0.1,0.6,0.5,1,0.8,1c0,0,0.2,1.1,0.5,1.4c0,0,0,0.8,0,0.9c0,0.3,0,0.5-0.8,0.8c-0.7,0.3-2.7,1.1-3,1.5
	c-0.6,0.6-0.8,2.1-0.8,2.3c0,0.1,0.1,0.2,0.2,0.3c0.4,0.1,1.6,0.3,3.4,0.5C-336.1,673.5-336,673.5-335.9,673.5z M-321.9,671.8
	c-1.2-0.5-1.3-0.9-1.3-1.4c0-0.1,0-1.4,0-1.4c0.5-0.5,0.8-2.3,0.8-2.3c0.4,0.1,1.1-0.6,1.3-1.6c0.2-1,0-1.9-0.5-2
	c0,0,0.2-2.2,0.2-3.1c0-1.4-0.5-2.4-1.9-2.4c-0.4-0.6-0.9-1-2.5-1c-1.7,0-2.4,1-4,1c-0.7,0-0.9,1.1-0.9,2.4s0.3,3.1,0.2,3.1
	c-0.4,0.1-0.7,1-0.5,2s0.9,1.7,1.3,1.6c0,0,0.3,1.9,0.8,2.3c0,0,0,1.3,0,1.4c0,0.5,0,0.9-1.3,1.4c-1.2,0.5-4.4,1.9-5,2.5
	c-0.9,0.9-1.2,3.5-1.2,3.8c0,0.2,0.1,0.4,0.4,0.5c1,0.3,4.3,0.9,9.9,0.9c5.6,0,8.9-0.6,9.9-0.9c0.3-0.1,0.4-0.3,0.4-0.5
	c0-0.3-0.3-2.9-1.2-3.8C-317.6,673.5-320.7,672.2-321.9,671.8z"/>
</svg>
