<?xml version="1.0" encoding="utf-8"?>
<!-- Generator: Adobe Illustrator 19.0.0, SVG Export Plug-In . SVG Version: 6.00 Build 0)  -->
<svg version="1.1" id="Layer_1" xmlns="http://www.w3.org/2000/svg" xmlns:xlink="http://www.w3.org/1999/xlink" x="0px" y="0px"
	 viewBox="-350 644 48 48" style="enable-background:new -350 644 48 48;" xml:space="preserve">
<style type="text/css">
	.st0{display:none;}
	.st1{display:inline;fill:#E6E7E8;}
	.st2{display:inline;}
	.st3{fill:none;stroke:#544841;stroke-width:8.061200e-02;stroke-miterlimit:10;}
	.st4{fill:#A7B6BF;}
</style>
<g id="bg" class="st0">
	<path class="st1" d="M-310.6,692h-30.8c-4.7,0-8.6-3.9-8.6-8.6v-30.8c0-4.7,3.9-8.6,8.6-8.6h30.8c4.7,0,8.6,3.9,8.6,8.6v30.8
		C-302,688.1-305.9,692-310.6,692z"/>
</g>
<g id="lines" class="st0">
	<g class="st2">
		<line class="st3" x1="-326" y1="644.2" x2="-326" y2="691.8"/>
		<line class="st3" x1="-334.9" y1="644.2" x2="-334.9" y2="691.8"/>
		<line class="st3" x1="-317.1" y1="644.2" x2="-317.1" y2="691.8"/>
		<line class="st3" x1="-305.3" y1="644.2" x2="-305.3" y2="691.8"/>
		<line class="st3" x1="-346.7" y1="644.2" x2="-346.7" y2="691.8"/>
		<line class="st3" x1="-349.8" y1="668" x2="-302.2" y2="668"/>
		<line class="st3" x1="-349.8" y1="659.1" x2="-302.2" y2="659.1"/>
		<line class="st3" x1="-349.8" y1="676.9" x2="-302.2" y2="676.9"/>
		<line class="st3" x1="-349.8" y1="688.7" x2="-302.2" y2="688.7"/>
		<line class="st3" x1="-349.8" y1="647.3" x2="-302.2" y2="647.3"/>
		<line class="st3" x1="-349.8" y1="644.2" x2="-302.2" y2="691.8"/>
		<line class="st3" x1="-349.8" y1="691.8" x2="-302.2" y2="644.2"/>
		<circle class="st3" cx="-326" cy="668" r="12.5"/>
		<circle class="st3" cx="-326" cy="668" r="20.7"/>
		<g id="_x31_20px_icon_102_">
			<path id="Rectangle_7_102_" class="st3" d="M-335.1,691.8c-5.4,0-8.5,0-11.6-3.1c-3.1-3.1-3.1-6.2-3.1-11.6v-18.2
				c0-5.4,0-8.5,3.1-11.6c3.1-3.1,6.2-3.1,11.6-3.1h18.2c5.4,0,8.5,0,11.6,3.1c3.1,3.1,3.1,6.2,3.1,11.6v18.2c0,5.4,0,8.5-3.1,11.6
				c-3.1,3.1-6.2,3.1-11.6,3.1C-316.9,691.8-335.1,691.8-335.1,691.8z"/>
		</g>
		<path class="st3" d="M-326,653.2"/>
		<circle class="st3" cx="-326" cy="668" r="8.8"/>
		<path class="st3" d="M-319.3,669.1c0.1-0.4,0.1-0.7,0.1-1.1s0-0.8-0.1-1.1c-0.5-2.8-2.7-5.1-5.6-5.6c-0.4-0.1-0.8-0.1-1.1-0.1
			c-0.4,0-0.8,0-1.1,0.1c-2.9,0.5-5.1,2.7-5.6,5.6c-0.1,0.4-0.1,0.7-0.1,1.1s0,0.8,0.1,1.1c0.5,2.9,2.7,5.1,5.6,5.6
			c0.4,0.1,0.7,0.1,1.1,0.1s0.8,0,1.1-0.1C-322,674.2-319.8,672-319.3,669.1z"/>
	</g>
</g>
<g id="icon">
	<g>
		<rect x="-322.7" y="655.4" class="st4" width="1.6" height="2.8"/>
		<path class="st4" d="M-313.4,656.4h-7.5v2.3h-2.2v-2.3h-6.5v2.3h-2.2v-2.3h-7c-0.1,0-0.2,0.1-0.2,0.2v3.2h25.8v-3.2
			C-313.1,656.5-313.2,656.4-313.4,656.4z"/>
		<path class="st4" d="M-335.3,673.9h1.9c0.7,0,1.3,0.6,1.3,1.3v1.9c0,0.7-0.6,1.3-1.3,1.3h-1.9c-0.7,0-1.3-0.6-1.3-1.3v-1.9
			C-336.6,674.5-336,673.9-335.3,673.9z M-335.3,668.2h1.9c0.7,0,1.3,0.6,1.3,1.3v1.9c0,0.7-0.6,1.3-1.3,1.3h-1.9
			c-0.7,0-1.3-0.6-1.3-1.3v-1.9C-336.6,668.8-336,668.2-335.3,668.2z M-335.3,662.6h1.9c0.7,0,1.3,0.6,1.3,1.3v1.9
			c0,0.7-0.6,1.3-1.3,1.3h-1.9c-0.7,0-1.3-0.6-1.3-1.3v-1.9C-336.6,663.2-336,662.6-335.3,662.6z M-329.7,673.9h1.9
			c0.7,0,1.3,0.6,1.3,1.3v1.9c0,0.7-0.6,1.3-1.3,1.3h-1.9c-0.7,0-1.3-0.6-1.3-1.3v-1.9C-331,674.5-330.4,673.9-329.7,673.9z
			 M-329.7,668.2h1.9c0.7,0,1.3,0.6,1.3,1.3v1.9c0,0.7-0.6,1.3-1.3,1.3h-1.9c-0.7,0-1.3-0.6-1.3-1.3v-1.9
			C-331,668.8-330.4,668.2-329.7,668.2z M-329.7,662.6h1.9c0.7,0,1.3,0.6,1.3,1.3v1.9c0,0.7-0.6,1.3-1.3,1.3h-1.9
			c-0.7,0-1.3-0.6-1.3-1.3v-1.9C-331,663.2-330.4,662.6-329.7,662.6z M-324.1,673.9h1.9c0.7,0,1.3,0.6,1.3,1.3v1.9
			c0,0.7-0.6,1.3-1.3,1.3h-1.9c-0.7,0-1.3-0.6-1.3-1.3v-1.9C-325.4,674.5-324.8,673.9-324.1,673.9z M-324.1,668.2h1.9
			c0.7,0,1.3,0.6,1.3,1.3v1.9c0,0.7-0.6,1.3-1.3,1.3h-1.9c-0.7,0-1.3-0.6-1.3-1.3v-1.9C-325.4,668.8-324.8,668.2-324.1,668.2z
			 M-324.1,662.6h1.9c0.7,0,1.3,0.6,1.3,1.3v1.9c0,0.7-0.6,1.3-1.3,1.3h-1.9c-0.7,0-1.3-0.6-1.3-1.3v-1.9
			C-325.4,663.2-324.8,662.6-324.1,662.6z M-318.5,673.9h1.9c0.7,0,1.3,0.6,1.3,1.3v1.9c0,0.7-0.6,1.3-1.3,1.3h-1.9
			c-0.7,0-1.3-0.6-1.3-1.3v-1.9C-319.8,674.5-319.2,673.9-318.5,673.9z M-318.5,668.2h1.9c0.7,0,1.3,0.6,1.3,1.3v1.9
			c0,0.7-0.6,1.3-1.3,1.3h-1.9c-0.7,0-1.3-0.6-1.3-1.3v-1.9C-319.8,668.8-319.2,668.2-318.5,668.2z M-318.5,662.6h1.9
			c0.7,0,1.3,0.6,1.3,1.3v1.9c0,0.7-0.6,1.3-1.3,1.3h-1.9c-0.7,0-1.3-0.6-1.3-1.3v-1.9C-319.8,663.2-319.2,662.6-318.5,662.6z
			 M-338.9,678.2c0,1.3,1.1,2.4,2.4,2.4h21c1.3,0,2.4-1.1,2.4-2.4v-16.5c0-0.7-0.6-1.3-1.3-1.3h-23.2c-0.7,0-1.3,0.6-1.3,1.3
			C-338.9,661.7-338.9,678.2-338.9,678.2z"/>
		<rect x="-331.4" y="655.4" class="st4" width="1.5" height="2.8"/>
	</g>
</g>
</svg>
