<?xml version="1.0" encoding="utf-8"?>
<!-- Generator: Adobe Illustrator 19.0.0, SVG Export Plug-In . SVG Version: 6.00 Build 0)  -->
<svg version="1.1" id="Layer_1" xmlns="http://www.w3.org/2000/svg" xmlns:xlink="http://www.w3.org/1999/xlink" x="0px" y="0px"
	 viewBox="-350 644 48 48" style="enable-background:new -350 644 48 48;" xml:space="preserve">
<style type="text/css">
	.st0{display:none;}
	.st1{display:inline;fill:#E6E7E8;}
	.st2{display:inline;}
	.st3{fill:none;stroke:#544841;stroke-width:8.061200e-02;stroke-miterlimit:10;}
	.st4{fill:#A7B6BF;}
</style>
<g id="bg" class="st0">
	<path class="st1" d="M-310.6,692h-30.8c-4.7,0-8.6-3.9-8.6-8.6v-30.8c0-4.7,3.9-8.6,8.6-8.6h30.8c4.7,0,8.6,3.9,8.6,8.6v30.8
		C-302,688.1-305.9,692-310.6,692z"/>
</g>
<g id="lines" class="st0">
	<g class="st2">
		<line class="st3" x1="-326" y1="644.2" x2="-326" y2="691.8"/>
		<line class="st3" x1="-334.9" y1="644.2" x2="-334.9" y2="691.8"/>
		<line class="st3" x1="-317.1" y1="644.2" x2="-317.1" y2="691.8"/>
		<line class="st3" x1="-305.3" y1="644.2" x2="-305.3" y2="691.8"/>
		<line class="st3" x1="-346.7" y1="644.2" x2="-346.7" y2="691.8"/>
		<line class="st3" x1="-349.8" y1="668" x2="-302.2" y2="668"/>
		<line class="st3" x1="-349.8" y1="659.1" x2="-302.2" y2="659.1"/>
		<line class="st3" x1="-349.8" y1="676.9" x2="-302.2" y2="676.9"/>
		<line class="st3" x1="-349.8" y1="688.7" x2="-302.2" y2="688.7"/>
		<line class="st3" x1="-349.8" y1="647.3" x2="-302.2" y2="647.3"/>
		<line class="st3" x1="-349.8" y1="644.2" x2="-302.2" y2="691.8"/>
		<line class="st3" x1="-349.8" y1="691.8" x2="-302.2" y2="644.2"/>
		<circle class="st3" cx="-326" cy="668" r="12.5"/>
		<circle class="st3" cx="-326" cy="668" r="20.7"/>
		<g id="_x31_20px_icon_102_">
			<path id="Rectangle_7_102_" class="st3" d="M-335.1,691.8c-5.4,0-8.5,0-11.6-3.1c-3.1-3.1-3.1-6.2-3.1-11.6v-18.2
				c0-5.4,0-8.5,3.1-11.6c3.1-3.1,6.2-3.1,11.6-3.1h18.2c5.4,0,8.5,0,11.6,3.1c3.1,3.1,3.1,6.2,3.1,11.6v18.2c0,5.4,0,8.5-3.1,11.6
				c-3.1,3.1-6.2,3.1-11.6,3.1C-316.9,691.8-335.1,691.8-335.1,691.8z"/>
		</g>
		<path class="st3" d="M-326,653.2"/>
		<circle class="st3" cx="-326" cy="668" r="8.8"/>
		<path class="st3" d="M-319.3,669.1c0.1-0.4,0.1-0.7,0.1-1.1s0-0.8-0.1-1.1c-0.5-2.8-2.7-5.1-5.6-5.6c-0.4-0.1-0.8-0.1-1.1-0.1
			c-0.4,0-0.8,0-1.1,0.1c-2.9,0.5-5.1,2.7-5.6,5.6c-0.1,0.4-0.1,0.7-0.1,1.1s0,0.8,0.1,1.1c0.5,2.9,2.7,5.1,5.6,5.6
			c0.4,0.1,0.7,0.1,1.1,0.1s0.8,0,1.1-0.1C-322,674.2-319.8,672-319.3,669.1z"/>
	</g>
</g>
<g id="icon">
	<path class="st4" d="M-312.5,663.2c0,0-1.4,0-2.4,0c-0.2,0-0.3,0.1-0.4,0.2l-1.4-3.3c-0.6-1.5-2.4-2.7-4-2.7h-10.5
		c-1.6,0-3.4,1.1-4,2.6l-1.4,3.3c-0.1-0.1-0.2-0.2-0.4-0.2c-1,0-2.4,0-2.4,0s-0.5,0-0.5,0.5s0.5,1.4,0.5,1.4s0.2,0.5,0.7,0.5
		c0.1,0,0.4,0,0.6,0c-0.4,0.5-0.6,1.2-0.6,1.9l0.5,5.8c0.1,0.7,0.3,1.3,0.7,1.7c0,0.1,0,0.1,0,0.2v2.4c0,0.5,0.4,1,1,1h2.4
		c0.5,0,1-0.4,1-1v-1.4h14.4v1.4c0,0.5,0.4,1,1,1h2.4c0.5,0,1-0.4,1-1v-2.4c0-0.1,0-0.1,0-0.2c0.4-0.5,0.7-1.1,0.7-1.7l0.5-5.8
		c0.1-0.7-0.2-1.4-0.6-1.9c0.3,0,0.5,0,0.7,0c0.5,0,0.7-0.5,0.7-0.5s0.5-1,0.5-1.4C-312,663.2-312.5,663.2-312.5,663.2z M-334.9,671
		c-1,0-1.8-0.8-1.8-1.8s0.8-1.8,1.8-1.8s1.8,0.8,1.8,1.8S-333.9,671-334.9,671z M-321.3,669.3l-0.3,0.7c-0.3,0.7-1.2,1.3-2,1.3h-4.8
		c-0.8,0-1.7-0.6-2-1.3l-0.3-0.7c-0.3-0.7,0.1-1.3,0.9-1.3h7.7C-321.4,668-321,668.6-321.3,669.3z M-334.1,664.6l1.5-3.4
		c0.2-0.4,0.9-0.9,1.4-0.9h10.5c0.5,0,1.1,0.4,1.3,0.9l1.4,3.4H-334.1z M-317.1,671c-1,0-1.8-0.8-1.8-1.8s0.8-1.8,1.8-1.8
		s1.8,0.8,1.8,1.8S-316.1,671-317.1,671z"/>
</g>
</svg>
