<?xml version="1.0" encoding="utf-8"?>
<!-- Generator: Adobe Illustrator 19.0.0, SVG Export Plug-In . SVG Version: 6.00 Build 0)  -->
<svg version="1.1" id="Layer_1" xmlns="http://www.w3.org/2000/svg" xmlns:xlink="http://www.w3.org/1999/xlink" x="0px" y="0px"
	 viewBox="-350 644 48 48" style="enable-background:new -350 644 48 48;" xml:space="preserve">
<style type="text/css">
	.st0{display:none;}
	.st1{display:inline;fill:#E6E7E8;}
	.st2{display:inline;}
	.st3{fill:none;stroke:#544841;stroke-width:8.061200e-02;stroke-miterlimit:10;}
	.st4{fill:#A7B6BF;}
</style>
<g id="bg" class="st0">
	<path class="st1" d="M-660.6,1336h-30.8c-4.7,0-8.6-3.9-8.6-8.6v-30.8c0-4.7,3.9-8.6,8.6-8.6h30.8c4.7,0,8.6,3.9,8.6,8.6v30.8
		C-652,1332.1-655.9,1336-660.6,1336z"/>
</g>
<g id="lines" class="st0">
	<g class="st2">
		<line class="st3" x1="-676.1" y1="1288.2" x2="-676.1" y2="1335.8"/>
		<line class="st3" x1="-684.9" y1="1288.2" x2="-684.9" y2="1335.8"/>
		<line class="st3" x1="-667.1" y1="1288.2" x2="-667.1" y2="1335.8"/>
		<line class="st3" x1="-655.3" y1="1288.2" x2="-655.3" y2="1335.8"/>
		<line class="st3" x1="-696.8" y1="1288.2" x2="-696.8" y2="1335.8"/>
		<line class="st3" x1="-699.9" y1="1312" x2="-652.1" y2="1312"/>
		<line class="st3" x1="-699.9" y1="1303.2" x2="-652.1" y2="1303.2"/>
		<line class="st3" x1="-699.9" y1="1320.8" x2="-652.1" y2="1320.8"/>
		<line class="st3" x1="-699.9" y1="1332.8" x2="-652.1" y2="1332.8"/>
		<line class="st3" x1="-699.9" y1="1291.2" x2="-652.1" y2="1291.2"/>
		<line class="st3" x1="-699.9" y1="1288.2" x2="-652.1" y2="1335.8"/>
		<line class="st3" x1="-699.9" y1="1335.8" x2="-652.1" y2="1288.2"/>
		<circle class="st3" cx="-676.1" cy="1312" r="12.5"/>
		<circle class="st3" cx="-676.1" cy="1312" r="20.7"/>
		<g id="_x31_20px_icon_102_">
			<path id="Rectangle_7_102_" class="st3" d="M-685.1,1335.8c-5.4,0-8.5,0-11.6-3.1c-3.1-3.1-3.1-6.2-3.1-11.6V1303
				c0-5.4,0-8.5,3.1-11.7c3.1-3.1,6.2-3.1,11.6-3.1h18.2c5.4,0,8.5,0,11.6,3.1c3.1,3.1,3.1,6.2,3.1,11.6v18.2c0,5.4,0,8.5-3.1,11.6
				c-3,3.2-6.2,3.2-11.6,3.2L-685.1,1335.8L-685.1,1335.8z"/>
		</g>
		<path class="st3" d="M-676.1,1297.2"/>
		<circle class="st3" cx="-676.1" cy="1312" r="8.8"/>
		<path class="st3" d="M-669.4,1313.2c0.1-0.4,0.1-0.7,0.1-1.1c0-0.4,0-0.8-0.1-1.1c-0.5-2.8-2.7-5.1-5.6-5.6
			c-0.4-0.1-0.8-0.1-1.1-0.1c-0.4,0-0.8,0-1.1,0.1c-2.9,0.5-5.1,2.7-5.6,5.6c-0.1,0.4-0.1,0.7-0.1,1.1c0,0.4,0,0.8,0.1,1.1
			c0.5,2.9,2.7,5.1,5.6,5.6c0.4,0.1,0.7,0.1,1.1,0.1c0.4,0,0.8,0,1.1-0.1C-672.1,1318.2-669.9,1315.9-669.4,1313.2z"/>
	</g>
</g>
<path id="help_2_" class="st4" d="M-316.8,658.8c-5.1-5.1-13.3-5.1-18.4,0s-5.1,13.3,0,18.4s13.3,5.1,18.4,0
	C-311.7,672.1-311.7,663.9-316.8,658.8z M-318.7,669.8c0.1-0.6,0.3-1.2,0.3-1.8c0-1-0.2-1.9-0.5-2.7l2.6-2.6c1.7,3,1.8,6.7,0.4,9.9
	L-318.7,669.8z M-331.5,668c0-3,2.5-5.5,5.5-5.5s5.5,2.5,5.5,5.5s-2.5,5.5-5.5,5.5S-331.5,671-331.5,668z M-320.6,658.4l-2.6,2.6
	c-0.8-0.3-1.8-0.5-2.7-0.5c-0.6,0-1.2,0.1-1.8,0.3l-2.7-2.7c1.4-0.6,3-1,4.6-1C-324.1,657-322.2,657.5-320.6,658.4z M-335.1,661.9
	l2.5,2.5c-0.6,1-0.9,2.3-0.9,3.6c0,1,0.2,1.9,0.5,2.7l-2.6,2.6C-337.5,669.8-337.4,665.3-335.1,661.9z M-331.4,677.6l2.6-2.6
	c0.8,0.3,1.8,0.5,2.7,0.5c1.3,0,2.5-0.3,3.6-0.9l2.5,2.5c-1.8,1.2-3.9,1.8-6.1,1.8C-327.9,678.9-329.8,678.5-331.4,677.6z"/>
</svg>
