<?xml version="1.0" encoding="utf-8"?>
<!-- Generator: Adobe Illustrator 18.0.0, SVG Export Plug-In . SVG Version: 6.00 Build 0)  -->
<!DOCTYPE svg PUBLIC "-//W3C//DTD SVG 1.1//EN" "http://www.w3.org/Graphics/SVG/1.1/DTD/svg11.dtd">
<svg version="1.1" xmlns="http://www.w3.org/2000/svg" xmlns:xlink="http://www.w3.org/1999/xlink" x="0px" y="0px"
	 viewBox="0 0 48 48" enable-background="new 0 0 48 48" xml:space="preserve">
<g id="bg" display="none">
	<path display="inline" fill-rule="evenodd" clip-rule="evenodd" fill="#E6E7E8" d="M39.4,48H8.6C3.9,48,0,44.1,0,39.4V8.6
		C0,3.9,3.9,0,8.6,0h30.8C44.1,0,48,3.9,48,8.6v30.8C48,44.1,44.1,48,39.4,48z"/>
</g>
<g id="lines" display="none">
	<g display="inline">
		<line fill="none" stroke="#544841" stroke-width="8.061200e-02" stroke-miterlimit="10" x1="24" y1="0.2" x2="24" y2="47.8"/>
		<line fill="none" stroke="#544841" stroke-width="8.061200e-02" stroke-miterlimit="10" x1="15.1" y1="0.2" x2="15.1" y2="47.8"/>
		<line fill="none" stroke="#544841" stroke-width="8.061200e-02" stroke-miterlimit="10" x1="32.9" y1="0.2" x2="32.9" y2="47.8"/>
		<line fill="none" stroke="#544841" stroke-width="8.061200e-02" stroke-miterlimit="10" x1="44.7" y1="0.2" x2="44.7" y2="47.8"/>
		<line fill="none" stroke="#544841" stroke-width="8.061200e-02" stroke-miterlimit="10" x1="3.3" y1="0.2" x2="3.3" y2="47.8"/>
		<line fill="none" stroke="#544841" stroke-width="8.061200e-02" stroke-miterlimit="10" x1="0.2" y1="24" x2="47.8" y2="24"/>
		<line fill="none" stroke="#544841" stroke-width="8.061200e-02" stroke-miterlimit="10" x1="0.2" y1="15.1" x2="47.8" y2="15.1"/>
		<line fill="none" stroke="#544841" stroke-width="8.061200e-02" stroke-miterlimit="10" x1="0.2" y1="32.9" x2="47.8" y2="32.9"/>
		<line fill="none" stroke="#544841" stroke-width="8.061200e-02" stroke-miterlimit="10" x1="0.2" y1="44.7" x2="47.8" y2="44.7"/>
		<line fill="none" stroke="#544841" stroke-width="8.061200e-02" stroke-miterlimit="10" x1="0.2" y1="3.3" x2="47.8" y2="3.3"/>
		<line fill="none" stroke="#544841" stroke-width="8.061200e-02" stroke-miterlimit="10" x1="0.2" y1="0.2" x2="47.8" y2="47.8"/>
		<line fill="none" stroke="#544841" stroke-width="8.061200e-02" stroke-miterlimit="10" x1="0.2" y1="47.8" x2="47.8" y2="0.2"/>
		<circle fill="none" stroke="#544841" stroke-width="8.061200e-02" stroke-miterlimit="10" cx="24" cy="24" r="12.5"/>
		<circle fill="none" stroke="#544841" stroke-width="8.061200e-02" stroke-miterlimit="10" cx="24" cy="24" r="20.7"/>
		<g id="_x31_20px_icon_102_">
			<path id="Rectangle_7_102_" fill="none" stroke="#544841" stroke-width="8.061200e-02" stroke-miterlimit="10" d="M14.9,47.8
				c-5.4,0-8.5,0-11.6-3.1c-3.1-3.1-3.1-6.2-3.1-11.6V14.9c0-5.4,0-8.5,3.1-11.6c3.1-3.1,6.2-3.1,11.6-3.1h18.2
				c5.4,0,8.5,0,11.6,3.1c3.1,3.1,3.1,6.2,3.1,11.6v18.2c0,5.4,0,8.5-3.1,11.6c-3.1,3.1-6.2,3.1-11.6,3.1H14.9z"/>
		</g>
		<path fill="none" stroke="#544841" stroke-width="8.061200e-02" stroke-miterlimit="10" d="M24,9.2"/>
		<circle fill="none" stroke="#544841" stroke-width="8.061200e-02" stroke-miterlimit="10" cx="24" cy="24" r="8.8"/>
		<path fill="none" stroke="#544841" stroke-width="8.061200e-02" stroke-miterlimit="10" d="M30.7,25.1c0.1-0.4,0.1-0.7,0.1-1.1
			c0-0.4,0-0.8-0.1-1.1c-0.5-2.8-2.7-5.1-5.6-5.6c-0.4-0.1-0.8-0.1-1.1-0.1c-0.4,0-0.8,0-1.1,0.1c-2.9,0.5-5.1,2.7-5.6,5.6
			c-0.1,0.4-0.1,0.7-0.1,1.1c0,0.4,0,0.8,0.1,1.1c0.5,2.9,2.7,5.1,5.6,5.6c0.4,0.1,0.7,0.1,1.1,0.1c0.4,0,0.8,0,1.1-0.1
			C28,30.2,30.2,28,30.7,25.1z"/>
	</g>
</g>
<g id="icon">
	<g>
		<path fill="#A7A9AC" d="M12.5,15.8c0.1,0.1,0.1,0.1,0.2,0.2c1,1,1.9,1.9,2.9,2.9c0.6,0.6,1.3,0.6,2,0c0.4-0.4,0.8-0.8,1.2-1.2
			c0.5-0.5,0.5-1.3,0-1.8c-1-1-2-2-3-3c-0.1-0.1-0.1-0.1-0.2-0.2c0.6-0.3,1.3-0.4,2-0.4c3.5-0.1,6.1,2.9,5.7,6.3
			c0,0.2,0.1,0.4,0.2,0.5c3.8,3.8,7.6,7.6,11.4,11.4c1.3,1.3,1.4,3.2,0.3,4.5c-1.2,1.5-3.4,1.6-4.8,0.2c-3.9-3.9-7.7-7.7-11.6-11.6
			c-0.2-0.2-0.3-0.2-0.5-0.2c-3.3,0.2-5.9-2.2-6-5.5C12.2,17.1,12.3,16.2,12.5,15.8z M31,32.8c0,0.9,0.8,1.7,1.7,1.7
			c0.9,0,1.7-0.8,1.7-1.7c0-0.9-0.8-1.7-1.7-1.7C31.8,31.1,31,31.8,31,32.8z"/>
		<path fill="#A7A9AC" d="M27.6,21.4c-0.4-0.4-0.7-0.7-1.1-1.1c0.1-0.1,0.2-0.1,0.3-0.2c2-2,4-3.9,5.9-5.9c0,0,0.1-0.1,0.1-0.1
			c0.2-0.2,0.3-0.4,0.1-0.6c-0.2-0.2-0.4-0.2-0.6,0.1c-1.9,1.9-3.9,3.9-5.8,5.8c-0.2,0.2-0.3,0.3-0.5,0.5c-0.3-0.3-0.6-0.6-0.9-0.9
			c0.1-0.1,0.1-0.1,0.2-0.2c2-2,3.9-3.9,5.9-5.9c1.4-1.4,3.8-1,4.5,0.9c0.4,1.1,0.2,2.1-0.6,2.9c-2,2-4,4-6.1,6.1c0,0-0.1,0-0.1,0.1
			c-0.3-0.3-0.6-0.6-0.9-1c0,0,0.2-0.1,0.2-0.1c2-2,4-4,6-6c0.1-0.1,0.1-0.1,0.2-0.2c0.1-0.2,0.1-0.3,0-0.5
			c-0.1-0.2-0.3-0.2-0.5-0.1c-0.1,0.1-0.2,0.1-0.2,0.2c-2,2-4,4-6,6C27.7,21.3,27.7,21.3,27.6,21.4z"/>
		<path fill="#A7A9AC" d="M13.2,35.9c-0.4-0.4-0.7-0.7-1.1-1.1c0.2-0.3,0.3-0.5,0.5-0.8c0.7-1.1,1.5-2.3,2.2-3.4
			c0.1-0.1,0.2-0.2,0.4-0.3c1-0.1,1.7-0.5,2.3-1.2c0.8-0.9,1.8-1.8,2.6-2.6c0.4,0.4,0.9,0.9,1.3,1.3c0,0,0,0-0.1,0.1
			c-1.1,1.1-2.2,2.2-3.3,3.3c-0.1,0.1-0.2,0.3-0.2,0.4c-0.1,0.4-0.2,0.8-0.3,1.2c0,0.1-0.1,0.2-0.1,0.2C16,34.1,14.6,35,13.2,35.9z"
			/>
	</g>
</g>
</svg>
