<?xml version="1.0" encoding="utf-8"?>
<!-- Generator: Adobe Illustrator 19.0.0, SVG Export Plug-In . SVG Version: 6.00 Build 0)  -->
<svg version="1.1" id="Layer_1" xmlns="http://www.w3.org/2000/svg" xmlns:xlink="http://www.w3.org/1999/xlink" x="0px" y="0px"
	 viewBox="-350 644 48 48" style="enable-background:new -350 644 48 48;" xml:space="preserve">
<style type="text/css">
	.st0{display:none;}
	.st1{display:inline;fill:#E6E7E8;}
	.st2{display:inline;}
	.st3{fill:none;stroke:#544841;stroke-width:8.061200e-02;stroke-miterlimit:10;}
	.st4{fill:#A7A9AC;}
	.st5{fill:#A7B6BF;}
</style>
<g id="bg" class="st0">
	<path class="st1" d="M-1148.6,1826h-30.8c-4.7,0-8.6-3.9-8.6-8.6v-30.8c0-4.7,3.9-8.6,8.6-8.6h30.8c4.7,0,8.6,3.9,8.6,8.6v30.8
		C-1140,1822.1-1143.9,1826-1148.6,1826z"/>
</g>
<g id="lines" class="st0">
	<g class="st2">
		<line class="st3" x1="-1164" y1="1778.2" x2="-1164" y2="1825.8"/>
		<line class="st3" x1="-1172.9" y1="1778.2" x2="-1172.9" y2="1825.8"/>
		<line class="st3" x1="-1155.1" y1="1778.2" x2="-1155.1" y2="1825.8"/>
		<line class="st3" x1="-1143.3" y1="1778.2" x2="-1143.3" y2="1825.8"/>
		<line class="st3" x1="-1184.7" y1="1778.2" x2="-1184.7" y2="1825.8"/>
		<line class="st3" x1="-1187.8" y1="1802" x2="-1140.2" y2="1802"/>
		<line class="st3" x1="-1187.8" y1="1793.1" x2="-1140.2" y2="1793.1"/>
		<line class="st3" x1="-1187.8" y1="1810.9" x2="-1140.2" y2="1810.9"/>
		<line class="st3" x1="-1187.8" y1="1822.7" x2="-1140.2" y2="1822.7"/>
		<line class="st3" x1="-1187.8" y1="1781.3" x2="-1140.2" y2="1781.3"/>
		<line class="st3" x1="-1187.8" y1="1778.2" x2="-1140.2" y2="1825.8"/>
		<line class="st3" x1="-1187.8" y1="1825.8" x2="-1140.2" y2="1778.2"/>
		<circle class="st3" cx="-1164" cy="1802" r="12.5"/>
		<circle class="st3" cx="-1164" cy="1802" r="20.7"/>
		<g id="_x31_20px_icon_102_">
			<path id="Rectangle_7_102_" class="st3" d="M-1173.1,1825.8c-5.4,0-8.5,0-11.6-3.1s-3.1-6.2-3.1-11.6v-18.2c0-5.4,0-8.5,3.1-11.6
				s6.2-3.1,11.6-3.1h18.2c5.4,0,8.5,0,11.6,3.1c3.1,3.1,3.1,6.2,3.1,11.6v18.2c0,5.4,0,8.5-3.1,11.6c-3.1,3.1-6.2,3.1-11.6,3.1
				H-1173.1z"/>
		</g>
		<path class="st3" d="M-1164,1787.2"/>
		<circle class="st3" cx="-1164" cy="1802" r="8.8"/>
		<path class="st3" d="M-1157.3,1803.1c0.1-0.4,0.1-0.7,0.1-1.1s0-0.8-0.1-1.1c-0.5-2.8-2.7-5.1-5.6-5.6c-0.4-0.1-0.8-0.1-1.1-0.1
			c-0.4,0-0.8,0-1.1,0.1c-2.9,0.5-5.1,2.7-5.6,5.6c-0.1,0.4-0.1,0.7-0.1,1.1s0,0.8,0.1,1.1c0.5,2.9,2.7,5.1,5.6,5.6
			c0.4,0.1,0.7,0.1,1.1,0.1c0.4,0,0.8,0,1.1-0.1C-1160,1808.2-1157.8,1806-1157.3,1803.1z"/>
	</g>
</g>
<g id="icon" class="st0">
	<g class="st2">
		<g>
			<path class="st4" d="M-1152.8,1794.9h-12.7h-8.2v15h-1.5v-16.5h10.5c0-0.8-0.7-1.5-1.5-1.5h-9c-0.8,0-1.5,0.7-1.5,1.5v17.2
				c0,0.8,0.7,1.5,1.5,1.5h22.4c0.8,0,1.5-0.7,1.5-1.5v-14.2C-1151.3,1795.6-1152,1794.9-1152.8,1794.9z"/>
		</g>
	</g>
</g>
<path class="st5" d="M-314.3,663.8h-23.3c-0.6,0-1.1,0.5-1.1,1.1v12.7c0,0.6,0.5,1.1,1.1,1.1h23.3c0.6,0,1.1-0.5,1.1-1.1v-12.7
	C-313.2,664.2-313.8,663.8-314.3,663.8z M-314.3,660.5h-12.2l-2.1-2.1c-0.6-0.6-1.2-1.1-2.1-1.1h-6.9c-0.6,0-1.1,0.5-1.1,1.1v4.2
	h25.4v-1.1C-313.2,661-313.8,660.5-314.3,660.5z"/>
</svg>
