<?xml version="1.0" encoding="utf-8"?>
<!-- Generator: Adobe Illustrator 18.0.0, SVG Export Plug-In . SVG Version: 6.00 Build 0)  -->
<!DOCTYPE svg PUBLIC "-//W3C//DTD SVG 1.1//EN" "http://www.w3.org/Graphics/SVG/1.1/DTD/svg11.dtd">
<svg version="1.1" id="Layer_1" xmlns="http://www.w3.org/2000/svg" xmlns:xlink="http://www.w3.org/1999/xlink" x="0px" y="0px"
	 viewBox="0 0 612 792" enable-background="new 0 0 612 792" xml:space="preserve">
<g id="icon_x5F_grid" display="none">
	<path display="inline" fill="#E6E7E8" d="M496.4,698.7H108.9C48.9,698.7,0,650.5,0,590.5V203C0,143,48.9,94.1,108.9,94.1h387.5
		c60,0,108.9,48.9,108.9,108.9v387.5C604.6,650.5,556.4,698.7,496.4,698.7z"/>
</g>
<g id="icon_x5F_align" display="none">
	<g display="inline">
		<line fill="none" stroke="#544741" stroke-width="0.1371" stroke-miterlimit="10" x1="306.7" y1="96.3" x2="306.7" y2="697.2"/>
		<line fill="none" stroke="#544741" stroke-width="0.1371" stroke-miterlimit="10" x1="194.9" y1="96.3" x2="194.9" y2="697.2"/>
		<line fill="none" stroke="#544741" stroke-width="0.1371" stroke-miterlimit="10" x1="418.6" y1="96.3" x2="418.6" y2="697.2"/>
		<line fill="none" stroke="#544741" stroke-width="0.1371" stroke-miterlimit="10" x1="568.3" y1="96.3" x2="568.3" y2="697.2"/>
		<line fill="none" stroke="#544741" stroke-width="0.1371" stroke-miterlimit="10" x1="45.9" y1="96.3" x2="45.9" y2="697.2"/>
		<line fill="none" stroke="#544741" stroke-width="0.1371" stroke-miterlimit="10" x1="6.7" y1="396.4" x2="606.8" y2="396.4"/>
		<line fill="none" stroke="#544741" stroke-width="0.1371" stroke-miterlimit="10" x1="6.7" y1="285.2" x2="606.8" y2="285.2"/>
		<line fill="none" stroke="#544741" stroke-width="0.1371" stroke-miterlimit="10" x1="6.7" y1="508.2" x2="606.8" y2="508.2"/>
		<line fill="none" stroke="#544741" stroke-width="0.1371" stroke-miterlimit="10" x1="6.7" y1="657.9" x2="606.8" y2="657.9"/>
		<line fill="none" stroke="#544741" stroke-width="0.1371" stroke-miterlimit="10" x1="6.7" y1="135.6" x2="606.8" y2="135.6"/>
		<line fill="none" stroke="#544741" stroke-width="0.1371" stroke-miterlimit="10" x1="6.7" y1="96.3" x2="606.8" y2="697.2"/>
		<line fill="none" stroke="#544741" stroke-width="0.1371" stroke-miterlimit="10" x1="6.7" y1="697.2" x2="606.8" y2="96.3"/>
		<circle fill="none" stroke="#544741" stroke-width="0.1371" stroke-miterlimit="10" cx="306.7" cy="396.4" r="157.8"/>
		<circle fill="none" stroke="#544741" stroke-width="0.1371" stroke-miterlimit="10" cx="306.7" cy="396.4" r="260.8"/>
		<g id="_x31_20px_icon_102_">
			<path id="Rectangle_7_102_" fill="none" stroke="#544741" stroke-width="0.1371" stroke-miterlimit="10" d="M191.9,697.2
				c-68.2,0-107.4,0-146.7-39.3S5.9,579.4,5.9,511.2V281.5c0-68.2,0-107.4,39.3-146.7s78.5-39.3,146.7-39.3h229.7
				c68.2,0,107.4,0,146.7,39.3c39.3,39.3,39.3,78.5,39.3,146.7v229.7c0,68.2,0,107.4-39.3,146.7c-39.3,39.3-78.5,39.3-146.7,39.3
				H191.9z"/>
		</g>
		<path fill="none" stroke="#544741" stroke-width="0.1371" stroke-miterlimit="10" d="M306.7,209.7"/>
		<circle fill="none" stroke="#544741" stroke-width="0.1371" stroke-miterlimit="10" cx="306.7" cy="396.4" r="111.1"/>
		<path fill="none" stroke="#544741" stroke-width="0.1371" stroke-miterlimit="10" d="M391.2,410.4c0.7-4.4,1.5-9.6,1.5-14.1
			s-0.7-9.6-1.5-14.1c-5.9-35.6-34.1-64.5-70.4-70.4c-4.4-0.7-9.6-1.5-14.1-1.5c-4.4,0-9.6,0.7-14.1,1.5
			c-36.3,5.9-64.5,34.1-70.4,70.4c-0.7,4.4-1.5,8.9-1.5,14.1c0,4.4,0.7,9.6,1.5,14.1c5.9,36.3,34.1,64.5,70.4,70.4
			c4.4,0.7,9.6,1.5,14.1,1.5c5.2,0,9.6-0.7,14.1-1.5C356.4,474.9,385.3,446.8,391.2,410.4z"/>
	</g>
</g>
<g id="icon">
	<path fill="#A7A9AC" d="M507.4,374.5L377,244.1c-1.9-1.9-5.8-2.9-8.6-1.9c-2.9,1-4.8,3.8-4.8,6.7v59.4c0,1.9-1,2.9-1.9,3.8
		s-2.9,1.9-3.8,1.9h-84.4v130.4h84.4c2.9,0,5.8,2.9,5.8,5.8v59.4c0,2.9,1.9,5.8,4.8,6.7c2.9,1,5.8,1,8.6-1.9l130.4-130.4
		C510.2,382.2,510.2,377.4,507.4,374.5L507.4,374.5z M98,408.1l129.4-130.4c1.9-1.9,5.8-2.9,8.6-1.9c2.9,1,4.8,3.8,4.8,6.7v59.4
		c0,1.9,1,2.9,1.9,3.8c1,1,2.9,1.9,3.8,1.9H260v14.4h-28.8c-1,0-1.9,0-2.9-1c0,0-1-1-1-1.9v-46c0-1.9-1-4.8-3.8-5.8
		c-1.9-1-4.8,0-6.7,1L117.1,409c-1.9,1.9-1.9,5.8,0,8.6l100.7,100.7c1.9,1.9,3.8,1.9,6.7,1c1.9-1,3.8-2.9,3.8-5.8v-46
		c0-1.9,1.9-4.8,4.8-4.8H352v14.4H246.6c-2.9,0-5.8,2.9-5.8,5.8v59.4c0,2.9-1.9,5.8-4.8,6.7c-2.9,1-5.8,1-8.6-1.9L98,418.6
		C95.1,415.7,95.1,410.9,98,408.1z"/>
</g>
</svg>
