<?xml version="1.0" encoding="utf-8"?>
<!-- Generator: Adobe Illustrator 18.0.0, SVG Export Plug-In . SVG Version: 6.00 Build 0)  -->
<!DOCTYPE svg PUBLIC "-//W3C//DTD SVG 1.1//EN" "http://www.w3.org/Graphics/SVG/1.1/DTD/svg11.dtd">
<svg version="1.1" xmlns="http://www.w3.org/2000/svg" xmlns:xlink="http://www.w3.org/1999/xlink" x="0px" y="0px"
	 viewBox="0 0 48 48" enable-background="new 0 0 48 48" xml:space="preserve">
<g id="bg" display="none">
	<path display="inline" fill-rule="evenodd" clip-rule="evenodd" fill="#E6E7E8" d="M39.4,48H8.6C3.9,48,0,44.1,0,39.4V8.6
		C0,3.9,3.9,0,8.6,0h30.8C44.1,0,48,3.9,48,8.6v30.8C48,44.1,44.1,48,39.4,48z"/>
</g>
<g id="lines" display="none">
	<g display="inline">
		<line fill="none" stroke="#544841" stroke-width="8.061200e-02" stroke-miterlimit="10" x1="24" y1="0.2" x2="24" y2="47.8"/>
		<line fill="none" stroke="#544841" stroke-width="8.061200e-02" stroke-miterlimit="10" x1="15.1" y1="0.2" x2="15.1" y2="47.8"/>
		<line fill="none" stroke="#544841" stroke-width="8.061200e-02" stroke-miterlimit="10" x1="32.9" y1="0.2" x2="32.9" y2="47.8"/>
		<line fill="none" stroke="#544841" stroke-width="8.061200e-02" stroke-miterlimit="10" x1="44.7" y1="0.2" x2="44.7" y2="47.8"/>
		<line fill="none" stroke="#544841" stroke-width="8.061200e-02" stroke-miterlimit="10" x1="3.3" y1="0.2" x2="3.3" y2="47.8"/>
		<line fill="none" stroke="#544841" stroke-width="8.061200e-02" stroke-miterlimit="10" x1="0.2" y1="24" x2="47.8" y2="24"/>
		<line fill="none" stroke="#544841" stroke-width="8.061200e-02" stroke-miterlimit="10" x1="0.2" y1="15.1" x2="47.8" y2="15.1"/>
		<line fill="none" stroke="#544841" stroke-width="8.061200e-02" stroke-miterlimit="10" x1="0.2" y1="32.9" x2="47.8" y2="32.9"/>
		<line fill="none" stroke="#544841" stroke-width="8.061200e-02" stroke-miterlimit="10" x1="0.2" y1="44.7" x2="47.8" y2="44.7"/>
		<line fill="none" stroke="#544841" stroke-width="8.061200e-02" stroke-miterlimit="10" x1="0.2" y1="3.3" x2="47.8" y2="3.3"/>
		<line fill="none" stroke="#544841" stroke-width="8.061200e-02" stroke-miterlimit="10" x1="0.2" y1="0.2" x2="47.8" y2="47.8"/>
		<line fill="none" stroke="#544841" stroke-width="8.061200e-02" stroke-miterlimit="10" x1="0.2" y1="47.8" x2="47.8" y2="0.2"/>
		<circle fill="none" stroke="#544841" stroke-width="8.061200e-02" stroke-miterlimit="10" cx="24" cy="24" r="12.5"/>
		<circle fill="none" stroke="#544841" stroke-width="8.061200e-02" stroke-miterlimit="10" cx="24" cy="24" r="20.7"/>
		<g id="_x31_20px_icon_102_">
			<path id="Rectangle_7_102_" fill="none" stroke="#544841" stroke-width="8.061200e-02" stroke-miterlimit="10" d="M14.9,47.8
				c-5.4,0-8.5,0-11.6-3.1c-3.1-3.1-3.1-6.2-3.1-11.6V14.9c0-5.4,0-8.5,3.1-11.6c3.1-3.1,6.2-3.1,11.6-3.1h18.2
				c5.4,0,8.5,0,11.6,3.1c3.1,3.1,3.1,6.2,3.1,11.6v18.2c0,5.4,0,8.5-3.1,11.6c-3.1,3.1-6.2,3.1-11.6,3.1H14.9z"/>
		</g>
		<path fill="none" stroke="#544841" stroke-width="8.061200e-02" stroke-miterlimit="10" d="M24,9.2"/>
		<circle fill="none" stroke="#544841" stroke-width="8.061200e-02" stroke-miterlimit="10" cx="24" cy="24" r="8.8"/>
		<path fill="none" stroke="#544841" stroke-width="8.061200e-02" stroke-miterlimit="10" d="M30.7,25.1c0.1-0.4,0.1-0.7,0.1-1.1
			c0-0.4,0-0.8-0.1-1.1c-0.5-2.8-2.7-5.1-5.6-5.6c-0.4-0.1-0.8-0.1-1.1-0.1c-0.4,0-0.8,0-1.1,0.1c-2.9,0.5-5.1,2.7-5.6,5.6
			c-0.1,0.4-0.1,0.7-0.1,1.1c0,0.4,0,0.8,0.1,1.1c0.5,2.9,2.7,5.1,5.6,5.6c0.4,0.1,0.7,0.1,1.1,0.1c0.4,0,0.8,0,1.1-0.1
			C28,30.2,30.2,28,30.7,25.1z"/>
	</g>
</g>
<g id="icon">
	<path fill-rule="evenodd" clip-rule="evenodd" fill="#A7A9AC" d="M13.5,21.2h21.8c0.5,0,0.8,0.3,0.9,1l-0.1,4c-0.5,1-1.2,1.7-2.3,2
		l-1,0c-0.2,0-0.3,0.1-0.3,0.2l-0.1,1.3c-0.4,1.7-1.5,2.6-3.2,3l-12.1,0c-1.8-0.2-3.1-1.2-3.5-3.6L13.5,21.2L13.5,21.2z M11.8,33.4
		h23.1l0,1l-1.1,0.1c-1,0.4-0.6,1-1.3,1.3l-18.6,0c-0.4-0.2-0.3-1-0.9-1.1l-1.3-0.2V33.4L11.8,33.4z M19.2,12.2l1.2,0
		c-0.6,1-0.9,1.9-0.5,3.1c0.4,0.6,0.8,1.7,0.7,2.4c0,0.8-0.5,1.4-0.8,2.1l-1.1-0.1c0.8-1.3,1.2-2.4,0.3-3.8
		c-0.4-0.6-0.5-1.4-0.3-2.4C18.8,13.1,19,12.6,19.2,12.2L19.2,12.2z M27.2,12.2l1.2,0c-0.6,1-0.9,1.9-0.5,3.1
		c0.4,0.6,0.8,1.7,0.7,2.4c0,0.8-0.5,1.4-0.8,2.1l-1.1-0.1c0.8-1.3,1.2-2.4,0.3-3.8c-0.4-0.6-0.5-1.4-0.3-2.4
		C26.9,13.1,27,12.6,27.2,12.2L27.2,12.2z M23.2,12.2l1.2,0c-0.6,1-0.9,1.9-0.5,3.1c0.4,0.6,0.8,1.7,0.7,2.4c0,0.8-0.5,1.4-0.8,2.1
		l-1.1-0.1c0.8-1.3,1.2-2.4,0.3-3.8c-0.4-0.6-0.5-1.4-0.3-2.4C22.8,13.1,23,12.6,23.2,12.2L23.2,12.2z M32.5,23.1l0,2.8
		c0.3,0.6,1.3,0.2,1.6,0c0.2-0.2,0.3-0.4,0.4-0.6l0-2c0-0.2-0.1-0.3-0.3-0.4l-1.2,0C32.7,22.9,32.6,23,32.5,23.1z"/>
</g>
</svg>
