<?xml version="1.0" encoding="utf-8"?>
<!-- Generator: Adobe Illustrator 18.0.0, SVG Export Plug-In . SVG Version: 6.00 Build 0)  -->
<!DOCTYPE svg PUBLIC "-//W3C//DTD SVG 1.1//EN" "http://www.w3.org/Graphics/SVG/1.1/DTD/svg11.dtd">
<svg version="1.1" xmlns="http://www.w3.org/2000/svg" xmlns:xlink="http://www.w3.org/1999/xlink" x="0px" y="0px"
	 viewBox="0 0 48 48" enable-background="new 0 0 48 48" xml:space="preserve">
<g id="bg" display="none">
	<path display="inline" fill-rule="evenodd" clip-rule="evenodd" fill="#E6E7E8" d="M39.4,48H8.6C3.9,48,0,44.1,0,39.4V8.6
		C0,3.9,3.9,0,8.6,0h30.8C44.1,0,48,3.9,48,8.6v30.8C48,44.1,44.1,48,39.4,48z"/>
</g>
<g id="lines" display="none">
	<g display="inline">
		<line fill="none" stroke="#544841" stroke-width="8.061200e-02" stroke-miterlimit="10" x1="24" y1="0.2" x2="24" y2="47.8"/>
		<line fill="none" stroke="#544841" stroke-width="8.061200e-02" stroke-miterlimit="10" x1="15.1" y1="0.2" x2="15.1" y2="47.8"/>
		<line fill="none" stroke="#544841" stroke-width="8.061200e-02" stroke-miterlimit="10" x1="32.9" y1="0.2" x2="32.9" y2="47.8"/>
		<line fill="none" stroke="#544841" stroke-width="8.061200e-02" stroke-miterlimit="10" x1="44.7" y1="0.2" x2="44.7" y2="47.8"/>
		<line fill="none" stroke="#544841" stroke-width="8.061200e-02" stroke-miterlimit="10" x1="3.3" y1="0.2" x2="3.3" y2="47.8"/>
		<line fill="none" stroke="#544841" stroke-width="8.061200e-02" stroke-miterlimit="10" x1="0.2" y1="24" x2="47.8" y2="24"/>
		<line fill="none" stroke="#544841" stroke-width="8.061200e-02" stroke-miterlimit="10" x1="0.2" y1="15.1" x2="47.8" y2="15.1"/>
		<line fill="none" stroke="#544841" stroke-width="8.061200e-02" stroke-miterlimit="10" x1="0.2" y1="32.9" x2="47.8" y2="32.9"/>
		<line fill="none" stroke="#544841" stroke-width="8.061200e-02" stroke-miterlimit="10" x1="0.2" y1="44.7" x2="47.8" y2="44.7"/>
		<line fill="none" stroke="#544841" stroke-width="8.061200e-02" stroke-miterlimit="10" x1="0.2" y1="3.3" x2="47.8" y2="3.3"/>
		<line fill="none" stroke="#544841" stroke-width="8.061200e-02" stroke-miterlimit="10" x1="0.2" y1="0.2" x2="47.8" y2="47.8"/>
		<line fill="none" stroke="#544841" stroke-width="8.061200e-02" stroke-miterlimit="10" x1="0.2" y1="47.8" x2="47.8" y2="0.2"/>
		<circle fill="none" stroke="#544841" stroke-width="8.061200e-02" stroke-miterlimit="10" cx="24" cy="24" r="12.5"/>
		<circle fill="none" stroke="#544841" stroke-width="8.061200e-02" stroke-miterlimit="10" cx="24" cy="24" r="20.7"/>
		<g id="_x31_20px_icon_102_">
			<path id="Rectangle_7_102_" fill="none" stroke="#544841" stroke-width="8.061200e-02" stroke-miterlimit="10" d="M14.9,47.8
				c-5.4,0-8.5,0-11.6-3.1c-3.1-3.1-3.1-6.2-3.1-11.6V14.9c0-5.4,0-8.5,3.1-11.6c3.1-3.1,6.2-3.1,11.6-3.1h18.2
				c5.4,0,8.5,0,11.6,3.1c3.1,3.1,3.1,6.2,3.1,11.6v18.2c0,5.4,0,8.5-3.1,11.6c-3.1,3.1-6.2,3.1-11.6,3.1H14.9z"/>
		</g>
		<path fill="none" stroke="#544841" stroke-width="8.061200e-02" stroke-miterlimit="10" d="M24,9.2"/>
		<circle fill="none" stroke="#544841" stroke-width="8.061200e-02" stroke-miterlimit="10" cx="24" cy="24" r="8.8"/>
		<path fill="none" stroke="#544841" stroke-width="8.061200e-02" stroke-miterlimit="10" d="M30.7,25.1c0.1-0.4,0.1-0.7,0.1-1.1
			c0-0.4,0-0.8-0.1-1.1c-0.5-2.8-2.7-5.1-5.6-5.6c-0.4-0.1-0.8-0.1-1.1-0.1c-0.4,0-0.8,0-1.1,0.1c-2.9,0.5-5.1,2.7-5.6,5.6
			c-0.1,0.4-0.1,0.7-0.1,1.1c0,0.4,0,0.8,0.1,1.1c0.5,2.9,2.7,5.1,5.6,5.6c0.4,0.1,0.7,0.1,1.1,0.1c0.4,0,0.8,0,1.1-0.1
			C28,30.2,30.2,28,30.7,25.1z"/>
	</g>
</g>
<g id="icon">
	<g>
		<path fill="#A7A9AC" d="M35.6,24.6c-0.3,0-0.6,0.3-0.6,0.6v8.2c0,1-0.8,1.7-1.7,1.7H14.7c-1,0-1.7-0.8-1.7-1.7V14.7
			c0-1,0.8-1.7,1.7-1.7h7.6c0.3,0,0.6-0.3,0.6-0.6c0-0.3-0.3-0.6-0.6-0.6h-7.6c-1.6,0-2.9,1.3-2.9,2.9v18.6c0,1.6,1.3,2.9,2.9,2.9
			h18.6c1.6,0,2.9-1.3,2.9-2.9v-8.2C36.2,24.8,36,24.6,35.6,24.6z"/>
		<path fill="#A7A9AC" d="M35.6,24.6v-0.8c-0.7,0-1.3,0.6-1.3,1.3v8.2c0,0.5-0.4,1-1,1H14.7c-0.5,0-1-0.4-1-1V14.7c0-0.5,0.4-1,1-1
			h7.6c0.7,0,1.3-0.6,1.3-1.3c0-0.7-0.6-1.3-1.3-1.3h-7.6c-2,0-3.7,1.6-3.7,3.7v18.6c0,2,1.6,3.7,3.7,3.7h18.6c2,0,3.7-1.6,3.7-3.7
			v-8.2c0-0.7-0.6-1.3-1.3-1.3V24.6v0.7v-0.2h-0.2c0,0.1,0.1,0.2,0.2,0.2v-0.2h-0.2v8.2c0,1.2-1,2.2-2.2,2.2H14.7
			c-1.2,0-2.2-1-2.2-2.2V14.7c0-1.2,1-2.2,2.2-2.2h7.6v-0.2h-0.2c0,0.1,0.1,0.2,0.2,0.2v-0.2h-0.2h0.2v-0.2c-0.1,0-0.2,0.1-0.2,0.2
			h0.2v-0.2h-7.6c-1.4,0-2.5,1.1-2.5,2.5v18.6c0,1.4,1.1,2.5,2.5,2.5h18.6c1.4,0,2.5-1.1,2.5-2.5v-8.2h-0.2l0,0.2
			c0.1,0,0.2-0.1,0.2-0.2h-0.2l0,0.2V24.6z"/>
		<path fill-rule="evenodd" clip-rule="evenodd" fill="#A7A9AC" d="M35.6,16.6L24.8,27.2c-0.1,0.1-0.1,0.2-0.2,0.3l-0.5,0.5
			c-0.3,0.3-0.6,0.4-0.7,0.3l-5.1-5.4c-0.1-0.1,0-0.5,0.3-0.7l0.5-0.5c0.3-0.3,0.6-0.4,0.7-0.3l3.9,4l10.5-10.3c0.3-0.3,0.7-0.3,1,0
			l0.5,0.5C35.9,15.9,35.9,16.3,35.6,16.6z"/>
		<path fill="#A7A9AC" d="M35.6,16.6l-0.5-0.5L24.2,26.7l0,0.1L24,26.9l-0.5,0.5l-0.1,0.1l0,0l0,0l0.1,0.3v-0.3l-0.1,0l0.1,0.3v-0.3
			v0.6l0.4-0.4c-0.1-0.1-0.3-0.2-0.4-0.2v0.6l0.4-0.4l-0.5,0.5l0.5-0.5l-5.1-5.4l0,0l-0.4,0.4l0.6,0c0-0.1,0-0.3-0.2-0.4l-0.4,0.4
			l0.6,0h-0.3l0.3,0.1l0-0.1h-0.3l0.3,0.1l0,0l0,0l0,0l0,0l0,0l0.1-0.2l0.5-0.5l0.1-0.1l0,0l0,0l-0.1-0.3V22l0.1,0l-0.1-0.3V22v-0.6
			l-0.4,0.4c0.1,0.1,0.3,0.2,0.4,0.2v-0.6l-0.4,0.4l0.5-0.5l-0.5,0.5l4.4,4.6l11-10.8l0,0l0,0v0l0,0l0,0v0v0l0,0l0,0v0l0,0l0.5,0.5
			l0,0h0l0,0l0,0h0h0l0,0l0,0h0l0,0L35.6,16.6l-0.5-0.5L35.6,16.6l0.5,0.5c0.3-0.3,0.4-0.7,0.4-1c0-0.4-0.1-0.8-0.4-1l-0.5-0.5
			c-0.3-0.3-0.7-0.4-1-0.4c-0.4,0-0.8,0.1-1,0.4l0.5,0.5l-0.5-0.5l-10,9.7l-3.3-3.5l0,0c-0.2-0.2-0.5-0.3-0.7-0.3
			c-0.3,0-0.5,0.1-0.6,0.2c-0.2,0.1-0.3,0.2-0.5,0.4l-0.5,0.5c-0.2,0.2-0.3,0.3-0.4,0.5c-0.1,0.2-0.2,0.4-0.2,0.6
			c0,0.2,0.1,0.5,0.3,0.7l0.5-0.5l-0.5,0.5l5.1,5.4l0,0C23,29,23.3,29,23.5,29c0.3,0,0.5-0.1,0.6-0.2c0.2-0.1,0.3-0.2,0.5-0.4
			l0.5-0.5c0.1-0.1,0.2-0.3,0.3-0.4l-0.6-0.4l0.5,0.5l10.8-10.6l0,0L35.6,16.6z"/>
	</g>
</g>
</svg>
