<?xml version="1.0" encoding="utf-8"?>
<!-- Generator: Adobe Illustrator 19.0.0, SVG Export Plug-In . SVG Version: 6.00 Build 0)  -->
<svg version="1.1" id="Layer_1" xmlns="http://www.w3.org/2000/svg" xmlns:xlink="http://www.w3.org/1999/xlink" x="0px" y="0px"
	 viewBox="-350 644 48 48" style="enable-background:new -350 644 48 48;" xml:space="preserve">
<style type="text/css">
	.st0{display:none;}
	.st1{display:inline;fill:#E6E7E8;}
	.st2{display:inline;}
	.st3{fill:none;stroke:#544841;stroke-width:8.061200e-02;stroke-miterlimit:10;}
	.st4{fill:#A7B6BF;}
</style>
<g id="bg" class="st0">
	<path class="st1" d="M-310.6,692h-30.8c-4.7,0-8.6-3.9-8.6-8.6v-30.8c0-4.7,3.9-8.6,8.6-8.6h30.8c4.7,0,8.6,3.9,8.6,8.6v30.8
		C-302,688.1-305.9,692-310.6,692z"/>
</g>
<g id="lines" class="st0">
	<g class="st2">
		<line class="st3" x1="-326" y1="644.2" x2="-326" y2="691.8"/>
		<line class="st3" x1="-334.9" y1="644.2" x2="-334.9" y2="691.8"/>
		<line class="st3" x1="-317.1" y1="644.2" x2="-317.1" y2="691.8"/>
		<line class="st3" x1="-305.3" y1="644.2" x2="-305.3" y2="691.8"/>
		<line class="st3" x1="-346.7" y1="644.2" x2="-346.7" y2="691.8"/>
		<line class="st3" x1="-349.8" y1="668" x2="-302.2" y2="668"/>
		<line class="st3" x1="-349.8" y1="659.1" x2="-302.2" y2="659.1"/>
		<line class="st3" x1="-349.8" y1="676.9" x2="-302.2" y2="676.9"/>
		<line class="st3" x1="-349.8" y1="688.7" x2="-302.2" y2="688.7"/>
		<line class="st3" x1="-349.8" y1="647.3" x2="-302.2" y2="647.3"/>
		<line class="st3" x1="-349.8" y1="644.2" x2="-302.2" y2="691.8"/>
		<line class="st3" x1="-349.8" y1="691.8" x2="-302.2" y2="644.2"/>
		<circle class="st3" cx="-326" cy="668" r="12.5"/>
		<circle class="st3" cx="-326" cy="668" r="20.7"/>
		<g id="_x31_20px_icon_102_">
			<path id="Rectangle_7_102_" class="st3" d="M-335.1,691.8c-5.4,0-8.5,0-11.6-3.1c-3.1-3.1-3.1-6.2-3.1-11.6v-18.2
				c0-5.4,0-8.5,3.1-11.6c3.1-3.1,6.2-3.1,11.6-3.1h18.2c5.4,0,8.5,0,11.6,3.1c3.1,3.1,3.1,6.2,3.1,11.6v18.2c0,5.4,0,8.5-3.1,11.6
				c-3.1,3.1-6.2,3.1-11.6,3.1C-316.9,691.8-335.1,691.8-335.1,691.8z"/>
		</g>
		<path class="st3" d="M-326,653.2"/>
		<circle class="st3" cx="-326" cy="668" r="8.8"/>
		<path class="st3" d="M-319.3,669.1c0.1-0.4,0.1-0.7,0.1-1.1s0-0.8-0.1-1.1c-0.5-2.8-2.7-5.1-5.6-5.6c-0.4-0.1-0.8-0.1-1.1-0.1
			c-0.4,0-0.8,0-1.1,0.1c-2.9,0.5-5.1,2.7-5.6,5.6c-0.1,0.4-0.1,0.7-0.1,1.1s0,0.8,0.1,1.1c0.5,2.9,2.7,5.1,5.6,5.6
			c0.4,0.1,0.7,0.1,1.1,0.1s0.8,0,1.1-0.1C-322,674.2-319.8,672-319.3,669.1z"/>
	</g>
</g>
<g id="icon">
	<path class="st4" d="M-333.1,661.9c1.1,0,2.1,0.3,2.9,0.8c0.5,0.4,1.3,0.3,1.8-0.1l6.1-4c0.4-0.3,0.8-0.8,0.8-1.4
		c0.1-2.2,2-4,4.2-4c2.3,0,4.2,2,4.2,4.3c0,3.1-3.1,5.1-5.8,4c-0.5-0.2-1.1-0.2-1.6,0.2l-5.3,3.5c-1,0.6-1.5,1.7-1.5,2.9l0,0
		c0,1.2,0.5,2.2,1.5,2.8l5.4,3.5c0.4,0.3,1.1,0.4,1.6,0.2c2.8-1.1,5.8,1,5.8,4c0,2.4-1.9,4.3-4.2,4.3c-2.2,0-4-1.8-4.2-4
		c0-0.5-0.4-1.1-0.8-1.4l-6.1-4c-0.5-0.4-1.3-0.4-1.8-0.1c-0.9,0.5-1.9,0.8-2.9,0.8c-3.2,0-5.9-2.7-5.9-6.1
		C-339,664.7-336.3,661.9-333.1,661.9z"/>
</g>
</svg>
