<?xml version="1.0" encoding="utf-8"?>
<!-- Generator: Adobe Illustrator 18.0.0, SVG Export Plug-In . SVG Version: 6.00 Build 0)  -->
<!DOCTYPE svg PUBLIC "-//W3C//DTD SVG 1.1//EN" "http://www.w3.org/Graphics/SVG/1.1/DTD/svg11.dtd">
<svg version="1.1" xmlns="http://www.w3.org/2000/svg" xmlns:xlink="http://www.w3.org/1999/xlink" x="0px" y="0px"
	 viewBox="0 0 48 48" enable-background="new 0 0 48 48" xml:space="preserve">
<g id="bg" display="none">
	<path display="inline" fill-rule="evenodd" clip-rule="evenodd" fill="#E6E7E8" d="M39.4,48H8.6C3.9,48,0,44.1,0,39.4V8.6
		C0,3.9,3.9,0,8.6,0h30.8C44.1,0,48,3.9,48,8.6v30.8C48,44.1,44.1,48,39.4,48z"/>
</g>
<g id="lines" display="none">
	<g display="inline">
		<line fill="none" stroke="#544841" stroke-width="8.061200e-02" stroke-miterlimit="10" x1="24" y1="0.2" x2="24" y2="47.8"/>
		<line fill="none" stroke="#544841" stroke-width="8.061200e-02" stroke-miterlimit="10" x1="15.1" y1="0.2" x2="15.1" y2="47.8"/>
		<line fill="none" stroke="#544841" stroke-width="8.061200e-02" stroke-miterlimit="10" x1="32.9" y1="0.2" x2="32.9" y2="47.8"/>
		<line fill="none" stroke="#544841" stroke-width="8.061200e-02" stroke-miterlimit="10" x1="44.7" y1="0.2" x2="44.7" y2="47.8"/>
		<line fill="none" stroke="#544841" stroke-width="8.061200e-02" stroke-miterlimit="10" x1="3.3" y1="0.2" x2="3.3" y2="47.8"/>
		<line fill="none" stroke="#544841" stroke-width="8.061200e-02" stroke-miterlimit="10" x1="0.2" y1="24" x2="47.8" y2="24"/>
		<line fill="none" stroke="#544841" stroke-width="8.061200e-02" stroke-miterlimit="10" x1="0.2" y1="15.1" x2="47.8" y2="15.1"/>
		<line fill="none" stroke="#544841" stroke-width="8.061200e-02" stroke-miterlimit="10" x1="0.2" y1="32.9" x2="47.8" y2="32.9"/>
		<line fill="none" stroke="#544841" stroke-width="8.061200e-02" stroke-miterlimit="10" x1="0.2" y1="44.7" x2="47.8" y2="44.7"/>
		<line fill="none" stroke="#544841" stroke-width="8.061200e-02" stroke-miterlimit="10" x1="0.2" y1="3.3" x2="47.8" y2="3.3"/>
		<line fill="none" stroke="#544841" stroke-width="8.061200e-02" stroke-miterlimit="10" x1="0.2" y1="0.2" x2="47.8" y2="47.8"/>
		<line fill="none" stroke="#544841" stroke-width="8.061200e-02" stroke-miterlimit="10" x1="0.2" y1="47.8" x2="47.8" y2="0.2"/>
		<circle fill="none" stroke="#544841" stroke-width="8.061200e-02" stroke-miterlimit="10" cx="24" cy="24" r="12.5"/>
		<circle fill="none" stroke="#544841" stroke-width="8.061200e-02" stroke-miterlimit="10" cx="24" cy="24" r="20.7"/>
		<g id="_x31_20px_icon_102_">
			<path id="Rectangle_7_102_" fill="none" stroke="#544841" stroke-width="8.061200e-02" stroke-miterlimit="10" d="M14.9,47.8
				c-5.4,0-8.5,0-11.6-3.1c-3.1-3.1-3.1-6.2-3.1-11.6V14.9c0-5.4,0-8.5,3.1-11.6c3.1-3.1,6.2-3.1,11.6-3.1h18.2
				c5.4,0,8.5,0,11.6,3.1c3.1,3.1,3.1,6.2,3.1,11.6v18.2c0,5.4,0,8.5-3.1,11.6c-3.1,3.1-6.2,3.1-11.6,3.1H14.9z"/>
		</g>
		<path fill="none" stroke="#544841" stroke-width="8.061200e-02" stroke-miterlimit="10" d="M24,9.2"/>
		<circle fill="none" stroke="#544841" stroke-width="8.061200e-02" stroke-miterlimit="10" cx="24" cy="24" r="8.8"/>
		<path fill="none" stroke="#544841" stroke-width="8.061200e-02" stroke-miterlimit="10" d="M30.7,25.1c0.1-0.4,0.1-0.7,0.1-1.1
			c0-0.4,0-0.8-0.1-1.1c-0.5-2.8-2.7-5.1-5.6-5.6c-0.4-0.1-0.8-0.1-1.1-0.1c-0.4,0-0.8,0-1.1,0.1c-2.9,0.5-5.1,2.7-5.6,5.6
			c-0.1,0.4-0.1,0.7-0.1,1.1c0,0.4,0,0.8,0.1,1.1c0.5,2.9,2.7,5.1,5.6,5.6c0.4,0.1,0.7,0.1,1.1,0.1c0.4,0,0.8,0,1.1-0.1
			C28,30.2,30.2,28,30.7,25.1z"/>
	</g>
</g>
<g id="icon">
	<path fill="#A7A9AC" d="M15,15C10.1,20,10.1,28,15,33c4.9,4.9,13,4.9,17.9,0c4.9-4.9,4.9-13,0-17.9C28,10.1,20,10.1,15,15z
		 M23.5,19.9l2.7,0l-0.1-4l7.4,7.2l-7.1,7.1l-0.1-4l-2.7,0c0,0-7.8,0.1-7.7,3.7C15.9,29.9,14.5,19.9,23.5,19.9z"/>
</g>
</svg>
