<?xml version="1.0" encoding="utf-8"?>
<!-- Generator: Adobe Illustrator 18.0.0, SVG Export Plug-In . SVG Version: 6.00 Build 0)  -->
<!DOCTYPE svg PUBLIC "-//W3C//DTD SVG 1.1//EN" "http://www.w3.org/Graphics/SVG/1.1/DTD/svg11.dtd">
<svg version="1.1" xmlns="http://www.w3.org/2000/svg" xmlns:xlink="http://www.w3.org/1999/xlink" x="0px" y="0px"
	 viewBox="0 0 48 48" enable-background="new 0 0 48 48" xml:space="preserve">
<g id="bg" display="none">
	<path display="inline" fill-rule="evenodd" clip-rule="evenodd" fill="#E6E7E8" d="M39.4,48H8.6C3.9,48,0,44.1,0,39.4V8.6
		C0,3.9,3.9,0,8.6,0h30.8C44.1,0,48,3.9,48,8.6v30.8C48,44.1,44.1,48,39.4,48z"/>
</g>
<g id="lines" display="none">
	<g display="inline">
		<line fill="none" stroke="#544841" stroke-width="8.061200e-02" stroke-miterlimit="10" x1="24" y1="0.2" x2="24" y2="47.8"/>
		<line fill="none" stroke="#544841" stroke-width="8.061200e-02" stroke-miterlimit="10" x1="15.1" y1="0.2" x2="15.1" y2="47.8"/>
		<line fill="none" stroke="#544841" stroke-width="8.061200e-02" stroke-miterlimit="10" x1="32.9" y1="0.2" x2="32.9" y2="47.8"/>
		<line fill="none" stroke="#544841" stroke-width="8.061200e-02" stroke-miterlimit="10" x1="44.7" y1="0.2" x2="44.7" y2="47.8"/>
		<line fill="none" stroke="#544841" stroke-width="8.061200e-02" stroke-miterlimit="10" x1="3.3" y1="0.2" x2="3.3" y2="47.8"/>
		<line fill="none" stroke="#544841" stroke-width="8.061200e-02" stroke-miterlimit="10" x1="0.2" y1="24" x2="47.8" y2="24"/>
		<line fill="none" stroke="#544841" stroke-width="8.061200e-02" stroke-miterlimit="10" x1="0.2" y1="15.1" x2="47.8" y2="15.1"/>
		<line fill="none" stroke="#544841" stroke-width="8.061200e-02" stroke-miterlimit="10" x1="0.2" y1="32.9" x2="47.8" y2="32.9"/>
		<line fill="none" stroke="#544841" stroke-width="8.061200e-02" stroke-miterlimit="10" x1="0.2" y1="44.7" x2="47.8" y2="44.7"/>
		<line fill="none" stroke="#544841" stroke-width="8.061200e-02" stroke-miterlimit="10" x1="0.2" y1="3.3" x2="47.8" y2="3.3"/>
		<line fill="none" stroke="#544841" stroke-width="8.061200e-02" stroke-miterlimit="10" x1="0.2" y1="0.2" x2="47.8" y2="47.8"/>
		<line fill="none" stroke="#544841" stroke-width="8.061200e-02" stroke-miterlimit="10" x1="0.2" y1="47.8" x2="47.8" y2="0.2"/>
		<circle fill="none" stroke="#544841" stroke-width="8.061200e-02" stroke-miterlimit="10" cx="24" cy="24" r="12.5"/>
		<circle fill="none" stroke="#544841" stroke-width="8.061200e-02" stroke-miterlimit="10" cx="24" cy="24" r="20.7"/>
		<g id="_x31_20px_icon_102_">
			<path id="Rectangle_7_102_" fill="none" stroke="#544841" stroke-width="8.061200e-02" stroke-miterlimit="10" d="M14.9,47.8
				c-5.4,0-8.5,0-11.6-3.1c-3.1-3.1-3.1-6.2-3.1-11.6V14.9c0-5.4,0-8.5,3.1-11.6c3.1-3.1,6.2-3.1,11.6-3.1h18.2
				c5.4,0,8.5,0,11.6,3.1c3.1,3.1,3.1,6.2,3.1,11.6v18.2c0,5.4,0,8.5-3.1,11.6c-3.1,3.1-6.2,3.1-11.6,3.1H14.9z"/>
		</g>
		<path fill="none" stroke="#544841" stroke-width="8.061200e-02" stroke-miterlimit="10" d="M24,9.2"/>
		<circle fill="none" stroke="#544841" stroke-width="8.061200e-02" stroke-miterlimit="10" cx="24" cy="24" r="8.8"/>
		<path fill="none" stroke="#544841" stroke-width="8.061200e-02" stroke-miterlimit="10" d="M30.7,25.1c0.1-0.4,0.1-0.7,0.1-1.1
			c0-0.4,0-0.8-0.1-1.1c-0.5-2.8-2.7-5.1-5.6-5.6c-0.4-0.1-0.8-0.1-1.1-0.1c-0.4,0-0.8,0-1.1,0.1c-2.9,0.5-5.1,2.7-5.6,5.6
			c-0.1,0.4-0.1,0.7-0.1,1.1c0,0.4,0,0.8,0.1,1.1c0.5,2.9,2.7,5.1,5.6,5.6c0.4,0.1,0.7,0.1,1.1,0.1c0.4,0,0.8,0,1.1-0.1
			C28,30.2,30.2,28,30.7,25.1z"/>
	</g>
</g>
<g id="icon">
	<g>
		<g>
			<path fill="#A7A9AC" d="M24,35.7c-6.4,0-11.7-5.2-11.7-11.7c0-6.4,5.2-11.7,11.7-11.7c6.4,0,11.7,5.2,11.7,11.7
				C35.7,30.4,30.4,35.7,24,35.7L24,35.7z M24,14.3c-5.3,0-9.7,4.3-9.7,9.7s4.3,9.7,9.7,9.7s9.7-4.3,9.7-9.7S29.3,14.3,24,14.3
				L24,14.3z"/>
		</g>
		<g>
			<path fill="#A7A9AC" d="M24,25c-0.6,0-1-0.4-1-1v-7.2c0-0.6,0.4-1,1-1c0.6,0,1,0.4,1,1V24C25,24.6,24.6,25,24,25L24,25z"/>
		</g>
		<g>
			<path fill="#A7A9AC" d="M24,15c-0.6,0-1-0.4-1-1v-0.6c0-0.6,0.4-1,1-1c0.6,0,1,0.4,1,1V14C25,14.5,24.6,15,24,15L24,15z"/>
		</g>
		<g>
			<path fill="#A7A9AC" d="M24,35.7c-0.6,0-1-0.4-1-1V34c0-0.6,0.4-1,1-1c0.6,0,1,0.4,1,1v0.6C25,35.2,24.6,35.7,24,35.7L24,35.7z"
				/>
		</g>
		<g>
			<path fill="#A7A9AC" d="M34.7,25H34c-0.6,0-1-0.4-1-1c0-0.6,0.4-1,1-1h0.6c0.6,0,1,0.4,1,1C35.7,24.6,35.2,25,34.7,25L34.7,25z"
				/>
		</g>
		<g>
			<path fill="#A7A9AC" d="M14,25h-0.6c-0.6,0-1-0.4-1-1c0-0.6,0.4-1,1-1H14c0.6,0,1,0.4,1,1C15,24.6,14.5,25,14,25L14,25z"/>
		</g>
		<g>
			<g>
				<g>
					<path fill="#A7A9AC" d="M28.5,16.6c-0.1,0-0.2,0-0.2-0.1c-0.2-0.1-0.3-0.4-0.2-0.7l0.3-0.5c0.1-0.2,0.4-0.3,0.7-0.2
						c0.2,0.1,0.3,0.4,0.2,0.7L29,16.4C28.9,16.5,28.7,16.6,28.5,16.6L28.5,16.6z"/>
				</g>
				<g>
					<path fill="#A7A9AC" d="M19.2,32.9c-0.1,0-0.2,0-0.2-0.1c-0.2-0.1-0.3-0.4-0.2-0.7l0.3-0.5c0.1-0.2,0.4-0.3,0.7-0.2
						c0.2,0.1,0.3,0.4,0.2,0.7l-0.3,0.5C19.5,32.8,19.3,32.9,19.2,32.9L19.2,32.9z"/>
				</g>
				<g>
					<path fill="#A7A9AC" d="M32.4,29.3c-0.1,0-0.2,0-0.2-0.1L31.6,29c-0.2-0.1-0.3-0.4-0.2-0.7c0.1-0.2,0.4-0.3,0.7-0.2l0.5,0.3
						c0.2,0.1,0.3,0.4,0.2,0.7C32.7,29.3,32.6,29.3,32.4,29.3L32.4,29.3z"/>
				</g>
				<g>
					<path fill="#A7A9AC" d="M16.1,19.9c-0.1,0-0.2,0-0.2-0.1l-0.5-0.3c-0.2-0.1-0.3-0.4-0.2-0.7c0.1-0.2,0.4-0.3,0.7-0.2l0.5,0.3
						c0.2,0.1,0.3,0.4,0.2,0.7C16.5,19.9,16.3,19.9,16.1,19.9L16.1,19.9z"/>
				</g>
			</g>
			<g>
				<g>
					<path fill="#A7A9AC" d="M19.5,16.6c-0.2,0-0.3-0.1-0.4-0.3l-0.3-0.5c-0.1-0.2-0.1-0.5,0.2-0.7c0.2-0.1,0.5-0.1,0.7,0.2l0.3,0.5
						c0.1,0.2,0.1,0.5-0.2,0.7C19.6,16.6,19.5,16.6,19.5,16.6L19.5,16.6z"/>
				</g>
				<g>
					<path fill="#A7A9AC" d="M28.8,32.9c-0.2,0-0.3-0.1-0.4-0.2l-0.3-0.5c-0.1-0.2-0.1-0.5,0.2-0.7c0.2-0.1,0.5-0.1,0.7,0.2l0.3,0.5
						c0.1,0.2,0.1,0.5-0.2,0.7C29,32.9,28.9,32.9,28.8,32.9L28.8,32.9z"/>
				</g>
				<g>
					<path fill="#A7A9AC" d="M15.6,29.3c-0.2,0-0.3-0.1-0.4-0.3c-0.1-0.2-0.1-0.5,0.2-0.7l0.5-0.3c0.2-0.1,0.5-0.1,0.7,0.2
						c0.1,0.2,0.1,0.5-0.2,0.7l-0.5,0.3C15.8,29.3,15.7,29.3,15.6,29.3L15.6,29.3z"/>
				</g>
				<g>
					<path fill="#A7A9AC" d="M31.9,19.9c-0.2,0-0.3-0.1-0.4-0.2c-0.1-0.2-0.1-0.5,0.2-0.7l0.5-0.3c0.2-0.1,0.5-0.1,0.7,0.2
						c0.1,0.2,0.1,0.5-0.2,0.7l-0.5,0.3C32.1,19.9,32,19.9,31.9,19.9L31.9,19.9z"/>
				</g>
			</g>
		</g>
		<g>
			<path fill="#A7A9AC" d="M21,28c-0.3,0-0.5-0.1-0.7-0.3c-0.4-0.4-0.4-1,0-1.4l2.9-2.9c0.4-0.4,1-0.4,1.4,0c0.4,0.4,0.4,1,0,1.4
				l-2.9,2.9C21.5,27.9,21.2,28,21,28L21,28z"/>
		</g>
	</g>
</g>
</svg>
