<?xml version="1.0" encoding="utf-8"?>
<!-- Generator: Adobe Illustrator 19.0.0, SVG Export Plug-In . SVG Version: 6.00 Build 0)  -->
<svg version="1.1" id="Layer_1" xmlns="http://www.w3.org/2000/svg" xmlns:xlink="http://www.w3.org/1999/xlink" x="0px" y="0px"
	 viewBox="-350 644 48 48" style="enable-background:new -350 644 48 48;" xml:space="preserve">
<style type="text/css">
	.st0{display:none;}
	.st1{display:inline;fill:#E6E7E8;}
	.st2{display:inline;}
	.st3{fill:none;stroke:#544841;stroke-width:8.061200e-02;stroke-miterlimit:10;}
	.st4{fill:#A7B6BF;}
</style>
<g id="bg" class="st0">
	<path class="st1" d="M-1360.6,2624h-30.8c-4.7,0-8.6-3.9-8.6-8.6v-30.8c0-4.7,3.9-8.6,8.6-8.6h30.8c4.7,0,8.6,3.9,8.6,8.6v30.8
		C-1352,2620.1-1355.9,2624-1360.6,2624z"/>
</g>
<g id="lines" class="st0">
	<g class="st2">
		<line class="st3" x1="-1376.1" y1="2576.2" x2="-1376.1" y2="2623.8"/>
		<line class="st3" x1="-1384.9" y1="2576.2" x2="-1384.9" y2="2623.8"/>
		<line class="st3" x1="-1367.1" y1="2576.2" x2="-1367.1" y2="2623.8"/>
		<line class="st3" x1="-1355.3" y1="2576.2" x2="-1355.3" y2="2623.8"/>
		<line class="st3" x1="-1396.8" y1="2576.2" x2="-1396.8" y2="2623.8"/>
		<line class="st3" x1="-1399.9" y1="2600" x2="-1352.1" y2="2600"/>
		<line class="st3" x1="-1399.9" y1="2591.2" x2="-1352.1" y2="2591.2"/>
		<line class="st3" x1="-1399.9" y1="2608.8" x2="-1352.1" y2="2608.8"/>
		<line class="st3" x1="-1399.9" y1="2620.8" x2="-1352.1" y2="2620.8"/>
		<line class="st3" x1="-1399.9" y1="2579.2" x2="-1352.1" y2="2579.2"/>
		<line class="st3" x1="-1399.9" y1="2576.2" x2="-1352.1" y2="2623.8"/>
		<line class="st3" x1="-1399.9" y1="2623.8" x2="-1352.1" y2="2576.2"/>
		<circle class="st3" cx="-1376.1" cy="2600" r="12.5"/>
		<circle class="st3" cx="-1376.1" cy="2600" r="20.7"/>
		<g id="_x31_20px_icon_102_">
			<path id="Rectangle_7_102_" class="st3" d="M-1385.1,2623.8c-5.4,0-8.5,0-11.6-3.1c-3.1-3.1-3.1-6.2-3.1-11.6V2591
				c0-5.4,0-8.5,3.1-11.7c3.1-3.1,6.2-3.1,11.6-3.1h18.2c5.4,0,8.5,0,11.6,3.1c3.1,3.1,3.1,6.2,3.1,11.6v18.2c0,5.4,0,8.5-3.1,11.6
				c-3,3.2-6.2,3.2-11.6,3.2L-1385.1,2623.8L-1385.1,2623.8z"/>
		</g>
		<path class="st3" d="M-1376.1,2585.2"/>
		<circle class="st3" cx="-1376.1" cy="2600" r="8.8"/>
		<path class="st3" d="M-1369.4,2601.2c0.1-0.4,0.1-0.7,0.1-1.1c0-0.4,0-0.8-0.1-1.1c-0.5-2.8-2.7-5.1-5.6-5.6
			c-0.4-0.1-0.8-0.1-1.1-0.1c-0.4,0-0.8,0-1.1,0.1c-2.9,0.5-5.1,2.7-5.6,5.6c-0.1,0.4-0.1,0.7-0.1,1.1c0,0.4,0,0.8,0.1,1.1
			c0.5,2.9,2.7,5.1,5.6,5.6c0.4,0.1,0.7,0.1,1.1,0.1s0.8,0,1.1-0.1C-1372.1,2606.2-1369.9,2603.9-1369.4,2601.2z"/>
	</g>
</g>
<path id="touch" class="st4" d="M-333.5,674c-0.1,0-0.2,0.1-0.2,0.1c-0.3,0-0.6-0.2-0.7-0.5c-0.1-0.4,0.1-0.8,0.5-0.9
	c0.5-0.2,1.1-0.3,1.8-0.5c3.4-0.8,7.6-1.9,7.9-8.2c0-0.4-0.1-0.9-0.5-1.2c-0.3-0.4-0.8-0.6-1.3-0.6s-1,0.2-1.3,0.6
	c-0.2,0.3-0.4,0.7-0.5,1.4c-0.6,3.2-2.9,5-6.5,5c-0.4,0-0.7-0.3-0.7-0.7s0.3-0.7,0.7-0.7c2.9-0.1,4.5-1.2,5-3.8
	c0.1-0.6,0.2-1.5,0.9-2.1c0.6-0.7,1.5-1.1,2.4-1.1s1.8,0.4,2.4,1s0.9,1.4,0.9,2.3c-0.2,7.5-5.5,8.9-9,9.7
	C-332.5,673.7-333,673.8-333.5,674z M-317.9,670.1c-1.4-0.4-2.6-0.9-2.6-3.1c0-0.5,0.1-0.8,0.1-1.1c0.1-0.4,0.1-1,0.1-2
	c-0.1-3.2-2.7-5.9-5.9-5.9c-2.9,0-5.2,2-5.8,5c-0.4,1.8-1.3,1.9-2.2,1.8c-0.4-0.1-0.8,0.2-0.8,0.7c-0.1,0.4,0.2,0.8,0.7,0.8
	c2.6,0.2,3.6-1.5,3.8-3c0.5-2.4,2.1-3.8,4.3-3.8c2.4,0,4.3,1.9,4.3,4.3c0,0.9,0,1.4-0.1,1.8c0,0.4-0.1,0.7-0.1,1.2
	c0,3.5,2.6,4.2,3.6,4.6c0.1,0,0.1,0.1,0.2,0.1c0.3,0,0.6-0.2,0.7-0.6C-317.3,670.6-317.5,670.2-317.9,670.1z M-317.6,667.5
	c-0.1-0.1-0.4-0.3-0.3-1c0.1-1,0.2-2.6,0.2-2.7l0,0c0-4.6-3.7-8.4-8.4-8.4c-3.4,0-6.5,2.1-7.8,5.4c-0.1,0.4-0.2,0.8-0.4,1.2
	c-0.1,0.2-0.1,0.4-0.1,0.6c-0.1,0.4,0.1,0.8,0.4,1c0.4,0.1,0.8-0.1,1-0.4c0.1-0.2,0.1-0.4,0.2-0.7c0.1-0.4,0.2-0.7,0.3-1.1
	c1-2.6,3.6-4.4,6.4-4.4c3.8,0,6.9,3.1,6.9,6.9c0,0.1-0.1,1.6-0.1,2.6c-0.2,1.7,0.9,2.5,1.4,2.6c0.1,0,0.1,0,0.2,0
	c0.4,0,0.7-0.2,0.7-0.6C-317.1,668-317.2,667.7-317.6,667.5z M-334,671.5c0.1-0.1,0.3-0.1,0.5-0.1c3-0.6,7.9-1.6,8.2-7.6
	c0-0.4-0.3-0.7-0.7-0.8c-0.4,0-0.7,0.3-0.8,0.7c-0.2,4.8-4.1,5.6-6.9,6.2c-0.2,0.1-0.3,0.1-0.5,0.1c-0.4,0.1-0.7,0.5-0.6,0.9
	S-334.4,671.5-334,671.5C-334.1,671.6-334.1,671.5-334,671.5z M-318.4,672.5c-0.7-0.2-1.4-0.4-2.2-0.7c-0.6-0.2-1.3-0.7-1.8-1.4
	c-0.2-0.3-0.7-0.4-1.1-0.1c-0.3,0.2-0.4,0.7-0.1,1.1c0.6,0.7,1.5,1.4,2.4,1.7c0.7,0.3,1.6,0.6,2.5,0.9c0.1,0,0.1,0,0.2,0
	c0.4,0,0.7-0.2,0.7-0.6C-317.7,673-318,672.6-318.4,672.5z M-319.2,675c-1.4-0.3-2.4-0.8-3.2-1.3c-0.9-0.4-1.6-0.9-2.4-0.9
	c-0.7,0-1.5,0.2-2.7,0.6c-1.3,0.4-3.1,1-5.5,1.5c-0.4,0.1-0.7,0.5-0.6,0.9s0.5,0.7,0.9,0.6c2.6-0.5,4.4-1.1,5.7-1.5
	c1.1-0.3,1.8-0.6,2.2-0.6c0.5,0,1.1,0.3,1.7,0.7c0.9,0.5,2.1,1.1,3.7,1.4c0.1,0,0.1,0,0.2,0c0.4,0,0.7-0.2,0.7-0.6
	C-318.5,675.5-318.7,675.1-319.2,675z M-320.6,677.1c-0.6-0.1-1.2-0.4-1.9-0.7c-0.9-0.4-1.9-0.9-2.7-0.9c-0.6,0-1.6,0.3-3.2,0.7
	c-1.1,0.3-2.4,0.7-3.4,0.9c-0.4,0.1-0.7,0.4-0.6,0.9c0.1,0.4,0.4,0.7,0.9,0.6c1-0.2,2.4-0.6,3.6-0.9c1.1-0.3,2.4-0.7,2.7-0.7
	c0.4,0,1.2,0.4,2,0.7c0.7,0.3,1.4,0.7,2.1,0.9c0.1,0,0.1,0,0.2,0c0.3,0,0.6-0.2,0.7-0.6C-319.9,677.6-320.2,677.2-320.6,677.1z
	 M-322.5,678.9c-0.2-0.1-0.4-0.1-0.6-0.2c-0.6-0.3-1.4-0.6-2.3-0.6c-0.4,0-1.1,0.1-2,0.4c-0.7,0.2-1.5,0.4-2.1,0.4
	c-0.4,0.1-0.7,0.4-0.7,0.9s0.4,0.7,0.9,0.7c0.7-0.1,1.5-0.3,2.2-0.4c0.6-0.2,1.4-0.3,1.7-0.3c0.6,0,1.1,0.2,1.7,0.5
	c0.2,0.1,0.4,0.2,0.7,0.2c0.1,0.1,0.2,0.1,0.2,0.1c0.3,0,0.6-0.2,0.7-0.5C-322,679.6-322.2,679.1-322.5,678.9z"/>
</svg>
