<?xml version="1.0" encoding="utf-8"?>
<!-- Generator: Adobe Illustrator 18.0.0, SVG Export Plug-In . SVG Version: 6.00 Build 0)  -->
<!DOCTYPE svg PUBLIC "-//W3C//DTD SVG 1.1//EN" "http://www.w3.org/Graphics/SVG/1.1/DTD/svg11.dtd">
<svg version="1.1" id="Layer_1" xmlns="http://www.w3.org/2000/svg" xmlns:xlink="http://www.w3.org/1999/xlink" x="0px" y="0px"
	 viewBox="0 243 612 549" enable-background="new 0 243 612 549" xml:space="preserve">
<path display="none" fill="#1D77BD" d="M46,573.7h282.2c12.3,0,24.5,9.2,24.5,24.5l0,0v110.5l196.4-202.5L349.8,306.8v110.5
	c0,12.3-9.2,24.5-24.5,24.5l0,0H46V573.7L46,573.7z M303.8,619.7L303.8,619.7H24.5l0,0c-12.3,0-24.5-9.2-24.5-24.5V420.3v-3
	c0-12.3,9.2-24.5,24.5-24.5h282.2V254.6c0-6.2,3-12.3,6.2-15.3c9.2-9.2,24.5-9.2,33.7,0l254.7,254.7l0,0l0,0
	c9.2,9.2,9.2,24.5,0,33.7L346.7,779.2c-3,6.2-9.2,9.2-18.4,9.2c-12.3,0-24.5-9.2-24.5-24.5V619.7L303.8,619.7z"/>
<polygon fill="#1D77BD" points="610.5,511.2 292,256.3 292,390.2 -0.3,390.2 -0.3,632.2 292,632.2 292,766.2 "/>
<path display="none" fill="#1D77BD" d="M331.6,338.7l213.2,170.7L331.6,680.1v-50.1V590h-40.1H40.4V428.9h251.2h40.1v-40.1
	L331.6,338.7 M291.5,255.3v133.4H0.3v241.3h291.2v133.4L609,509.4L291.5,255.3L291.5,255.3z"/>
</svg>
