<?xml version="1.0" encoding="utf-8"?>
<!-- Generator: Adobe Illustrator 18.0.0, SVG Export Plug-In . SVG Version: 6.00 Build 0)  -->
<!DOCTYPE svg PUBLIC "-//W3C//DTD SVG 1.1//EN" "http://www.w3.org/Graphics/SVG/1.1/DTD/svg11.dtd">
<svg version="1.1" xmlns="http://www.w3.org/2000/svg" xmlns:xlink="http://www.w3.org/1999/xlink" x="0px" y="0px"
	 viewBox="0 114.3 626 568.8" enable-background="new 0 114.3 626 568.8" xml:space="preserve">
<g id="Layer_1">
	<polygon fill="#1D77BD" points="314,571.5 504.9,333 404.6,333 404.6,114.1 223.4,114.1 223.4,333 123.1,333 	"/>
</g>
<g id="Layer_3">
	<polygon fill="#1D77BD" points="543.3,459.1 543.3,613.7 84.6,613.7 84.6,459.1 15.1,459.1 15.1,683.2 612.8,683.2 612.8,459.1 	
		"/>
</g>
<g id="Layer_2" display="none">
	<path display="inline" fill="#1D77BD" stroke="#1D77BD" stroke-width="4" stroke-miterlimit="10" d="M441.5,362.2L314.1,521.4
		L186.7,362.2h37.4H254v-29.9V144.9l120.2,0v187.4v29.9h29.9H441.5 M503.7,332.3h-99.6V115h-180v217.3h-99.6l189.6,236.9
		L503.7,332.3L503.7,332.3z"/>
</g>
</svg>
