<?xml version="1.0" encoding="utf-8"?>
<!-- Generator: Adobe Illustrator 18.0.0, SVG Export Plug-In . SVG Version: 6.00 Build 0)  -->
<!DOCTYPE svg PUBLIC "-//W3C//DTD SVG 1.1//EN" "http://www.w3.org/Graphics/SVG/1.1/DTD/svg11.dtd">
<svg version="1.1" id="Ñëîé_1" xmlns="http://www.w3.org/2000/svg" xmlns:xlink="http://www.w3.org/1999/xlink" x="0px" y="0px"
	 viewBox="16.6 230.5 612 579.1" enable-background="new 16.6 230.5 612 579.1" xml:space="preserve">
<path fill="#616161" d="M563.6,672.6c-7.5,5-12.5,7.5-20,10c32.5-44.9,50-102.4,50-162.4c0-159.8-129.9-289.8-289.8-289.8
	c-157.4,0-287.2,129.9-287.2,289.8s129.9,289.8,289.8,289.8c87.4,0,164.9-37.4,217.4-99.9c5,0,10,2.5,15,2.5l0,0
	c15,0,30-5,44.9-17.4c15-12.5,30-17.4,44.9-17.4v-30C606.1,647.7,583.6,655.2,563.6,672.6z M196.4,660.2
	c-32.5,17.4-72.4,7.5-90-24.9s-7.5-72.4,24.9-90c32.5-17.4,72.4-7.5,90,24.9C238.8,600.2,228.9,640.2,196.4,660.2z M221.4,472.8
	c-17.4,32.5-57.4,42.5-90,24.9c-32.5-17.4-42.5-57.4-24.9-90s57.4-42.5,90-24.9C229,400.4,238.8,440.3,221.4,472.8z M306.3,750.1
	c-37.4,0-64.9-30-64.9-64.9c0-37.4,30-64.9,64.9-64.9c37.4,0,64.9,30,64.9,64.9C371.3,720.1,341.3,750.1,306.3,750.1z M261.3,520.3
	c0-24.9,20-44.9,44.9-44.9s44.9,20,44.9,44.9s-20,44.9-44.9,44.9S261.3,545.2,261.3,520.3z M306.3,422.8c-37.4,0-64.9-30-64.9-64.9
	c0-37.4,30-64.9,64.9-64.9c37.4,0,64.9,30,64.9,64.9C371.3,392.9,341.3,422.8,306.3,422.8z M503.6,635.2c-5,7.5-10,15-17.4,20
	c-10,7.5-20,10-30,12.5c-15,2.5-30,0-42.5-7.5c-32.5-17.4-42.5-57.4-24.9-90c17.4-32.5,57.4-42.5,90-24.9
	C511.3,562.8,521.2,602.7,503.6,635.2z M478.7,495.2c-32.5,17.4-72.4,7.5-90-24.9c-17.4-32.5-7.5-72.4,24.9-90
	c32.5-17.4,72.4-7.5,90,24.9C521.2,437.8,511.2,477.8,478.7,495.2z"/>
</svg>
