<?xml version="1.0" encoding="utf-8"?>
<!-- Generator: Adobe Illustrator 18.0.0, SVG Export Plug-In . SVG Version: 6.00 Build 0)  -->
<!DOCTYPE svg PUBLIC "-//W3C//DTD SVG 1.1//EN" "http://www.w3.org/Graphics/SVG/1.1/DTD/svg11.dtd">
<svg version="1.1" id="Ñëîé_1" xmlns="http://www.w3.org/2000/svg" xmlns:xlink="http://www.w3.org/1999/xlink" x="0px" y="0px"
	 viewBox="0 0 612 609.7" enable-background="new 0 0 612 609.7" xml:space="preserve">
<path fill="#616161" d="M530.8,191.1c27.7,33.9,55.4,70.7,80,110.9L302.9,609.7c-24.6-40-49.2-77-80-110.9
	c-6.1-6.1-15.4-9.2-21.5-9.2c-9.2,0-15.4,6.1-18.5,15.4c-9.2,18.5-21.5,37-30.7,49.2c-27.7,27.7-70.7,27.7-95.5,0
	c-27.7-27.7-27.7-70.7,0-95.5c9.2-9.2,27.7-21.5,49.2-30.7c9.2-3.1,12.4-12.4,15.4-18.5c0-9.2-3.1-18.5-9.2-21.5
	c-33.9-27.7-70.7-55.4-110.9-80c33.9-30.7,70.7-55.4,104.6-86.2c6.1-6.1,9.2-15.4,9.2-21.5c0-9.2-6.1-15.4-15.4-18.5
	c-18.5-9.2-37-21.5-49.2-30.7c-27.7-27.7-27.7-70.7,0-95.5c27.7-27.7,70.7-27.7,95.5,0c9.2,9.2,21.5,27.7,30.7,49.2
	c3.1,9.2,12.4,12.4,18.5,15.4c9.2,0,18.5-3.1,21.5-9.2C244.4,77,272.1,40.1,296.7,0c40,24.6,77,49.2,110.9,80
	c6.1,6.1,9.2,15.4,9.2,21.5c0,9.2-6.1,15.4-15.4,18.5c-18.5,9.2-37,21.5-49.2,30.7c-27.7,27.7-27.7,70.7,0,95.5
	c27.7,27.7,70.7,27.7,95.5,0c9.2-9.2,21.5-27.7,30.7-49.2c3.1-9.2,12.4-12.4,18.5-15.4C515.4,181.9,524.7,185,530.8,191.1z"/>
</svg>
