<?xml version="1.0" encoding="utf-8"?>
<!-- Generator: Adobe Illustrator 18.0.0, SVG Export Plug-In . SVG Version: 6.00 Build 0)  -->
<!DOCTYPE svg PUBLIC "-//W3C//DTD SVG 1.1//EN" "http://www.w3.org/Graphics/SVG/1.1/DTD/svg11.dtd">
<svg version="1.1" id="Ñëîé_1" xmlns="http://www.w3.org/2000/svg" xmlns:xlink="http://www.w3.org/1999/xlink" x="0px" y="0px"
	 viewBox="-5 234 617 542.6" enable-background="new -5 234 617 542.6" xml:space="preserve">
<path fill="#616161" d="M0,240.2v40.2h30.7v9.5H0v14.2h16.5v7.1H0V323h16.5v7.1H0v11.8h16.5v7.1H0v11.8h16.5v7.1H0v16.5h30.7v7.1H0
	V408h16.5v7.1H0v11.8h16.5v7.1H0v11.8h16.5v9.5H0v11.8h16.5v7.1H0V486h30.7v7.1H0v16.5h16.5v7.1H0v11.8h16.5v7.1H0v14.2h16.5v7.1H0
	v11.8h16.5v7.1H0v11.8h30.7v7.1H0v16.5h16.5v7.1H0v11.8h16.5v7.1H0V649h16.5v7.1H0v11.8h16.5v7.1H0v11.8h30.7v7.1H0v11.8h16.5v7.1H0
	v11.8h16.5v7.1H0v11.8h16.5v7.1H0v11.8h16.5v7.1H0v7.1h604.9L0,240.2z M96.9,460l255.2,231.6H96.9V460z"/>
</svg>
