<?xml version="1.0" encoding="utf-8"?>
<!-- Generator: Adobe Illustrator 18.0.0, SVG Export Plug-In . SVG Version: 6.00 Build 0)  -->
<!DOCTYPE svg PUBLIC "-//W3C//DTD SVG 1.1//EN" "http://www.w3.org/Graphics/SVG/1.1/DTD/svg11.dtd">
<svg version="1.1" id="Ñëîé_1" xmlns="http://www.w3.org/2000/svg" xmlns:xlink="http://www.w3.org/1999/xlink" x="0px" y="0px"
	 viewBox="0 265.8 612 526.2" enable-background="new 0 265.8 612 526.2" xml:space="preserve">
<g>
	<path fill="#616161" d="M252.6,636.2c-2.4-12-4.8-26.5-12-36l21.7-12c-7.2-14.5-16.8-26.5-28.9-36l-16.8,16.8
		c-9.7-9.7-19.2-16.8-31.3-21.7l9.7-21.7c-14.5-7.2-28.9-9.7-45.7-9.7l-2.4,24c-2.4,0-4.8,0-7.2,0c-12,0-21.7,2.4-31.3,4.8l-7.2-24
		c-14.5,2.4-28.9,9.7-40.9,19.2l14.5,19.2c-9.7,7.2-19.2,16.8-26.5,26.5l-21.7-14.4c-9.7,12-16.8,26.5-19.2,43.3l24,7.2
		c-2.4,9.7-4.8,19.2-4.8,28.9c0,2.4,0,4.8,0,7.2l-24,2.4c0,16.8,4.8,31.3,12,45.7l24-7.2c4.8,12,12,21.7,21.7,31.3l-19.2,16.8
		c12,12,24,21.7,38.5,28.9l12-21.7c12,4.8,24,9.7,36,12l-2.4,24c7.2,0,12,2.4,19.2,2.4c9.7,0,19.2,0,28.9-2.4l-4.8-24
		c12-2.4,24-7.2,36-14.5l9.7,19.2c14.5-7.2,26.5-19.2,36-31.3l-21.7-16.8c7.2-9.7,14.5-21.7,19.2-33.7l24,7.2
		c4.8-14.5,7.2-31.3,7.2-45.7c0-7.2,0-14.5-2.4-21.7L252.6,636.2z M180.4,684.4L180.4,684.4c-4.8,4.8-9.7,7.2-14.5,9.7v2.4
		c-4.8,2.4-9.7,4.8-16.8,7.2v-2.4c-4.8,0-12,2.4-16.8,0v2.4c-4.8,0-12-2.4-16.8-4.8l0,0c-4.8-2.4-9.7-7.2-14.5-9.7l0,0
		c-4.8-4.8-7.2-9.7-9.7-14.5h2.4c-2.4-4.8-4.8-9.7-4.8-16.8h-2.4c0-2.4,0-2.4,0-4.8c0-4.8,0-9.7,2.4-14.5h2.4
		c2.4-4.8,4.8-9.7,7.2-14.5h-2.4c2.4-4.8,7.2-9.7,12-12l0,0c4.8-2.4,9.7-4.8,14.5-7.2v-2.4c4.8-2.4,9.7-2.4,14.5-2.4h2.4l4.8,2.4
		c4.8,0,12,2.4,16.8,4.8V605c4.8,2.4,9.7,4.8,14.5,9.7l0,0c4.8,4.8,7.2,7.2,9.7,14.5l0,0c2.4,4.8,4.8,9.7,4.8,16.8h-2.4
		c0,2.4,0,4.8,0,7.2c0,4.8,0,12-2.4,16.8h2.4C187.7,674.7,185.2,679.6,180.4,684.4z"/>
	<circle fill="#616161" cx="411.5" cy="458.2" r="72.2"/>
	<path fill="#616161" d="M594.3,523.2c7.2-19.2,12-40.9,12-65c0-9.7,0-19.2-2.4-28.9l-26.5,4.8c-2.4-19.2-9.7-38.5-16.8-53l24-12
		c-9.7-19.2-24-36-40.9-53l-19.1,19.3c-14.5-12-28.9-24-48.2-31.3l9.7-24c-21.7-9.7-43.3-14.5-65-14.5l-2.4,26.5c-2.4,0-7.2,0-9.7,0
		c-16.8,0-31.3,2.4-45.7,7.2L356,273c-21.7,7.2-40.9,16.8-60.2,28.9l16.8,21.7c-14.3,11.9-28.7,23.9-40.7,40.7l-21.7-14.5
		c-12,16.8-21.7,36-26.5,57.7l26.5,7.2c-4.8,14.5-7.2,28.9-7.2,43.3c0,4.8,0,7.2,0,12l-26.5,2.4c2.4,21.7,7.2,43.3,16.8,65l24-12
		c7.2,16.8,19.2,33.7,31.3,48.2L269.3,593c14.5,16.8,33.7,28.9,53,38.5l12-24c16.8,9.7,36,14.5,55.3,16.8l-4.8,28.9
		c9.7,0,16.8,2.4,26.5,2.4c14.5,0,26.5-2.4,40.9-4.8l-4.8-26.5c19.2-4.8,36-12,53-21.7l14.5,24c19.2-12,36-26.5,50.5-43.3
		l-21.6-16.9c12-14.5,21.7-31.3,28.9-50.5L594.3,523.2z M517.3,458.2c0,57.7-48.2,105.9-105.9,105.9S305.5,516,305.5,458.2
		s48.2-105.9,105.9-105.9S517.3,400.5,517.3,458.2z"/>
</g>
</svg>
