<?xml version="1.0" encoding="utf-8"?>
<!-- Generator: Adobe Illustrator 18.1.1, SVG Export Plug-In . SVG Version: 6.00 Build 0)  -->
<!DOCTYPE svg PUBLIC "-//W3C//DTD SVG 1.1//EN" "http://www.w3.org/Graphics/SVG/1.1/DTD/svg11.dtd">
<svg version="1.1" id="Icon" xmlns="http://www.w3.org/2000/svg" xmlns:xlink="http://www.w3.org/1999/xlink" x="0px" y="0px"
	 viewBox="0 0 48 40" enable-background="new 0 0 48 40" xml:space="preserve">
<path fill="#A7B6BF" d="M46.7,24.6c-0.7-0.6-4-2.1-5.3-2.6C40,21.4,40,21,40,20.5v-0.7c2-0.2,3.6-0.7,5-1.4c-2.5-0.9-3-4.4-3-7.4
	s-2-5-5-5c-1.1,0-2,0.3-2.7,0.7C34.2,7.7,34.1,9,34,10c0,0.2,0,0.3,0,0.4c0.8,1.1,1.1,2.9,0.7,4.8c-0.4,1.6-1.3,3.1-2.5,3.9
	c0,0.1-0.1,0.2-0.1,0.3c0.6,0.1,1.3,0.3,2,0.3v0.7c0,0.5,0,0.9-1.3,1.4c-0.4,0.2-1,0.4-1.6,0.7v1.5c0.1,0.1,0.4,0.3,0.9,0.5
	c3.6,1.5,8.1,3.6,9.4,4.8c0.1,0.1,0.3,0.3,0.4,0.4c3.2-0.2,5.1-0.6,5.9-0.8c0.3-0.1,0.4-0.3,0.4-0.5C48,28.2,47.7,25.5,46.7,24.6z
	 M6.7,29.4c1.7-1.7,9.3-4.8,9.4-4.8c0.5-0.2,0.7-0.3,0.9-0.4v-1.5c-0.7-0.3-1.2-0.5-1.6-0.7C14,21.4,14,21,14,20.5
	c0-0.2,0-1.5,0-1.5c0.2-0.2,0.4-0.7,0.5-1.2c-0.5-0.8-0.9-1.7-1.1-2.6c-0.4-1.9-0.1-3.7,0.7-4.8c-0.1-1-0.2-2.4-0.3-3.8
	C13.4,6.3,12.4,6,11,6C9,6,7,7,7,7s-1,1-1,3s0.3,2.8,0.3,2.8c-0.4,0.1-0.7,1.1-0.5,2.1c0.2,1,0.9,1.8,1.4,1.7c0,0,0.3,1.9,0.8,2.4
	c0,0,0,1.3,0,1.5c0,0.5,0,0.9-1.3,1.4c-1.3,0.5-4.7,2-5.3,2.6c-1,1-1.3,3.7-1.3,4C0,28.8,0.1,29,0.4,29c0.8,0.2,2.7,0.6,5.9,0.8
	C6.4,29.7,6.6,29.6,6.7,29.4z M31.1,26.5c-2.1-0.9-2.2-1.5-2.2-2.4c0-0.3,0-2.5,0-2.5c0.8-0.8,1.4-4.1,1.4-4.1
	c0.7,0.2,1.9-1.1,2.3-2.8c0.4-1.7-0.1-3.3-0.8-3.5c-0.1,0,0.4-3.8,0.4-5.5c0-2.5-0.9-4.2-3.3-4.2c-0.6-1-1.6-1.7-4.4-1.7
	c-2.9,0-4.3,1.7-7,1.7c-1.2,0-1.6,2-1.6,4.1c0,2.2,0.4,5.5,0.4,5.5c-0.7,0.2-1.2,1.8-0.8,3.5c0.4,1.7,1.5,3,2.3,2.8
	c0,0,0.6,3.2,1.4,4.1c0,0,0,2.2,0,2.5c0,0.8-0.1,1.5-2.2,2.4c-2.1,0.9-7.6,3.3-8.7,4.4C6.5,32.5,6,37.1,6,37.6
	c0,0.4,0.2,0.7,0.7,0.8C8.4,38.9,14.3,40,24,40s15.6-1.1,17.3-1.6c0.5-0.2,0.7-0.5,0.7-0.8c0-0.5-0.5-5.1-2.2-6.7
	C38.7,29.8,33.2,27.4,31.1,26.5z"/>
</svg>
