<?xml version="1.0" encoding="utf-8"?>
<!-- Generator: Adobe Illustrator 18.1.1, SVG Export Plug-In . SVG Version: 6.00 Build 0)  -->
<!DOCTYPE svg PUBLIC "-//W3C//DTD SVG 1.1//EN" "http://www.w3.org/Graphics/SVG/1.1/DTD/svg11.dtd">
<svg version="1.1" id="Icon" xmlns="http://www.w3.org/2000/svg" xmlns:xlink="http://www.w3.org/1999/xlink" x="0px" y="0px"
	 viewBox="0 0 22 22" enable-background="new 0 0 22 22" xml:space="preserve">
<path fill="#0078C8" d="M9.6,16l-2.5,2.5C6.6,19,6,19.2,5.3,19.2c-0.7,0-1.3-0.3-1.8-0.7C3,18,2.8,17.4,2.8,16.7
	c0-0.7,0.3-1.3,0.7-1.8l4.4-4.4C8.4,10,9,9.7,9.7,9.7s1.3,0.3,1.8,0.7c0,0,0,0,0,0l0,0c0,0,0,0,0,0c0.2,0.2,0.5,0.3,0.7,0.3
	c0.3,0,0.5-0.1,0.7-0.3l1.1-1.1c-0.2-0.3-0.4-0.6-0.7-0.8c-1-1-2.4-1.5-3.7-1.5C8.4,7,7,7.5,6,8.5L1.5,13c-2.1,2.1-2.1,5.4,0,7.5
	c1,1,2.4,1.5,3.7,1.5C6.6,22,8,21.5,9,20.5l4-4c-0.2,0-0.5,0-0.7,0C11.4,16.5,10.5,16.3,9.6,16z M20.4,1.5c-1-1-2.4-1.5-3.7-1.5
	C15.4,0,14,0.5,13,1.5l-4,4c0.2,0,0.5,0,0.7,0c0.9,0,1.8,0.2,2.7,0.5l2.5-2.5C15.4,3,16,2.8,16.7,2.8c0.7,0,1.3,0.3,1.8,0.7
	c1,1,1,2.6,0,3.6l-4.4,4.4c-0.5,0.5-1.1,0.7-1.8,0.7c-0.7,0-1.3-0.3-1.8-0.7l0,0l0,0c0,0,0,0,0,0c-0.2-0.2-0.5-0.3-0.7-0.3
	c-0.3,0-0.5,0.1-0.7,0.3l-1.1,1.1c0.2,0.3,0.4,0.6,0.7,0.8c1,1,2.4,1.5,3.7,1.5c1.4,0,2.7-0.5,3.7-1.5L20.4,9
	C22.5,7,22.5,3.6,20.4,1.5z"/>
</svg>
