<?xml version="1.0" encoding="utf-8"?>
<!-- Generator: Adobe Illustrator 18.1.1, SVG Export Plug-In . SVG Version: 6.00 Build 0)  -->
<!DOCTYPE svg PUBLIC "-//W3C//DTD SVG 1.1//EN" "http://www.w3.org/Graphics/SVG/1.1/DTD/svg11.dtd">
<svg version="1.1" id="Layer_1" xmlns="http://www.w3.org/2000/svg" xmlns:xlink="http://www.w3.org/1999/xlink" x="0px" y="0px"
	 viewBox="0 0 33.9 42.5" enable-background="new 0 0 33.9 42.5" xml:space="preserve">
<g>
	<g>
		<rect x="26.1" y="15.4" fill="#0078C8" width="7.7" height="27.1"/>
		<path fill="#0078C8" d="M12.6,0.2c-0.3-0.2-0.8-0.2-1.1,0L4.8,5.4h14.5L12.6,0.2z"/>
		<path fill="#0078C8" d="M0,42.5h24.1V7.4H0V42.5z M7.3,39.3c-1.4,0-2.6-1.2-2.6-2.6c0-1.4,1.2-2.6,2.6-2.6c1.4,0,2.6,1.2,2.6,2.6
			C9.9,38.1,8.7,39.3,7.3,39.3z M16.9,10.6c1.4,0,2.6,1.2,2.6,2.6c0,1.4-1.2,2.6-2.6,2.6c-1.4,0-2.6-1.2-2.6-2.6
			C14.3,11.8,15.4,10.6,16.9,10.6z M16.9,18.4c1.4,0,2.6,1.2,2.6,2.6c0,1.4-1.2,2.6-2.6,2.6c-1.4,0-2.6-1.2-2.6-2.6
			C14.3,19.6,15.4,18.4,16.9,18.4z M16.9,26.1c1.4,0,2.6,1.2,2.6,2.6c0,1.4-1.2,2.6-2.6,2.6c-1.4,0-2.6-1.2-2.6-2.6
			C14.3,27.3,15.4,26.1,16.9,26.1z M16.9,34c1.4,0,2.6,1.2,2.6,2.6c0,1.4-1.2,2.6-2.6,2.6c-1.4,0-2.6-1.2-2.6-2.6
			C14.3,35.2,15.4,34,16.9,34z M7.3,10.6c1.4,0,2.6,1.2,2.6,2.6c0,1.4-1.2,2.6-2.6,2.6c-1.4,0-2.6-1.2-2.6-2.6
			C4.6,11.8,5.8,10.6,7.3,10.6z M7.3,18.4c1.4,0,2.6,1.2,2.6,2.6c0,1.4-1.2,2.6-2.6,2.6c-1.4,0-2.6-1.2-2.6-2.6
			C4.6,19.6,5.8,18.4,7.3,18.4z M7.3,26.1c1.4,0,2.6,1.2,2.6,2.6c0,1.4-1.2,2.6-2.6,2.6c-1.4,0-2.6-1.2-2.6-2.6
			C4.6,27.3,5.8,26.1,7.3,26.1z"/>
	</g>
</g>
</svg>
