<?xml version="1.0" encoding="utf-8"?>
<!-- Generator: Adobe Illustrator 18.1.1, SVG Export Plug-In . SVG Version: 6.00 Build 0)  -->
<!DOCTYPE svg PUBLIC "-//W3C//DTD SVG 1.1//EN" "http://www.w3.org/Graphics/SVG/1.1/DTD/svg11.dtd">
<svg version="1.1" id="Layer_1" xmlns="http://www.w3.org/2000/svg" xmlns:xlink="http://www.w3.org/1999/xlink" x="0px" y="0px"
	 viewBox="0 0 750 40.1" enable-background="new 0 0 750 40.1" xml:space="preserve">
<g display="none">
	<rect x="110" display="inline" fill="none" width="640" height="40"/>
</g>
<g>
	<path d="M165,14.1c3.9,0,7.4,1.4,10.1,3.8l1.9-2.1c-3.2-2.8-7.4-4.8-12-4.8c-4.6,0-8.8,2-12,4.8l1.9,2.1
		C157.6,15.5,161.1,14.1,165,14.1z"/>
	<path d="M165,20.2c2.3,0,4.4,0.9,6.1,2.3l2-2.2c-2.2-1.9-5-3.1-8.1-3.1c-3.1,0-5.9,1.2-8.1,3.1l2,2.2C160.5,21,162.7,20.2,165,20.2
		z"/>
	<path d="M169.1,24.7c-1.1-0.9-2.5-1.6-4.1-1.6c-1.6,0-3,0.6-4.1,1.6l4.1,4.6L169.1,24.7z"/>
</g>
<path display="none" fill-rule="evenodd" clip-rule="evenodd" d="M720,17c1.9,0,3,1.6,3,3.5s-1.1,3.5-3,3.5V17z"/>
<path display="none" d="M716,12c1.1,0,2,0.9,2,2v13c0,1.1-0.9,2-2,2h-39c-1.1,0-2-0.9-2-2V14c0-1.1,0.9-2,2-2H716 M716,11h-39
	c-1.7,0-3,1.3-3,3v13c0,1.7,1.3,3,3,3h39c1.7,0,3-1.3,3-3V14C719,12.3,717.7,11,716,11L716,11z"/>
<path display="none" fill-rule="evenodd" clip-rule="evenodd" fill="#04FB0A" d="M678,13h37c1.1,0,2,0.9,2,2v11c0,1.1-0.9,2-2,2h-37
	c-1.1,0-2-0.9-2-2V15C676,13.9,676.9,13,678,13z"/>
<path fill-rule="evenodd" clip-rule="evenodd" d="M14.5,15c3,0,5.5,2.5,5.5,5.5S17.5,26,14.5,26c-3,0-5.5-2.5-5.5-5.5
	S11.5,15,14.5,15z"/>
<path fill-rule="evenodd" clip-rule="evenodd" d="M28.5,15c3,0,5.5,2.5,5.5,5.5S31.5,26,28.5,26c-3,0-5.5-2.5-5.5-5.5
	S25.5,15,28.5,15z"/>
<path fill-rule="evenodd" clip-rule="evenodd" d="M42.5,15c3,0,5.5,2.5,5.5,5.5S45.5,26,42.5,26c-3,0-5.5-2.5-5.5-5.5
	S39.5,15,42.5,15z"/>
<path d="M56.5,15c-3,0-5.5,2.5-5.5,5.5s2.5,5.5,5.5,5.5c3,0,5.5-2.5,5.5-5.5S59.5,15,56.5,15L56.5,15z"/>
<path d="M70.5,15c-3,0-5.5,2.5-5.5,5.5s2.5,5.5,5.5,5.5c3,0,5.5-2.5,5.5-5.5S73.5,15,70.5,15L70.5,15z"/>
<text transform="matrix(1 0 0 1 83.999 28.5684)" font-family="'HelveticaNeue'" font-size="24">AT&amp;T</text>
<polygon display="none" points="728,20 734,10 733,18 738,18 731,28 732,20 "/>
<text transform="matrix(1 0 0 1 632.0005 28.5684)" font-family="'HelveticaNeue'" font-size="24">75%</text>
<text transform="matrix(1 0 0 1 384.207 28.5684)" display="none" font-family="'HelveticaNeue-Medium'" font-size="24">8:23 AM</text>
<g>
	<path fill-rule="evenodd" clip-rule="evenodd" d="M736.5,17c1.9,0,3,1.6,3,3.5s-1.1,3.5-3,3.5V17z"/>
	<path d="M732.5,12c1.1,0,2,0.9,2,2v13c0,1.1-0.9,2-2,2h-39c-1.1,0-2-0.9-2-2V14c0-1.1,0.9-2,2-2H732.5 M732.5,11h-39
		c-1.7,0-3,1.3-3,3v13c0,1.7,1.3,3,3,3h39c1.7,0,3-1.3,3-3V14C735.5,12.3,734.2,11,732.5,11L732.5,11z"/>
	<path fill-rule="evenodd" clip-rule="evenodd" d="M723.5,13h-29c-1.1,0-2,0.9-2,2v11c0,1.1,0.9,2,2,2h29V13z"/>
</g>
</svg>
