<?xml version="1.0" encoding="utf-8"?>
<!-- Generator: Adobe Illustrator 18.1.1, SVG Export Plug-In . SVG Version: 6.00 Build 0)  -->
<!DOCTYPE svg PUBLIC "-//W3C//DTD SVG 1.1//EN" "http://www.w3.org/Graphics/SVG/1.1/DTD/svg11.dtd">
<svg version="1.1" id="Layer_1" xmlns="http://www.w3.org/2000/svg" xmlns:xlink="http://www.w3.org/1999/xlink" x="0px" y="0px"
	 viewBox="0 0 15.8 14" enable-background="new 0 0 15.8 14" xml:space="preserve">
<path fill="#FFFFFF" d="M7.9,14c-2.8,0-5.3-1.7-6.4-4.3L0,10.3L1.2,6l4,2.3L3.7,8.9c0.7,1.7,2.4,2.8,4.2,2.8c1.9,0,3.6-1.2,4.3-2.9
	l2.2,0.9C13.4,12.3,10.8,14,7.9,14z M14.6,8.1l-4.1-2.3l1.6-0.6c-0.8-1.7-2.4-2.7-4.2-2.7c-1.9,0-3.7,1.2-4.4,3L1.4,4.5
	C2.4,1.8,5.1,0,7.9,0c2.8,0,5.3,1.6,6.4,4.2l1.5-0.6L14.6,8.1z"/>
</svg>
