<?xml version="1.0" encoding="utf-8"?>
<!-- Generator: Adobe Illustrator 18.1.1, SVG Export Plug-In . SVG Version: 6.00 Build 0)  -->
<!DOCTYPE svg PUBLIC "-//W3C//DTD SVG 1.1//EN" "http://www.w3.org/Graphics/SVG/1.1/DTD/svg11.dtd">
<svg version="1.1" id="icon" xmlns="http://www.w3.org/2000/svg" xmlns:xlink="http://www.w3.org/1999/xlink" x="0px" y="0px"
	 viewBox="0 0 40.9 40.9" enable-background="new 0 0 40.9 40.9" xml:space="preserve">
<g>
	<path fill="#0078C8" d="M24.4,31.2c-1.9,0-6.8-3.9-8.8-5.8c-1.9-1.9-5.8-6.8-5.8-8.8c0-1.9,5.1-4.4,5.1-5.4L10.7,0c0,0-1,0-3.9,0
		C4.9,0,0,5.8,0,9.7c0,3.9,1.9,11.7,10.7,20.5c8.8,8.8,16.6,10.7,20.5,10.7c3.9,0,9.7-4.9,9.7-6.8c0-2.9,0-3.9,0-3.9L29.8,26
		C28.8,26,26.3,31.2,24.4,31.2z"/>
</g>
</svg>
