<?xml version="1.0" encoding="utf-8"?>
<!-- Generator: Adobe Illustrator 18.1.1, SVG Export Plug-In . SVG Version: 6.00 Build 0)  -->
<!DOCTYPE svg PUBLIC "-//W3C//DTD SVG 1.1//EN" "http://www.w3.org/Graphics/SVG/1.1/DTD/svg11.dtd">
<svg version="1.1" id="icon" xmlns="http://www.w3.org/2000/svg" xmlns:xlink="http://www.w3.org/1999/xlink" x="0px" y="0px"
	 viewBox="0 0 35.2 54.6" enable-background="new 0 0 35.2 54.6" xml:space="preserve">
<g>
	<path fill="#7F8F97" d="M2.7,9.5v40.4h29.8V9.5H2.7z M9.5,46.8c-1.3,0-2.4-1.1-2.4-2.4c0-1.3,1.1-2.4,2.4-2.4s2.4,1.1,2.4,2.4
		C11.9,45.7,10.8,46.8,9.5,46.8z M9.5,39.7c-1.3,0-2.4-1.1-2.4-2.4c0-1.3,1.1-2.4,2.4-2.4s2.4,1.1,2.4,2.4
		C11.9,38.6,10.8,39.7,9.5,39.7z M9.5,32.5c-1.3,0-2.4-1.1-2.4-2.4s1.1-2.4,2.4-2.4s2.4,1.1,2.4,2.4S10.8,32.5,9.5,32.5z M9.5,25.4
		c-1.3,0-2.4-1.1-2.4-2.4c0-1.3,1.1-2.4,2.4-2.4s2.4,1.1,2.4,2.4C11.9,24.3,10.8,25.4,9.5,25.4z M9.5,18.3c-1.3,0-2.4-1.1-2.4-2.4
		c0-1.3,1.1-2.4,2.4-2.4s2.4,1.1,2.4,2.4C11.9,17.2,10.8,18.3,9.5,18.3z M17.6,46.8c-1.3,0-2.4-1.1-2.4-2.4c0-1.3,1.1-2.4,2.4-2.4
		c1.3,0,2.4,1.1,2.4,2.4C20,45.7,18.9,46.8,17.6,46.8z M17.6,39.7c-1.3,0-2.4-1.1-2.4-2.4c0-1.3,1.1-2.4,2.4-2.4
		c1.3,0,2.4,1.1,2.4,2.4C20,38.6,18.9,39.7,17.6,39.7z M17.6,32.5c-1.3,0-2.4-1.1-2.4-2.4s1.1-2.4,2.4-2.4c1.3,0,2.4,1.1,2.4,2.4
		S18.9,32.5,17.6,32.5z M17.6,25.4c-1.3,0-2.4-1.1-2.4-2.4c0-1.3,1.1-2.4,2.4-2.4c1.3,0,2.4,1.1,2.4,2.4
		C20,24.3,18.9,25.4,17.6,25.4z M17.6,18.3c-1.3,0-2.4-1.1-2.4-2.4c0-1.3,1.1-2.4,2.4-2.4c1.3,0,2.4,1.1,2.4,2.4
		C20,17.2,18.9,18.3,17.6,18.3z M25.6,46.8c-1.3,0-2.4-1.1-2.4-2.4c0-1.3,1.1-2.4,2.4-2.4c1.3,0,2.4,1.1,2.4,2.4
		C28,45.7,27,46.8,25.6,46.8z M25.6,39.7c-1.3,0-2.4-1.1-2.4-2.4c0-1.3,1.1-2.4,2.4-2.4c1.3,0,2.4,1.1,2.4,2.4
		C28,38.6,27,39.7,25.6,39.7z M25.6,32.5c-1.3,0-2.4-1.1-2.4-2.4s1.1-2.4,2.4-2.4c1.3,0,2.4,1.1,2.4,2.4S27,32.5,25.6,32.5z
		 M25.6,25.4c-1.3,0-2.4-1.1-2.4-2.4c0-1.3,1.1-2.4,2.4-2.4c1.3,0,2.4,1.1,2.4,2.4C28,24.3,27,25.4,25.6,25.4z M25.6,18.3
		c-1.3,0-2.4-1.1-2.4-2.4c0-1.3,1.1-2.4,2.4-2.4c1.3,0,2.4,1.1,2.4,2.4C28,17.2,27,18.3,25.6,18.3z"/>
	<rect x="5.7" y="4.7" fill="#7F8F97" width="23.8" height="3.1"/>
	<rect x="0" y="51.5" fill="#7F8F97" width="35.2" height="3.1"/>
	<rect x="8.7" y="0" fill="#7F8F97" width="17.8" height="3.1"/>
</g>
</svg>
