<?xml version="1.0" encoding="utf-8"?>
<!-- Generator: Adobe Illustrator 18.1.1, SVG Export Plug-In . SVG Version: 6.00 Build 0)  -->
<!DOCTYPE svg PUBLIC "-//W3C//DTD SVG 1.1//EN" "http://www.w3.org/Graphics/SVG/1.1/DTD/svg11.dtd">
<svg version="1.1" id="icon" xmlns="http://www.w3.org/2000/svg" xmlns:xlink="http://www.w3.org/1999/xlink" x="0px" y="0px"
	 viewBox="0 0 30 30" enable-background="new 0 0 30 30" xml:space="preserve">
<path fill="#A7B6BF" d="M27.4,27l-2.9-11l-0.1-0.3c0.4,0,0.9-0.2,1.2-0.6l1.7-1.7l-1.8-1.8l-1.6,1.6l-0.7-3.5l4.4-4.4
	c0.8-0.8,3-4.3,2.3-5.1l-0.2-0.2c-0.8-0.8-4.3,1.5-5.1,2.3l-4.4,4.4l-3.5-0.7l1.6-1.6l-1.8-1.8l-1.7,1.7c-0.3,0.3-0.5,0.8-0.6,1.2
	l-0.3-0.1L3,2.6c-0.7-0.2-1.4,0-1.9,0.5L0.5,3.8L8,7.3c1.9,0.9,3.6,2.1,5.1,3.6l1.4,1.4c-4.6,5-4.3,4.4-7.7,8.9l-4.6-1.1
	c-0.4-0.1-0.9,0-1.2,0.3l-1,1l4.7,2.7c-1,1.4-1.6,2.5-1.5,2.6c0.2,0.2,1.2-0.5,2.6-1.5L8.6,30l1-1c0.3-0.3,0.5-0.8,0.3-1.2l-1.1-4.6
	c4.5-3.4,4-3,8.9-7.7l1.4,1.4c1.5,1.5,2.7,3.2,3.6,5.1l3.5,7.6l0.6-0.6C27.4,28.5,27.6,27.7,27.4,27z"/>
</svg>
