<?xml version="1.0" encoding="utf-8"?>
<!-- Generator: Adobe Illustrator 18.1.0, SVG Export Plug-In . SVG Version: 6.00 Build 0)  -->
<!DOCTYPE svg PUBLIC "-//W3C//DTD SVG 1.1//EN" "http://www.w3.org/Graphics/SVG/1.1/DTD/svg11.dtd">
<svg version="1.1" id="Icon" xmlns="http://www.w3.org/2000/svg" xmlns:xlink="http://www.w3.org/1999/xlink" x="0px" y="0px"
	 viewBox="0 0 20 22" enable-background="new 0 0 20 22" xml:space="preserve">
<path fill="#0078C8" d="M1,21c0,0.6,0.4,1,1,1h16c0.6,0,1-0.4,1-1V6H1V21z M14,8.5C14,8,14,8,14.5,8h1C16,8,16,8,16,8.5v11
	c0,0.5,0,0.5-0.5,0.5h-1C14,20,14,20,14,19.5V8.5z M9,8.5C9,8,9,8,9.5,8h1C11,8,11,8,11,8.5v11c0,0.5,0,0.5-0.5,0.5h-1
	C9,20,9,20,9,19.5V8.5z M4,8.5C4,8,4,8,4.5,8h1C6,8,6,8,6,8.5v11C6,20,6,20,5.5,20h-1C4,20,4,20,4,19.5V8.5z M19,2h-6V1
	c0-0.6-0.4-1-1-1H8C7.4,0,7,0.4,7,1v1H1C0.4,2,0,2.4,0,3v2h20V3C20,2.4,19.6,2,19,2z M12,2H8V1h4V2z"/>
</svg>
