<?xml version="1.0" encoding="utf-8"?>
<!-- Generator: Adobe Illustrator 18.1.1, SVG Export Plug-In . SVG Version: 6.00 Build 0)  -->
<!DOCTYPE svg PUBLIC "-//W3C//DTD SVG 1.1//EN" "http://www.w3.org/Graphics/SVG/1.1/DTD/svg11.dtd">
<svg version="1.1" id="Layer_1" xmlns="http://www.w3.org/2000/svg" xmlns:xlink="http://www.w3.org/1999/xlink" x="0px" y="0px"
	 viewBox="0 0 175.3 201.9" enable-background="new 0 0 175.3 201.9" xml:space="preserve">
<path fill="#A7B6BF" d="M113.8,138.7c-5.8,11-11.2,21.2-16.6,31.5c-4.2,7.9-8.4,15.9-12.6,23.8c-3.8,7.3-10.3,9.7-16.5,6.1
	c-5.7-3.2-6.9-9.8-3.1-16.6c10.7-19.4,21.4-38.8,31.8-57.7c-6.6-12.9-4.1-26.8-7.9-40.6c-4.1,7.2-8.5,14.3-12.4,21.6
	c-2.1,4-3.5,8.3-8.3,10c-1.2,0.4-1.9,2.2-2.7,3.5c-11.9,20.8-23.7,41.6-35.6,62.5c-1.6,2.7-2.5,5.2-1.6,8.8c0.6,2.4-1.1,6.5-3.1,8
	c-2,1.5-6.3,1.9-8.6,0.8c-2.3-1.2-4.7-5-4.4-7.4c0.5-4-1.3-5.1-4-6.7c-10-5.7-10-5.8-4.4-15.9c7.8-13.9,15.8-27.8,23.5-41.8
	c2.3-4.2,4.8-4.9,8.8-2.4c4.1,2.5,8.4,4.7,12.9,7.2c3.4-5.9,6.6-11.5,9.7-17.2c0.5-0.9,0.7-2.4,0.2-3.2c-2.2-3.8-1.2-7.4,0.4-11
	c8.5-18.8,20.5-35,35.2-49.3c8.5-8.3,20-8.3,29.4-0.9c7.6,5.9,14.8,12.5,22.9,17.6c5.9,3.7,12.9,6,19.7,8.1
	c6.5,2.1,9.6,5.3,8.5,10.7c-1.1,5.1-5.3,7.3-11.7,6.5c-11.2-1.5-21.7-4.8-31.8-12.5c0.9,9.6,1.9,18,2.2,26.4
	c0.2,4.2-1.1,8.4-1.5,12.6c-0.2,1.8-0.4,3.9,0.3,5.4c9.7,19.3,19.7,38.5,29.5,57.8c2.8,5.6,2,11-1.7,14.3c-3.7,3.3-8.2,4.4-12.4,1.7
	c-2.6-1.7-4.9-4.5-6.3-7.3c-8-15.7-15.8-31.6-23.7-47.3C116.9,143.6,115.5,141.6,113.8,138.7z M20,189.1c-1.3,2.2-2.6,3.5-2.6,4.6
	c0.1,1,2,2.9,2.6,2.7c1.3-0.4,2.9-1.8,3.1-2.9C23.2,192.5,21.5,191.2,20,189.1z"/>
<path fill="#A7B6BF" d="M133.6,22.7c-0.1,12.6-10.1,22.4-22.7,22.2c-12.3-0.1-22.2-10.1-22.3-22.3C88.5,10.3,98.8,0,111.2,0
	C123.6,0,133.6,10.2,133.6,22.7z"/>
<path fill="#A7B6BF" d="M20,189.1c1.6,2.1,3.2,3.4,3.1,4.4c-0.1,1.1-1.8,2.5-3.1,2.9c-0.6,0.2-2.5-1.7-2.6-2.7
	C17.4,192.6,18.7,191.3,20,189.1z"/>
</svg>
