<?xml version="1.0" encoding="utf-8"?>
<!-- Generator: Adobe Illustrator 18.1.1, SVG Export Plug-In . SVG Version: 6.00 Build 0)  -->
<!DOCTYPE svg PUBLIC "-//W3C//DTD SVG 1.1//EN" "http://www.w3.org/Graphics/SVG/1.1/DTD/svg11.dtd">
<svg version="1.1" id="Layer_1" xmlns="http://www.w3.org/2000/svg" xmlns:xlink="http://www.w3.org/1999/xlink" x="0px" y="0px"
	 viewBox="0 983 768 41.7" enable-background="new 0 983 768 41.7" xml:space="preserve">
<rect y="983" fill="none" width="768" height="41"/>
<g>
	<g>
		<path d="M177.3,997.4c4.1,0,7.8,1.4,10.5,4l1.9-2.3c-3.4-3-7.8-5-12.6-5s-9.2,2-12.6,5l1.9,2.3
			C169.5,998.9,173.2,997.4,177.3,997.4z"/>
		<path d="M177.3,1003.9c2.5,0,4.6,0.9,6.3,2.5l2-2.4c-2.4-1.9-5.2-3.3-8.5-3.3s-6.1,1.2-8.5,3.3l2,2.4
			C172.4,1004.7,174.8,1003.9,177.3,1003.9z"/>
		<path d="M181.6,1008.6c-1.1-0.9-2.7-1.6-4.3-1.6s-3.2,0.6-4.3,1.6l4.3,4.8L181.6,1008.6z"/>
	</g>
</g>
<path d="M750.2,1000.5c1.9,0,3.2,1.6,3.2,3.7c0,2-1.1,3.7-3.2,3.7V1000.5z"/>
<path d="M746,995.3c1.1,0,2,0.9,2,2v13.6c0,1.1-0.9,2-2,2h-40.9c-1.1,0-2-0.9-2-2v-13.6c0-1.1,0.9-2,2-2H746 M746,994.2h-40.9
	c-1.7,0-3.2,1.3-3.2,3.2v13.6c0,1.7,1.3,3.2,3.2,3.2H746c1.7,0,3.2-1.3,3.2-3.2v-13.6C749.2,995.6,747.8,994.2,746,994.2L746,994.2z
	"/>
<path d="M706.2,996.3H745c1.1,0,2,0.9,2,2v11.6c0,1.1-0.9,2-2,2h-38.8c-1.1,0-2-0.9-2-2v-11.6C704.1,997.2,705,996.3,706.2,996.3z"
	/>
<path d="M19.4,998.4c3.2,0,5.7,2.7,5.7,5.7s-2.7,5.7-5.7,5.7s-5.7-2.7-5.7-5.7C13.6,1001,16.3,998.4,19.4,998.4z"/>
<path d="M34.1,998.4c3.2,0,5.7,2.7,5.7,5.7s-2.7,5.7-5.7,5.7s-5.7-2.7-5.7-5.7C28.4,1001,30.9,998.4,34.1,998.4z"/>
<path d="M48.7,998.4c3.2,0,5.7,2.7,5.7,5.7s-2.7,5.7-5.7,5.7c-3.2,0-5.7-2.7-5.7-5.7C43,1001,45.6,998.4,48.7,998.4z"/>
<path d="M63.5,998.4c-3.2,0-5.7,2.7-5.7,5.7s2.7,5.7,5.7,5.7c3.2,0,5.7-2.7,5.7-5.7C69.2,1001,66.6,998.4,63.5,998.4L63.5,998.4z"/>
<path d="M78.1,998.9c3,0,5.2,2.4,5.2,5.2c0,3-2.4,5.2-5.2,5.2s-5.2-2.4-5.2-5.2C72.9,1001.2,75.2,998.9,78.1,998.9 M78.1,998.4
	c-3.2,0-5.7,2.7-5.7,5.7s2.7,5.7,5.7,5.7c3.1,0,5.7-2.7,5.7-5.7C83.9,1001,81.3,998.4,78.1,998.4L78.1,998.4z"/>
<g>
	<text transform="matrix(1 0 0 1 92.2734 1012.6276)" font-family="'HelveticaNeue-Medium'" font-size="25.1658">AT&amp;T</text>
</g>
<text transform="matrix(1 0 0 1 627.8535 1012.6276)" font-family="'HelveticaNeue'" font-size="25.1658">100%</text>
<text transform="matrix(1 0 0 1 345.1245 1012.6276)" font-family="'HelveticaNeue-Medium'" font-size="25.1658">8:08 AM</text>
</svg>
