<?xml version="1.0" encoding="utf-8"?>
<!-- Generator: Adobe Illustrator 18.1.1, SVG Export Plug-In . SVG Version: 6.00 Build 0)  -->
<!DOCTYPE svg PUBLIC "-//W3C//DTD SVG 1.1//EN" "http://www.w3.org/Graphics/SVG/1.1/DTD/svg11.dtd">
<svg version="1.1" id="icon" xmlns="http://www.w3.org/2000/svg" xmlns:xlink="http://www.w3.org/1999/xlink" x="0px" y="0px"
	 viewBox="0 0 41.9 41.8" enable-background="new 0 0 41.9 41.8" xml:space="preserve">
<g>
	<path fill="#0078C8" d="M0,12.3v29.2c0,0.2,0.2,0.3,0.4,0.2l12-5.8l0,0l0.4-0.2v-0.4v-29V5.9L0.4,11.7C0.2,11.8,0,12,0,12.3z"/>
	<polygon fill="#0078C8" points="14.7,35.7 27.2,41.8 27.2,11.8 14.7,5.9 	"/>
	<path fill="#0078C8" d="M34.7,21.6l-1.2-1.2c-0.4-0.4-2.6-2.7-4.5-5.5v26.5v0.4l12.4-6c0.2-0.1,0.4-0.4,0.4-0.6V12.7
		c-2.1,3.8-5.4,7.2-5.9,7.8L34.7,21.6z"/>
	<path fill="#0078C8" d="M41.2,10.2c0.4-0.9,0.7-2,0.7-3.1c0,0,0-0.1,0-0.1c0-0.3,0-0.3,0-0.1C41.7,3.1,38.6,0,34.8,0
		c-3.9,0-7.1,3.2-7.1,7.1c0,0,0,0,0,0l0,0c0,0.2,0,0.4,0,0.5c0.1,0.9,0.3,1.7,0.7,2.5c1.8,4.4,6.4,9.1,6.4,9.1S39.4,14.6,41.2,10.2z
		 M32.7,7.1C32.7,6,33.6,5,34.8,5c1.2,0,2.1,0.9,2.1,2.1c0,1.2-0.9,2.1-2.1,2.1C33.6,9.2,32.7,8.3,32.7,7.1z"/>
</g>
</svg>
