<?xml version="1.0" encoding="utf-8"?>
<!-- Generator: Adobe Illustrator 18.1.0, SVG Export Plug-In . SVG Version: 6.00 Build 0)  -->
<!DOCTYPE svg PUBLIC "-//W3C//DTD SVG 1.1//EN" "http://www.w3.org/Graphics/SVG/1.1/DTD/svg11.dtd">
<svg version="1.1" xmlns="http://www.w3.org/2000/svg" xmlns:xlink="http://www.w3.org/1999/xlink" x="0px" y="0px"
	 viewBox="0 467.5 638.2 667.5" enable-background="new 0 467.5 638.2 667.5" xml:space="preserve">
<g id="Layer_1">
	<path opacity="0.8" fill="#FFFFFF" enable-background="new    " d="M628.7,467.5H9.5c-5.3,0-9.5,4.2-9.5,9.5v276.1h638.1V476.9
		C638.1,471.7,633.9,467.5,628.7,467.5z"/>
	<path opacity="0.8" fill="#FFFFFF" enable-background="new    " d="M0,1016.5c0,5.3,4.2,9.5,9.5,9.5h619.3c5.3,0,9.5-4.2,9.5-9.5
		V757.3H0V1016.5z"/>
	
		<text transform="matrix(1 0 0 1 43.9321 976.4746)" display="none" enable-background="new    " font-family="'HelveticaNeue'" font-size="23.0894">Message</text>
	<text transform="matrix(1 0 0 1 221.3726 976.4746)" font-family="'HelveticaNeue'" font-size="23.0894">Mail</text>
	<text transform="matrix(1 0 0 1 357.7607 976.4746)" font-family="'HelveticaNeue'" font-size="23.0894">Twitter</text>
	<text transform="matrix(1 0 0 1 492.5439 976.4746)" font-family="'HelveticaNeue'" font-size="23.0894">Facebook</text>
	<g>
		<path fill="#FFFFFF" d="M628.6,1135.1H9.5c-5.3,0-9.5-4.2-9.5-9.5v-73.5c0-5.3,4.2-9.5,9.5-9.5h619.3c5.3,0,9.5,4.2,9.5,9.5v73.5
			C638.1,1130.9,633.9,1135.1,628.6,1135.1z"/>
		<text transform="matrix(1 0 0 1 245.7715 1104.3193)" fill="#007AFF" font-family="'HelveticaNeue-Medium'" font-size="44.0796">Cancel</text>
	</g>
	<rect x="178.4" y="565.3" fill="none" width="427" height="106.6"/>
	<rect x="253.8" y="566" fill="none" width="351.7" height="114.7"/>
	
		<linearGradient id="SVGID_1_" gradientUnits="userSpaceOnUse" x1="0" y1="901.0095" x2="608.0182" y2="901.0095" gradientTransform="matrix(1.0495 0 0 -1.0495 0 1699.7446)">
		<stop  offset="0" style="stop-color:#FFFFFF;stop-opacity:0.25"/>
		<stop  offset="7.066998e-02" style="stop-color:#FFFFFF;stop-opacity:0.3037"/>
		<stop  offset="0.5" style="stop-color:#FFFFFF;stop-opacity:0.63"/>
		<stop  offset="0.9293" style="stop-color:#FFFFFF;stop-opacity:0.3037"/>
		<stop  offset="1" style="stop-color:#FFFFFF;stop-opacity:0.25"/>
	</linearGradient>
	<rect y="753.1" fill="url(#SVGID_1_)" width="638.1" height="2.1"/>
	
		<linearGradient id="SVGID_2_" gradientUnits="userSpaceOnUse" x1="0" y1="899.0144" x2="608.0182" y2="899.0144" gradientTransform="matrix(1.0495 0 0 -1.0495 0 1699.7446)">
		<stop  offset="0" style="stop-color:#FFFFFF;stop-opacity:0.25"/>
		<stop  offset="7.066998e-02" style="stop-color:#FFFFFF;stop-opacity:0.3037"/>
		<stop  offset="0.5" style="stop-color:#FFFFFF;stop-opacity:0.63"/>
		<stop  offset="0.9293" style="stop-color:#FFFFFF;stop-opacity:0.3037"/>
		<stop  offset="1" style="stop-color:#FFFFFF;stop-opacity:0.25"/>
	</linearGradient>
	<rect y="755.2" fill="url(#SVGID_2_)" width="638.1" height="2.1"/>
	<g>
		<g>
			<g>
				<g>
					
						<linearGradient id="SVGID_3_" gradientUnits="userSpaceOnUse" x1="520.3781" y1="844.0553" x2="520.3781" y2="724.0667" gradientTransform="matrix(1.0495 0 0 -1.0495 0 1699.7446)">
						<stop  offset="0" style="stop-color:#6386D2"/>
						<stop  offset="1" style="stop-color:#2B4883"/>
					</linearGradient>
					<path fill="url(#SVGID_3_)" d="M580.8,939.8h-69.3c-15.7,0-28.3-12.7-28.3-28.3v-69.3c0-15.7,12.7-28.3,28.3-28.3h69.3
						c15.7,0,28.3,12.7,28.3,28.3v69.3C609.1,927.2,596.4,939.8,580.8,939.8z"/>
				</g>
			</g>
		</g>
		
			<linearGradient id="SVGID_4_" gradientUnits="userSpaceOnUse" x1="534.866" y1="826.0048" x2="534.866" y2="723.9717" gradientTransform="matrix(1.0495 0 0 -1.0495 0 1699.7446)">
			<stop  offset="0.25" style="stop-color:#FFFFFF"/>
			<stop  offset="1" style="stop-color:#D8E2F3"/>
		</linearGradient>
		<path fill="url(#SVGID_4_)" d="M570.3,857c0-3.5,2.8-6.3,6.3-6.3h12.6v-17.8h-15.8c-12.8,0-23.1,10.3-23.1,23.1v15.8h-16.8v18.8
			h16.9v49.4h19.9v-49.4h16.8l2.1-18.8h-18.8V857z"/>
	</g>
	<g>
		<g>
			<g>
				<g>
					<g>
						
							<linearGradient id="SVGID_5_" gradientUnits="userSpaceOnUse" x1="232.4245" y1="844.0553" x2="232.4245" y2="724.0667" gradientTransform="matrix(1.0495 0 0 -1.0495 0 1699.7446)">
							<stop  offset="7.029257e-02" style="stop-color:#1E51EE"/>
							<stop  offset="0.1839" style="stop-color:#1D66F0"/>
							<stop  offset="0.5742" style="stop-color:#1BABF8"/>
							<stop  offset="0.8564" style="stop-color:#1AD6FD"/>
							<stop  offset="1" style="stop-color:#19E6FF"/>
						</linearGradient>
						<path fill="url(#SVGID_5_)" d="M278.6,939.8h-69.3c-15.7,0-28.3-12.7-28.3-28.3v-69.3c0-15.7,12.7-28.3,28.3-28.3h69.3
							c15.7,0,28.3,12.7,28.3,28.3v69.3C306.9,927.2,294.2,939.8,278.6,939.8z"/>
					</g>
				</g>
			</g>
		</g>
		<g>
			<path fill="#FFFFFF" d="M244.1,886c2.5,0,4.8-1.1,6.6-2.8l32.7-33.6h-79.3l33.3,33.7C239.3,885.1,241.6,886,244.1,886z"/>
			<polygon fill="#FFFFFF" points="226,876.5 201.9,851.9 201.9,901.2 			"/>
			<polygon fill="#FFFFFF" points="261.6,876.6 285.9,901.2 285.9,851.9 			"/>
			<path fill="#FFFFFF" d="M259.6,878.8l-6.9,6.9c-2.3,2.3-5.4,3.7-8.6,3.7l0,0c-3.3,0-6.3-1.3-8.6-3.6l-7.1-6.9l-24.1,24.3h79.3
				L259.6,878.8z"/>
		</g>
	</g>
	<g>
		<g>
			<g>
				<g>
					<g>
						
							<linearGradient id="SVGID_6_" gradientUnits="userSpaceOnUse" x1="376.3541" y1="844.0553" x2="376.3541" y2="724.0667" gradientTransform="matrix(1.0495 0 0 -1.0495 0 1699.7446)">
							<stop  offset="0" style="stop-color:#55ACEE"/>
							<stop  offset="1" style="stop-color:#3B89C4"/>
						</linearGradient>
						<path fill="url(#SVGID_6_)" d="M429.6,939.8h-69.3c-15.7,0-28.3-12.7-28.3-28.3v-69.3c0-15.7,12.7-28.3,28.3-28.3h69.3
							c15.7,0,28.3,12.7,28.3,28.3v69.3C458,927.2,445.3,939.8,429.6,939.8z"/>
					</g>
				</g>
			</g>
		</g>
		<path fill="#FFFFFF" d="M440.9,848.9c-3.4,1.5-6.9,2.5-10.6,2.9c3.8-2.3,6.7-5.9,8.2-10.3c-3.6,2.1-7.6,3.7-11.8,4.5
			c-3.4-3.6-8.2-5.9-13.6-5.9c-10.2,0-18.4,8.3-18.4,18.4c0,1.5,0.2,2.8,0.5,4.2c-15.5-0.7-29.1-8.2-38.2-19.3
			c-1.6,2.7-2.5,5.9-2.5,9.4c0,6.4,3.3,12.1,8.2,15.5c-3.1-0.1-5.9-0.9-8.4-2.3c0,0.1,0,0.1,0,0.2c0,8.9,6.4,16.5,14.8,18.1
			c-1.6,0.4-3.2,0.6-4.8,0.6c-1.2,0-2.3-0.1-3.5-0.3c2.3,7.4,9.3,12.7,17.3,12.8c-6.3,4.9-14.3,8-23,8c-1.5,0-2.9-0.1-4.4-0.2
			c8.2,5.3,17.9,8.3,28.3,8.3c34,0,52.6-28.2,52.6-52.6c0-0.8,0-1.6-0.1-2.4C435.3,855.8,438.5,852.6,440.9,848.9z"/>
	</g>
	<path fill="#0078C8" d="M233.7,566.7l-7.2-27.1l-0.1-0.7c1.1-0.1,2.2-0.6,3.1-1.4l4.3-4.3l-4.5-4.5l-4,4l-1.7-8.8l10.9-10.9
		c1.9-1.9,7.5-10.7,5.6-12.5l-0.4-0.4c-1.9-1.9-10.7,3.8-12.5,5.6l-10.9,10.9l-8.8-1.7l4-4l-4.5-4.5l-4.3,4.3
		c-0.8,0.8-1.4,1.9-1.4,3.1l-0.7-0.1l-27.1-7.2c-1.7-0.4-3.5,0-4.7,1.3l-1.5,1.5l18.8,8.6c4.7,2.2,9,5.2,12.7,8.9l3.5,3.5
		c-11.6,12.4-10.7,11-18.9,22.1l-11.4-2.6c-1.1-0.3-2.2,0-3.1,0.8l-2.6,2.6l11.7,6.7c-2.4,3.5-4,6.1-3.6,6.5
		c0.4,0.4,3.1-1.3,6.5-3.6l6.7,11.7l2.6-2.6c0.8-0.8,1.1-1.9,0.8-3.1l-2.6-11.4c11.1-8.4,9.9-7.5,22.1-18.9l3.5,3.5
		c3.6,3.6,6.7,7.9,8.9,12.7l8.6,18.8l1.5-1.5C233.7,570.2,234.1,568.4,233.7,566.7z"/>
	<g>
		<g>
			<rect x="432.9" y="522.6" fill="#0078C8" width="14.3" height="50.4"/>
			<path fill="#0078C8" d="M407.9,494.4c-0.6-0.4-1.5-0.4-2.1,0l-12.5,9.6h27L407.9,494.4z"/>
			<path fill="#0078C8" d="M384.3,573h44.8v-65.3h-44.8V573z M397.8,567c-2.6,0-4.9-2.2-4.9-4.9s2.2-4.9,4.9-4.9s4.9,2.2,4.9,4.9
				S400.5,567,397.8,567z M415.8,513.8c2.6,0,4.9,2.2,4.9,4.9s-2.2,4.9-4.9,4.9s-4.9-2.2-4.9-4.9S413,513.8,415.8,513.8z
				 M415.8,528.3c2.6,0,4.9,2.2,4.9,4.9s-2.2,4.9-4.9,4.9s-4.9-2.2-4.9-4.9C410.9,530.4,413,528.3,415.8,528.3z M415.8,542.6
				c2.6,0,4.9,2.2,4.9,4.9s-2.2,4.9-4.9,4.9s-4.9-2.2-4.9-4.9S413,542.6,415.8,542.6z M415.8,557.2c2.6,0,4.9,2.2,4.9,4.9
				s-2.2,4.9-4.9,4.9s-4.9-2.2-4.9-4.9C410.9,559.5,413,557.2,415.8,557.2z M397.8,513.8c2.6,0,4.9,2.2,4.9,4.9s-2.2,4.9-4.9,4.9
				s-4.9-2.2-4.9-4.9S395.2,513.8,397.8,513.8z M397.8,528.3c2.6,0,4.9,2.2,4.9,4.9s-2.2,4.9-4.9,4.9s-4.9-2.2-4.9-4.9
				C393,530.4,395.2,528.3,397.8,528.3z M397.8,542.6c2.6,0,4.9,2.2,4.9,4.9s-2.2,4.9-4.9,4.9s-4.9-2.2-4.9-4.9
				S395.2,542.6,397.8,542.6z"/>
		</g>
	</g>
	<path fill="#0078C8" d="M353.2,525.6c0,0-4.5,0-7.4,0c-0.6,0-0.8,0.3-1.3,0.6l-4.2-10.2c-1.9-4.7-7.2-8.2-12.2-8.2h-32.4
		c-5,0-10.3,3.5-12.2,8.1l-4.3,10.2c-0.3-0.3-0.7-0.6-1.3-0.6c-2.9,0-7.4,0-7.4,0s-1.5,0-1.5,1.5c0,1.5,1.5,4.5,1.5,4.5
		s0.6,1.5,2.1,1.5c0.4,0,1.1,0,1.9,0c-1.3,1.5-1.9,3.6-1.8,5.8l1.5,17.8c0.1,1.9,1,3.9,2.2,5.3c0,0.1,0,0.4,0,0.6v7.4
		c0,1.7,1.4,2.9,2.9,2.9h7.4c1.7,0,2.9-1.4,2.9-2.9v-4.5h44.3v4.5c0,1.7,1.4,2.9,2.9,2.9h7.4c1.7,0,2.9-1.4,2.9-2.9v-7.4
		c0-0.1,0-0.4,0-0.6c1.3-1.5,2.1-3.3,2.2-5.3l1.5-17.8c0.1-2.2-0.6-4.3-1.8-5.8c0.8,0,1.7,0,1.9,0c1.5,0,1.9-1.5,1.9-1.5
		s1.5-2.9,1.5-4.5C354.7,525.6,353.2,525.6,353.2,525.6z M284.4,549.4c-2.9,0-5.4-2.4-5.4-5.4s2.4-5.4,5.4-5.4
		c2.9,0,5.4,2.4,5.4,5.4S287.5,549.4,284.4,549.4z M326.3,544.4l-1,2.2c-1,2.2-3.8,4-6.1,4h-14.8c-2.5,0-5.2-1.8-6.1-4l-1-2.2
		c-1-2.2,0.3-4,2.6-4h23.7C326,540.4,327.3,542.2,326.3,544.4z M287,530.1l4.6-10.6c0.6-1.4,2.6-2.8,4.2-2.8h32.4
		c1.5,0,3.5,1.4,4,2.8l4.5,10.6H287z M339.1,549.4c-2.9,0-5.4-2.4-5.4-5.4s2.4-5.4,5.4-5.4c2.9,0,5.4,2.4,5.4,5.4
		S342.2,549.4,339.1,549.4z"/>
	<rect x="46.7" y="601.3" fill="none" width="533" height="196"/>
	<text transform="matrix(1 0 0 1 58.1507 620.5948)"><tspan x="0" y="0" font-family="'HelveticaNeue'" font-size="27">Share your travel plans with family, friends </tspan><tspan x="10.7" y="32.4" font-family="'HelveticaNeue'" font-size="27">and colleagues. It’s an easy way to keep </tspan><tspan x="6.4" y="64.8" font-family="'HelveticaNeue'" font-size="27">them in the know, and helps you connect </tspan><tspan x="111.5" y="97.2" font-family="'HelveticaNeue'" font-size="27">with others on the road. </tspan></text>
</g>
<g id="Layer_3">
	<g>
		<g>
			<g>
				<g>
					<path fill="#FFFFFF" d="M127.4,939.7H58.1c-15.7,0-28.3-12.7-28.3-28.3v-69.3c0-15.7,12.7-28.3,28.3-28.3h69.3
						c15.7,0,28.3,12.7,28.3,28.3v69.3C155.7,927.1,143.1,939.7,127.4,939.7z"/>
				</g>
			</g>
		</g>
	</g>
	<text transform="matrix(1 0 0 1 47.2112 846.768)" fill="#FF0019" font-family="'HelveticaNeue'" font-size="24">Tuesday</text>
	<text transform="matrix(1 0 0 1 66.7547 924.1193)" font-family="'HelveticaNeue-UltraLight'" font-size="90">9</text>
	<text transform="matrix(1 0 0 1 44.3504 976.4746)" font-family="'HelveticaNeue'" font-size="23">Calendar</text>
</g>
</svg>
