<?xml version="1.0" encoding="utf-8"?>
<!-- Generator: Adobe Illustrator 18.1.1, SVG Export Plug-In . SVG Version: 6.00 Build 0)  -->
<!DOCTYPE svg PUBLIC "-//W3C//DTD SVG 1.1//EN" "http://www.w3.org/Graphics/SVG/1.1/DTD/svg11.dtd">
<svg version="1.1" id="Layer_1" xmlns="http://www.w3.org/2000/svg" xmlns:xlink="http://www.w3.org/1999/xlink" x="0px" y="0px"
	 viewBox="0 0 36.5 30.3" enable-background="new 0 0 36.5 30.3" xml:space="preserve">
<path fill-rule="evenodd" clip-rule="evenodd" fill="#FFFFFF" d="M35.5,4H0.9C0.4,4,0,3.6,0,3.1V0.9C0,0.4,0.4,0,0.9,0h34.6
	c0.5,0,0.9,0.4,0.9,0.9v2.1C36.5,3.6,36,4,35.5,4z"/>
<path fill-rule="evenodd" clip-rule="evenodd" fill="#FFFFFF" d="M35.5,30.3H0.9c-0.5,0-0.9-0.4-0.9-0.9v-2.1c0-0.5,0.4-0.9,0.9-0.9
	h34.6c0.5,0,0.9,0.4,0.9,0.9v2.1C36.5,29.9,36,30.3,35.5,30.3z"/>
<path fill-rule="evenodd" clip-rule="evenodd" fill="#FFFFFF" d="M35.5,21.5H0.9c-0.5,0-0.9-0.4-0.9-0.9v-2.1c0-0.5,0.4-0.9,0.9-0.9
	h34.6c0.5,0,0.9,0.4,0.9,0.9v2.1C36.5,21.1,36,21.5,35.5,21.5z"/>
<path fill-rule="evenodd" clip-rule="evenodd" fill="#FFFFFF" d="M35.5,12.8H0.9c-0.5,0-0.9-0.4-0.9-0.9V9.7c0-0.5,0.4-0.9,0.9-0.9
	h34.6c0.5,0,0.9,0.4,0.9,0.9v2.1C36.5,12.3,36,12.8,35.5,12.8z"/>
</svg>
