<?xml version="1.0" encoding="utf-8"?>
<!-- Generator: Adobe Illustrator 18.1.1, SVG Export Plug-In . SVG Version: 6.00 Build 0)  -->
<!DOCTYPE svg PUBLIC "-//W3C//DTD SVG 1.1//EN" "http://www.w3.org/Graphics/SVG/1.1/DTD/svg11.dtd">
<svg version="1.1" id="icon" xmlns="http://www.w3.org/2000/svg" xmlns:xlink="http://www.w3.org/1999/xlink" x="0px" y="0px"
	 viewBox="0 0 39.7 39.7" enable-background="new 0 0 39.7 39.7" xml:space="preserve">
<g>
	<path fill="#A7B6BF" d="M19.8,5.9c-0.9,0-1.7,0.8-1.7,1.7v11.6l-4.6,4.6c-0.7,0.7-0.7,1.7,0,2.4c0.3,0.3,0.8,0.5,1.2,0.5
		c0.4,0,0.9-0.2,1.2-0.5l4.9-4.9c0,0,0.1-0.1,0.1-0.1c0.4-0.3,0.6-0.8,0.6-1.3V7.6C21.5,6.6,20.8,5.9,19.8,5.9z"/>
	<path fill="#A7B6BF" d="M39.7,19.8C39.7,19.8,39.7,19.8,39.7,19.8C39.7,8.9,30.8,0,19.8,0C8.9,0,0,8.9,0,19.8c0,0,0,0,0,0
		c0,0,0,0,0,0c0,0,0,0,0,0c0,10.9,8.9,19.8,19.8,19.8C30.8,39.7,39.7,30.8,39.7,19.8C39.7,19.8,39.7,19.8,39.7,19.8
		C39.7,19.8,39.7,19.8,39.7,19.8z M28.8,33.6l-0.5-0.8c-0.2-0.4-0.8-0.5-1.2-0.3c-0.4,0.2-0.5,0.8-0.3,1.2l0.5,0.8
		c-1.8,0.9-3.8,1.5-5.9,1.7c-0.3-0.6-0.9-1-1.6-1c-0.7,0-1.3,0.4-1.6,1c-2.1-0.2-4.1-0.8-5.9-1.7l0.5-0.8c0.2-0.4,0.1-0.9-0.3-1.2
		c-0.4-0.2-0.9-0.1-1.2,0.3l-0.5,0.8c-1.9-1.3-3.6-2.9-4.8-4.8l0.8-0.5c0.4-0.2,0.6-0.8,0.3-1.2c-0.2-0.4-0.8-0.6-1.2-0.3l-0.8,0.5
		c-0.9-1.8-1.5-3.8-1.7-5.9c0.6-0.3,1-0.9,1-1.6c0-0.7-0.4-1.3-1-1.6c0.2-2.1,0.8-4.1,1.7-5.9L6,12.8c0.1,0.1,0.3,0.1,0.4,0.1
		c0.3,0,0.6-0.2,0.7-0.4c0.2-0.4,0.1-0.9-0.3-1.2l-0.8-0.5C7.3,9,9,7.3,10.9,6.1l0.5,0.8c0.2,0.3,0.4,0.4,0.7,0.4
		c0.1,0,0.3,0,0.4-0.1c0.4-0.2,0.5-0.8,0.3-1.2l-0.5-0.8c1.8-0.9,3.8-1.5,5.9-1.7c0.3,0.6,0.9,1,1.6,1c0.7,0,1.3-0.4,1.6-1
		c2.1,0.2,4.1,0.8,5.9,1.7L26.8,6c-0.2,0.4-0.1,0.9,0.3,1.2c0.1,0.1,0.3,0.1,0.4,0.1c0.3,0,0.6-0.2,0.7-0.4l0.5-0.8
		c1.9,1.3,3.6,2.9,4.8,4.8l-0.8,0.5c-0.4,0.2-0.5,0.8-0.3,1.2c0.2,0.3,0.4,0.4,0.7,0.4c0.1,0,0.3,0,0.4-0.1l0.8-0.5
		c0.9,1.8,1.5,3.8,1.7,5.9c-0.6,0.3-1,0.9-1,1.6c0,0.7,0.4,1.3,1,1.6c-0.2,2.1-0.8,4.1-1.7,5.9l-0.8-0.5c-0.4-0.2-0.9-0.1-1.2,0.3
		c-0.2,0.4-0.1,0.9,0.3,1.2l0.8,0.5C32.4,30.7,30.7,32.3,28.8,33.6z"/>
</g>
</svg>
