<?xml version="1.0" encoding="utf-8"?>
<!-- Generator: Adobe Illustrator 18.1.0, SVG Export Plug-In . SVG Version: 6.00 Build 0)  -->
<!DOCTYPE svg PUBLIC "-//W3C//DTD SVG 1.1//EN" "http://www.w3.org/Graphics/SVG/1.1/DTD/svg11.dtd">
<svg version="1.1" id="Layer_3" xmlns="http://www.w3.org/2000/svg" xmlns:xlink="http://www.w3.org/1999/xlink" x="0px" y="0px"
	 viewBox="0 0 215.2 215.2" enable-background="new 0 0 215.2 215.2" xml:space="preserve">
<path fill="#0078C8" d="M196.3,193.9l-20.9-78.6l-0.4-2.1c3.2-0.3,6.4-1.6,8.8-4.1l12.5-12.5l-13-13l-11.8,11.8l-5-25.3l31.5-31.5
	c5.5-5.5,21.8-30.8,16.3-36.3L213,1.1c-5.5-5.5-30.8,10.7-36.3,16.3l-31.5,31.5l-25.3-5L131.7,32l-13-13l-12.5,12.5
	c-2.5,2.5-3.8,5.6-4.1,8.8l-2.1-0.4L21.4,19c-4.9-1.3-10.1,0.1-13.7,3.7l-4.2,4.2L57.6,52c13.7,6.3,26.1,15,36.8,25.7l9.9,9.9
	c-33.3,35.6-30.9,31.8-54.9,64l-33.1-7.8c-3.2-0.7-6.5,0.2-8.8,2.5L0,153.8L34,173c-6.9,10-11.6,17.7-10.5,18.8
	c1.1,1.1,8.8-3.6,18.8-10.5l19.2,34l7.5-7.5c2.3-2.3,3.2-5.6,2.5-8.8l-7.8-33.1c32.3-24.1,28.4-21.6,64-54.9l9.9,9.9
	c10.7,10.7,19.4,23.1,25.7,36.8l25.1,54.2l4.3-4.2C196.2,204,197.6,198.8,196.3,193.9z"/>
</svg>
