<?xml version="1.0" encoding="utf-8"?>
<!-- Generator: Adobe Illustrator 19.1.0, SVG Export Plug-In . SVG Version: 6.00 Build 0)  -->
<!DOCTYPE svg PUBLIC "-//W3C//DTD SVG 1.1//EN" "http://www.w3.org/Graphics/SVG/1.1/DTD/svg11.dtd">
<svg version="1.1" id="Layer_1" xmlns="http://www.w3.org/2000/svg" xmlns:xlink="http://www.w3.org/1999/xlink" x="0px" y="0px"
	 width="120px" height="24px" viewBox="-245 385 120 24" style="enable-background:new -245 385 120 24;" xml:space="preserve">
<style type="text/css">
	.st0{fill:#A7B6BF;}
</style>
<path class="st0" d="M-134.8,394.9c0.3,0.3,0.5,0.7,0.5,1.2c0,0.5-0.2,0.9-0.5,1.2l-8.7,8.7c-0.3,0.3-0.7,0.5-1.2,0.5
	s-0.9-0.2-1.2-0.5l-1-1c-0.3-0.3-0.5-0.8-0.5-1.2c0-0.5,0.2-0.9,0.5-1.2l6.5-6.5l-6.5-6.5c-0.3-0.3-0.5-0.8-0.5-1.2
	c0-0.5,0.2-0.9,0.5-1.2l1-1c0.3-0.3,0.7-0.5,1.2-0.5s0.9,0.2,1.2,0.5L-134.8,394.9z M-134.3,396.1
	C-134.3,396.1-134.3,396.1-134.3,396.1C-134.3,396.1-134.3,396.1-134.3,396.1L-134.3,396.1z M-183.1,388.4c0-0.5-0.2-0.9-0.5-1.2
	l-1-1c-0.3-0.3-0.7-0.5-1.2-0.5c-0.5,0-0.9,0.2-1.2,0.5l-8.7,8.7c-0.3,0.3-0.5,0.7-0.5,1.2c0,0.5,0.2,0.9,0.5,1.2l8.7,8.7v0
	c0.3,0.3,0.7,0.5,1.2,0.5c0.5,0,0.9-0.2,1.2-0.5l1-1c0.3-0.3,0.5-0.7,0.5-1.2s-0.2-0.9-0.5-1.2l-6.5-6.5l6.5-6.5
	C-183.3,389.3-183.1,388.9-183.1,388.4z"/>
<g>
	<polygon class="st0" points="-230.8,392.4 -233.7,395.4 -236.7,392.4 -238.6,394.4 -235.7,397.3 -238.6,400.3 -236.7,402.2 
		-233.7,399.3 -230.8,402.2 -228.8,400.3 -231.8,397.3 -228.8,394.4 	"/>
	<path class="st0" d="M-233.6,386.8c-5.7,0-10.4,4.7-10.4,10.4c0,5.7,4.7,10.4,10.4,10.4c5.7,0,10.4-4.7,10.4-10.4
		C-223.2,391.4-227.8,386.8-233.6,386.8z M-226,397.2c0,4.2-3.4,7.6-7.6,7.6c-4.2,0-7.7-3.4-7.7-7.6s3.4-7.6,7.7-7.6
		C-229.4,389.6-226,393-226,397.2z"/>
</g>
</svg>
