<?xml version="1.0" encoding="utf-8"?>
<!-- Generator: Adobe Illustrator 19.1.0, SVG Export Plug-In . SVG Version: 6.00 Build 0)  -->
<!DOCTYPE svg PUBLIC "-//W3C//DTD SVG 1.1//EN" "http://www.w3.org/Graphics/SVG/1.1/DTD/svg11.dtd">
<svg version="1.1" id="Layer_1" xmlns="http://www.w3.org/2000/svg" xmlns:xlink="http://www.w3.org/1999/xlink" x="0px" y="0px"
	 viewBox="-281 373 48 48" style="enable-background:new -281 373 48 48;" xml:space="preserve">
<style type="text/css">
	.st0{display:none;}
	.st1{display:inline;fill:#E6E7E8;}
	.st2{display:inline;}
	.st3{fill:none;stroke:#544841;stroke-width:8.061200e-02;stroke-miterlimit:10;}
	.st4{fill:#A7B6BF;}
</style>
<g id="bg" class="st0">
	<path class="st1" d="M-591.6,1065h-30.8c-4.7,0-8.6-3.9-8.6-8.6v-30.8c0-4.7,3.9-8.6,8.6-8.6h30.8c4.7,0,8.6,3.9,8.6,8.6v30.8
		C-583,1061.1-586.9,1065-591.6,1065z"/>
</g>
<g id="lines" class="st0">
	<g class="st2">
		<line class="st3" x1="-607" y1="1017.2" x2="-607" y2="1064.8"/>
		<line class="st3" x1="-615.9" y1="1017.2" x2="-615.9" y2="1064.8"/>
		<line class="st3" x1="-598.1" y1="1017.2" x2="-598.1" y2="1064.8"/>
		<line class="st3" x1="-586.3" y1="1017.2" x2="-586.3" y2="1064.8"/>
		<line class="st3" x1="-627.7" y1="1017.2" x2="-627.7" y2="1064.8"/>
		<line class="st3" x1="-630.8" y1="1041" x2="-583.2" y2="1041"/>
		<line class="st3" x1="-630.8" y1="1032.1" x2="-583.2" y2="1032.1"/>
		<line class="st3" x1="-630.8" y1="1049.9" x2="-583.2" y2="1049.9"/>
		<line class="st3" x1="-630.8" y1="1061.7" x2="-583.2" y2="1061.7"/>
		<line class="st3" x1="-630.8" y1="1020.3" x2="-583.2" y2="1020.3"/>
		<line class="st3" x1="-630.8" y1="1017.2" x2="-583.2" y2="1064.8"/>
		<line class="st3" x1="-630.8" y1="1064.8" x2="-583.2" y2="1017.2"/>
		<circle class="st3" cx="-607" cy="1041" r="12.5"/>
		<circle class="st3" cx="-607" cy="1041" r="20.7"/>
		<g id="_x31_20px_icon_102_">
			<path id="Rectangle_7_102_" class="st3" d="M-616.1,1064.8c-5.4,0-8.5,0-11.6-3.1c-3.1-3.1-3.1-6.2-3.1-11.6v-18.2
				c0-5.4,0-8.5,3.1-11.6s6.2-3.1,11.6-3.1h18.2c5.4,0,8.5,0,11.6,3.1s3.1,6.2,3.1,11.6v18.2c0,5.4,0,8.5-3.1,11.6
				c-3.1,3.1-6.2,3.1-11.6,3.1H-616.1z"/>
		</g>
		<path class="st3" d="M-607,1026.2"/>
		<circle class="st3" cx="-607" cy="1041" r="8.8"/>
		<path class="st3" d="M-600.3,1042.1c0.1-0.4,0.1-0.7,0.1-1.1s0-0.8-0.1-1.1c-0.5-2.8-2.7-5.1-5.6-5.6c-0.4-0.1-0.8-0.1-1.1-0.1
			c-0.4,0-0.8,0-1.1,0.1c-2.9,0.5-5.1,2.7-5.6,5.6c-0.1,0.4-0.1,0.7-0.1,1.1s0,0.8,0.1,1.1c0.5,2.9,2.7,5.1,5.6,5.6
			c0.4,0.1,0.7,0.1,1.1,0.1s0.8,0,1.1-0.1C-603,1047.2-600.8,1045-600.3,1042.1z"/>
	</g>
</g>
<g id="icon">
	<path class="st4" d="M-267.7,382.5l14.3,14.5l-14,14.6c-0.4,0.4-0.3,0.9,0,1.3l1.5,1.5c0.4,0.4,1,0.4,1.3,0l16.2-16.8
		c0.4-0.4,0.4-1,0-1.3l-16.4-16.7c-0.4-0.4-1-0.3-1.3,0l-1.6,1.6C-268,381.5-268,382.1-267.7,382.5z"/>
</g>
</svg>
