<?xml version="1.0" encoding="utf-8"?>
<!-- Generator: Adobe Illustrator 18.0.0, SVG Export Plug-In . SVG Version: 6.00 Build 0)  -->
<!DOCTYPE svg PUBLIC "-//W3C//DTD SVG 1.1//EN" "http://www.w3.org/Graphics/SVG/1.1/DTD/svg11.dtd">
<svg version="1.1" id="Vrstva_1" xmlns="http://www.w3.org/2000/svg" xmlns:xlink="http://www.w3.org/1999/xlink" x="0px" y="0px"
	 viewBox="0 0 311.1 489.3" enable-background="new 0 0 311.1 489.3" xml:space="preserve">
<g>
	<g>
		<path fill="#FFFFFF" d="M288.5,443.7c-8.8-15.9-26.8-43.9-45.5-72.3c-7.8-11.9-15.8-23.8-23.4-35H91.5
			c-13.7,20.3-28.7,42.8-41.7,63c-11.5,17.9-21.5,34-27.3,44.5c-1.1,1.6-2.6,6.4-2.4,7.7c0,3.6,1.3,6.6,3.3,8.7
			c2,2.1,4.3,3.1,6.9,3.1h250.4c2.6,0,4.9-1.1,6.9-3.1c2-2.1,3.3-5.1,3.3-8.7C291.2,450.2,289.6,445.4,288.5,443.7z"/>
		<path fill="#FFFFFF" d="M306,433.9L306,433.9c-12.6-22.6-40.4-65-65.2-102c-21.6-32.1-40.8-60-45.4-66.8V155.4
			c4.7-2.4,7.8-7.3,7.8-12.9c0-8-6.5-14.6-14.6-14.6h-66.2c-8,0-14.6,6.5-14.6,14.6c0,5.6,3.2,10.5,7.8,12.9v109.8
			c-4.7,6.8-23.9,34.7-45.5,66.8c-24.9,37-52.7,79.4-65.2,102.1c-2.2,4-4.8,10.3-4.9,17.4c0,8.7,3.3,16.6,8.8,22.4
			c5.4,5.8,13.1,9.5,21.6,9.5l250.4,0c0,0,0,0,0,0c8.5,0,16.1-3.7,21.6-9.5c5.4-5.8,8.8-13.8,8.8-22.4
			C311,444.3,308.2,437.9,306,433.9z M293.5,465.7c-3.4,3.6-7.8,5.7-12.8,5.7H30.3c-5,0-9.4-2.1-12.8-5.7c-3.4-3.6-5.5-8.6-5.5-14.2
			c-0.1-3.6,1.9-9,3.4-11.6c12-21.8,39.9-64.4,64.7-101.2c12.4-18.4,24-35.5,32.6-48c8.5-12.5,13.9-20.3,14-20.3l1.1-1.6V145.4
			l-5.5-0.5c-1.3-0.1-2.3-1.2-2.3-2.5c0-1.4,1.1-2.5,2.5-2.5h66.2c1.4,0,2.5,1.1,2.5,2.5c0,1.3-1,2.4-2.3,2.5l-5.5,0.5v123.5
			l1.1,1.5c0,0,5.4,7.8,13.9,20.3c25.5,37.3,79,116.3,97.2,149c1.5,2.7,3.6,8.1,3.5,11.8C299,457.2,296.9,462.2,293.5,465.7z"/>
	</g>
	<g>
		<g>
			<circle fill="#FFFFFF" cx="153.9" cy="100.1" r="13.9"/>
		</g>
		<g>
			<path fill="#FFFFFF" d="M166.1,64.4c0,11.2,9.1,20.2,20.2,20.2c11.2,0,20.2-9.1,20.2-20.2c0-11.2-9.1-20.2-20.2-20.2
				C175.2,44.1,166.1,53.2,166.1,64.4z"/>
		</g>
		<g>
			<path fill="#FFFFFF" d="M105.5,33.5c0,15.3,12.4,27.7,27.7,27.7c15.3,0,27.7-12.4,27.7-27.7c0-15.3-12.4-27.7-27.7-27.7
				C117.9,5.8,105.5,18.2,105.5,33.5z"/>
		</g>
	</g>
</g>
</svg>
