<?xml version="1.0" encoding="utf-8"?>
<!-- Generator: Adobe Illustrator 18.0.0, SVG Export Plug-In . SVG Version: 6.00 Build 0)  -->
<!DOCTYPE svg PUBLIC "-//W3C//DTD SVG 1.1//EN" "http://www.w3.org/Graphics/SVG/1.1/DTD/svg11.dtd">
<svg version="1.1" id="Layer_1" xmlns="http://www.w3.org/2000/svg" xmlns:xlink="http://www.w3.org/1999/xlink" x="0px" y="0px"
	 viewBox="0 0 95.2 24" enable-background="new 0 0 95.2 24" xml:space="preserve">
<g>
	<path fill="#1D77BD" d="M22.7,0.5H1.7C1,0.5,0.4,1,0.4,1.8v20.6c0,0.7,0.6,1.3,1.3,1.3h21.1c0.7,0,1.3-0.6,1.3-1.3V1.8
		C24,1,23.5,0.5,22.7,0.5z M11.7,16.5c0.8,0,1.7-0.3,2-0.4c0.1-0.1,0.2,0.1,0.2,0.1c0.6,1.2,1.4,1.8,1.5,2.1
		c0.1,0.1-0.1,0.2-0.1,0.2c-0.9,0.6-2.5,0.9-3.7,0.9C7.4,19.4,4,16,4,12c0-4.4,3.4-7.5,7.6-7.4c1.7,0,3.3,0.6,4.4,1.3
		c0.3,0.2,0.3,0.3,0.2,0.4c-0.2,0.3-0.9,1.3-1.2,2c0,0-0.1,0.2-0.3,0.1c-0.7-0.5-1.7-0.9-3.2-0.9c-2.4,0-4.3,1.9-4.3,4.5
		C7.1,14.6,9.2,16.5,11.7,16.5z M18.3,16.8c-0.3,0-0.6-0.1-0.9-0.2c-0.8-0.3-1.3-1.1-1.3-1.9c0-1.2,0.9-2.1,2.1-2.1
		c0.3,0,0.6,0.1,0.9,0.2c0.8,0.3,1.3,1.1,1.3,1.9C20.4,15.8,19.5,16.8,18.3,16.8z"/>
	<g>
		<path fill="#1D77BD" d="M28.2,12c0-3.2,2.4-5.4,5.6-5.4c2.3,0,3.6,1.3,4.4,2.6l-1.9,0.9c-0.4-0.8-1.4-1.5-2.5-1.5
			c-1.9,0-3.3,1.5-3.3,3.4c0,2,1.4,3.4,3.3,3.4c1.1,0,2-0.7,2.5-1.5l1.9,0.9c-0.7,1.3-2.1,2.6-4.4,2.6C30.7,17.4,28.2,15.2,28.2,12"
			/>
		<path fill="#1D77BD" d="M39.1,12c0-3.1,2.3-5.4,5.4-5.4c3.2,0,5.5,2.3,5.5,5.4c0,3.1-2.3,5.4-5.5,5.4C41.4,17.4,39.1,15.1,39.1,12
			 M47.7,12c0-2-1.3-3.4-3.2-3.4c-1.9,0-3.2,1.5-3.2,3.4c0,1.9,1.2,3.4,3.2,3.4C46.5,15.4,47.7,13.9,47.7,12"/>
		<polygon fill="#1D77BD" points="59.1,17.2 54.1,10.4 54.1,17.2 51.9,17.2 51.9,6.8 54.1,6.8 59,13.3 59,6.8 61.2,6.8 61.2,17.2 		
			"/>
		<path fill="#1D77BD" d="M63.1,12c0-3.2,2.4-5.4,5.5-5.4c2.3,0,3.6,1.3,4.4,2.6l-1.9,0.9c-0.4-0.8-1.4-1.5-2.5-1.5
			c-1.9,0-3.3,1.5-3.3,3.4c0,2,1.4,3.4,3.3,3.4c1.1,0,2-0.7,2.5-1.5l1.9,0.9c-0.8,1.3-2.1,2.6-4.4,2.6C65.5,17.4,63.1,15.2,63.1,12"
			/>
		<path fill="#1D77BD" d="M74.4,13V6.8h2.3V13c0,1.5,0.8,2.5,2.5,2.5c1.6,0,2.4-1,2.4-2.5V6.8h2.3V13c0,2.6-1.5,4.4-4.7,4.4
			C76,17.4,74.4,15.6,74.4,13"/>
		<path fill="#1D77BD" d="M92,17.2l-2-3.7h-1.6v3.7h-2.2V6.8h4.9c2.2,0,3.5,1.4,3.5,3.4c0,1.8-1.2,2.8-2.3,3.1l2.3,4H92z M92.2,10.1
			c0-0.9-0.7-1.4-1.6-1.4h-2.3v2.8h2.3C91.5,11.5,92.2,11,92.2,10.1"/>
	</g>
</g>
</svg>
