<?xml version="1.0" encoding="utf-8"?>
<!-- Generator: Adobe Illustrator 18.0.0, SVG Export Plug-In . SVG Version: 6.00 Build 0)  -->
<!DOCTYPE svg PUBLIC "-//W3C//DTD SVG 1.1//EN" "http://www.w3.org/Graphics/SVG/1.1/DTD/svg11.dtd">
<svg version="1.1" id="Layer_2" xmlns="http://www.w3.org/2000/svg" xmlns:xlink="http://www.w3.org/1999/xlink" x="0px" y="0px"
	 viewBox="81.5 982 605.6 149.1" enable-background="new 81.5 982 605.6 149.1" xml:space="preserve">
<g>
	<path fill="#FFFFFF" d="M224.9,982h-135c-4.5,0-8.4,3.2-8.4,8.4v132.4c0,4.5,3.9,8.4,8.4,8.4h135.6c4.5,0,8.4-3.9,8.4-8.4V990.4
		C233.2,985.2,230,982,224.9,982z M154.2,1084.9c5.1,0,10.9-1.9,12.9-2.6c0.6-0.6,1.3,0.6,1.3,0.6c3.9,7.7,9,11.6,9.6,13.5
		c0.6,0.6-0.6,1.3-0.6,1.3c-5.8,3.9-16.1,5.8-23.8,5.8c-27,0-48.9-21.9-48.9-47.6c0-28.3,21.9-48.2,48.9-47.6
		c10.9,0,21.2,3.9,28.3,8.4c1.9,1.3,1.9,1.9,1.3,2.6c-1.3,1.9-5.8,8.4-7.7,12.9c0,0-0.6,1.3-1.9,0.6c-4.5-3.2-10.9-5.8-20.6-5.8
		c-15.4,0-27.6,12.2-27.6,28.9C124.6,1072.7,138.1,1084.9,154.2,1084.9z M196.6,1086.8c-1.9,0-3.9-0.6-5.8-1.3
		c-5.1-1.9-8.4-7.1-8.4-12.2c0-7.7,5.8-13.5,13.5-13.5c1.9,0,3.9,0.6,5.8,1.3c5.1,1.9,8.4,7.1,8.4,12.2
		C210.1,1080.4,204.3,1086.8,196.6,1086.8z"/>
	<g>
		<path fill="#FFFFFF" d="M260.2,1056c0-20.6,15.4-34.7,36-34.7c14.8,0,23.1,8.4,28.3,16.7l-12.2,5.8c-2.6-5.1-9-9.6-16.1-9.6
			c-12.2,0-21.2,9.6-21.2,21.9c0,12.9,9,21.9,21.2,21.9c7.1,0,12.9-4.5,16.1-9.6l12.2,5.8c-4.5,8.4-13.5,16.7-28.3,16.7
			C276.3,1090.7,260.2,1076.5,260.2,1056"/>
		<path fill="#FFFFFF" d="M330.3,1056c0-19.9,14.8-34.7,34.7-34.7c20.6,0,35.4,14.8,35.4,34.7s-14.8,34.7-35.4,34.7
			C345.1,1090.7,330.3,1075.9,330.3,1056 M385.6,1056c0-12.9-8.4-21.9-20.6-21.9s-20.6,9.6-20.6,21.9c0,12.2,7.7,21.9,20.6,21.9
			C377.9,1077.8,385.6,1068.2,385.6,1056"/>
		<polygon fill="#FFFFFF" points="458.9,1089.4 426.7,1045.7 426.7,1089.4 412.6,1089.4 412.6,1022.5 426.7,1022.5 458.2,1064.3 
			458.2,1022.5 472.4,1022.5 472.4,1089.4 		"/>
		<path fill="#FFFFFF" d="M484.6,1056c0-20.6,15.4-34.7,35.4-34.7c14.8,0,23.1,8.4,28.3,16.7l-12.2,5.8c-2.6-5.1-9-9.6-16.1-9.6
			c-12.2,0-21.2,9.6-21.2,21.9c0,12.9,9,21.9,21.2,21.9c7.1,0,12.9-4.5,16.1-9.6l12.2,5.8c-5.1,8.4-13.5,16.7-28.3,16.7
			C500,1090.7,484.6,1076.5,484.6,1056"/>
		<path fill="#FFFFFF" d="M557.2,1062.4v-39.9H572v39.9c0,9.6,5.1,16.1,16.1,16.1c10.3,0,15.4-6.4,15.4-16.1v-39.9h14.8v39.9
			c0,16.7-9.6,28.3-30.2,28.3C567.5,1090.7,557.2,1079.1,557.2,1062.4"/>
		<path fill="#FFFFFF" d="M670.4,1089.4l-12.9-23.8h-10.3v23.8h-14.1v-66.9h31.5c14.1,0,22.5,9,22.5,21.9c0,11.6-7.7,18-14.8,19.9
			l14.8,25.7h-16.7V1089.4z M671.7,1043.7c0-5.8-4.5-9-10.3-9h-14.8v18h14.8C667.2,1052.7,671.7,1049.5,671.7,1043.7"/>
	</g>
</g>
</svg>
