<?xml version="1.0" encoding="utf-8"?>
<!-- Generator: Adobe Illustrator 18.0.0, SVG Export Plug-In . SVG Version: 6.00 Build 0)  -->
<!DOCTYPE svg PUBLIC "-//W3C//DTD SVG 1.1//EN" "http://www.w3.org/Graphics/SVG/1.1/DTD/svg11.dtd">
<svg version="1.1" id="Layer_1" xmlns="http://www.w3.org/2000/svg" xmlns:xlink="http://www.w3.org/1999/xlink" x="0px" y="0px"
	 viewBox="0 0 21.3 17.8" enable-background="new 0 0 21.3 17.8" xml:space="preserve">
<path fill-rule="evenodd" clip-rule="evenodd" fill="#A7A9AC" d="M21.3,1.7c0,0.9-0.8,1.7-1.7,1.7h-18C0.8,3.4,0,2.6,0,1.7l0,0
	C0,0.8,0.8,0,1.7,0h18C20.6,0,21.3,0.8,21.3,1.7L21.3,1.7z"/>
<path fill-rule="evenodd" clip-rule="evenodd" fill="#A7A9AC" d="M21.3,8.8c0,0.9-0.8,1.7-1.7,1.7h-18C0.8,10.5,0,9.8,0,8.8l0,0
	c0-0.9,0.8-1.7,1.7-1.7h18C20.6,7.1,21.3,7.9,21.3,8.8L21.3,8.8z"/>
<path fill-rule="evenodd" clip-rule="evenodd" fill="#A7A9AC" d="M21.3,16.1c0,0.9-0.8,1.7-1.7,1.7h-18c-0.9,0-1.7-0.8-1.7-1.7l0,0
	c0-0.9,0.8-1.7,1.7-1.7h18C20.6,14.4,21.3,15.2,21.3,16.1L21.3,16.1z"/>
</svg>
